<svg xmlns="http://www.w3.org/2000/svg" width="159" height="80" fill="none" viewBox="0 0 159 80">
  <path fill="#000" d="M24.968 21.563c-.808.175-5.13 1.637-7.329 2.487-4.124 1.613-6.248 3.45-6.534 5.65-.074.625-.1.65-.658.9a7.595 7.595 0 0 1-1.938.587c-.87.15-3.652.088-5.863-.137-2.075-.213-2.15-.213-2.398.012-.136.125-.248.325-.248.45 0 .488.398.588 6.05 1.575.223.038.41.113.41.15 0 .05-.845.588-1.876 1.188-2.348 1.388-2.41 1.438-2.298 1.863.099.437.385.5 1.23.275 1.006-.263 1.763-.675 3.714-2.026 1.987-1.362 3.167-1.962 4.422-2.224 1.13-.238 1.726-.238 4 0 4.98.5 9.54 1.437 13.105 2.7 5.627 1.974 7.887 4.087 12.471 11.637 1.466 2.425 2.348 3.688 3.54 5.075a16.857 16.857 0 0 0 7.379 5.012c5.105 1.713 10.894.5 14.21-2.962.982-1.025 1.466-1.788 2.597-4.063 1.714-3.45 2.509-4.55 3.95-5.512 1.342-.9 2.435-1.263 3.801-1.25 2.012.025 3.789.75 5.677 2.313.584.487 2.124 2.075 3.416 3.525 3.304 3.7 3.962 4.275 6.372 5.562 2.31 1.25 4.894 1.925 7.33 1.938 1.788 0 3.018-.25 4.806-.975 2.125-.863 3.243-1.688 6.36-4.726 3.23-3.137 4.46-4.025 6.721-4.812 4.099-1.438 8.136-.375 12.012 3.15.36.325 1.316 1.413 2.124 2.425 3.416 4.237 6.298 6.262 10.086 7.05.994.212 1.491.238 3.168.188 2.174-.075 3.428-.263 5.478-.85 1.503-.413 3.702-1.425 4.907-2.25 1.776-1.188 3.378-3.276 3.726-4.8.174-.776 0-1.5-.459-2.063-.696-.825-1.243-.888-4.646-.563-4.087.388-5.702.463-7.068.326-2.447-.238-3.64-.713-6.037-2.388-2.025-1.4-3.292-2.45-6.211-5.125-3.702-3.4-5.453-4.75-7.652-5.925-3.056-1.638-6.832-2.525-9.403-2.213-2.82.35-5.006 1.526-7.851 4.213-3.503 3.313-4.199 3.9-5.379 4.487-.621.313-1.702.713-2.385.9-1.093.288-1.478.325-3.23.325-2.434.013-3.54-.237-5.626-1.224-2.224-1.076-3.02-1.7-6.547-5.188-3.85-3.813-4.695-4.462-7.08-5.413-2.273-.912-5.13-.875-7.714.076-2.062.762-4.236 2.437-7.441 5.725-.882.912-2.037 1.974-2.547 2.35-1.875 1.412-3.838 2.137-5.75 2.137-1.392 0-1.988-.15-3.38-.813-2.173-1.05-3.689-2.674-5.353-5.724-.522-.976-1.267-2.338-1.64-3.026-2.062-3.8-4.025-5.762-7.553-7.537-2.322-1.162-5.155-2.075-7.701-2.462-1.49-.226-4.162-.226-5.267 0Zm6.149 1.762c3.391.575 7.254 2.538 9.552 4.85 1.106 1.113 1.913 2.238 2.957 4.137 2.944 5.363 3.403 6.038 5.105 7.638 4.012 3.775 9.378 3.975 14.248.537.51-.362 2.074-1.787 3.478-3.175 1.404-1.374 2.882-2.774 3.304-3.087 1.839-1.413 3.553-2.075 5.727-2.188 1.267-.062 1.466-.05 2.484.263 2.31.725 3.379 1.525 7.118 5.325 3.03 3.087 4.509 4.288 6.534 5.25 4.484 2.138 10.397 2.188 13.925.087 1.391-.812 2.658-1.85 4.757-3.875 2.236-2.162 2.994-2.775 4.249-3.45 1.49-.8 2.521-1.062 4.26-1.062 1.64 0 2.758.2 4.534.825 2.758.975 5.13 2.575 8.745 5.9 4.882 4.475 6.261 5.613 8.223 6.7 1.628.913 3.628 1.7 5.292 2.087 1.205.288 1.69.338 3.391.338 1.715 0 2.286-.05 4.1-.387 3.304-.613 3.416-.625 3.888-.225.248.212.397.45.397.637 0 1.212-2.335 3.2-5.403 4.6l-1.367.625-1.428-.012c-2.895-.025-6.211-1.063-9.006-2.825-1.665-1.038-2.857-2.05-5.987-5.1-1.553-1.526-3.392-3.213-4.075-3.776-3.23-2.625-6-3.825-9.664-4.212-2.497-.275-4.956.225-6.931 1.4-1.181.7-3.007 2.475-4.895 4.725-3.018 3.612-4.559 4.837-6.981 5.525-.795.225-1.267.275-2.708.263-2.074-.013-3.155-.25-4.844-1.088-2.112-1.05-3.565-2.363-6.907-6.263-2.969-3.45-4.347-4.674-6.46-5.674-1.676-.813-2.36-.95-4.645-.95-2.36 0-3.106.162-4.969 1.062-2.397 1.163-3.863 2.625-7.167 7.087-2.323 3.15-3.416 4.425-4.472 5.225-1.702 1.3-3.28 1.776-5.44 1.65-3.106-.175-4.672-1.512-7.752-6.675-1.106-1.862-2.1-3.2-3.006-4.037-.87-.8-2.783-2.188-3.826-2.775-.398-.225-1.304-.95-2.012-1.613-2.572-2.412-5.143-3.762-8.932-4.712-1.739-.438-4.596-.975-5.838-1.087-2.969-.263-6.26-.788-7.727-1.213-1.64-.475-2.198-1.325-1.465-2.2 1.466-1.75 9.341-4.862 13.478-5.325.745-.087 2.993.05 4.16.25Zm47.489 15.688c.497.125 1.155.337 1.453.474.696.313 2.298 1.35 2.298 1.488 0 .063-.286.35-.633.65l-.634.538-1.379-.488c-1.391-.487-1.403-.487-3.254-.475-1.33 0-2.025.063-2.447.2l-.584.2-1.069-.788a34.162 34.162 0 0 1-1.142-.862c-.087-.088 1.13-.625 2-.875 1.602-.475 3.676-.5 5.39-.063Zm-7.416 2.3c.51.387.931.737.944.787.012.05-.199.225-.472.4-.808.5-2.224 2.112-2.944 3.35l-.671 1.137-.633-.25c-1.156-.462-1.889-.775-1.988-.862-.286-.25 4.174-5.25 4.67-5.25.1 0 .584.313 1.094.688Zm50.669-.25c1.031.2 1.975.462 2.658.75l.435.187-.51.875c-.36.65-.559.862-.708.825-1.739-.513-5.316-.4-7.08.237l-.534.188-1.131-.625c-1.764-.95-1.714-.888-1.006-1.337 1.044-.663 2.398-1.138 3.838-1.338.671-.1 3.081.05 4.038.237Zm-80.37.887c1.044.825 1.54 1.3 2.186 2.112l.584.738-.484.225a2.941 2.941 0 0 1-.671.225c-.1 0-.41-.413-.683-.9a44.329 44.329 0 0 0-1.218-2c-.757-1.2-.757-1.212.286-.4Zm43.005.95a93.287 93.287 0 0 1 2.273 2.6c.67.788 1.329 1.563 1.466 1.712.236.263.236.263-.137.463-.211.113-.41.2-.422.2-.025 0-.497-.513-1.031-1.138-1.143-1.312-2.795-2.812-3.814-3.462-.397-.262-.708-.487-.708-.525 0-.075 1.143-1 1.242-1 .037 0 .547.525 1.13 1.15Zm42.619.25c1.516.925 2.845 2.025 4.857 3.988l1.727 1.687-.559.337-.559.325-1.491-1.474c-1.615-1.6-3.329-2.838-4.844-3.5-.485-.213-.945-.388-1.019-.388-.075 0-.137-.038-.137-.075 0-.125.808-1.55.882-1.55.037 0 .559.3 1.143.65Zm-13.353.938 1.043.562-1.106.712c-1.378.9-2.31 1.688-4.285 3.6-.857.85-1.603 1.538-1.64 1.538-.112 0-1.068-.65-1.068-.725 0-.025.323-.4.72-.825a61.654 61.654 0 0 0 2.013-2.338c1.962-2.337 2.869-3.262 3.093-3.175.112.038.658.338 1.23.65ZM45.899 47.5c.534.888 1.28 2.025 1.64 2.513.708.95.708 1.012.062 1.4l-.373.212-.795-.962c-1.118-1.35-2.956-4.2-2.82-4.35.112-.1.932-.413 1.118-.425.124-.013.547.575 1.168 1.612Zm21.278.325.41.162-.521 1.038c-.547 1.1-1.218 2.113-1.876 2.875l-.41.462-1.578-.812c-.881-.45-1.59-.837-1.59-.875 0-.05.261-.362.572-.725.323-.35.994-1.213 1.515-1.9l.92-1.262 1.08.425a76.05 76.05 0 0 1 1.478.612Zm23.068 1.4c1.578 1.487 3.515 2.625 5.292 3.1.434.125.832.25.894.3.075.063-.1 1.35-.199 1.45-.087.087-1.577-.438-2.323-.825-1.465-.737-2.534-1.538-4.037-3.013l-1.478-1.45.36-.2c.212-.112.423-.2.485-.212.05 0 .509.375 1.006.85Zm45.377 1.413c1.292 1.224 3.006 2.575 4.149 3.262l.845.5-.373.525c-.795 1.088-.596 1.038-1.739.438-.696-.363-1.354-.85-2.062-1.513-1.28-1.225-3.267-3.5-3.093-3.563.074-.024.348-.175.621-.35.273-.162.522-.312.546-.312.025 0 .522.45 1.106 1.013Zm-29.216 1.175c-1.801 1.624-4.584 2.562-7.59 2.562h-1.453l.074-.6c.162-1.063.137-1.05.857-.962.907.112 3.031-.15 4.137-.513 1.056-.35 1.826-.725 2.72-1.337l.621-.425.597.387.596.388-.559.5Zm-44.11.512 1.565.825-.658.488c-1.18.862-2.733 1.55-4.137 1.837-1.553.325-1.391.387-1.876-.675-.236-.512-.422-.987-.422-1.037 0-.063.298-.2.658-.325.857-.276 1.876-.826 2.634-1.438.348-.263.633-.487.646-.487.024-.013.733.362 1.59.812Zm-12.484.063c1.23.937 2.993 1.487 4.795 1.487h1.006l.186.462c.112.263.286.688.398.963l.21.475-.782-.087c-1.428-.163-3.105-.675-4.509-1.363-1.28-.638-2.92-1.713-2.92-1.913 0-.175.808-.637.933-.537.074.05.372.288.683.513Zm92.332 2.762c.496.263 3.093 1.1 3.888 1.25.434.075.757.188.72.25-.037.05-.857.1-1.826.1-1.689 0-2.832-.112-3.851-.388l-.472-.125.472-.612c.497-.65.634-.712 1.069-.475Z"/>
  <path fill="#000" d="M23.726 25.238c-.596.312-.845.825-.609 1.237.472.85 1.727 1.1 2.633.537 1.516-.937-.41-2.65-2.024-1.774Z"/>
</svg>
