<svg xmlns="http://www.w3.org/2000/svg" width="159" height="38" fill="none" viewBox="0 0 159 38">
  <path fill="#000" d="M22 3h5v4h-5z"/>
  <path fill="#000" d="M24.968.169c-.808.175-5.13 1.637-7.329 2.487-4.124 1.613-6.248 3.45-6.534 5.65-.074.625-.1.65-.658.9a7.595 7.595 0 0 1-1.938.588c-.87.15-3.652.087-5.863-.138C.57 9.444.496 9.444.248 9.67c-.136.125-.248.325-.248.45 0 .487.398.587 6.05 1.575.223.037.41.112.41.15 0 .05-.845.587-1.876 1.187-2.348 1.388-2.41 1.438-2.298 1.863.099.437.385.5 1.23.275 1.006-.263 1.763-.675 3.714-2.025 1.987-1.363 3.167-1.963 4.422-2.225 1.13-.238 1.726-.238 4 0 4.98.5 9.54 1.437 13.105 2.7 5.627 1.975 7.887 4.087 12.471 11.637 1.466 2.425 2.348 3.688 3.54 5.075a16.857 16.857 0 0 0 7.379 5.013c5.105 1.712 10.894.5 14.21-2.963.982-1.025 1.466-1.787 2.597-4.062 1.714-3.45 2.509-4.55 3.95-5.513 1.342-.9 2.435-1.262 3.801-1.25 2.012.025 3.789.75 5.677 2.313.584.487 2.124 2.075 3.416 3.525 3.304 3.7 3.962 4.275 6.372 5.562 2.31 1.25 4.894 1.925 7.33 1.938 1.788 0 3.018-.25 4.806-.975 2.125-.863 3.243-1.688 6.36-4.725 3.23-3.138 4.46-4.025 6.721-4.813 4.099-1.437 8.136-.375 12.012 3.15.36.325 1.316 1.413 2.124 2.425 3.416 4.238 6.298 6.263 10.086 7.05.994.213 1.491.238 3.168.188 2.174-.075 3.428-.263 5.478-.85 1.503-.413 3.702-1.425 4.907-2.25 1.776-1.188 3.378-3.275 3.726-4.8.174-.775 0-1.5-.459-2.063-.696-.825-1.243-.887-4.646-.562-4.087.387-5.702.462-7.068.325-2.447-.238-3.64-.713-6.037-2.388-2.025-1.4-3.292-2.45-6.211-5.125-3.702-3.4-5.453-4.75-7.652-5.925-3.056-1.637-6.832-2.525-9.403-2.212-2.82.35-5.006 1.525-7.851 4.212-3.503 3.313-4.199 3.9-5.379 4.488-.621.312-1.702.712-2.385.9-1.093.287-1.478.325-3.23.325-2.434.012-3.54-.238-5.626-1.225-2.224-1.075-3.02-1.7-6.547-5.188-3.85-3.812-4.695-4.462-7.08-5.412-2.273-.913-5.13-.875-7.714.075-2.062.762-4.236 2.437-7.441 5.725-.882.912-2.037 1.975-2.547 2.35-1.875 1.412-3.838 2.137-5.75 2.137-1.392 0-1.988-.15-3.38-.812-2.173-1.05-3.689-2.675-5.353-5.725-.522-.975-1.267-2.338-1.64-3.025-2.062-3.8-4.025-5.763-7.553-7.538C35.614 1.47 32.781.556 30.235.17c-1.49-.225-4.162-.225-5.267 0Zm6.149 1.762c3.391.575 7.254 2.538 9.552 4.85 1.106 1.113 1.913 2.238 2.957 4.138 2.944 5.362 3.403 6.037 5.105 7.637 4.012 3.775 9.378 3.975 14.248.538.51-.363 2.074-1.788 3.478-3.175 1.404-1.375 2.882-2.775 3.304-3.088 1.839-1.412 3.553-2.075 5.727-2.187 1.267-.063 1.466-.05 2.484.262 2.31.725 3.379 1.525 7.118 5.325 3.03 3.088 4.509 4.288 6.534 5.25 4.484 2.138 10.397 2.188 13.925.088 1.391-.813 2.658-1.85 4.757-3.875 2.236-2.163 2.994-2.775 4.249-3.45 1.49-.8 2.521-1.063 4.26-1.063 1.64 0 2.758.2 4.534.825 2.758.975 5.13 2.575 8.745 5.9 4.882 4.475 6.261 5.613 8.223 6.7 1.628.913 3.628 1.7 5.292 2.088 1.205.287 1.69.337 3.391.337 1.715 0 2.286-.05 4.1-.387 3.304-.613 3.416-.625 3.888-.225.248.212.397.45.397.637 0 1.213-2.335 3.2-5.403 4.6l-1.367.625-1.428-.012c-2.895-.025-6.211-1.063-9.006-2.825-1.665-1.038-2.857-2.05-5.987-5.1-1.553-1.525-3.392-3.213-4.075-3.775-3.23-2.625-6-3.825-9.664-4.213-2.497-.275-4.956.225-6.931 1.4-1.181.7-3.007 2.475-4.895 4.725-3.018 3.613-4.559 4.838-6.981 5.525-.795.225-1.267.275-2.708.263-2.074-.013-3.155-.25-4.844-1.088-2.112-1.05-3.565-2.362-6.907-6.262-2.969-3.45-4.347-4.675-6.46-5.675-1.676-.813-2.36-.95-4.645-.95-2.36 0-3.106.162-4.969 1.062-2.397 1.163-3.863 2.625-7.167 7.088-2.323 3.15-3.416 4.425-4.472 5.225-1.702 1.3-3.28 1.775-5.44 1.65-3.106-.175-4.672-1.513-7.752-6.675-1.106-1.863-2.1-3.2-3.006-4.038-.87-.8-2.783-2.187-3.826-2.775-.398-.225-1.304-.95-2.012-1.612-2.572-2.413-5.143-3.763-8.932-4.713-1.739-.437-4.596-.975-5.838-1.087-2.969-.263-6.26-.788-7.727-1.213-1.64-.475-2.198-1.325-1.465-2.2 1.466-1.75 9.341-4.862 13.478-5.325.745-.087 2.993.05 4.16.25ZM78.606 17.62c.497.125 1.155.337 1.453.475.696.312 2.298 1.35 2.298 1.487 0 .063-.286.35-.633.65l-.634.538-1.379-.488c-1.391-.487-1.403-.487-3.254-.475-1.33 0-2.025.063-2.447.2l-.584.2-1.069-.787a34.007 34.007 0 0 1-1.142-.863c-.087-.087 1.13-.625 2-.875 1.602-.475 3.676-.5 5.39-.062Zm-7.416 2.3c.51.387.931.737.944.787.012.05-.199.225-.472.4-.808.5-2.224 2.113-2.944 3.35l-.671 1.138-.633-.25c-1.156-.463-1.889-.775-1.988-.863-.286-.25 4.174-5.25 4.67-5.25.1 0 .584.313 1.094.688Zm50.669-.25c1.031.2 1.975.462 2.658.75l.435.187-.51.875c-.36.65-.559.863-.708.825-1.739-.512-5.316-.4-7.08.238l-.534.187-1.131-.625c-1.764-.95-1.714-.887-1.006-1.337 1.044-.663 2.398-1.138 3.838-1.338.671-.1 3.081.05 4.038.238Zm-80.37.887c1.044.825 1.54 1.3 2.186 2.113l.584.737-.484.225a2.891 2.891 0 0 1-.671.225c-.1 0-.41-.412-.683-.9a44.329 44.329 0 0 0-1.218-2c-.757-1.2-.757-1.212.286-.4Zm43.005.95a93.287 93.287 0 0 1 2.273 2.6c.67.788 1.329 1.563 1.466 1.713.236.262.236.262-.137.462-.211.113-.41.2-.422.2-.025 0-.497-.512-1.031-1.137-1.143-1.313-2.795-2.813-3.814-3.463-.397-.262-.708-.487-.708-.525 0-.075 1.143-1 1.242-1 .037 0 .547.525 1.13 1.15Zm42.619.25c1.516.925 2.845 2.025 4.857 3.988l1.727 1.687-.559.338-.559.325-1.491-1.475c-1.615-1.6-3.329-2.838-4.844-3.5-.485-.213-.945-.388-1.019-.388-.075 0-.137-.037-.137-.075 0-.125.808-1.55.882-1.55.037 0 .559.3 1.143.65Zm-13.353.938 1.043.562-1.106.713c-1.378.9-2.31 1.687-4.285 3.6-.857.85-1.603 1.537-1.64 1.537-.112 0-1.068-.65-1.068-.725 0-.025.323-.4.72-.825a61.637 61.637 0 0 0 2.013-2.337c1.962-2.338 2.869-3.263 3.093-3.175.112.037.658.337 1.23.65Zm-67.861 3.412c.534.888 1.28 2.025 1.64 2.513.708.95.708 1.012.062 1.4l-.373.212-.795-.962c-1.118-1.35-2.956-4.2-2.82-4.35.112-.1.932-.413 1.118-.425.124-.013.547.575 1.168 1.612Zm21.278.325.41.163-.521 1.037c-.547 1.1-1.218 2.113-1.876 2.875l-.41.463-1.578-.813c-.881-.45-1.59-.837-1.59-.875 0-.05.261-.362.572-.725.323-.35.994-1.212 1.515-1.9l.92-1.262 1.08.425a76.05 76.05 0 0 1 1.478.612Zm23.068 1.4c1.578 1.488 3.515 2.625 5.292 3.1.434.125.832.25.894.3.075.063-.1 1.35-.199 1.45-.087.088-1.577-.437-2.323-.825-1.465-.737-2.534-1.537-4.037-3.012l-1.478-1.45.36-.2c.212-.113.423-.2.485-.213.05 0 .509.375 1.006.85Zm45.377 1.413c1.292 1.225 3.006 2.575 4.149 3.262l.845.5-.373.525c-.795 1.088-.596 1.038-1.739.438-.696-.363-1.354-.85-2.062-1.513-1.28-1.225-3.267-3.5-3.093-3.562.074-.025.348-.175.621-.35.273-.163.522-.313.546-.313.025 0 .522.45 1.106 1.013Zm-29.216 1.175c-1.801 1.625-4.584 2.562-7.59 2.562h-1.453l.074-.6c.162-1.062.137-1.05.857-.962.907.112 3.031-.15 4.137-.513 1.056-.35 1.826-.725 2.72-1.337l.621-.425 1.193.775-.559.5Zm-44.11.512 1.565.825-.658.488c-1.18.862-2.733 1.55-4.137 1.837-1.553.325-1.391.388-1.876-.675-.236-.512-.422-.987-.422-1.037 0-.063.298-.2.658-.325.857-.275 1.876-.825 2.634-1.438.348-.262.633-.487.646-.487.024-.013.733.362 1.59.812Zm-12.484.063c1.23.937 2.993 1.487 4.795 1.487h1.006l.186.463c.112.262.286.687.398.962l.21.475-.782-.087c-1.428-.163-3.105-.675-4.509-1.363-1.28-.637-2.92-1.712-2.92-1.912 0-.175.808-.638.933-.538.074.05.372.288.683.513Zm92.332 2.762c.496.263 3.093 1.1 3.888 1.25.434.075.757.188.72.25-.037.05-.857.1-1.826.1-1.689 0-2.832-.112-3.851-.387l-.472-.125.472-.613c.497-.65.634-.712 1.069-.475Z"/>
  <path fill="#fff" d="M23.726 3.844c-.596.312-.845.825-.609 1.237.472.85 1.727 1.1 2.634.538 1.515-.938-.41-2.65-2.025-1.775Z"/>
  <path stroke="#000" stroke-linecap="round" stroke-width="3" d="M33.809 6.786c.2.188.446.225.66.383.067.05.079.148.117.218.05.092.14.134.202.213.077.098.256.219.266.346.01.139-.027.289.058.412.127.184.337.03.487.133.123.085.21.127.354.2.105.053.215.046.325.08.174.053.253.217.383.33.184.158.446.182.67.25.235.07.481.196.548.481.082.347.339.653.62.878.149.12.206.266.333.402.08.085.232.19.244.303.053.472.434.657.767.878M27.2 9.611c.53-.083 1.08-.118 1.57.107.2.092.341.222.548.309.353.147.647.37.987.54.59.295 1.143.68 1.735.981a6.77 6.77 0 0 0 1.465.559c.186.045.356.06.533.138.35.153.722.23 1.064.394.285.137.471.422.737.601.258.175.939.475.939.844 0 .037.02.186-.032.2-.149.035-.481-.163-.572-.208-.515-.256-1.01-.552-1.509-.836-.53-.3-1.062-.683-1.614-.941-.546-.256-1.212-.334-1.786-.517-.616-.196-1.189-.497-1.79-.731-.335-.131-.666-.09-1.019-.101-.463-.015-.923-.153-1.378-.237-.404-.075-.576-.27-.832-.56l-.003-.004c-.344-.39-.717-.441-1.213-.607-.449-.15-.831-.273-1.29-.346-.412-.064-.77-.249-1.158-.383-.303-.104-.629-.126-.945-.162-.573-.065-1.003-.24-1.521-.463a4.404 4.404 0 0 0-1.264-.322c-.28-.034-.415-.067-.633-.223-.419-.3-.924-.331-1.416-.4a8.466 8.466 0 0 1-1.348-.327c-.133-.04-.315-.118-.46-.077-.205.059.024.49-.312.52-.1.008-.104.031-.183.076-.127.072-.308.048-.447.07-.05.007.204.267.231.303.062.08.113.206.21.25.162.073.306.168.469.245.635.298 1.346.387 2.021.558.515.13 1.046.128 1.575.128.25 0 .532-.039.777.013.47.1.913.23 1.394.296a8.65 8.65 0 0 1 1.509.327c.225.073.47.047.702.117.443.132.948.37 1.418.394.352.018.638.242.974.242m1.197.335c.012-.34.162-.306.287-.57.412-.865.429-1.866.777-2.75.107-.27.3-.447.458-.676.13-.19.162-.453.247-.665.188-.469.624-.702.897-1.123.15-.23.324-.463.452-.708.087-.168.183-.335.266-.505.016-.033.029-.061.038-.084m0 0c.038-.094.025-.1 0 0Zm0 0a1.56 1.56 0 0 0-.022.105c-.107.597-.205 1.21-.234 1.815-.021.445-.116.86-.17 1.303-.055.443-.012.938-.128 1.368-.11.408-.288.811-.516 1.165-.055.084-.057.175-.101.26-.106.205-.06-.456-.07-.686a58.942 58.942 0 0 1-.074-2.655c0-.293.253-.527.399-.76.141-.227.177-.43.415-.533m-13.217.431c.919 0 1.837.163 2.759.186.767.02 1.486-.015 2.006.618.188.229.82.325.838.68.014.258-.13.892.106 1.033.137.082.433.021.588.021.21 0 .39.096.594.096h2.3c.248 0 .46.096.711.096.232 0 .434.096.681.096m.814-5.747c.32.39.431.667.431 1.15 0 .27.144.426.144.696 0 .258.096.486.096.73 0 .4.597.13.76.005.243-.185.364-.468.52-.721.156-.256.35-.495.515-.748.196-.298.412-.646.652-.918m0 0 .043-.048c.1-.108.264-.215.423-.135.101.05.01.154-.061.17-.127.028-.27.019-.405.013Zm0 0a2.804 2.804 0 0 0-.111-.002h-1.35c-.087 0-.25-.005-.076-.048m18.11 17.696c-.589-.122-1.436-.552-1.436-1.258 0-.525-.754-.652-.773-1.061a2.557 2.557 0 0 0-.063-.449m0 0c-.187-.822-.71-1.543-.71-2.483v-1.791c0 .752.039 1.02.558 1.54.205.204.64.55.657.864.016.304-.05.639.178.884.28.302.435.645.601 1.006m-1.284-.02c.351-.024.982-.1 1.284.02m-1.284-.02c-.06.005-.111.007-.152.007-.437 0-.854-.098-1.282-.11-.54-.015-.829-.552-1.27-.552-.358 0-.674-.11-1.012-.11-.227 0-.523.06-.693-.123-.197-.213-.31-.32-.607-.32-.328 0-.898.349-.258.436.75.102 2.388-.127 2.846.669.265.46.621.611 1 .932.356.302.945.547 1.172.945.326.57.245.773-.454.773a1.56 1.56 0 0 1-1.104-.442c-.3-.3-.666-.285-.994-.613-.324-.324-.76-.543-.994-.933m5.086-.539c.102.22.208.447.35.674.299.481.74.877 1.018 1.356.746 1.289 1.651 2.578 2.711 3.638.907.907 1.997 1.472 3.11 2.06l.303.163m-7.492-7.89c.055.02.099.049.129.084.319.383.641 1.015 1.134 1.203.273.104.515-.073.718.202.3.406.997 1.325 1.51 1.368.516.043.617.23 1.036.49.361.227.796.248 1.14.504.374.276.623.3.805.773.409 1.066.722 2.164 1.02 3.266m0 0c.311.17.619.35.906.555.285.206 1.068.545 1.177.902.03.096-1.61.306-1.803-.41l-.28-1.047Zm-7.758-6.174c.201.304.232.697.479.957.193.204.402.487.43.777.037.363.184.637.385.914m0 0c.058.08.12.159.185.24.117.148.24.297.351.448.113.152.24.231.377.331m-.913-1.019c.164.15.337.291.488.454.158.169.293.367.425.565m-.913-1.019a3.367 3.367 0 0 1-.23-.227c-.127-.141-.238-.475-.404-.58-.227-.145-.446-.215-.639-.42a2.253 2.253 0 0 0-.362-.31 1.015 1.015 0 0 0-.606-.202c-.125-.004-.497-.102-.224.107.16.121.162.54.245.707.05.1.202.22.208.336.004.099-.03.235.02.324.077.135.216.386.347.468.215.136.319.303.5.5.13.142.124.405.282.554.169.16.181.37.298.575.145.253.382.486.543.74.569.896.988 2.076 2.013 2.532.232.103.442.418.6.628.148.199.415.145.523.415.209.522.628 1.09 1.096 1.402.17.113.347.194.551.194.252 0 .428.24.644.24.317 0 .682.125.987.215.286.084.606.12.904.12.56 0 1.252.064 1.703-.33.064-.056.128-.047.2-.083.125-.062.207-.209.337-.252.123-.041.288-.028.397-.107.112-.082.214-.191.33-.276.106-.079.237-.107.335-.2a.457.457 0 0 0 .034-.036M48.275 23c.042.03.085.063.129.1.306.257.531.601.835.856.155.13.334.2.479.346.074.074.132.158.187.242M48.275 23c.103.154.205.31.315.45.248.32.61.61.926.858.123.096.255.168.389.236m0 0c.061.094.12.189.196.274.235.264.47.461.681.756.31.433.735.634 1.224.814l.044.017m-2.145-1.86c.176.089.354.17.515.29.191.14.389.283.575.43.39.308.734.745 1.055 1.14m0 0c.377.151.614.42.924.685.136.117.297.157.431.261.242.189.446.447.735.57.195.082.708.007.766.297.006.03-.38.023-.41.022-.418-.016-.842-.208-1.197-.415-.308-.18-.632-.4-.825-.708-.12-.192-.179-.414-.324-.59l-.1-.122Zm5.944 2.61c.066-.078.11-.175.187-.251.11-.11.11-.273.175-.407.062-.128.164-.24.216-.37.04-.102.09-.288.194-.346.146-.082.233-.12.33-.266.018-.027.299-.366.325-.327.093.14.008.587.008.758 0 .466-.102.834-.56 1.016-.145.059-.234.17-.4.181-.15.01-.318.021-.475.012Zm0 0a1.426 1.426 0 0 1-.16-.017c-.21-.036-.386-.3-.529-.437-.34-.327-.674-.659-1.01-.99-.238-.232-.575-.448-.756-.728-.152-.234-.137-.514-.18-.78-.039-.229-.126-.433-.196-.647m0 0a2.547 2.547 0 0 1-.058-.201c-.055-.235-.034-.485-.034-.724 0-.466.117-.896.197-1.351.086-.497.864-.772 1.07-.205.14.39.149.815.27 1.21.06.193.255.346.277.543.036.31.074.692-.138.94-.163.189-.218.53-.431.667-.356.229-.659-.255-.809-.484a2.129 2.129 0 0 0-.344-.395Zm0 0c-.064-.06-.13-.118-.199-.18-.353-.318-.542-.652-.7-1.099a2.49 2.49 0 0 1-.151-.872c0-.314-.048-.63-.048-.937 0-.074-.004-.461.048-.41m4.214 7.902c.467-.442.935-.846 1.352-1.341.26-.31.527-.621.75-.96.131-.2.201-.445.343-.636.22-.297.241-.643.402-.963.052-.105.112-.2.174-.294m0 0c.118-.18.242-.352.331-.563.29-.687.682-1.521 1.203-2.07.439-.462.885-.913 1.303-1.4.538-.624.892-1.29 1.277-2.026.07-.134.212-.538.229-.389.07.638-.209 1.247-.527 1.775-.595.989-1.187 2.035-1.875 2.963-.195.263-.437.574-.7.78-.129.1-.297.094-.431.218-.259.24-.444.51-.764.686a3.026 3.026 0 0 1-.046.026Zm0 0c-.872.457-1.952.434-2.904.624-.385.076-.77.16-1.16.204-.2.023-.301.022-.39-.17-.112-.236-.14-.528-.146-.808m0 0a7.485 7.485 0 0 1-.001-.163m.001.163c.082-.05.42-.304.478-.344.36-.254.663-.574.957-.901m-1.435 1.245a.06.06 0 0 1-.017.007.33.33 0 0 1 .016-.17m0 0v-.191c0-.354.436-.59.68-.783.177-.138.381-.261.536-.425.198-.21.315-.483.5-.705.106-.128.224-.317.401-.333.477-.042.83-.085 1.198-.404.084-.074.17-.144.256-.21m-3.571 3.05c.068-.212.285-.467.39-.595.256-.308.66-.42 1.046-.486m2.135-1.97.145-.107m-.145.108c.004.005.009.01.013.017m-.013-.017a.556.556 0 0 0-.117-.106m.262-.002c.303-.216.623-.39.987-.51m-.987.51-.226.001h-.036m.262-.001.056-.001m.931-.509.128-.04c.504-.145 1.127-.177 1.511-.582.346-.364.492-.854.873-1.2.3-.273.568-.375.731-.758.098-.23.358-.915.205-.718-.081.104-.117.266-.186.38-.13.213-.31.397-.479.58-.376.406-.786.778-1.17 1.176-.299.309-.587.622-.958.846-.209.126-.436.212-.655.316Zm0 0a2.72 2.72 0 0 0-.25.134c-.22.134-.461.24-.68.375m0 0a2.408 2.408 0 0 0-.189.126m.188-.126c.254-.006.501-.029.737-.147.864-.432 1.942-.576 2.711-1.168.301-.231.448-.54.585-.883m-4.22 2.324c-.175.128-.337.273-.52.384-.434.265-.76.622-1.115.998-.175.185-.343.379-.514.57m2.148-1.952a.842.842 0 0 1 .05.07c.11.175.166.431.415.431.099 0 .185-.017.263.051.187.161.366.346.594.45.027.012.14.018.16.058a.5.5 0 0 1 0 .266c-.081.25-.512.255-.727.271-.26.02-.52.085-.774.102a25.592 25.592 0 0 0-2.13.253m2.02-2.075c-.178-.12-.388-.094-.638-.094-.436 0-.865-.096-1.309-.096-.253 0-.56.03-.8.107-.282.09.587.084.883.085.62.001 1.242.004 1.863-.002Zm16.466-9.623c-.1.126-.157.27-.214.413m0 0c-.06.149-.12.296-.228.422-.42.485-1.171.7-1.74.955a3.89 3.89 0 0 0-.332.174m2.3-1.551a8.553 8.553 0 0 0-.438-.278c-.145-.085-.321-.375-.513-.316-.376.115-.735.455-1.033.697-.154.125-.304.252-.367.447-.037.115.075.364.075.505 0 .137-.025.32-.024.496m2.3-1.551c.311.21.615.434.922.645.185.128.372.254.559.379m-3.781.527c-.173.099-.344.202-.53.284a37.03 37.03 0 0 1-1.587.641m2.117-.925c0 .243.051.472.284.544.162.05.354.03.52.03h.324m-3.245.351c-.41.158-.82.315-1.227.479-.112.044-.23.03-.346.042a2.792 2.792 0 0 0-1.155.383c-.594.356-1.168.848-1.708 1.28-.09.072-.197.075-.306.109-.213.067-.399.18-.585.3a4.22 4.22 0 0 0-.625.482c-.432.413-.15 1.052-.266 1.586-.016.07-.198.238-.064.295.274.117.6-.332.771-.465.33-.256.38-.58.612-.916.105-.151.23-.401.389-.5.299-.186.43-.615.67-.883.074-.083.104-.09.208-.101.254-.025.497-.138.723-.25.282-.14.54-.32.82-.463.106-.054.201-.066.284-.154.202-.213.365-.436.626-.575.19-.102.475-.152.622-.303.148-.152.369-.247.557-.346Zm0 0 .06-.032c.395-.22.814-.418 1.192-.665.315-.207.498-.47.36-.84-.074-.197-.227-.167-.413-.15-.173.016-.331.078-.5.11-.174.032-.363-.005-.532.04-.356.09-.673.354-.99.526a2.34 2.34 0 0 1-.708.266c-.159.028-.32.032-.465.114-.29.166-.543.401-.838.57-.299.17-.586.361-.889.534-.359.206-.705.434-1.059.65-.202.123-.524.152-.667.343-.074.098-.227.147-.333.222m0 0a.46.46 0 0 0-.03.022c-.085.073-.172.144-.25.226-.123.133.064-.043.28-.248Zm0 0c.142-.135.296-.282.383-.363.374-.35.765-.706.98-1.182.291-.647 1.03-.973 1.396-1.58.272-.45.685-.982 1.19-1.17.907-.34 1.793-.566 2.601-1.11.398-.268.825-.576 1.288-.705a2.44 2.44 0 0 1 .787-.096c.503.016.97.138 1.458.245.51.112.98.194 1.469.378.344.13.7.226 1.045.356.107.04.359.101.42.224.129.257.034.811-.082 1.038-.03.058-.066.114-.105.167m0 0c-.169.225-.413.405-.63.572-.099.077-.197.156-.295.234m.925-.806c-.181.102-.343.22-.539.338a5.8 5.8 0 0 1-.611.32m1.15-.658c.122-.069.253-.13.408-.18.257-.083.502-.3.756-.35.292-.056.677-.078.979-.058.144.01.201.163.314.24.236.16.378.426.556.643.108.133.178.205.308.32.101.088.135.325.221.447.178.251.41.474.601.718.213.27.34.592.578.84.529.554 1.147 1.123 1.806 1.522.229.139.278.35.394.575.249.486.876.953 1.351 1.2.18.093.264.26.418.383.172.137.35.224.492.402.113.141.507.484.154.542-.448.074-1.246.115-1.559-.29-.173-.224-.11-.532-.191-.787-.115-.362-.335-.361-.575-.615-.18-.191-.253-.183-.495-.276-.168-.065-.276-.165-.407-.286l-.002-.002c-.14-.128-.304-.191-.447-.306-.135-.107-.218-.25-.373-.337-.246-.14-.437-.083-.686-.155-.123-.035-.269-.235-.367-.319-.281-.24-.6-.446-.905-.654-.343-.235-.77-.62-.973-.99-.103-.186-.102-.382-.266-.538-.221-.208-.458-.401-.668-.622-.144-.15-.66-.397-.801-.122-.105.204-.108.687.032.867l.04.05m-1.618-1.056c-.431.346-.866.685-1.418.817-.478.114-.97.132-1.46.135m2.878-.952-.225-.149m.225.15c.538.354 1.08.7 1.618 1.055m-4.496-.104-.016.009c-.075.039-1.135.696-.875.71.151.008.305 0 .457 0 .705 0 1.347-.144 2.054-.144h2.314c.329 0 .658.003.986 0m-4.92-.575c.33-.176.532-.404.888-.502.598-.164 1.2-.342 1.765-.598m1.843 1.204.316.21c.2.134.498.258.15.261h-.042m-.424-.47c.131.16.283.313.424.47m0 0c.086.097.168.196.238.298.106.156.169.119.34.144.255.037.477.246.711.274.3.035.502.11.745.311.089.074.164.175.277.213.123.041.227.049.322.149.351.373.918.527 1.349.793.404.25.608.737.955 1.053.207.19.355.464.627.57.439.17.773.597 1.128.904.106.091.256.195.336.309.112.16.072.308.242.447.186.151.366.317.545.476.08.071.141.16.22.231.1.089.233.085.328.17.146.13.133.23.229.378.096.15.39.284.54.376a.52.52 0 0 1 .266.399c.037.238.224.33.397.47a.46.46 0 0 1 .185.324m0 0c.012.067.024.14.06.224.066.16.292.17.398.31.005.006-.14-.242-.178-.323-.044-.094-.155-.16-.28-.21Zm0 0c-.14-.057-.297-.097-.398-.143-.32-.144-.589-.346-.884-.532-.164-.103-.415-.227-.548-.364-.371-.385-.627-.887-.957-1.312m12.375 5.958c-2.14-.503-3.86-1.706-5.742-2.76-.713-.4-1.285-.845-2.073-1.141-.469-.177-.84-.414-1.258-.688-.475-.31-1.047-.517-1.503-.846-.34-.246-.447-.64-.81-.871-.714-.455.154-.434.602-.43.729.008.983.357 1.533.761.367.27.895.342 1.3.577.384.222.563.632.97.81 1.126.49 2.547.55 3.742.797 1.11.23 2.268.515 3.36.859m0 0c.269.084.534.172.793.263.522.185 1.307.019 1.871.019.31 0 .468-.153.564-.466.238-.777-.811-.505-1.214-.4-.548.145-1.35.296-2.013.584Zm0 0c-.482.21-.89.491-1.072.895-.18.402-.558.83-.08 1.184.425.315.99.13 1.473.24.201.045.39.129.595.159.099.015.376-.054.3.012-.489.429-1.416.828-2.061.933-.371.06-.742.061-1.116.061-.688 0-1.226-.49-1.89-.552-.365-.035-.74.04-1.104-.025-.427-.075-.83-.37-1.276-.478-.42-.101-.327-.37-.472-.693-.141-.314-.564-.417-.792-.644-.487-.488-.866-.889-1.466-1.258-.38-.234-1.012-.671-.877.006m.502.055c0 .225-.009.452 0 .676.007.165.242.284.357.373.106.083.2.214.324.271.087.04.177.026.256.09.171.141.348.294.526.426.077.057.187.059.272.101.205.103.352.282.521.431.197.175.446.354.681.468.323.158.675.261 1.006.405.202.087.393.186.596.266.253.1.412.477.686.516.31.044.446.318.756.346.318.029.66-.007.973.048.406.07.735.18 1.16.18h1.088c.347 0 .682-.052 1.025-.095.198-.025.411-.023.574-.152.129-.101.241-.188.394-.25.2-.081.327-.149.46-.33.112-.15.423-.157.586-.237.288-.141.488-.383.755-.556.223-.143.289-.346.46-.537.199-.22.467-.312.738-.408m0 0c.075-.027.151-.054.226-.084.199-.082.24-.221.399-.357.09-.077.206-.127.303-.197.037-.026-.149.233-.181.309-.129.307-.435.664-.697.862-.014.01-.257.238-.247.117.017-.213.122-.438.197-.65Zm0 0c.017-.048.032-.094.045-.14.088-.324.028-.77.279-1.014.225-.217.418-.514.689-.678.204-.124.365-.19.5-.391m-1.628 1.628c.582-.242 1.014-.598 1.402-1.09.152-.193.269-.216.444-.26m0 0c.056-.014.117-.03.187-.055.297-.104.537-.31.803-.473.435-.266.685-.675 1.064-.993.152-.127.189-.227.088.027-.128.323-.184.694-.335 1.003-.295.603-.722.787-1.259 1.077-.019.01-.301.214-.335.19-.067-.051-.111-.427-.117-.45-.028-.11-.06-.22-.096-.326Zm0 0a4.484 4.484 0 0 0-.276-.656 2.233 2.233 0 0 0-1.049-.987m0 0a1.833 1.833 0 0 0-.75-.168c-.158 0-.413-.049-.564.02-.096.043-.323.344-.138.406.412.138 1.08-.103 1.452-.258Zm0 0 .006-.003c.412-.172.715-.477 1.096-.691.881-.496 1.961-.728 2.652-1.5.265-.297.523-.597.796-.887.243-.259.532-.466.769-.731.144-.162.236-.358.38-.516.136-.15.261-.32.415-.453.241-.208.506-.28.788-.41a1.18 1.18 0 0 0 .276-.186m0 0c.112-.096.215-.2.349-.282.579-.352 1.487-.18 2.093-.127 1.373.117 2.862.489 4.244.332.711-.08.923-.479 1.04-1.114.091-.494.044-1.033.043-1.534m-7.769 2.725c.136-.579.154-1.177.58-1.612l.004-.004c.313-.32.632-.645 1.1-.645.481 0 .952-.168 1.409-.31m-3.093 2.571-.018.075c-.119.462-.229.997-.626 1.306-.084.066-.63.58-.614.58.49 0 1.041-.489 1.471-.689.257-.12.53-.079.803-.085.129-.003.227-.058.344-.104.543-.213 1.113-.2 1.676-.308.084-.017.321-.109.252-.056-.491.377-1.297.475-1.872.675-.308.107-.627.185-.916.336-.227.119-.44.273-.67.383-.303.145-.554.339-.825.534-.273.198-.586.338-.833.556-.384.343-.798.409-1.072.873-.153.26-.356.483-.489.75m11.158-7.55v-.024c0-.222.085-.457.321-.207.083.086-.105.168-.321.23Zm0 0c-.218.062-.465.107-.501.12-.432.159-.799.487-1.269.487-.328 0-.523.068-.838.197-.723.295-1.529.678-2.335.617-.422-.032-.181-.566-.08-.791l.002-.005a1.48 1.48 0 0 1 .345-.472m0 0c.199-.188.433-.338.656-.536.271-.24.415-.244.774-.266.356-.021.694-.161 1.037-.18.148-.01.837-.193.384.052-.825.445-1.815.623-2.706.886l-.145.044Zm8.794.933c-.58-.091-.898-.601-1.415-.841a2.687 2.687 0 0 1-.252-.134m0 0c-.401-.241-.757-.566-1.196-.739-.088-.034-.223-.01-.314-.01-.115 0-.231.002-.346-.011-.184-.02-.233-.094-.053.077.184.175.354.383.599.474.4.147.864.182 1.31.209Zm0 0c.187.01.37.02.544.035.36.032.787.011 1.144.094.408.094.776.404 1.091.66.278.225.594.476.795.779.081.121.143.27.266.356.481.337 1.192.282 1.615.721.288.3.607.58.942.825.42.308.88.445 1.33.686.497.267.899.741 1.32 1.107.237.207.467.42.702.628.438.388.882.77 1.272 1.208.146.165.221.363.356.532.114.141.278.192.383.351.119.178.153.406.29.57.363.43.875.846 1.333 1.173.017.012.069.047.051.037-.08-.047-.157-.099-.237-.146-.157-.094-.312-.186-.495-.213-.654-.097-1.352-.436-1.905-.785-.243-.154-.435-.371-.681-.521-.287-.176-.601-.288-.883-.477-.689-.462-1.325-1.005-2.043-1.42-.483-.28-.815-.709-1.266-1.022-.28-.194-.581-.394-.841-.617-.362-.31-.728-.573-1.099-.87-.24-.193-.453-.45-.724-.601-.195-.11-.415-.168-.611-.277-.173-.096-.332-.226-.519-.293-.17-.06-.346-.068-.514-.143-.283-.128-.539-.29-.838-.386-.36-.117-.715-.13-1.088-.16-.25-.02-.476-.102-.721-.13-.254-.03-.463-.026-.702-.12-.178-.07-1.392-.085-1.171.234.318.459 1.079.497 1.581.5.36.003.72 0 1.08 0 .085 0 .22-.026.292.032.214.172.234.308.524.405.243.08.57.16.753.354.12.126.262.17.434.212.252.063.362.188.551.352.133.115.427.062.601.178m19.346 11.78c-.333-.196-.525-.436-.806-.676-.954-.815-2.254-1.13-3.344-1.718-.747-.404-1.473-.84-2.24-1.208-.335-.16-.702-.277-1.029-.455-.469-.254-.884-.746-1.403-.875-.232-.058-.686-.427-.705-.684-.045-.634 1.039-.308 1.36-.247.828.156 1.429.677 2.12 1.143.217.147.741.369.812.666.076.317.033.654.111.973.027.108.068.189.181.224.437.134.91.162 1.352.287.241.068.425.17.649.269.363.16.767.18 1.133.332.312.13.584.337.884.49.32.164.662.27.995.404.757.305 1.715.209 2.516.213.659.004 1.294.14 1.95.181 1.35.084 2.722.01 4.073.01.462 0 .758.121 1.075-.196.325-.325.436-.186.809-.186.377 0 .708-.112.968-.408.086-.096.323-.15.458-.146.086.002-.436 1.144-.506 1.248-.304.456-.765.728-1.191 1.05a8.107 8.107 0 0 1-.862.565c-.167.094-.364.094-.527.191-.136.081-.23.213-.367.293-.412.238-.892.502-1.354.614-.351.086-.602.102-.945.275-.381.192-.647.427-1.045.2-.366-.21-.851-.313-1.267-.336-.179-.01-.861-.247-.561-.44.261-.166.571-.225.852-.344m0 0a1.42 1.42 0 0 0 .26-.14c.459-.314 1.012-.335 1.548-.313.201.008.413-.004.612.021.228.029-.423.19-.649.229-.594.1-1.178.173-1.771.203Zm0 0c-.198.01-.396.015-.597.015-.566 0-1.131.003-1.697.004m0 0c-.495.001-.99 0-1.485-.004-.41-.004-.793-.017-1.133-.269-.425-.315-.893-.513-1.373-.737-.345-.16-.625-.284-.931-.508-.318-.232-.634-.475-.947-.715-.137-.106-.246-.23-.372-.346-.173-.159-.388-.226-.591-.335-.536-.291-1.047-.659-1.556-.995-.408-.27-.854-.49-1.243-.788-.367-.281-.56-.57-.84-.926a3.916 3.916 0 0 1-.401-.677m10.872 6.3c-.319-.209-.679-.313-1.035-.448-.738-.28-1.47-.577-2.163-.958-.253-.14-.481-.3-.75-.407-2.606-1.043-4.265-3.608-6.924-4.487m10.872 6.3c.043.029.086.059.128.092.18.141.336.317.473.5.109.145.194.416.346.521.144.1.344.116.514.125.003 0 .226.003.077.003-.312 0-.651-.04-.958.021-.217.043-.439.107-.662.07-.225-.038-.812-.2-.812-.474m-9.978-7.158c-.1-.202-.198-.404-.318-.59-.134-.207-.326-.485-.526-.614-.152-.097-.358-.137-.485-.268-.109-.113-.138-.197-.303-.227-.306-.055-.111.511 0 .618.366.351.74.836 1.251.968.129.034.256.071.381.113Zm4.519 3.28c-.075.34-.283.544-.49.824-.098.133-.28.18-.055.18h.534c.021 0-.25.297-.324.352-.077.058-.197.032-.288.032M42.945 12.048c-.016.684-.348 1.293-.452 1.965-.116.758-.237 1.701-.582 2.391"/>
  <path stroke="#000" stroke-linecap="round" stroke-width="3" d="M32.755 3.483c1.077.26 2.308.822 3.093 1.608.468.467 1.11.731 1.526 1.255.118.148.195.252.337.386.202.19.475.215.685.41.41.38.818.8 1.312 1.066.907.489 1.579 1.227 2.408 1.83.315.229.692.471.944.77.224.268.31.642.55.895.186.197.239.34.311.6.082.295.347.573.488.844.185.356.269.881-.004 1.223-.545.68-1.747-.152-2.117-.624-.264-.338-.672-.89-.672-1.33 0-.545-.335-1.016-.657-1.451-.359-.485-.636-.986-1.107-1.378-.278-.232-.53-.487-.804-.722-.353-.303-.844-.485-1.227-.763-.457-.334-.934-.669-1.345-1.059-.335-.317-.72-.475-1.104-.73-.581-.386-1.18-.652-1.722-1.075-.554-.43-1.473-.497-2.138-.648-.145-.033-.808-.26-.914-.188-.843.573 1.447 2.11 1.817 2.436.697.615 1.765.856 2.654 1.083.406.104.758.227 1.062.521.36.348.785.512 1.219.743a21.1 21.1 0 0 0 1.378.68c.494.218.832.62 1.292.886.458.267.826.725 1.177 1.116.172.192.417.303.566.509.255.35.148.854.148 1.28 0 .443.151 1.317-.517 1.345-.401.017-.491-.744-.78-.964-.53-.404-1.073-.568-1.476-1.132-.135-.189-.346-.328-.541-.447-.197-.12-.202-.365-.394-.5-.653-.46-1.198-.933-1.608-1.617-.332-.553-.74-.828-1.223-1.21-.193-.153-.382-.31-.566-.463-.12-.1-.415-.102-.57-.197-.246-.15-.551-.189-.833-.189-.259 0-.415-.069-.648-.172-.265-.118-.563-.037-.84-.164-.401-.184-.695-.18-1.137-.18-.18 0-.185.126-.123.286.062.16.365.33.468.402.506.362 1.012.741 1.542 1.067.306.188.653.317.968.492.289.16.591.28.89.419.38.177.694.442 1.063.631.447.23 1.054.133 1.41.542.186.211.389.252.616.406.253.171.423.448.681.627.244.17.462.376.706.546.297.207.44.165.598.488.208.424.247.653.247 1.116 0 .23-.143.686-.345.845-.173.136-.65.284-.87.324-.324.059-.396-.387-.664-.513-.337-.158.153-1.258.254-1.493.186-.433.334-.91.636-1.28.292-.356.545-.704.767-1.107.182-.332.665-.761.665-1.145V9.275c0-.874-.465.772-.5.992-.063.38-.311.632-.518.944-.386.585-.645 1.27-.923 1.912-.164.378-.88.688-.865 1.082.005.144.2.19.254.325.076.184.052.406.148.586.132.25.815.247 1.05.16.76-.282 1.278-.887 1.501-1.64.157-.53.424-1.14.443-1.695.017-.467-.017-.936 0-1.403.015-.418.222-.793.222-1.222 0-.164.003-.328 0-.492-.006-.382-.094-.333-.324-.546-.219-.202-.41-.395-.562-.66-.11-.19-.439-.626-.64-.706-.228-.09-.591-.033-.833-.033-.222 0-.783-.298-.919-.476-.189-.247-.433-.261-.578-.623-.239-.597-.184-.968-.87-.968m2.552.518c-.04-.009-.064-.043-.095-.066-.014-.011-.032-.014-.047-.022-.019-.01-.028-.028-.045-.039"/>
  <path stroke="#000" stroke-linecap="round" d="M25.846 2.174c-.11-.062-.223-.055-.346-.055-.147 0-.253.015-.375.1-.073.053-.2.115-.195.222.002.049.176.078.217.087.237.05.398-.093.576-.237.125-.101.274-.09.42-.146.211-.082.378-.194.518-.366.071-.087.09-.183.137-.283.037-.078.02.085.02.097 0 .105.014.223-.025.323-.065.166-.214.284-.258.465-.02.081-.036.14-.098.191-.053.046-.12.1-.153.164-.032.06-.278.022-.337.022h-2.872c-.051 0-.105.005-.145.041-.047.043.164.055.205.026.063-.043.112-.09.184-.123.152-.07.313-.117.467-.181a.88.88 0 0 0 .289-.177.27.27 0 0 1 .134-.084c.165-.029.337-.01.503-.016.122-.005.208-.111.337-.111.023 0 .008.01-.003.02a.446.446 0 0 1-.198.082c-.293.059-.588-.006-.878.085-.18.057-.336.178-.518.222-.158.037-.344-.014-.493.051-.093.04-.145.1-.251.109-.122.01-.147.1-.24.167-.166.119-.396.145-.57.251-.057.035-.112.083-.164.125-.054.044-.086.109-.143.144-.047.03-.025.08-.05.122-.03.051-.014.137-.014.194 0 .283.028.564.028.848 0 .14.026.239.071.37.048.137.042.293.062.436.002.013.02.105-.006.111-.026.007-.09-.036-.096-.04a1.988 1.988 0 0 1-.26-.203c-.213-.193-.319-.465-.436-.723-.03-.067-.046-.16-.113-.191-.06-.029-.11-.143-.148-.194-.032-.044-.055-.086-.083-.132-.1-.165-.06-.38-.06-.567 0-.092-.025-.156.06-.206a.591.591 0 0 1 .349-.081c.081 0 .168.008.25-.002.054-.007.09-.048.095.036.016.243-.053.48-.197.676a.533.533 0 0 1-.26.18c-.06.025-.109.066-.168.093-.103.047-.23.031-.34.027-.099-.003-.198-.015-.296-.01-.081.004-.153.042-.232.057-.252.047-.535.012-.791.012h-.364c-.019 0 .034-.019.05-.03a.854.854 0 0 1 .182-.106c.15-.06.34-.153.42-.302.05-.094.096-.178.19-.233.105-.06.19-.204.31-.23.11-.024.223 0 .331-.026a.372.372 0 0 1 .105-.017"/>
</svg>
