<svg width="710" height="720" viewBox="0 0 710 720" fill="none" xmlns="http://www.w3.org/2000/svg">
<g clip-path="url(#clip0_70_1411)">
<rect width="710" height="720" fill="#CFF09E"/>
<path d="M273.066 -7.20278L204.073 -61.2921L193.529 -45.9655L262.522 8.12384L273.066 -7.20278Z" fill="#E1BE8C"/>
<path d="M236.162 46.4408L167.17 -7.64857L156.626 7.67804L225.619 61.7674L236.162 46.4408Z" fill="#E1BE8C"/>
<path d="M199.259 100.084L130.267 45.995L119.723 61.3216L188.716 115.411L199.259 100.084Z" fill="#E1BE8C"/>
<path d="M51.6467 314.659L-17.3458 260.569L-27.8895 275.896L41.103 329.985L51.6467 314.659Z" fill="#E1BE8C"/>
<path d="M162.356 153.728L93.3636 99.6386L82.82 114.965L151.812 169.055L162.356 153.728Z" fill="#E1BE8C"/>
<path d="M125.453 207.372L56.4605 153.282L45.9168 168.609L114.909 222.698L125.453 207.372Z" fill="#E1BE8C"/>
<path d="M88.5498 261.015L19.5574 206.926L9.01368 222.252L78.0061 276.342L88.5498 261.015Z" fill="#E1BE8C"/>
<path d="M14.7435 368.302L-54.2489 314.213L-64.7926 329.539L4.19984 383.629L14.7435 368.302Z" fill="#E1BE8C"/>
<path d="M-13.4363 416.989L-9.60233 419.995C-7.43526 421.694 -3.23049 419.466 -0.323705 415.079L287.747 -19.6794C290.519 -23.8643 291.079 -28.4704 289.012 -30.0907L285.178 -33.0965C283.011 -34.7955 278.806 -32.5676 275.899 -28.181L-12.1717 406.578C-14.9441 410.762 -15.5039 415.368 -13.4363 416.989Z" fill="#FFDCA0"/>
<path d="M-89.3329 357.487L-93.1668 354.481C-95.3339 352.782 -94.601 347.832 -91.55 343.559L210.83 -79.9815C213.741 -84.0575 217.691 -86.0057 219.758 -84.3854L223.592 -81.3796C225.759 -79.6806 225.026 -74.7309 221.975 -70.4572L-80.4056 353.083C-83.3161 357.159 -87.2652 359.108 -89.3329 357.487Z" fill="#FFDCA0"/>
<path d="M122.723 46.124C122.236 46.7266 120.371 48.5472 119.612 49.1759C118.332 50.2187 116.332 51.5849 113.262 53.5278C108.349 56.6342 106.634 57.932 104.558 60.0875C102.767 61.9592 100.989 64.4243 100.165 66.173C98.0199 70.7091 98.376 74.1691 101.187 76.0707C101.589 76.3573 102.716 76.8458 103.79 77.2145C106.717 78.2367 107.921 79.0862 108.361 80.4226C108.738 81.5239 108.409 82.6068 107.268 84.0305C105.617 86.115 102.336 88.524 97.669 91.1006C96.6756 91.6549 93.6402 93.1507 90.9012 94.4413C86.2126 96.6559 84.423 97.5559 81.6518 99.0888C72.7911 103.981 66.3459 109.023 62.7835 113.848C61.8658 115.099 60.7167 117.306 60.4047 118.441C59.7948 120.669 60.062 122.754 61.1626 124.31C62.1975 125.751 63.8962 126.869 66.2745 127.671C70.145 128.964 75.0487 129.314 81.3646 128.766C85.7022 128.375 91.1618 127.48 95.6289 126.42C105.493 124.061 107.244 123.682 110.852 123.116C116.269 122.264 120.166 122.191 122.442 122.895C123.646 123.277 124.313 123.816 124.589 124.651C124.867 125.497 124.71 126.251 123.918 127.673C122.115 130.953 118.052 134.768 109.509 141.22C103.309 145.9 99.6215 149.115 94.9897 153.881C83.7566 165.426 78.2831 176.348 81.355 181.081C82.0693 182.186 83.0078 182.867 84.4811 183.344C85.923 183.811 87.2461 183.96 89.2641 183.88C94.1784 183.71 101.404 181.674 110.243 177.99C112.731 176.956 114.049 176.495 115.226 176.242C118.756 175.483 120.901 176.809 120.921 179.761C120.947 183.237 118.71 187.707 115.187 191.208C114.066 192.31 114.045 192.332 112.557 193.084C110.849 193.936 110.452 194.258 109.516 195.542C108.889 196.399 108.242 197.708 107.645 199.295C107.447 199.84 106.912 200.979 106.457 201.807C105.474 203.627 105.217 204.546 105.482 205.35C105.647 205.851 105.711 205.918 106.217 206.05C106.526 206.139 107.034 206.151 107.351 206.092C108.479 205.861 110.44 204.632 113.125 202.455C116.509 199.724 118.097 197.32 118.081 194.977L118.086 194.268L118.834 193.608C124.484 188.66 127.59 181.559 126.688 175.635C126.007 171.146 122.521 168.385 117.682 168.486C114.97 168.542 112.661 169.184 107.667 171.236C99.6508 174.526 94.1624 175.674 92.5287 174.37C89.8248 172.241 96.6813 164.113 109.145 154.689C111.367 153.019 112.316 152.329 117.638 148.596C131.536 138.851 140.242 129.749 142.709 122.407C144.666 116.577 142.286 112.288 135.954 110.279C130.603 108.571 123.075 108.502 113.132 110.068C108.324 110.814 104.527 111.657 96.9 113.622C84.3091 116.882 75.7127 117.988 71.9982 116.828C69.8247 116.138 69.7771 114.889 71.8424 112.786C74.8189 109.795 80.8622 106.252 91.424 101.339C96.2293 99.0955 98.1218 98.1253 100.883 96.4771C109.846 91.1311 115.075 85.7969 115.426 81.6357C115.52 80.5624 115.179 79.2294 114.601 78.3262C113.349 76.3956 110.999 74.9582 106.623 73.4482C104.98 72.88 104.483 72.6477 104.14 72.2864C102.108 70.1549 102.709 65.5215 105.495 61.8244C106.974 59.8534 107.855 59.0859 111.977 56.1307C118.041 51.7999 121.932 48.3133 123.011 46.2342C123.302 45.672 123.142 45.612 122.723 46.124Z" fill="#3F6348"/>
<path d="M89.5516 114.267L84.5409 119.471" stroke="#FFDCA0" stroke-width="0.5"/>
<path d="M89.9366 114.267L86.8531 117.736" stroke="#FFDCA0" stroke-width="0.5"/>
<path d="M64.8833 125.541L65.176 125.112M65.176 125.112L71.9063 115.248L75.0561 124.361L65.176 125.112Z" stroke="#FFDCA0" stroke-width="0.5"/>
<path d="M82.8594 174.508L94.7016 183.677" stroke="#E1BE8C" stroke-width="0.5"/>
<path d="M82.8298 174.887L82.4629 174.483M82.8298 174.887L91.2903 183.344L93.1889 182.864M82.8298 174.887L83.1967 175.291L83.5743 175.278L92.423 183.306L92.8006 183.293L93.5558 183.268L93.1889 182.864M82.8298 174.887L82.8191 175.304L84.2334 179.001M93.1889 182.864L92.8114 182.877L92.8221 182.46M91.6786 182.915L85.7759 177.702L88.6471 183.432L90.1789 182.548L86.499 178.926L87.9453 181.375L89.0674 181.753L88.6684 182.599L89.4343 182.157L89.4236 182.574C88.8109 182.927 91.434 182.645 92.8221 182.46M92.8221 182.46C92.52 182.471 92.9479 182.456 93.1997 182.448" stroke="#E1BE8C" stroke-width="0.5"/>
<path d="M102.47 118.885C105.697 121.555 106.622 122.764 111.131 127.132C113.778 129.697 111.378 126.908 110.45 125.775C109.226 124.28 104.415 121.591 106.182 122.017C107.871 122.424 112.235 125.357 110.512 125.219C106.61 124.905 103.721 119.917 99.8717 118.955C99.4435 118.848 102.8 121.308 103.491 121.948C106.622 124.849 104.395 123.523 101.975 122.296C98.6868 120.628 104.333 122.659 105.068 122.992C108.101 124.365 106.097 124.429 104.14 123.27C101.069 121.452 102.665 122.76 103.955 124.418C104.793 125.496 100.325 123.373 99.6861 123.27C99.2141 123.194 103.595 127.071 100.521 124.523C98.8544 123.141 99.978 123.624 101.233 124.036C101.933 124.265 99.7699 122.257 99.5315 121.774C99.0757 120.851 101.55 122.659 100.583 121.843C99.337 120.792 97.1026 119.812 96.1599 118.398C95.4817 117.381 98.3401 119.073 99.4387 119.373C99.9358 119.508 99.8961 118.738 101.449 119.303C102.845 119.811 106.638 122.382 105.347 121.6C104.518 121.098 103.659 120.662 102.841 120.138C102.229 119.747 100.461 119.325 101.047 118.885C103.662 116.925 108.143 122.287 101.728 117.668C98.1781 115.112 110.033 118.899 101.851 114.153C97.8891 111.855 108.262 115.684 106.429 115.684C104.553 115.684 102.749 114.571 100.923 114.571C100.246 114.571 102.471 115.127 101.233 115.127C97.5743 115.127 104.501 114.721 103.583 115.754" stroke="#E1BE8C" stroke-width="3" stroke-linecap="round"/>
<path d="M105.165 114.835C106.672 116.789 108.074 118.644 108.88 121.093C109.265 122.261 109.125 121.9 108.624 121.105C107.894 119.947 106.986 118.951 106.254 117.808C105.987 117.392 105.538 115.726 106.286 116.841C106.686 117.439 109.44 122.749 109.403 122.762C108.721 123.018 106.802 119.632 106.536 119.219C105.767 118.023 104.241 115.866 104.326 114.241C104.359 113.615 106.109 115.575 106.189 115.664C107.503 117.112 108.946 118.431 109.985 120.156C110.061 120.283 111.118 122.415 110.364 121.693C109.067 120.452 107.753 119.123 106.568 117.748C105.463 116.466 104.358 115.167 103.296 113.838C102.807 113.226 104.082 114.028 104.252 114.115C107.698 115.877 109.976 118.987 112.093 122.39C113.614 124.834 107.733 118.889 106.019 116.613C105.835 116.37 103.891 113.659 105.106 114.415C107.111 115.663 109.047 117.306 110.77 119.003C111.786 120.005 112.684 121.101 113.497 122.312C113.913 122.931 113.629 122.835 113.15 122.57C110.094 120.884 106.991 118.246 104.615 115.496C104.49 115.352 103.271 114 104.076 114.319C105.676 114.953 107.042 116.175 108.373 117.322C110.227 118.919 115.315 124.317 113.401 122.81C110.311 120.377 107.432 117.95 104.812 114.865C103.809 113.684 102.768 112.488 102.036 111.064C101.835 110.671 103.227 112.089 103.392 112.253C106.671 115.493 109.914 118.86 112.873 122.474C112.914 122.525 114.073 123.91 113.214 123.615C112.269 123.29 111.229 122.64 110.353 122.126C108.144 120.829 106.043 119.241 103.99 117.658C103.203 117.051 102.435 116.411 101.631 115.832C101.259 115.565 100.397 114.803 99.8691 114.907C99.3951 115.001 100.819 117.761 100.921 117.94C101.649 119.227 102.444 120.462 103.152 121.766C103.497 122.401 104.268 123.507 104.268 124.336C104.268 124.63 103.961 124.221 103.947 124.204C103.34 123.446 102.828 122.562 102.293 121.742C100.911 119.623 99.6527 117.414 98.5826 115.076C98.2116 114.265 98.021 113.424 98.7908 114.571C100.281 116.791 101.444 119.413 102.554 121.886C102.957 122.783 103.316 123.707 103.574 124.672C103.799 125.516 103.52 125.129 103.189 124.768C101.858 123.316 100.501 121.911 99.2125 120.408C99.0266 120.191 96.3374 117.425 96.4848 117.093C96.5276 116.997 96.6326 117.231 96.6983 117.31C96.9514 117.612 97.2223 117.978 97.4456 118.294C98.4277 119.686 99.3357 121.141 100.243 122.594C100.816 123.514 101.384 124.437 102.015 125.309C102.383 125.816 103.716 126.957 103.152 126.798C102.852 126.714 102.368 126.109 102.175 125.909C101.185 124.884 100.269 123.766 99.346 122.666C98.3388 121.466 96.3369 119.698 96.0737 117.922C96.0342 117.655 98.3882 119.699 98.652 119.964C99.9594 121.275 101.165 122.716 102.426 124.084C103.592 125.348 101.201 123.289 101.001 123.123C99.59 121.947 98.1048 120.806 97.0453 119.201C96.0861 117.749 97.4218 118.605 98.0435 119.033C99.298 119.896 100.421 121.131 101.802 121.742C102.037 121.846 102.139 121.843 101.988 121.579C101.519 120.758 100.998 119.989 100.568 119.135C99.9239 117.854 98.8535 115.368 99.7303 113.911C99.8671 113.683 100.718 112.979 100.766 113.646C100.849 114.794 100.262 116.102 100.189 117.274C100.104 118.656 100.077 117.959 99.7464 117.111C99.2746 115.901 98.634 114.864 97.7232 114.031C97.6127 113.93 97.28 113.709 97.5417 114.019C98.177 114.77 99.0457 115.312 99.7837 115.916" stroke="#E1BE8C" stroke-width="3" stroke-linecap="round"/>
<path d="M93.0268 115.819C94.1342 116.723 95.393 117.33 96.5753 118.094C97.8151 118.895 98.9519 119.846 100.216 120.606C100.76 120.933 101.244 121.379 101.736 121.795C102.56 122.492 103.393 123.171 104.196 123.9C104.196 123.9 104.989 124.614 104.875 124.665C104.598 124.787 104.214 124.806 103.931 124.865C103.461 124.963 103.002 125.074 102.553 125.259C101.821 125.561 101.029 125.248 100.35 124.871C99.0569 124.153 97.9921 123.048 96.8719 122.056C96.5664 121.785 96.2362 121.537 95.9767 121.212C95.4821 120.594 95.0443 119.996 94.4127 119.544C93.585 118.951 92.6674 118.528 92.1046 117.578C92.0116 117.422 91.9445 117.242 91.8349 117.096C91.6356 116.831 91.6194 116.454 91.4143 116.189C91.0596 115.731 91.3123 115.031 91.5707 114.63C92.1656 113.706 93.4443 113.722 94.0083 112.761C94.0549 112.682 94.3243 112.106 94.2267 112.015C94.2164 112.005 94.2044 112.033 94.197 112.045C93.5354 113.178 95.0392 110.678 93.9274 112.543C93.6271 113.046 93.2748 113.502 92.9459 113.981C92.8079 114.181 92.3545 114.664 92.3311 114.945C92.3236 115.034 92.4996 114.96 92.5684 114.915C93.0708 114.585 93.5134 114.111 93.9597 113.695C94 113.658 94.7147 113.024 94.7147 113.031C94.7147 113.576 94.2593 114.211 94.0892 114.709C93.9335 115.164 94.0675 115.039 94.2509 114.721C94.5585 114.188 94.846 113.64 95.1489 113.104C95.458 112.557 95.6211 112.276 95.9228 111.754C96.0182 111.589 96.0712 111.371 96.2194 111.266C96.2331 111.256 96.2388 111.299 96.2355 111.317C96.1942 111.542 96.0126 112.058 95.9605 112.203C95.675 112.996 95.357 113.775 95.0599 114.563C95.0129 114.688 94.4157 116.104 94.8657 115.212C95.1691 114.611 95.4619 113.957 95.858 113.422C95.9105 113.352 95.8941 113.609 95.8742 113.699C95.6766 114.588 95.3736 115.452 95.0976 116.313C95.0214 116.551 94.911 116.806 94.8442 117.051C94.7742 117.306 95.095 116.596 95.2109 116.362C96.066 114.638 96.781 112.757 97.7887 111.135C98.2175 110.445 97.5182 112.796 97.2926 113.598C97.1188 114.216 96.9462 114.834 96.7802 115.455C96.7179 115.688 96.6936 115.786 96.6292 115.995C96.6146 116.042 96.5504 116.168 96.5861 116.137C96.599 116.127 96.6051 116.108 96.613 116.092C96.7573 115.803 96.8899 115.507 97.0337 115.218C97.6055 114.069 98.2162 112.951 98.8808 111.866C99.057 111.579 99.2364 111.293 99.4228 111.014C99.5372 110.842 99.8259 110.351 99.8326 110.565C99.8479 111.052 99.6161 111.511 99.4767 111.972C99.1777 112.963 98.7522 114.229 98.4251 115.188C97.9688 116.525 97.4899 117.852 97.0256 119.186C96.9266 119.47 96.7768 119.823 96.7263 120.139C96.7126 120.224 96.8444 120.024 96.8854 119.951C97.261 119.279 97.5925 118.577 97.9424 117.888C97.9818 117.81 98.4978 116.774 98.3253 117.424C98.2441 117.729 98.1547 118.033 98.0691 118.337C97.9701 118.689 98.0032 118.557 98.1123 118.3C98.4668 117.468 98.917 116.692 99.4066 115.952C99.5267 115.771 99.6541 115.605 99.6789 115.898C99.6887 116.013 99.757 116.134 99.838 116.204C99.9588 116.309 100.109 116.366 100.242 116.444C100.66 116.687 101.009 117.023 101.359 117.372C102.147 118.159 102.879 118.975 103.505 119.932C104.124 120.878 104.801 121.794 104.843 123.017C104.88 124.122 104.017 125.428 102.987 125.526C102.559 125.567 102.292 125.574 102.152 125.101" stroke="#E1BE8C" stroke-width="3"/>
<path d="M104.724 111.56C105.222 111.912 105.759 112.188 106.256 112.543C106.551 112.754 106.788 113.055 107.086 113.253C107.508 113.531 107.885 113.834 108.343 114.017C108.756 114.182 109.064 114.523 109.389 114.842C109.657 115.105 109.95 115.324 110.225 115.576C110.567 115.89 110.866 116.213 111.169 116.583C111.673 117.2 112.186 117.738 112.636 118.416C112.944 118.88 113.337 119.256 113.682 119.684C113.965 120.034 114.158 120.458 114.431 120.818C114.791 121.292 115.254 121.685 115.672 122.092C115.838 122.254 116.083 122.483 116.179 122.699" stroke="#E1BE8C" stroke-linecap="square"/>
<path d="M115.354 123.081C114.274 121.92 113.189 120.709 112.015 119.665C111.529 119.233 110.972 118.918 110.473 118.506C109.989 118.107 109.512 117.72 109.017 117.342C108.358 116.837 107.751 116.301 107.14 115.722C106.625 115.233 106.096 114.761 105.73 114.111C105.609 113.895 105.443 113.664 105.452 113.404C105.467 112.965 106.414 113.528 106.531 113.589C107.394 114.044 108.015 114.693 108.726 115.382C109.082 115.727 109.41 116.078 109.729 116.468C109.804 116.56 110.106 116.835 110.106 116.99C110.106 117.039 108.734 116.378 108.639 116.316C108.181 116.017 107.765 115.642 107.334 115.297C106.9 114.95 106.427 114.648 106.008 114.278C105.697 114.004 105.416 113.64 105.231 113.246C105.208 113.197 105.135 113.089 105.236 113.113C105.691 113.218 106.143 113.467 106.569 113.665C107.158 113.939 107.809 114.158 108.37 114.502C108.411 114.528 108.524 114.595 108.478 114.605C108.257 114.655 107.73 114.299 107.566 114.217C106.936 113.903 106.349 113.52 105.738 113.168C105.382 112.962 106.03 113.232 106.113 113.259C106.373 113.342 107.071 113.807 106.86 113.616C106.396 113.199 105.843 112.837 105.339 112.482C105.311 112.462 105.085 112.357 105.069 112.303C105.021 112.141 105.374 112.309 105.522 112.342C106.224 112.502 106.925 112.754 107.502 113.246C107.613 113.341 107.713 113.514 107.466 113.398C106.634 113.006 105.864 112.465 105.005 112.142C104.958 112.125 104.82 112.087 104.999 112.118C105.321 112.173 105.639 112.253 105.954 112.348C106.377 112.477 106.992 112.595 107.361 112.891C107.669 113.139 106.802 112.315 106.493 112.069C106.035 111.705 105.423 111.403 105.023 110.953C104.918 110.835 105.294 111.092 105.431 111.159C105.711 111.297 105.994 111.427 106.28 111.551C106.455 111.627 106.633 111.7 106.795 111.809C106.972 111.927 106.406 111.655 106.218 111.56C106.11 111.505 106.002 111.45 105.894 111.393C105.806 111.346 105.553 111.286 105.638 111.232C105.712 111.186 105.99 111.319 106.062 111.341C106.462 111.468 106.89 111.568 107.275 111.745C107.31 111.761 106.751 111.576 106.647 111.529C106.6 111.509 105.799 111.161 106.175 111.256C106.427 111.32 106.615 111.47 106.817 111.645C107.137 111.922 106.43 111.38 106.366 111.329C106.018 111.051 106.267 111.159 106.509 111.272C107.17 111.58 107.772 111.976 108.283 112.543C108.843 113.162 109.428 113.704 110.063 114.223C110.407 114.505 110.677 114.75 110.918 115.145C111.265 115.714 111.756 116.046 112.177 116.529C112.396 116.779 112.491 117.147 112.706 117.402C112.932 117.672 113.178 117.857 113.439 118.1C113.698 118.341 113.9 118.621 114.119 118.907C114.48 119.379 114.975 119.504 115.402 119.859C115.862 120.242 116.134 120.857 116.599 121.225C117.03 121.565 117.429 121.868 117.753 122.341C118.104 122.852 118.602 123.135 119.037 123.542C119.237 123.729 119.519 123.942 119.673 124.173" stroke="#E1BE8C" stroke-linecap="square"/>
<path d="M107.442 113.034C108.113 113.82 108.875 114.487 109.486 115.337C109.839 115.827 110.192 116.287 110.586 116.735C111.358 117.613 111.897 118.646 112.544 119.629C113.051 120.401 113.549 121.19 114.019 121.992C114.412 122.664 114.793 123.381 115.289 123.967C115.658 124.404 116.024 124.862 116.332 125.356C116.682 125.918 116.547 125.261 116.437 124.929C116.024 123.672 115.058 122.612 114.264 121.649C113.469 120.686 112.592 119.831 111.754 118.919C111.599 118.751 111.079 118.332 111.271 118.44C112.665 119.224 113.829 120.391 115.132 121.34C115.501 121.609 115.885 121.849 116.254 122.117C116.492 122.29 115.789 121.75 115.558 121.564C114.897 121.031 114.239 120.49 113.622 119.893C113.443 119.72 113.286 119.486 113.102 119.32C112.346 118.639 114.546 120.77 115.251 121.516C115.38 121.653 115.815 122.13 115.952 122.353C116.004 122.437 115.778 122.285 115.704 122.226C115.169 121.803 114.613 121.403 114.097 120.952C113.762 120.659 113.455 120.335 113.153 120.002C113.127 119.973 112.786 119.667 112.786 119.562C112.786 119.534 114.023 120.195 114.054 120.211C114.806 120.618 115.599 120.974 116.302 121.486C116.538 121.657 116.463 121.62 116.238 121.407C115.248 120.469 114.329 119.456 113.361 118.495C112.834 117.972 113.56 118.81 113.633 118.901C114.344 119.795 115.16 120.521 115.909 121.364C115.981 121.445 116.409 121.974 116.003 121.707C114.933 121.001 113.785 120.269 112.91 119.265C112.538 118.838 113.822 119.879 114.28 120.181C115.027 120.674 115.663 121.24 116.329 121.856C116.414 121.934 116.669 122.14 116.561 122.117C116.273 122.055 115.803 121.453 115.585 121.279C115.08 120.876 113.454 119.863 113.997 120.196C114.81 120.695 115.578 121.178 116.335 121.795C116.754 122.136 117.174 122.473 117.581 122.832C118.127 123.315 116.371 122.048 115.839 121.546C115.809 121.518 115.125 120.892 115.52 121.122C116.025 121.415 116.497 121.79 116.987 122.113C117.503 122.454 116.624 121.931 116.561 121.892C116.069 121.588 115.572 121.299 115.059 121.04C114.768 120.893 114.428 120.691 114.105 120.63C113.899 120.592 114.487 121.528 114.528 121.595C114.646 121.786 115.105 122.27 115.105 122.532C115.105 122.632 114.411 122.168 114.339 122.117C114.283 122.076 113.861 121.835 113.865 121.74C113.868 121.661 114.422 121.87 114.431 121.874C114.953 122.104 115.494 122.358 116 122.629C116.328 122.805 115.536 121.986 115.483 121.928C115.446 121.889 114.745 121.141 115.043 121.583C115.422 122.144 115.938 122.559 116.351 123.081C116.87 123.738 115.042 122.116 114.431 121.567C112.927 120.216 111.489 118.735 110.257 117.069C110.22 117.019 109.275 116.01 109.777 116.059C110.26 116.105 110.732 116.328 111.141 116.611C111.365 116.765 111.591 117.076 111.837 117.184C111.989 117.25 111.615 116.914 111.487 116.802C110.71 116.124 109.931 115.463 109.178 114.751C108.69 114.289 108.206 113.812 107.679 113.404C107.508 113.272 107.299 113.219 107.134 113.095C107.026 113.013 107.392 113.151 107.512 113.21C108.069 113.484 108.539 113.92 109.017 114.333C109.285 114.564 109.559 114.787 109.826 115.021C109.993 115.169 109.878 115.123 109.758 114.991C109.339 114.525 108.979 113.996 108.564 113.526C108.07 112.966 107.53 112.477 106.973 112.003C106.928 111.965 106.528 111.693 106.811 111.845C107.739 112.343 108.573 112.922 109.373 113.647C109.508 113.769 109.74 113.918 109.847 114.084C109.847 114.084 109.875 114.149 109.858 114.157C109.806 114.181 109.756 114.1 109.712 114.06C109.475 113.842 109.251 113.607 109.017 113.386C108.896 113.272 108.704 113.036 108.537 112.986C108.472 112.966 108.48 113.005 108.52 113.052C108.787 113.368 109.07 113.675 109.346 113.981C109.55 114.207 109.766 114.412 109.985 114.621C110.019 114.654 110.226 114.88 110.006 114.775C109.692 114.626 108.921 113.851 109.178 114.102C109.612 114.525 110.094 114.879 110.505 115.334C110.537 115.369 110.614 115.412 110.589 115.455C110.571 115.486 110.531 115.42 110.505 115.397C110.37 115.282 110.238 115.164 110.103 115.048C109.967 114.931 109.693 114.608 109.513 114.557C109.383 114.521 109.662 114.808 109.75 114.921C109.91 115.128 110.457 115.803 110.613 116.001C110.771 116.201 111.082 116.486 111.082 116.802" stroke="#E1BE8C" stroke-linecap="square"/>
<path d="M107.282 110.798L123.47 124.674" stroke="#E1BE8C" stroke-width="0.5"/>
<path d="M120.094 124.118C119.416 123.745 118.861 123.409 118.372 122.761C118.325 122.7 117.34 121.418 117.185 121.641C117.14 121.707 117.839 122.275 117.85 122.286C118.497 122.882 119.05 123.538 119.538 124.302C119.639 124.46 120.263 125.279 120.155 125.562C120.133 125.62 120.096 125.457 120.072 125.401C119.979 125.184 119.888 124.974 119.761 124.778C119.425 124.256 118.975 123.835 118.631 123.322C118.45 123.052 118.267 122.611 118.728 122.881C119.276 123.202 119.835 123.487 120.27 123.997C120.322 124.058 120.504 124.243 120.504 124.345C120.504 124.398 120.18 124.09 120.177 124.086C119.796 123.664 119.386 123.235 119.044 122.774C118.834 122.49 119.546 123.249 119.794 123.492C119.92 123.615 120.039 123.744 120.151 123.884C120.191 123.933 120.323 124.117 120.189 123.967C119.962 123.711 119.754 123.423 119.551 123.144C119.298 122.796 120.839 124.191 120.565 123.864C120.405 123.673 120.162 123.541 119.972 123.39C119.953 123.376 120.28 123.764 120.353 123.864" stroke="#E1BE8C" stroke-linecap="square"/>
<path d="M118.654 123.136C118.886 122.549 119.839 123.319 120.137 123.512C120.138 123.513 120.925 124.033 120.865 124.118C120.699 124.357 119.701 123.5 119.592 123.384C119.509 123.295 119.033 122.79 119.064 122.602C119.087 122.458 119.548 122.482 119.641 122.48C119.841 122.477 119.544 122.467 119.479 122.432C119.313 122.341 119.153 122.191 119.004 122.068C118.992 122.058 119.246 122.132 119.306 122.165C119.346 122.187 119.522 122.276 119.506 122.359C119.5 122.387 119.34 122.365 119.463 122.371C119.681 122.383 119.913 122.473 120.105 122.59C120.305 122.712 119.942 122.508 119.9 122.48C119.475 122.202 119.994 122.452 120.148 122.632C120.219 122.715 120.228 122.687 120.342 122.711C120.526 122.749 120.737 122.886 120.857 123.051C120.894 123.102 120.849 123.136 120.895 123.166C120.96 123.209 121.046 123.223 121.105 123.275C121.187 123.347 121.265 123.346 121.345 123.406C121.564 123.57 120.83 123.284 120.574 123.214C120.328 123.148 119.968 122.919 119.808 122.699C119.551 122.346 118.967 122.084 118.589 121.959C118.149 121.813 117.809 121.533 117.44 121.224C117.054 120.901 116.623 120.571 116.281 120.187C116.074 119.954 115.889 119.804 115.631 119.638C115.42 119.502 115.098 119.434 114.96 119.192C114.715 118.764 114.469 118.455 114.143 118.112C113.965 117.925 113.72 117.779 113.579 117.554C113.365 117.211 113.161 116.902 112.829 116.705C112.572 116.551 112.343 116.412 112.101 116.213C111.955 116.093 111.616 116.001 111.616 115.737C111.616 115.396 111.308 115.229 111.179 114.975C111.162 114.942 110.912 114.836 110.864 114.836C110.752 114.836 110.53 114.752 110.44 114.684C110.326 114.598 110.092 114.488 110.063 114.29C110.021 114.004 109.65 113.763 109.483 113.607C109.345 113.477 109.12 113.343 108.944 113.31C108.823 113.287 108.82 113.28 108.728 113.198C108.686 113.16 108.613 112.993 108.58 112.982C108.422 112.932 108.279 112.612 108.094 112.537C107.952 112.478 107.794 112.18 107.685 112.057C107.615 111.979 107.564 111.967 107.515 111.863C107.466 111.76 107.385 111.808 107.334 111.724C107.194 111.494 106.937 111.653 106.957 111.287C106.959 111.244 107.102 111.147 107.14 111.19C107.214 111.273 107.109 111.43 107.224 111.529C107.322 111.615 107.417 111.559 107.512 111.696C107.566 111.774 107.629 111.782 107.685 111.86C107.781 111.996 108.101 111.889 108.208 112.009C108.271 112.08 108.26 112.147 108.364 112.203C108.487 112.268 108.604 112.323 108.693 112.446C108.803 112.596 108.891 112.804 108.995 113.01C109.237 113.486 109.768 113.483 110.171 113.768C110.325 113.877 110.591 114.049 110.683 114.235C110.747 114.364 110.89 114.442 110.996 114.533C111.132 114.649 111.187 114.88 111.346 114.945C111.544 115.026 111.759 115.362 111.929 115.518C112.078 115.656 112.218 115.818 112.344 115.98C112.406 116.06 112.484 116.28 112.538 116.31" stroke="#E1BE8C" stroke-linecap="round"/>
<path d="M112.635 115.819C112.982 116.52 113.614 116.914 114.054 117.512C114.254 117.784 114.533 117.954 114.776 118.167C114.882 118.26 115.002 118.248 115.116 118.312C115.311 118.422 115.537 118.583 115.682 118.767C116.025 119.202 116.283 119.838 116.858 119.914C116.951 119.926 117.07 120.091 117.171 120.132C117.229 120.156 117.405 120.277 117.443 120.327C117.62 120.559 117.936 120.722 118.166 120.873C118.39 121.02 118.62 121.25 118.826 121.382C118.924 121.445 119.17 121.552 118.94 121.552C118.698 121.552 118.45 121.573 118.217 121.485C118.074 121.432 117.955 121.388 117.804 121.388C117.489 121.388 117.173 121.388 116.858 121.388" stroke="#E1BE8C" stroke-linecap="round"/>
<path d="M119.479 121.825C119.531 122.094 119.612 122.474 119.673 121.989" stroke="#E1BE8C" stroke-linecap="round"/>
<path d="M117.829 120.569C117.64 120.407 117.499 120.218 117.295 120.09C117.194 120.027 117.028 120.067 116.952 119.996C116.856 119.906 116.686 119.872 116.567 119.805C116.396 119.709 116.419 119.457 116.302 119.42C116.282 119.413 116.201 119.312 116.189 119.289C116.135 119.186 116.106 119.255 116.044 119.192C116.024 119.172 115.887 118.866 115.96 119.013C116.13 119.357 116.301 119.299 116.591 119.371C116.631 119.381 116.735 119.431 116.75 119.477C116.794 119.608 116.308 119.449 116.286 119.438C115.901 119.242 115.539 119.027 115.121 118.931C114.949 118.892 114.75 118.778 114.577 118.767C114.424 118.758 114.463 118.484 114.582 118.446C114.699 118.408 114.916 118.385 114.916 118.221C114.916 118.11 114.92 117.774 114.792 117.733C114.65 117.687 114.472 117.575 114.334 117.566C114.268 117.562 114.247 117.378 114.161 117.351C114.041 117.312 113.977 117.239 113.849 117.239" stroke="#E1BE8C" stroke-linecap="round"/>
<path d="M117.246 120.133C117.173 120.023 117.064 119.696 116.955 119.696C116.833 119.696 116.732 119.641 116.615 119.641C116.393 119.641 116.082 119.469 116.082 119.204" stroke="#E1BE8C" stroke-linecap="round"/>
<path d="M96.8745 125.541L87.624 117.736L90.3221 114.701" stroke="#E1BE8C" stroke-width="0.5"/>
<path d="M92.8809 119.75C92.9097 119.905 92.9141 120.239 92.9833 120.375C93.0106 120.429 93.0851 120.379 93.1128 120.43C93.1529 120.504 93.17 120.627 93.1963 120.709C93.3122 121.071 93.4356 121.248 93.7275 121.061C93.8548 120.979 94.0326 121.532 94.0646 121.652C94.1306 121.9 94.1386 121.866 94.3558 121.828C94.4993 121.803 94.3802 121.957 94.4394 122.007C94.4924 122.052 94.6282 121.59 94.6282 121.673C94.6282 121.837 94.6578 122.967 94.8115 122.371C94.8517 122.215 94.8566 122.445 94.8709 122.52C94.9086 122.719 94.9144 122.909 94.9194 123.111C94.9213 123.188 94.998 122.982 95.0165 122.908C95.0242 122.877 95.1327 122.441 95.1351 122.444C95.2717 122.598 95.3077 123.029 95.3077 123.245C95.3077 123.433 95.4354 122.911 95.4533 122.844C95.4876 122.716 95.4447 123.17 95.5504 123.233C95.6548 123.295 95.6743 123.1 95.696 123.026" stroke="#E1BE8C" stroke-linecap="round"/>
<path d="M95.6961 123.026C96.041 123.354 96.3955 123.735 96.8097 123.949C97.1217 124.109 97.4483 124.232 97.7562 124.404C98.1935 124.647 98.5979 124.931 98.9777 125.265C99.0022 125.287 99.5347 125.638 99.3444 125.726C98.9684 125.9 98.254 125.473 97.9288 125.295C97.4123 125.013 96.9895 124.681 96.5482 124.282C96.5082 124.246 96.0693 123.961 96.2435 124.021C96.5136 124.115 96.8687 124.361 97.0929 124.555C97.258 124.698 97.3527 124.922 97.4892 125.095C97.5905 125.223 97.6556 125.235 97.438 125.204C97.291 125.184 97.1567 125.091 97.0066 125.101C96.9399 125.106 97.1945 125.269 97.2196 125.292C97.4404 125.498 97.4015 125.538 97.1522 125.538C97.0071 125.538 96.9712 125.236 96.9095 125.101C96.8419 124.954 96.626 124.691 96.4996 124.61C96.2702 124.462 96.1388 124.152 95.8902 123.997C95.6594 123.853 95.371 123.552 95.2107 123.327C95.1234 123.204 95.0244 123.077 94.9195 122.972C94.8521 122.904 94.7743 122.879 94.728 122.784C94.6752 122.675 94.6012 122.737 94.5312 122.668C94.2795 122.421 93.9637 122.372 93.7331 122.098C93.5081 121.831 93.366 121.434 93.0994 121.2C93.0149 121.126 92.7637 120.951 92.6652 120.951C92.6374 120.951 92.5141 120.892 92.5035 120.909C92.4593 120.98 92.8374 121.492 92.881 121.57C93.0974 121.961 93.4822 122.169 93.8301 122.395C94.1107 122.578 94.4153 122.678 94.6525 122.944C94.7244 123.025 94.9013 123.29 94.8494 123.142C94.6414 122.546 94.3793 121.977 94.178 121.373C94.1131 121.178 94.0525 120.929 93.9164 120.776C93.8191 120.666 93.4903 120.336 93.3421 120.299C93.1527 120.252 93.0721 119.889 92.9942 119.72C92.7231 119.13 92.1968 118.851 91.6891 118.573C91.456 118.446 91.1342 118.306 90.891 118.227C90.6871 118.162 90.5407 117.996 90.3571 117.882C90.1759 117.768 89.8611 117.675 89.6533 117.675C89.3902 117.675 89.2042 117.566 88.9495 117.566C88.8767 117.566 88.2868 117.549 88.3266 117.706C88.3681 117.869 88.6178 118.098 88.7311 118.197C88.8356 118.288 88.9916 118.267 89.0843 118.343C89.3252 118.54 89.645 118.615 89.8447 118.904C90.1407 119.332 90.418 119.654 90.8802 119.859C91.5679 120.165 92.1987 120.778 92.8082 121.249C92.9478 121.357 93.3452 121.712 93.2207 121.582C92.7663 121.11 92.2772 120.684 91.8132 120.223C91.5558 119.968 91.2891 119.734 91.0312 119.477C90.7045 119.152 90.4145 118.79 90.0793 118.476C90.0414 118.441 89.8576 118.271 89.8987 118.264C90.3457 118.186 90.7908 118.513 91.1417 118.779C91.7366 119.231 92.3518 119.619 92.9619 120.041C92.978 120.053 93.5968 120.505 93.4904 120.6C93.3568 120.718 92.8864 120.313 92.7677 120.251C92.7411 120.237 92.3275 120.073 92.4657 120.199C92.5558 120.281 92.9158 120.579 92.7542 120.76C92.6718 120.853 92.2737 120.79 92.2527 120.873C92.1942 121.103 92.1035 120.76 92.0666 120.636C91.7938 119.715 91.2531 118.913 90.5998 118.3C90.3631 118.078 90.1285 117.884 89.9202 117.624C89.7693 117.435 89.5188 117.227 89.3001 117.141C89.1847 117.096 89.0213 117.129 88.901 117.129C88.8427 117.129 89.1505 116.913 89.1922 116.884C89.2668 116.831 89.4207 116.717 89.5077 116.695C89.6329 116.664 89.7051 116.502 89.8232 116.432C89.9486 116.357 90.1629 115.945 90.1629 115.764" stroke="#E1BE8C" stroke-linecap="round"/>
<path d="M90.3574 114.836C90.162 115.069 90.0582 115.344 89.9448 115.625C89.8846 115.774 89.809 116.018 89.7156 116.134C89.611 116.265 89.5421 116.335 89.4109 116.45C89.2434 116.596 89.1063 116.793 88.9229 116.911C88.8604 116.951 88.6369 117.364 88.691 117.402C88.936 117.576 89.4585 117.522 89.7426 117.554C90.0209 117.585 90.2758 117.615 90.4437 117.323C90.5146 117.2 90.8372 116.332 90.3844 116.477C90.2366 116.525 90.4448 118.013 90.352 116.708C90.3223 116.29 90.1208 116.715 90.1147 116.899C90.1074 117.12 90.1566 116.789 90.174 116.747C90.1916 116.705 90.0065 117.077 89.9502 117.175C89.7963 117.441 89.8874 116.489 89.8963 116.377C89.9316 115.932 89.8545 116.057 89.6779 116.341C89.4381 116.726 89.6924 115.991 89.7534 115.879C89.8957 115.618 89.9691 115.581 89.9691 115.261C89.9691 115.12 89.6507 115.668 89.7804 115.412C89.8339 115.307 90.0362 115.274 90.0635 115.136C90.0679 115.114 90.1385 114.943 90.1606 115.03C90.2848 115.519 89.4837 115.855 89.4837 116.256" stroke="#E1BE8C" stroke-linecap="round"/>
<path d="M79.9155 128.143L86.8534 115.135" stroke="#FFDCA0" stroke-width="0.5"/>
<path d="M81.5298 121.202C81.4598 120.983 81.3542 120.996 81.1525 121.041C81.1159 121.05 80.6895 121.24 80.6398 121.176C80.616 121.145 80.6338 121.093 80.6443 121.054C80.7057 120.827 80.927 120.393 80.9989 120.244C81.4044 119.401 81.8107 118.554 82.2526 117.735C82.6201 117.054 83.0276 116.386 83.5988 115.901C83.6862 115.827 83.4309 116.059 83.3504 116.142C82.6622 116.853 82.0705 117.697 81.4936 118.518C80.1096 120.488 78.7931 122.518 77.5272 124.586C76.6979 125.941 75.8728 127.314 75.178 128.764C74.9152 129.312 74.6798 129.886 74.471 130.464C74.4543 130.51 74.4309 130.554 74.4236 130.604C74.4048 130.731 74.5326 130.377 74.5862 130.263C75.6066 128.096 76.8015 126.028 77.9789 123.966C78.2136 123.555 79.0125 122.398 78.7334 122.772C78.456 123.144 78.2199 123.552 77.9654 123.943C77.3887 124.829 76.7688 125.674 76.1674 126.538C75.9886 126.795 75.813 127.055 75.6388 127.315C75.4869 127.543 75.0868 128.213 75.1125 127.93C75.1406 127.622 75.237 127.326 75.3226 127.031C75.6645 125.854 76.3117 123.969 76.714 122.868C77.222 121.479 77.8188 120.174 78.4126 118.838C78.5691 118.486 78.0117 119.484 77.805 119.801C77.107 120.874 76.3936 121.934 75.6885 123.001C74.9206 124.162 74.1944 125.368 73.4071 126.512C72.8378 127.34 74.4552 124.782 74.9702 123.91C75.4004 123.182 75.7955 122.43 76.2126 121.692C76.4499 121.272 76.6979 120.752 77.0031 120.378C77.1576 120.189 76.8739 120.872 76.7773 121.105C76.1061 122.72 75.3487 124.293 74.5817 125.852C74.2026 126.622 73.8187 127.395 73.3981 128.139C73.3502 128.223 73.3099 128.317 73.2445 128.385C73.0894 128.547 73.4102 127.947 73.502 127.732C74.3401 125.774 75.0985 123.772 75.9686 121.832C76.0366 121.68 76.1092 121.531 76.1764 121.379C76.2215 121.277 76.2944 121.13 76.1629 121.298C75.7854 121.781 75.4369 122.305 75.0877 122.813C73.9649 124.445 72.811 126.103 71.9299 127.92C71.9102 127.961 71.9031 128.013 71.8712 128.042C71.7643 128.14 71.953 127.747 71.9977 127.6C72.3214 126.539 72.6662 125.488 73.0593 124.457C73.577 123.098 74.1568 121.771 74.7443 120.449C74.9047 120.088 75.4522 119.058 75.2164 119.362C74.3405 120.491 73.5858 121.798 72.8402 123.039C72.4845 123.631 72.7469 123.009 72.856 122.721C73.412 121.252 74.0478 119.829 74.7082 118.416C75.3496 117.045 75.9612 115.615 76.7095 114.31C76.8195 114.118 76.5478 114.729 76.461 114.935C75.9279 116.202 75.3637 117.45 74.7669 118.681C73.8799 120.51 72.8965 122.284 72.0677 124.149C71.4965 125.434 73.3188 121.643 73.9718 120.409C74.2623 119.86 74.5518 119.265 74.9025 118.757C74.9273 118.721 74.9579 118.642 74.9928 118.665C75.0294 118.69 74.9917 118.762 74.9793 118.808C74.9394 118.954 74.8877 119.096 74.837 119.237C74.3559 120.58 73.7364 121.853 73.1722 123.153C73.1135 123.288 73.049 123.428 73.0006 123.57C72.944 123.735 73.1151 123.24 73.1722 123.074C73.5144 122.084 73.935 121.13 74.2926 120.149" stroke="#E1BE8C" stroke-width="4" stroke-linecap="round"/>
<path d="M80.2695 118.96C80.7959 118.412 81.268 117.797 81.7964 117.253C81.8223 117.226 81.9112 117.173 81.8936 117.207C81.7661 117.454 81.6056 117.677 81.4576 117.908C80.6306 119.203 79.7678 120.472 79.0001 121.814C78.8462 122.083 78.668 122.395 78.607 122.721C78.5969 122.775 78.6021 122.769 78.6296 122.706C78.8398 122.223 79.0449 121.748 79.2802 121.278C79.8997 120.04 81.9326 116.449 81.1843 117.593C80.5545 118.557 79.8695 119.469 79.2192 120.414C78.4812 121.486 77.8875 122.649 77.2472 123.794C76.1652 125.728 79.0593 119.692 80.1498 117.763C80.8565 116.514 81.562 115.149 82.4041 114C82.4652 113.917 82.3308 114.2 82.2843 114.295C81.892 115.094 81.4789 115.879 81.033 116.643C80.3531 117.807 79.6031 118.914 78.8916 120.053C78.8222 120.164 78.5705 120.579 78.4805 120.719C78.4487 120.768 78.4158 120.817 78.3811 120.864C78.3382 120.922 78.3009 120.975 78.3382 120.856C78.639 119.9 79.0612 118.952 79.4586 118.046C79.8631 117.123 80.1069 116.623 80.5699 115.743C80.7241 115.45 80.8857 115.163 81.0465 114.874C81.1775 114.639 81.3678 114.437 81.4441 114.173C81.508 113.952 81.1735 114.525 81.051 114.712C80.3672 115.756 79.7 116.867 79.0769 117.949C77.9529 119.901 76.8892 121.853 75.8287 123.849C74.9264 125.548 74.1223 127.393 73.134 129.036C72.8733 129.469 73.5201 128.083 73.7326 127.618C74.2834 126.411 75.3384 124.146 75.8649 123.013C76.9579 120.662 77.9806 118.235 79.1717 115.942C79.7541 114.82 78.1995 118.299 77.6448 119.438C76.5925 121.598 75.4789 123.732 74.3402 125.837C74.2483 126.006 74.1739 126.158 74.2747 125.862C74.4444 125.363 74.7869 124.483 74.941 124.093C75.9444 121.559 77.1041 119.104 78.0785 116.556C78.1263 116.431 78.251 116.053 78.1824 116.165C77.8728 116.671 77.6006 117.204 77.306 117.72C75.5775 120.75 73.8504 123.781 72.3592 126.97C72.106 127.511 72.0413 127.66 71.8555 128.121C71.7903 128.283 71.7698 128.334 71.8578 128.147C72.9729 125.774 73.9663 123.328 75.002 120.912C75.3984 119.987 75.7401 119.188 76.1449 118.29C76.2451 118.067 76.4931 117.383 76.4567 117.629C76.4094 117.948 76.189 118.202 76.0546 118.488C75.3155 120.061 74.5835 121.639 73.8342 123.207C73.2301 124.47 71.2873 128.18 71.9436 126.95C73.0206 124.93 73.9687 122.82 74.8687 120.696C75.4157 119.405 76.0096 118.091 76.4702 116.755C76.4837 116.716 76.5206 116.6 76.4973 116.633C76.4116 116.753 76.3478 116.891 76.2782 117.024C75.3186 118.857 74.4175 120.733 73.5112 122.599C72.4653 124.753 71.3785 126.908 70.5341 129.176C70.4007 129.534 70.41 129.546 70.4844 129.359C71.0078 128.039 71.552 126.732 72.0904 125.42C73.1399 122.863 74.1317 120.279 75.1466 117.705C75.2422 117.463 75.5576 116.75 75.4447 116.983C75.092 117.711 74.7383 118.432 74.374 119.153C73.1509 121.576 71.9169 123.991 70.8052 126.482C70.5694 127.01 70.3841 127.462 70.1637 127.981C70.146 128.023 70.0965 128.15 70.1094 128.106C70.2017 127.794 70.3476 127.506 70.4709 127.209C71.3498 125.087 72.2507 122.977 73.0888 120.833C73.5258 119.715 73.6573 119.347 74.042 118.297C74.3321 117.505 74.4661 117.165 73.9087 118.249C72.7059 120.587 71.5435 122.951 70.4121 125.334C70.2764 125.619 70.1427 125.906 70.0078 126.192C69.9575 126.299 69.9459 126.446 69.8565 126.513C69.773 126.575 69.9442 126.31 69.9875 126.208C70.405 125.223 70.4378 125.138 70.9204 123.969C71.82 121.789 72.7146 119.605 73.6445 117.441C73.761 117.169 73.8835 116.877 74.0172 116.61C74.1872 116.27 73.7021 117.305 73.5383 117.649C72.3948 120.051 71.2313 122.443 70.1275 124.868C70.043 125.054 69.7872 125.61 69.8813 125.43C70.1532 124.91 70.3685 124.308 70.5973 123.768C71.1894 122.373 71.7921 120.985 72.4044 119.601C72.4806 119.428 72.6303 119.275 72.6303 119.082C72.6303 119.033 72.5914 119.171 72.5715 119.214C72.3753 119.647 72.3374 119.726 72.0994 120.226C71.702 121.061 71.2822 121.888 70.9249 122.747C70.4643 123.854 71.9842 120.611 72.4721 119.519C72.7594 118.877 73.2259 118.022 73.3531 117.283C73.3872 117.085 73.1884 117.643 73.1046 117.822C72.5975 118.906 72.0699 119.977 71.5393 121.047C71.3299 121.469 70.9808 122.168 70.7487 122.63C70.6901 122.746 70.5566 123.109 70.5657 122.975C70.5784 122.789 70.696 122.632 70.769 122.465C71.1859 121.509 71.6331 120.57 72.061 119.621C72.4651 118.725 72.8469 117.819 73.2221 116.907C73.2806 116.765 73.4082 116.421 73.3892 116.805C73.3742 117.11 73.322 117.413 73.2627 117.71C73.2489 117.779 73.2175 117.847 73.2921 117.751C73.6055 117.345 73.8822 116.891 74.1662 116.46C74.7773 115.532 75.3735 114.593 75.9778 113.66C76.0927 113.482 76.3762 113.045 76.5199 112.836C76.5457 112.799 76.7639 112.448 76.6261 112.783C76.1636 113.907 75.5859 114.967 75.1104 116.084C75.0703 116.178 74.9534 116.456 75.0155 116.379C75.2593 116.074 75.4543 115.686 75.6842 115.367C75.8923 115.079 76.2264 114.639 76.4454 114.356C76.5819 114.179 76.6807 113.898 76.8858 113.858C77.0743 113.821 76.5452 115.553 76.5109 115.642C75.7679 117.565 76.7916 114.874 76.172 116.47C76.1545 116.515 76.1307 116.656 76.1585 116.617C77.0293 115.418 77.6779 114.031 78.5664 112.839C78.7177 112.636 78.9927 112.279 79.2124 112.094C79.3864 111.948 79.3286 112.097 79.2711 112.272C78.7369 113.902 77.9431 115.445 77.2924 117.019C77.1541 117.354 76.7183 118.138 77.3692 117.532C78.8204 116.181 80.0662 114.577 81.4757 113.174C81.5047 113.145 82.9165 111.752 83.0681 112.054C83.1105 112.138 83.0783 112.25 83.0569 112.343C83.0016 112.584 82.917 112.814 82.84 113.047C82.4395 114.258 81.9879 115.451 81.4938 116.617C81.0138 117.75 81.1217 117.433 80.667 118.411C80.5859 118.586 80.327 119.025 80.4954 118.971C80.6129 118.932 80.6999 118.818 80.7913 118.727C80.9882 118.529 81.1748 118.319 81.3582 118.107C82.1333 117.207 82.8627 116.257 83.6125 115.332C83.65 115.285 84.1008 114.725 84.2382 114.582C84.3786 114.436 84.3457 114.519 84.2856 114.714C83.83 116.192 83.1515 117.614 82.4515 118.96C82.3734 119.111 82.0672 119.469 82.2121 119.408C82.3755 119.339 82.8221 118.54 82.8694 118.467C83.4619 117.556 83.9422 116.558 84.5386 115.652C84.9243 115.066 83.154 118.11 83.4318 117.451C83.7181 116.772 84.1045 116.13 84.4776 115.51C84.6645 115.199 84.7985 114.992 84.9881 114.699C85.0143 114.658 85.1476 114.407 85.2208 114.361C85.4188 114.236 85.0672 114.852 85.0672 115.108C85.0672 115.383 85.565 114.871 85.3744 115.413C85.2711 115.707 85.1655 116.099 84.9407 116.31C84.8526 116.393 84.6671 116.519 84.6222 116.645C84.5404 116.875 84.8028 116.186 84.9452 115.997C85.0447 115.865 85.1502 115.749 85.2524 115.624C85.3072 115.557 85.4319 115.527 85.5054 115.464C85.6017 115.381 85.6618 115.257 85.7832 115.21C86.0424 115.108 86.2898 115.007 86.5128 114.823C86.7134 114.658 86.7342 114.491 86.8561 114.285C86.9004 114.21 86.9592 114.044 87.0233 113.998C87.5185 113.639 85.9655 114.596 85.4963 114.996C84.8711 115.529 84.3098 116.167 83.7977 116.833C82.5447 118.463 81.4145 120.221 80.2605 121.939C79.2632 123.423 78.4178 125.033 77.5002 126.581C77.3863 126.774 77.3055 126.907 77.1478 127.044C76.5975 127.52 76.1965 128.186 75.7609 128.784C75.0865 129.711 74.3894 130.614 73.719 131.544C73.4808 131.874 73.2455 132.266 72.9329 132.517C72.7022 132.703 73.2593 131.991 73.4615 131.768C73.6034 131.611 73.7689 131.416 73.9449 131.31C74.1261 131.201 74.2714 130.908 74.4147 130.741C74.5823 130.545 74.722 130.392 74.9229 130.233C75.1624 130.043 75.3093 129.733 75.5125 129.501C75.7467 129.234 76.0356 129.047 76.2805 128.797C76.3825 128.693 76.4646 128.577 76.5696 128.474C76.69 128.357 76.9064 128.306 77.0575 128.246C77.1782 128.197 77.3413 128.239 77.4234 128.119C77.4919 128.018 77.5938 127.919 77.6222 127.791C77.6675 127.587 77.7996 127.441 77.97 127.371C78.2326 127.264 78.6692 126.658 78.6838 126.37C78.6977 126.097 78.8392 125.97 78.9187 125.72C79.0014 125.46 79.0781 125.215 79.1808 124.963C79.3094 124.646 79.6321 124.383 79.6913 124.038C79.7605 123.632 79.9701 123.258 80.1069 122.874C80.2067 122.593 80.2611 122.345 80.4367 122.119C80.7187 121.756 80.9999 121.405 81.2408 120.998C81.4337 120.673 81.5562 120.305 81.7535 119.987C81.8928 119.762 81.9623 119.504 82.1082 119.286C82.2807 119.027 82.7408 118.026 82.3882 117.776C81.916 117.441 81.208 117.448 80.6761 117.446C80.0241 117.443 79.411 117.548 78.8035 117.809C77.7433 118.265 76.7422 118.998 75.8287 119.748C74.719 120.659 73.6944 121.734 72.689 122.782C70.7986 124.753 68.9966 126.831 67.2498 128.962C66.873 129.422 66.5177 129.937 66.1159 130.373C65.9733 130.527 65.7144 130.598 65.5286 130.629C64.9884 130.721 64.5397 130.209 64.5031 129.613C64.47 129.073 64.702 128.528 65.0949 128.22C65.325 128.04 65.5413 127.956 65.7138 127.692C65.8698 127.452 65.943 127.146 66.1182 126.924C66.2664 126.737 66.4925 126.706 66.6309 126.508C66.7176 126.383 66.8543 126.329 66.9471 126.187C67.0491 126.032 67.117 125.819 67.2408 125.687C67.5276 125.379 67.9551 125.023 68.1149 124.609C68.2415 124.282 68.5461 123.932 68.7722 123.687C68.9946 123.446 69.1427 123.104 69.2918 122.803C69.4446 122.493 69.6491 122.207 69.8113 121.898C69.9761 121.584 70.1894 121.329 70.4121 121.064C70.7034 120.718 70.7613 120.219 71.1011 119.895C71.4755 119.539 71.7253 119.073 72.0362 118.643C72.1365 118.504 72.2789 118.405 72.3818 118.264C72.5663 118.012 72.7171 117.749 72.8471 117.456C73.074 116.945 73.5816 116.472 73.9675 116.124" stroke="#FFDCA0" stroke-width="4" stroke-linecap="round"/>
<path d="M65.836 125.867C65.8056 125.867 65.2841 125.857 65.3571 125.684C65.4179 125.539 65.6516 125.384 65.7524 125.252C65.8773 125.088 65.9648 124.853 66.0822 124.655C66.1484 124.543 66.2576 124.475 66.3239 124.368C66.4204 124.211 66.511 124.056 66.6311 123.92C66.8379 123.688 67.0151 123.382 67.2771 123.214C67.3421 123.172 67.4367 123 67.4804 122.929C67.5158 122.872 67.661 122.57 67.6227 122.67C67.5072 122.973 67.2272 123.043 67.0602 123.278C66.9921 123.373 67.2102 123.095 67.259 122.985C67.3208 122.846 67.3167 122.689 67.3855 122.553C67.4409 122.444 67.5706 122.336 67.643 122.218C67.6883 122.144 67.762 122.059 67.8101 122.004C67.8738 121.933 67.9858 121.907 68.0518 121.816C68.119 121.724 68.3495 121.435 68.3568 121.328C68.3786 121.009 68.6154 120.694 68.804 120.47C68.8943 120.362 68.9436 120.123 69.0096 119.987C69.0929 119.815 69.1665 119.657 69.2693 119.499C69.3499 119.375 69.5058 119.319 69.5991 119.214C69.6791 119.124 69.7802 119.067 69.8611 118.96C69.9173 118.886 70.0457 118.584 70.0622 118.482C70.0899 118.311 70.1829 118.176 70.2677 118.035C70.4428 117.746 70.6834 117.51 70.8685 117.222C70.9734 117.059 71.1028 116.949 71.1848 116.765C71.2436 116.632 71.352 116.425 71.4378 116.317C71.5574 116.167 71.6473 115.951 71.7517 115.781C71.8955 115.548 72.1213 115.333 72.3413 115.209" stroke="#FFDCA0" stroke-linecap="round"/>
<path d="M79.5303 128.437C79.8169 127.889 80.058 127.307 80.3209 126.745C80.4131 126.548 80.4523 126.358 80.5241 126.15C80.6063 125.913 80.5717 125.718 80.7184 125.49C80.8654 125.261 81.0301 125.028 81.1544 124.783C81.2531 124.589 81.3508 124.407 81.4412 124.209C81.4683 124.15 81.5328 123.965 81.5225 124.031C81.4644 124.402 81.2655 124.782 81.116 125.114C80.894 125.606 80.557 125.998 80.4338 126.552C80.3531 126.915 80.5049 126.053 80.5264 125.967C80.6586 125.441 80.7825 124.804 81.0256 124.331C81.1345 124.119 81.256 123.922 81.3576 123.703C81.4483 123.508 81.4894 123.286 81.6445 123.132C81.7121 123.064 81.6717 123.557 81.6671 123.594C81.6194 123.978 81.4168 124.33 81.265 124.671C81.1233 124.99 81.1813 124.895 81.2831 124.595C81.4246 124.178 81.5525 123.747 81.6671 123.32C81.7148 123.142 81.6642 123.65 81.6874 123.741C81.7315 123.915 81.8812 123.448 81.9382 123.279C82.0031 123.086 82.1361 122.955 82.2318 122.786C82.5396 122.242 82.726 121.614 83.0766 121.073C83.2807 120.759 83.5216 120.445 83.6458 120.077C83.7742 119.696 83.9753 119.119 84.2647 118.868C84.4211 118.732 84.508 118.603 84.712 118.603C84.8196 118.603 84.334 119.391 84.2376 119.503C84.0805 119.686 83.9086 119.873 83.761 120.067C83.6987 120.149 83.6874 120.288 83.6458 120.387C83.5144 120.699 83.3903 121.013 83.2392 121.302C83.0913 121.585 82.8925 121.771 82.7829 122.08" stroke="#FFDCA0" stroke-linecap="round"/>
<path d="M85.3521 118.183C85.7801 117.714 86.362 117.393 86.7548 116.902C86.8353 116.801 86.9955 116.74 87.1004 116.673C87.2902 116.552 87.4504 116.276 87.5566 116.068C87.873 115.452 88.2303 114.955 88.8441 114.686C89.3634 114.459 88.9011 115.32 88.7673 115.484C88.5284 115.777 88.3499 116.117 88.0761 116.373C87.9391 116.502 87.7763 116.67 87.6605 116.8C87.5021 116.979 87.2435 117.083 87.141 117.314" stroke="#FFDCA0" stroke-linecap="round"/>
<path d="M89.1736 114.752C89.1081 114.897 88.9894 115.233 88.8077 115.255C88.7622 115.261 88.7267 115.35 88.6857 115.327C88.6284 115.294 88.7882 115.128 88.7987 115.118C88.9896 114.94 89.1686 114.804 89.3363 114.615" stroke="#FFDCA0" stroke-linecap="round"/>
<path d="M88.8892 117.131C88.991 116.773 89.0028 116.36 89.246 116.114C89.2848 116.075 89.3297 116.051 89.3364 115.987C89.3437 115.918 89.4385 115.941 89.481 115.896C89.5996 115.77 89.7211 115.675 89.804 115.507C89.8956 115.321 89.9992 115.112 90.1089 114.958C90.213 114.812 90.0001 115.147 89.9666 115.23C89.9173 115.352 89.8379 115.458 89.743 115.53" stroke="#E1BE8C" stroke-opacity="0.85" stroke-linecap="round"/>
<path d="M87.4658 117.68C87.5407 117.614 87.7282 117.462 87.7821 117.359C87.852 117.226 88.0431 117.155 88.157 117.062C88.3381 116.915 88.5942 116.798 88.7262 116.592C88.8234 116.44 88.8565 116.278 88.9679 116.142C89.1058 115.974 89.1976 115.731 89.3813 115.598C89.4832 115.525 89.8173 115.308 89.824 115.164C89.83 115.036 90.0918 114.533 90.1899 114.478" stroke="#E1BE8C" stroke-opacity="0.85" stroke-linecap="round"/>
<path d="M87.019 117.588C87.3505 117.279 87.6107 116.757 87.7825 116.317C87.8425 116.164 87.9782 116.022 88.0784 115.896C88.2743 115.648 88.4517 115.402 88.6634 115.164C88.9344 114.859 89.1776 114.543 89.4088 114.203C89.567 113.971 89.8413 113.654 90.1091 113.654" stroke="#FFDCA0" stroke-opacity="0.85" stroke-linecap="round"/>
<path d="M79.9155 127.709L87.2388 117.736" stroke="#FFDCA0" stroke-width="0.5"/>
<path d="M86.8561 117.68C86.495 118.137 86.097 118.552 85.7809 119.052C85.5975 119.342 85.4549 119.668 85.2298 119.921C84.995 120.185 84.7296 120.398 84.5386 120.709C84.2329 121.205 83.9965 121.747 83.6125 122.198C83.4873 122.345 83.4076 122.491 83.3188 122.665C83.2651 122.771 83.1733 122.795 83.1539 122.914C83.1317 123.052 82.9555 123.125 82.8716 123.214C82.7422 123.352 82.5403 123.458 82.465 123.649C82.4178 123.768 82.2998 123.815 82.2617 123.9" stroke="#FFDCA0" stroke-opacity="0.85" stroke-linecap="round"/>
<path d="M84.5792 120.516C85.0189 120.341 85.2577 119.996 85.424 119.519C85.5222 119.238 85.829 118.937 86.0384 118.752C86.1179 118.682 86.2398 118.436 86.2462 118.32C86.2484 118.28 86.3728 118.035 86.2823 118.096C85.9079 118.349 85.6266 118.812 85.3314 119.169C85.1596 119.376 84.9901 119.539 84.8028 119.718C84.4406 120.062 84.2763 120.49 83.9919 120.922C83.8238 121.178 83.6552 121.417 83.5221 121.679C83.4293 121.862 83.1936 122.008 83.0658 122.183C82.8554 122.47 82.7186 122.824 82.4672 123.072C82.3794 123.158 82.3306 123.334 82.3046 123.466C82.2817 123.582 82.142 124.118 82.2413 123.761C82.288 123.593 82.4061 123.297 82.5463 123.204C82.6808 123.115 82.8762 122.962 82.9709 122.825C83.0573 122.7 83.1954 122.557 83.2691 122.391C83.4306 122.027 83.7487 121.914 83.9196 121.568C84.1649 121.071 84.4761 120.656 84.7012 120.15" stroke="#FFDCA0" stroke-linecap="round"/>
<path d="M86.6527 117.634C86.4346 117.821 86.2591 118.04 86.0745 118.264C86.0438 118.301 85.9962 118.426 85.9434 118.409C85.8346 118.374 86.0303 117.609 86.0451 117.537C86.1443 117.057 86.2196 116.612 86.5307 116.262C87.1979 115.511 87.52 114.463 87.7911 113.471" stroke="#FFDCA0" stroke-linecap="round"/>
<path d="M87.2388 117.736L90.3223 113.833" stroke="#FFDCA0" stroke-width="0.5"/>
<path d="M71.8212 115.135L61.7998 129.01" stroke="#FFDCA0" stroke-width="0.5"/>
<path d="M65.1852 126.096C65.3858 125.853 65.9186 125.1 65.6595 125.257C65.5224 125.341 65.3767 125.644 65.2891 125.771C65.1706 125.942 65.0541 126.119 64.9277 126.284C64.7904 126.463 65.022 125.748 65.0316 125.72C65.0519 125.66 65.3182 125.013 65.1852 125.069C64.948 125.169 65.1792 124.876 65.2258 124.805C65.3005 124.692 65.4571 124.495 65.5917 124.495" stroke="#FFDCA0" stroke-linecap="round"/>
<path d="M99.958 76.1091L103.427 70.9058" stroke="#FFDCA0" stroke-width="0.5"/>
<path d="M104.969 84.7814L113.834 80.4453" stroke="#FFDCA0" stroke-width="0.5"/>
<path d="M105.004 76.2003C105.431 75.4954 105.889 74.8179 106.352 74.1423C106.765 73.5393 107.178 72.9181 107.631 72.3503C107.744 72.2085 107.575 72.444 107.567 72.4541C107.145 73.0025 106.688 73.5185 106.27 74.0693C106.098 74.2959 105.97 74.5476 105.83 74.7991C105.724 74.9913 105.664 75.0935 105.545 75.2727C105.491 75.3539 105.368 75.6045 105.368 75.503C105.368 75.4595 105.4 75.4238 105.42 75.3862C105.601 75.0362 105.796 74.6953 105.982 74.3483C106.207 73.9274 106.885 72.68 106.59 73.0428C105.75 74.077 105.033 75.2754 104.281 76.3884C103.736 77.1937 103.218 78.0467 102.608 78.7951C102.591 78.8169 102.54 78.8811 102.549 78.8535C102.627 78.6225 102.799 78.4468 102.92 78.2405C103.412 77.4009 103.867 76.5358 104.338 75.6814C104.646 75.1237 104.975 74.5787 105.265 74.0093C105.316 73.9106 105.461 73.6213 105.384 73.6947C105.149 73.917 104.981 74.2158 104.791 74.4861C104.287 75.2016 103.807 75.9342 103.344 76.6836C103.191 76.93 102.791 77.6998 102.879 77.4166C103.002 77.0243 103.291 76.5974 103.465 76.2425C103.722 75.7177 103.962 75.1818 104.223 74.6597C104.251 74.6047 104.276 74.5479 104.31 74.4975C104.391 74.3748 104.188 74.7722 104.122 74.9062C103.782 75.5942 103.426 76.2713 103.025 76.9171C102.931 77.0695 102.832 77.2193 102.73 77.3648C102.666 77.4547 102.495 77.7066 102.499 77.5918C102.508 77.3173 102.676 77.0788 102.784 76.8328C102.959 76.4381 103.458 75.3781 103.623 75.0294C103.963 74.3133 104.291 73.5734 104.709 72.9081C105.087 72.3054 104.751 72.9403 104.716 72.999C104.252 73.7781 103.767 74.5434 103.273 75.2986C103.028 75.6736 102.791 76.0302 102.529 76.3868C102.472 76.4652 102.368 76.6984 102.337 76.6025C102.307 76.5069 102.649 75.9901 102.66 75.97C102.901 75.5537 103.151 75.1449 103.393 74.7294C103.5 74.5453 103.602 74.3555 103.716 74.1764C103.85 73.9643 103.471 74.6193 103.341 74.8348C102.701 75.893 102.064 76.9456 101.464 78.0329C101.432 78.0911 101.4 78.1498 101.366 78.2064C101.289 78.3338 101.376 78.1323 101.379 78.1254C101.569 77.6466 101.786 77.1792 102.009 76.7193C102.58 75.5406 103.255 74.4215 103.808 73.2325C103.816 73.2144 103.83 73.196 103.828 73.1757C103.821 73.0996 103.745 73.2974 103.707 73.3606C103.314 74.0071 102.914 74.648 102.521 75.2938C102.276 75.6944 102.037 76.0991 101.787 76.4955C101.75 76.5546 101.646 76.7312 101.661 76.6609C101.702 76.4769 101.813 76.2666 101.882 76.0998C102.168 75.4054 102.493 74.7386 102.862 74.0953C102.898 74.0324 103.183 73.4568 103.303 73.4028C103.321 73.3949 103.288 73.4416 103.277 73.4595C103.196 73.6038 102.969 73.9731 102.908 74.0726C102.527 74.6949 102.088 75.3081 101.765 75.9733C101.614 76.2855 102.039 75.3323 102.179 75.0132C102.368 74.5811 102.542 74.0902 102.812 73.7109C102.877 73.619 102.702 73.9116 102.646 74.0109C102.35 74.5338 102.057 75.0584 101.754 75.5759C101.542 75.9369 101.331 76.3071 101.086 76.6414C100.971 76.7983 100.934 76.8224 101.057 76.5863C101.461 75.8164 101.829 75.0292 102.208 74.2445C102.222 74.2149 102.237 74.186 102.252 74.1569C102.284 74.0965 102.262 74.1414 102.251 74.1666C102.105 74.5089 101.95 74.8374 101.758 75.151C101.593 75.4209 101.409 75.6754 101.239 75.9408C101.167 76.0527 101.098 76.2033 101.01 76.3025C100.958 76.3612 101.061 76.1459 101.098 76.0738C101.294 75.6868 101.533 75.3308 101.749 74.9581C101.771 74.9203 102.113 74.3097 101.888 74.6467C101.599 75.0787 101.275 75.4794 100.994 75.9181C100.972 75.953 100.751 76.3547 100.873 76.0738C100.995 75.7931 101.155 75.5423 101.351 75.3213C101.361 75.3103 101.395 75.2835 101.386 75.2954C101.352 75.3406 101.306 75.3832 101.271 75.4267C101.238 75.4668 100.909 75.913 100.884 75.8727C100.825 75.7744 100.596 76.1812 100.531 76.2425C100.44 76.3289 100.589 76.1353 100.606 76.0982C100.663 75.9768 100.717 75.8565 100.769 75.7333C100.857 75.5236 100.957 75.3082 101.08 75.1202C101.292 74.7972 101.529 74.5026 101.733 74.1699C101.786 74.0843 101.814 73.9833 101.88 73.9088C101.963 73.8164 102.052 73.7329 102.133 73.6379C102.264 73.4827 102.306 73.2675 102.41 73.093C102.562 72.8358 102.754 72.6177 102.927 72.3746C103.022 72.2408 103.084 72.0746 103.168 71.9318C103.225 71.8351 103.325 71.7788 103.41 71.7178C103.43 71.7037 103.478 71.6673 103.476 71.6934C103.473 71.7671 103.43 71.8317 103.404 71.8994C103.339 72.0697 103.14 72.5863 103.094 72.7022C102.801 73.4503 102.47 74.1782 102.176 74.9256C102.11 75.0945 102.212 75.0094 102.3 74.9272C102.6 74.6489 102.747 74.1808 102.93 73.8082C103.068 73.5265 103.515 72.7018 103.361 72.973C103.151 73.3428 102.97 73.7372 102.781 74.1212C102.766 74.153 102.75 74.1848 102.735 74.2169C102.695 74.3038 102.734 74.2306 102.756 74.1893C103.03 73.6642 103.303 73.1409 103.605 72.6341C103.853 72.2164 104.114 71.8081 104.37 71.3967C104.429 71.3018 104.574 71.0019 104.55 71.1145C104.506 71.3228 104.401 71.5537 104.321 71.7405C104.1 72.2558 103.843 72.7491 103.571 73.2325C103.561 73.251 103.397 73.4855 103.401 73.5374C103.402 73.545 103.416 73.5388 103.422 73.5341C103.514 73.454 103.656 73.275 103.716 73.2001C104.284 72.4889 104.827 71.7589 105.477 71.1372C105.526 71.0903 105.703 70.8735 105.574 71.1242C105.22 71.8106 104.827 72.4747 104.454 73.1482C103.991 73.9837 103.528 74.8193 103.08 75.6651C102.816 76.1633 102.504 76.6866 102.346 77.2464C102.27 77.5154 102.575 77.1292 102.585 77.1182C103.221 76.4247 103.793 75.6615 104.367 74.9045C105.075 73.9704 105.768 73.0196 106.524 72.1329C106.657 71.9764 106.938 71.6593 107.126 71.5069C107.164 71.4761 107.278 71.4154 107.262 71.4648C107.231 71.5587 107.179 71.6421 107.132 71.7275C106.874 72.1995 106.208 73.3358 106.022 73.6542C105.177 75.0991 104.321 76.5352 103.473 77.9778C103.053 78.6933 102.624 79.4073 102.231 80.1428C102.149 80.2959 102.103 80.3829 102.241 80.1915C102.481 79.8579 103.012 79.0581 103.145 78.86C105.404 75.4833 107.685 72.1301 110.002 68.8035C110.231 68.4746 110.863 67.4491 110.696 67.8223C110.647 67.9319 110.584 68.033 110.526 68.1369C110.083 68.9303 109.657 69.666 109.189 70.456C108.161 72.1907 107.102 73.8993 105.999 75.5743C105.643 76.1156 105.259 76.7791 104.831 77.2723C104.814 77.2927 104.777 77.346 104.768 77.3193C104.753 77.2734 104.785 77.2228 104.8 77.1766C104.834 77.0679 104.874 76.9612 104.915 76.8555C105.195 76.1367 105.523 75.4418 105.78 74.7115C105.875 74.4405 106.027 74.1377 105.659 74.2477C105.096 74.4162 104.62 74.9136 104.204 75.3489C104.171 75.3833 104.086 75.491 104.099 75.3538C104.125 75.0758 104.24 74.7954 104.328 74.5396C104.52 73.9836 104.766 73.4142 104.895 72.8335C104.913 72.7495 104.863 72.8745 104.849 72.8952C104.748 73.0366 105.022 72.7822 105.042 72.7687C105.168 72.6825 105.31 72.5483 105.453 72.4962C105.563 72.4558 105.39 72.7491 105.339 72.866C105.066 73.4871 104.755 74.0943 104.53 74.7407C104.523 74.7624 104.569 74.7217 104.583 74.7051C104.91 74.33 105.223 73.9416 105.552 73.5698C106.113 72.9376 106.697 72.341 107.299 71.7599C107.375 71.6873 108.173 70.9243 108.294 70.8258C108.376 70.7592 108.46 70.668 108.561 70.662C108.608 70.6592 108.634 70.7544 108.623 70.8063C108.578 71.0143 108.487 71.2067 108.402 71.3983C108.037 72.2254 107.559 73.0802 107.131 73.852C106.23 75.4745 105.295 77.0739 104.364 78.6751C104.061 79.1971 103.744 79.7134 103.458 80.2482C103.43 80.2991 103.357 80.4446 103.403 80.4153C103.549 80.3223 103.95 79.9091 103.977 79.8817C104.76 79.071 105.473 78.1838 106.195 77.3064C106.889 76.464 107.587 75.6268 108.28 74.7829C108.419 74.6127 108.727 74.1306 108.946 73.985C108.961 73.9747 108.93 74.0221 108.92 74.0385C108.769 74.2717 108.602 74.491 108.444 74.718C106.885 76.9569 105.367 79.2424 103.92 81.5748C103.833 81.7153 103.747 81.8563 103.664 81.9997C103.648 82.0273 103.599 82.1058 103.623 82.0873C103.667 82.0536 103.695 81.9984 103.727 81.9511C104.661 80.5961 105.509 79.1681 106.434 77.8059C107.365 76.436 108.34 75.1051 109.287 73.7498C109.436 73.5366 109.582 73.3206 109.73 73.106C109.798 73.0076 109.864 72.908 109.933 72.8108C109.964 72.7674 110.034 72.629 110.03 72.6843C110.024 72.7608 109.964 72.8188 109.927 72.8838C109.605 73.4627 109.117 74.2877 108.813 74.7943C107.873 76.3607 106.898 77.894 105.89 79.4049C105.813 79.5192 105.734 79.6315 105.662 79.7487C105.65 79.7676 105.62 79.8246 105.637 79.812C105.695 79.7695 105.74 79.7098 105.789 79.6547C106.609 78.717 107.384 77.7277 108.182 76.7663C109.127 75.6266 110.076 74.4837 111.088 73.4174C111.203 73.2959 111.32 73.1757 111.445 73.0671C111.485 73.0322 111.578 72.9323 111.581 72.9892C111.587 73.1003 111.505 73.1953 111.457 73.2925C111.338 73.5319 111.213 73.7667 111.082 73.998C109.451 76.8881 107.576 79.5957 105.939 82.4798C105.859 82.6205 105.784 82.765 105.712 82.9112C105.672 82.9922 105.619 83.0699 105.604 83.1609C105.599 83.1909 105.658 83.1435 105.678 83.122C105.777 83.0112 105.865 82.8882 105.956 82.7685C107.854 80.2664 104.93 84.0786 107.544 80.6569C107.923 80.1615 108.304 79.6679 108.686 79.1763C108.749 79.0951 109.929 77.5624 110.243 77.2496C110.678 76.8161 109.704 78.4107 109.39 78.9606C108.867 79.8744 108.339 80.7865 107.791 81.6819C107.772 81.7132 107.619 81.9685 107.546 82.0581C107.503 82.1105 107.609 81.9341 107.644 81.8749C108.603 80.2687 109.539 78.6501 110.451 77.0096C110.508 76.9062 110.572 76.8071 110.624 76.6998C110.679 76.5848 110.641 76.5614 110.531 76.6447C110.212 76.8876 109.719 77.4177 109.493 77.6664C108.905 78.3145 108.254 79.098 107.697 79.7779C107.274 80.2944 106.87 80.8936 106.413 81.3786C106.212 81.5913 106.581 80.786 106.703 80.5077C107.24 79.2755 107.836 78.0826 108.49 76.9236C108.76 76.446 109.064 75.9423 109.359 75.4754C109.564 75.1521 109.429 75.3923 109.305 75.61C108.811 76.4755 108.292 77.3223 107.761 78.1594C107.608 78.3995 107.453 78.6372 107.298 78.8746C107.175 79.0631 107.082 79.2879 106.919 79.4325C106.893 79.455 106.953 79.3703 106.971 79.3401C107.137 79.0613 107.304 78.7835 107.472 78.5065C107.95 77.7205 108.444 76.9503 108.962 76.1971C109.271 75.7464 109.608 75.1901 109.989 74.7959C110.299 74.4757 109.443 75.5152 109.171 75.876C108.542 76.7095 107.937 77.5627 107.337 78.4221C107.258 78.5355 107.04 78.8581 106.916 79.006C106.895 79.0315 106.829 79.0978 106.838 79.0644C106.856 78.9999 106.887 78.9408 106.916 78.8811C107.15 78.3887 107.472 77.7754 107.713 77.3275C108.319 76.1995 108.962 75.102 109.615 74.0077C109.822 73.6592 110.097 73.2687 110.263 72.8822C110.313 72.7661 110.122 73.0855 110.051 73.1871C109.742 73.6317 109.399 74.1083 109.09 74.5429C108.406 75.503 107.725 76.4651 107.054 77.4361C106.93 77.6156 106.807 77.7961 106.684 77.9762C106.593 78.108 106.526 78.2694 106.406 78.3654C106.237 78.4992 106.539 77.9244 106.633 77.7183C107.121 76.6577 107.664 75.6251 108.219 74.6078C108.412 74.2536 108.629 73.9092 108.809 73.5455C108.938 73.2845 108.475 74.0101 108.314 74.2477C107.663 75.2097 107.009 76.168 106.348 77.1215C106.089 77.4951 105.953 77.689 105.714 78.0297C105.671 78.0905 105.545 78.2693 105.569 78.1967C105.753 77.6533 106.067 77.1106 106.339 76.6252C106.718 75.949 107.147 75.3165 107.559 74.6661C107.664 74.4998 107.901 74.1883 107.96 73.9655C107.985 73.8707 107.844 74.1148 107.79 74.1926C107.742 74.2599 107.223 75.0078 107.21 75.0262C106.91 75.4615 106.11 76.8319 106.305 76.3268C106.725 75.2369 107.53 74.3865 108.009 73.3298C108.021 73.303 108.062 73.2336 108.037 73.2455C107.996 73.2654 107.976 73.3194 107.948 73.359C107.872 73.4665 107.797 73.5747 107.726 73.6866C107.084 74.7031 106.514 75.7725 105.951 76.8458C105.51 77.6871 105.074 78.5336 104.644 79.3822C104.564 79.5406 104.503 79.6785 104.459 79.8493" stroke="#FFDCA0" stroke-linecap="round"/>
<path d="M113.723 78.448C113.157 79.0728 112.381 79.4741 111.645 79.7876C111.368 79.9052 111.082 80.0125 110.8 80.1103C110.566 80.1912 110.325 80.2252 110.098 80.3309C109.885 80.4296 109.678 80.5394 109.462 80.6309C109.129 80.772 108.881 80.8412 108.658 81.1726C108.313 81.6847 108.011 82.2339 107.677 82.7554C107.61 82.8615 107.423 83.0924 107.303 83.1171C107.155 83.1472 107.067 83.2188 106.939 83.31C106.871 83.3589 106.856 83.4106 106.769 83.4106C106.685 83.4106 106.666 83.4023 106.613 83.469C106.552 83.547 106.468 83.6441 106.367 83.6441C106.332 83.6441 106.258 83.6251 106.25 83.6733C106.241 83.73 106.132 83.6905 106.095 83.709C105.996 83.7584 105.91 83.8031 105.809 83.8485" stroke="#FFDCA0" stroke-linecap="round"/>
<path d="M106.795 82.7684C106.838 82.6589 107.244 81.6081 107.199 81.5878C107.133 81.558 106.63 82.6369 106.576 82.7392C106.404 83.0637 106.602 82.7324 106.657 82.6289C106.735 82.48 106.815 82.3322 106.905 82.1911C106.913 82.1782 107.133 81.8903 107.13 81.9218C107.103 82.178 106.934 82.4862 106.833 82.7165C106.83 82.7233 106.786 82.7995 106.817 82.7246C106.873 82.5893 106.954 82.467 107.039 82.3532C107.09 82.2842 107.148 82.2205 107.193 82.1456C107.199 82.1359 107.21 82.1048 107.21 82.1165C107.21 82.1584 107.185 82.2545 107.196 82.2884C107.204 82.3126 107.776 81.6292 107.787 81.6137C108.321 80.8903 108.871 80.1929 109.468 79.533C109.563 79.4276 109.696 79.2504 109.822 79.1811C109.922 79.1269 109.772 79.4246 109.724 79.5362C109.241 80.6627 108.624 81.6944 107.96 82.6938C107.046 84.0696 109.865 80.0038 110.909 78.7513C110.951 78.7008 111.151 78.3905 111.235 78.3637C111.302 78.3424 111.187 78.5113 111.154 78.581C111.037 78.8365 110.884 79.137 110.751 79.3757C110.473 79.8722 110.16 80.3394 109.853 80.8126C109.665 81.1013 109.487 81.501 109.26 81.7564C109.113 81.9223 109.49 81.3642 109.618 81.1791C110.1 80.4813 110.605 79.7998 111.12 79.1324C111.559 78.564 112.011 78.0087 112.489 77.4815C112.546 77.4194 112.716 77.2423 112.677 77.3193C112.601 77.4676 112.221 78.0132 112.198 78.0458C111.612 78.8703 111.001 79.7161 110.281 80.4006C110.223 80.4554 110.235 80.42 110.266 80.3568C110.409 80.0689 110.587 79.8022 110.754 79.5314C110.843 79.3853 110.964 79.0717 111.111 78.9767C111.139 78.959 111.075 79.0355 111.056 79.0643C110.849 79.3822 110.629 79.6877 110.399 79.9855C110.281 80.1381 110.161 80.2889 110.036 80.4347C110.036 80.4348 109.904 80.615 109.949 80.4752C110.22 79.6418 110.75 78.9434 111.172 78.2064C111.213 78.1351 111.327 77.9155 111.287 77.9875C111.163 78.2099 110.994 78.4133 110.846 78.6118C110.535 79.0285 110.228 79.4473 109.926 79.8719C109.831 80.0057 109.584 80.4079 109.606 80.2385C109.641 79.9727 109.844 79.6264 109.954 79.4162C110.238 78.8715 110.567 78.3634 110.907 77.861C111.022 77.6897 111.162 77.5133 111.264 77.3274C111.386 77.1043 110.992 77.7528 110.853 77.9631C110.588 78.3652 110.316 78.7622 110.059 79.1713C110 79.2642 109.849 79.6103 109.745 79.6887C109.624 79.7792 109.835 79.3771 109.903 79.233C110.195 78.6135 110.556 78.0393 110.935 77.4847C110.99 77.4048 111.047 77.3268 111.103 77.2479C111.14 77.1951 111.212 77.1548 111.212 77.0874C111.212 77.0335 111.144 77.1635 111.113 77.2041C111.011 77.3353 110.879 77.5137 110.784 77.642C110.56 77.9449 109.956 78.8944 110.093 78.5324C110.205 78.24 110.428 77.9279 110.581 77.6745C110.855 77.2198 111.147 76.7806 111.425 76.33C111.525 76.1698 111.836 75.7269 111.685 75.8224C111.548 75.909 111.456 76.0659 111.348 76.1938C111.13 76.4494 110.999 76.6087 110.791 76.8749C110.633 77.0778 110.481 77.2854 110.333 77.4977C110.272 77.584 110.282 77.5455 110.334 77.4377C110.495 77.1052 110.685 76.7904 110.872 76.476C111.004 76.2539 111.186 76.0232 111.293 75.7819C111.333 75.6914 111.155 75.9115 111.091 75.983C110.851 76.2533 110.617 76.5312 110.382 76.8068C110.329 76.8683 110.278 76.9309 110.223 76.9901C110.133 77.0877 110.122 77.0924 110.186 76.943C110.431 76.3662 110.739 75.8218 111.026 75.271C111.162 75.0107 111.065 75.1368 110.967 75.2597C110.772 75.5053 110.59 75.7642 110.402 76.017C110.388 76.036 110.028 76.5325 110.189 76.2489C110.294 76.0632 110.388 75.8695 110.477 75.6732C110.488 75.6483 110.643 75.3287 110.483 75.5645C110.356 75.7512 110.231 75.9432 110.115 76.1386C109.927 76.4554 110.357 76.065 110.362 76.0608C110.753 75.7221 111.116 75.3436 111.506 75.0034C111.695 74.8385 111.918 74.6591 111.761 75.0586C111.582 75.5143 111.322 75.9329 111.105 76.3657C110.843 76.8895 110.6 77.4255 110.353 77.9583C110.19 78.3088 110.838 77.3858 111.074 77.0922C111.215 76.9156 111.356 76.7352 111.506 76.5668C111.551 76.5169 111.457 76.6968 111.425 76.7582C111.379 76.8492 111.332 76.94 111.29 77.0339C111.256 77.1113 111.393 76.9054 111.443 76.8392C111.602 76.6264 111.767 76.418 111.921 76.2003C111.97 76.1322 112.011 76.058 112.063 75.9927C112.103 75.9414 112.077 76.022 112.071 76.0478C111.894 76.8057 111.521 77.5029 111.19 78.1853C111.147 78.2747 111.103 78.3637 111.062 78.4545C111.032 78.5222 110.93 78.6417 110.993 78.6686C111.11 78.7183 111.679 77.9191 111.696 77.8966C112.041 77.466 112.367 77.0164 112.723 76.5976C112.802 76.5041 113.006 76.2216 112.988 76.3495C112.967 76.5059 112.72 76.8513 112.665 76.9511C112.405 77.422 112.134 77.8874 111.904 78.3783C111.86 78.4715 111.74 78.757 111.774 78.6589C111.827 78.5078 111.913 78.3628 111.995 78.2323C112.222 77.8722 112.481 77.5384 112.734 77.2025C112.866 77.0279 112.996 76.8506 113.132 76.6803C113.174 76.6289 113.275 76.4814 113.276 76.5506C113.282 76.7693 112.916 77.2606 112.84 77.3874C112.567 77.8379 112.281 78.2782 112.011 78.7302C111.964 78.8086 111.918 78.8879 111.872 78.967C111.839 79.0248 111.825 79.1697 111.77 79.1389C111.707 79.1037 111.834 78.9984 111.875 78.9346C112.028 78.6968 112.156 78.536 112.332 78.3086C112.584 77.9838 112.839 77.6665 113.066 77.3193C113.082 77.2941 113.268 76.9256 113.327 76.9155C113.339 76.9134 113.329 76.9432 113.325 76.956C113.289 77.0733 113.176 77.3266 113.138 77.4069C112.832 78.0507 112.47 78.6557 112.106 79.2589C112.014 79.411 111.716 79.8462 111.832 79.7162C111.98 79.5496 112.127 79.2984 112.256 79.1227C112.582 78.6766 112.907 78.231 113.226 77.7782C113.244 77.7531 113.463 77.429 113.534 77.3533C113.545 77.3425 113.573 77.3198 113.573 77.3355C113.576 77.3768 113.554 77.4153 113.54 77.4539C113.34 78.0321 113.068 78.5981 112.752 79.1065C112.716 79.1643 112.61 79.3354 112.631 79.2686C112.699 79.0444 112.916 78.8072 113.034 78.6167C113.129 78.463 113.218 78.3018 113.32 78.1529C113.377 78.0685 113.272 78.3589 113.238 78.4578C113.169 78.6557 113.042 78.8567 112.997 79.0611" stroke="#FFDCA0" stroke-linecap="round"/>
<path d="M113.827 79.9368C113.505 80.1909 113.15 80.0734 112.826 80.2352C112.721 80.2879 112.659 80.3831 112.567 80.4492C112.438 80.5419 112.358 80.6021 112.217 80.652C111.983 80.7341 111.729 80.7585 111.505 80.8709C111.399 80.9238 111.262 80.9827 111.18 81.0752C111.109 81.1555 111.014 81.2381 110.921 81.2504C110.901 81.2531 110.813 81.331 110.79 81.3526C110.744 81.3951 110.664 81.4369 110.609 81.4677C110.507 81.5254 110.359 81.5796 110.272 81.6721C110.195 81.7541 110.056 81.7783 109.974 81.8505C109.876 81.9358 109.784 81.9681 109.688 82.0516C109.484 82.2299 109.275 82.3305 109.014 82.3305C108.946 82.3305 108.807 82.4166 108.741 82.4538C108.644 82.5086 108.541 82.5056 108.43 82.5056" stroke="#FFDCA0" stroke-linecap="round"/>
<path d="M110.013 81.2214C110.534 80.8528 111.123 80.4491 111.715 80.2451C111.906 80.1795 112.091 80.1044 112.279 80.031C112.511 79.9405 112.697 79.7802 112.902 79.6288C113.039 79.5269 113.181 79.4322 113.323 79.3369C113.43 79.2647 113.484 79.1541 113.605 79.105C113.725 79.0562 113.83 78.9973 113.957 78.9736" stroke="#FFDCA0" stroke-linecap="round"/>
<path d="M113.593 80.1121C113.648 80.1481 113.747 80.258 113.801 80.258" stroke="#FFDCA0" stroke-linecap="round"/>
<path d="M104.198 85.6487L113.834 80.4453" stroke="#FFDCA0" stroke-width="0.5"/>
<path d="M103.427 86.0823L104.969 85.2151" stroke="#FFDCA0" stroke-width="0.5"/>
<path d="M113.713 80.6009C113.747 80.6043 113.815 80.6271 113.845 80.5935C113.851 80.5862 113.855 80.5761 113.855 80.5655C113.855 80.5455 113.844 80.5464 113.829 80.5464" stroke="#FFDCA0" stroke-width="0.5" stroke-linecap="round"/>
<path d="M113.881 80.4331C113.88 80.4416 113.869 80.4957 113.879 80.5044C113.887 80.5111 113.885 80.5243 113.885 80.5337C113.885 80.552 113.896 80.5658 113.896 80.5841" stroke="#FFDCA0" stroke-width="0.5" stroke-linecap="round"/>
<path d="M111.604 80.9781C111.59 81.0146 111.57 81.0439 111.622 81.0451C111.692 81.0468 111.761 81.02 111.827 80.9958C111.852 80.9866 111.906 80.9542 111.936 80.9578C111.948 80.9593 111.919 80.98 111.909 80.9888C111.838 81.0502 111.761 81.1014 111.68 81.1439C111.647 81.1612 111.609 81.1825 111.572 81.19C111.56 81.1926 111.585 81.1638 111.595 81.156C111.627 81.1329 111.662 81.1146 111.697 81.0987C111.705 81.0953 111.717 81.0898 111.726 81.0885C111.736 81.087 111.721 81.0945 111.721 81.0945C111.671 81.1231 111.619 81.1464 111.568 81.1747C111.552 81.1841 111.535 81.1944 111.518 81.2038C111.515 81.2058 111.505 81.2117 111.507 81.2075C111.514 81.1889 111.544 81.167 111.556 81.156C111.58 81.1355 111.597 81.1218 111.621 81.1029C111.629 81.0967 111.641 81.094 111.644 81.0838C111.644 81.0836 111.596 81.0922 111.589 81.0955" stroke="#FFDCA0" stroke-width="0.5" stroke-linecap="round"/>
<rect width="53.5519" height="11.5368" transform="matrix(0.787233 0.616655 -0.526281 0.850311 64.0498 159.298)" fill="#E1BE8C"/>
<path d="M711.626 239.133C710.744 239.291 707.701 239.491 706.538 239.478C704.588 239.443 701.721 239.167 697.423 238.616C690.548 237.732 688.005 237.602 684.529 237.932C681.522 238.226 678.126 239.024 676.142 239.9C670.987 242.167 668.99 245.305 670.433 248.88C670.629 249.404 671.393 250.609 672.186 251.676C674.337 254.599 674.932 256.16 674.455 257.586C674.075 258.772 673.022 259.442 670.95 259.823C667.935 260.394 663.118 260.083 656.84 258.93C655.499 258.69 651.539 257.79 648.004 256.929C641.951 255.46 639.603 254.944 635.874 254.263C623.955 252.076 614.282 251.722 607.555 253.227C605.816 253.622 603.206 254.65 602.135 255.376C600.034 256.803 598.881 258.732 598.897 260.808C598.927 262.742 599.819 264.877 601.587 267.228C604.47 271.046 608.996 274.807 615.502 278.817C619.98 281.56 625.889 284.676 630.945 286.952C642.122 291.962 644.08 292.885 647.967 294.965C653.807 298.087 657.64 300.783 659.375 302.98C660.285 304.15 660.569 305.072 660.271 305.964C659.969 306.867 659.305 307.384 657.574 308.011C653.601 309.471 647.072 309.78 634.406 309.118C625.215 308.636 619.457 308.71 611.731 309.409C593.005 311.093 580.294 316.332 580.073 322.454C580.018 323.882 580.468 325.114 581.577 326.554C582.661 327.964 583.845 329.024 585.859 330.385C590.748 333.719 599.145 337.133 610.224 340.313C613.34 341.21 614.932 341.758 616.246 342.38C620.189 344.244 621.375 346.867 619.397 349.344C617.068 352.263 611.868 354.409 606.077 354.837C604.241 354.964 604.206 354.967 602.252 354.542C600.017 354.044 599.412 354.032 597.635 354.441C596.445 354.712 594.93 355.347 593.276 356.249C592.714 356.562 591.423 357.135 590.421 357.503C588.234 358.326 587.362 358.911 587.075 359.769C586.897 360.304 586.913 360.405 587.315 360.873C587.555 361.166 588.041 361.535 588.388 361.711C589.64 362.316 592.377 362.678 596.459 362.761C601.595 362.877 604.765 361.995 606.335 360.03L606.82 359.441L607.994 359.42C616.832 359.289 624.657 355.562 627.791 349.982C630.169 345.756 628.652 340.986 623.884 337.647C621.212 335.775 618.535 334.677 612.295 332.856C602.281 329.929 596.173 327.004 595.469 324.761C594.285 321.071 606.447 319.142 624.933 320.097C628.222 320.276 629.611 320.372 637.308 321.022C657.405 322.725 672.023 321.29 679.39 316.911C685.238 313.432 685.831 308.17 681.04 302.014C676.999 296.804 669.735 291.42 659.017 285.693C653.841 282.914 649.583 280.931 640.845 277.174C626.408 270.987 617.31 265.827 614.487 262.232C612.843 260.119 613.643 259.043 617.072 258.75C621.989 258.36 630.257 259.68 643.842 263.053C650.028 264.581 652.523 265.111 656.321 265.689C668.646 267.57 677.337 266.819 680.495 263.596C681.313 262.767 681.884 261.414 681.935 260.252C682.025 257.755 680.716 254.894 677.488 250.538C676.277 248.902 675.952 248.356 675.863 247.812C675.332 244.596 679.053 241.156 684.262 240.043C687.033 239.445 688.409 239.428 694.414 239.879C703.235 240.556 709.375 240.4 711.831 239.429C712.494 239.166 712.38 239.003 711.626 239.133Z" fill="#3F6348"/>
<path d="M549.565 94.0628L482.51 127.134L493.394 143.202L560.449 110.13L549.565 94.0628Z" fill="#E1BE8C"/>
<path d="M587.659 150.3L520.604 183.371L531.488 199.439L598.543 166.368L587.659 150.3Z" fill="#E1BE8C"/>
<path d="M625.753 206.537L558.699 239.608L569.583 255.676L636.637 222.605L625.753 206.537Z" fill="#E1BE8C"/>
<path d="M778.131 431.486L711.076 464.557L721.96 480.625L789.015 447.554L778.131 431.486Z" fill="#E1BE8C"/>
<path d="M663.848 262.774L596.793 295.846L607.677 311.913L674.732 278.842L663.848 262.774Z" fill="#E1BE8C"/>
<path d="M701.942 319.012L634.887 352.083L645.771 368.15L712.826 335.079L701.942 319.012Z" fill="#E1BE8C"/>
<path d="M740.036 375.249L672.981 408.32L683.865 424.388L750.92 391.317L740.036 375.249Z" fill="#E1BE8C"/>
<path d="M816.225 487.723L749.17 520.794L760.054 536.862L827.109 503.791L816.225 487.723Z" fill="#E1BE8C"/>
<path d="M852.232 534.273L855.959 532.435C858.065 531.396 857.203 526.802 854.058 522.297L542.349 75.8275C539.349 71.5306 535.374 68.9075 533.365 69.8982L529.639 71.736C527.533 72.7748 528.394 77.3692 531.539 81.8742L843.248 528.343C846.248 532.64 850.223 535.264 852.232 534.273Z" fill="#FFDCA0"/>
<path d="M778.467 570.653L774.741 572.491C772.635 573.53 768.399 570.6 765.394 566.025L467.593 112.697C464.727 108.334 464.047 104.086 466.056 103.095L469.782 101.257C471.889 100.218 476.124 103.149 479.129 107.723L776.931 561.051C779.797 565.414 780.477 569.662 778.467 570.653Z" fill="#FFDCA0"/>
<path d="M645.251 293.683L622.372 282.821L629.529 272.284L659.779 286.433L645.251 293.683Z" fill="#3F6349"/>
<path d="M614.02 308.758L597.324 310.801L602.156 319.951L620.169 319.433L614.02 308.758Z" fill="#3F6349" stroke="#3F6349" stroke-width="0.1"/>
</g>
<defs>
<clipPath id="clip0_70_1411">
<rect width="710" height="720" fill="white"/>
</clipPath>
</defs>
</svg>
