<svg width="600" height="720" viewBox="0 0 600 720" fill="none" xmlns="http://www.w3.org/2000/svg">
<g clip-path="url(#clip0_85_1265)">
<path d="M600 0H0V720H600V0Z" fill="#CFF09E"/>
<path d="M197.896 27.4957L131.858 -24.2876L121.766 -9.61442L187.804 42.1688L197.896 27.4957Z" fill="#E1BE8C"/>
<path d="M162.573 78.852L96.5346 27.0688L86.4424 41.7419L152.481 93.5252L162.573 78.852Z" fill="#E1BE8C"/>
<path d="M21.2811 284.278L-44.7569 232.495L-54.8491 247.168L11.189 298.951L21.2811 284.278Z" fill="#E1BE8C"/>
<path d="M127.25 130.209L61.2118 78.4253L51.1196 93.0985L117.158 144.882L127.25 130.209Z" fill="#E1BE8C"/>
<path d="M91.9272 181.565L25.8891 129.782L15.7969 144.455L81.835 196.238L91.9272 181.565Z" fill="#E1BE8C"/>
<path d="M56.6038 232.921L-9.43422 181.138L-19.5264 195.811L46.5117 247.595L56.6038 232.921Z" fill="#E1BE8C"/>
<path d="M-41.015 382.245L-37.3452 385.123C-35.2709 386.75 -31.2462 384.617 -28.4639 380.417L247.272 -35.8053C249.925 -39.8119 250.461 -44.2216 248.482 -45.7728L244.813 -48.6504C242.738 -50.277 238.714 -48.1441 235.931 -43.9445L-39.8045 372.278C-42.4583 376.284 -42.9941 380.694 -41.015 382.245Z" fill="#FFDCA0"/>
<path d="M-113.661 325.28L-117.331 322.403C-119.405 320.776 -118.704 316.037 -115.783 311.946L173.649 -93.5365C176.435 -97.4388 180.215 -99.3039 182.194 -97.7527L185.863 -94.875C187.938 -93.2485 187.236 -88.5098 184.316 -84.4184L-105.116 321.064C-107.902 324.967 -111.682 326.832 -113.661 325.28Z" fill="#FFDCA0"/>
<path d="M89.3179 27.1923C88.8513 27.7693 87.0667 29.5123 86.3402 30.1142C85.1145 31.1127 83.2 32.4207 80.2612 34.2808C75.5585 37.2551 73.9173 38.4975 71.9301 40.5612C70.2153 42.3532 68.5134 44.7133 67.7247 46.3875C65.6708 50.7303 66.0116 54.0426 68.7021 55.8629C69.0873 56.1373 70.1661 56.605 71.1938 56.9579C73.9956 57.9364 75.148 58.7495 75.5696 60.0289C75.9303 61.0832 75.6151 62.12 74.5229 63.4831C72.9422 65.4787 69.802 67.7851 65.3342 70.2521C64.3833 70.7828 61.4777 72.2149 58.8559 73.4507C54.3677 75.5711 52.6547 76.4328 50.002 77.9004C41.5203 82.5846 35.3506 87.4118 31.9405 92.0313C31.062 93.2294 29.962 95.3419 29.6633 96.4286C29.0794 98.5615 29.3351 100.558 30.3885 102.047C31.3791 103.426 33.0051 104.497 35.2816 105.264C38.9865 106.502 43.6803 106.837 49.7259 106.312C53.878 105.937 59.104 105.08 63.38 104.065C72.8218 101.807 74.498 101.444 77.9514 100.901C83.1373 100.085 86.867 100.016 89.0456 100.689C90.1981 101.055 90.8372 101.571 91.1006 102.37C91.3674 103.18 91.2165 103.902 90.459 105.264C88.7325 108.404 84.8431 112.057 76.6655 118.234C70.7302 122.714 67.2009 125.792 62.767 130.356C52.0142 141.408 46.7745 151.865 49.7147 156.396C50.3984 157.454 51.2967 158.106 52.7069 158.563C54.0872 159.009 55.3536 159.152 57.2852 159.075C61.9893 158.912 68.9059 156.962 77.3667 153.435C79.7479 152.445 81.0099 152.004 82.1363 151.762C85.5154 151.035 87.5686 152.304 87.5882 155.13C87.6125 158.458 85.4707 162.737 82.0985 166.089C81.0257 167.145 81.0057 167.165 79.5812 167.886C77.9465 168.701 77.5658 169.01 76.6705 170.238C76.0698 171.059 75.4508 172.313 74.8792 173.832C74.6891 174.354 74.1773 175.444 73.7415 176.237C72.801 177.979 72.5547 178.859 72.8083 179.628C72.9664 180.108 73.0277 180.172 73.5117 180.299C73.8078 180.384 74.2939 180.395 74.5971 180.339C75.6768 180.118 77.5542 178.941 80.1242 176.857C83.3638 174.242 84.884 171.94 84.869 169.698L84.8731 169.019L85.5897 168.387C90.9982 163.65 93.9718 156.851 93.1086 151.18C92.4568 146.883 89.12 144.24 84.4878 144.336C81.892 144.39 79.6821 145.004 74.9015 146.969C67.2279 150.12 61.9743 151.219 60.4105 149.971C57.8224 147.932 64.3859 140.151 76.3167 131.128C78.4437 129.53 79.3519 128.869 84.4464 125.294C97.7502 115.964 106.084 107.25 108.446 100.221C110.319 94.6394 108.042 90.5334 101.98 88.6101C96.858 86.976 89.6524 86.9097 80.1352 88.4101C75.5324 89.1247 71.8982 89.9318 64.5972 91.8132C52.5449 94.9349 44.3163 95.9938 40.7608 94.8836C38.6804 94.2235 38.6348 93.0276 40.6118 91.0144C43.4611 88.1502 49.2459 84.7585 59.356 80.0539C63.9558 77.9062 65.7673 76.9773 68.4104 75.3992C76.9903 70.2807 81.9956 65.1737 82.3316 61.1898C82.4219 60.1623 82.0953 58.8862 81.5424 58.0215C80.3438 56.1733 78.0945 54.7974 73.9059 53.3521C72.3329 52.8082 71.8575 52.5857 71.5291 52.2398C69.5837 50.1994 70.1594 45.7637 72.8264 42.224C74.2419 40.337 75.0853 39.6022 79.0317 36.7728C84.8359 32.6264 88.561 29.2883 89.5939 27.2978C89.8722 26.7596 89.7193 26.7021 89.3179 27.1923Z" fill="#3F6348"/>
<path d="M57.5632 92.4302L52.7671 97.4117" stroke="#FFDCA0" stroke-width="0.5"/>
<path d="M57.9319 92.4302L54.9805 95.7512" stroke="#FFDCA0" stroke-width="0.5"/>
<path d="M33.9512 103.223L34.2313 102.813L33.9512 103.223ZM34.2313 102.813L40.6736 93.3696L43.688 102.093L34.2313 102.813Z" stroke="#FFDCA0" stroke-width="0.5"/>
<path d="M51.1582 150.103L62.4926 158.88" stroke="#E1BE8C" stroke-width="0.5"/>
<path d="M60.6937 157.715C60.4046 157.725 60.8142 157.711 61.0552 157.703M51.13 150.466L50.7788 150.079L51.13 150.466ZM51.13 150.466L59.2275 158.561L61.0449 158.102L51.13 150.466ZM51.13 150.466L51.4812 150.853L51.8426 150.841L60.3118 158.525L60.6732 158.513L61.396 158.489L61.0449 158.102L51.13 150.466ZM51.13 150.466L51.1197 150.865L52.4733 154.405L51.13 150.466ZM61.0449 158.102L60.6835 158.114L60.6937 157.715L61.0449 158.102ZM59.5992 158.15L53.9497 153.16L56.6976 158.645L58.1638 157.8L54.6418 154.332L56.026 156.676L57.1 157.039L56.7181 157.848L57.4512 157.425L57.441 157.824C56.8545 158.162 59.3651 157.893 60.6937 157.715L59.5992 158.15Z" stroke="#E1BE8C" stroke-width="0.5"/>
<path d="M69.9282 96.8514C73.0167 99.4067 73.9021 100.565 78.2181 104.747C80.7523 107.202 78.4545 104.532 77.5669 103.448C76.3952 102.016 71.7901 99.4419 73.4811 99.8496C75.0977 100.24 79.275 103.047 77.626 102.915C73.8913 102.614 71.1259 97.8394 67.4412 96.918C67.0314 96.8155 70.244 99.1702 70.9053 99.783C73.9025 102.56 71.7707 101.291 69.4546 100.116C66.3071 98.52 71.7113 100.464 72.4152 100.783C75.3181 102.097 73.4002 102.158 71.527 101.049C68.5876 99.3082 70.1152 100.561 71.3494 102.148C72.1517 103.18 67.8752 101.147 67.2637 101.049C66.8118 100.976 71.0052 104.688 68.0631 102.248C66.4676 100.926 67.5431 101.388 68.744 101.782C69.4141 102.002 67.3438 100.079 67.1155 99.6164C66.6793 98.7328 69.0474 100.464 68.1222 99.6831C66.9294 98.6765 64.7907 97.7387 63.8884 96.385C63.2392 95.411 65.9753 97.0309 67.0268 97.3178C67.5027 97.4476 67.4647 96.71 68.9513 97.2511C70.2869 97.7374 73.9177 100.199 72.6817 99.4499C71.8887 98.9694 71.0667 98.5521 70.2835 98.0507C69.6979 97.6758 68.0057 97.2719 68.5663 96.8514C71.0688 94.9741 75.3583 100.108 69.2177 95.6854C65.8203 93.2388 77.1677 96.8644 69.3362 92.3207C65.5436 90.1203 75.4719 93.7865 73.718 93.7865C71.9226 93.7865 70.1953 92.7205 68.4478 92.7205C67.7998 92.7205 69.9293 93.2535 68.744 93.2535C65.2423 93.2535 71.8728 92.8644 70.9941 93.8531" stroke="#E1BE8C" stroke-width="3" stroke-linecap="round"/>
<path d="M72.5071 92.9739C73.95 94.844 75.2916 96.62 76.0633 98.9647C76.4316 100.083 76.2975 99.7375 75.8181 98.9762C75.1199 97.8676 74.2508 96.9139 73.5495 95.8198C73.2941 95.4215 72.8646 93.8266 73.5801 94.8942C73.9638 95.4667 76.5993 100.55 76.5641 100.563C75.9113 100.808 74.0747 97.5664 73.8203 97.1709C73.0837 96.0261 71.6236 93.9606 71.7049 92.4048C71.7362 91.806 73.4108 93.682 73.4881 93.7673C74.745 95.1538 76.1265 96.416 77.121 98.0678C77.194 98.189 78.2056 100.231 77.4838 99.5396C76.2424 98.3508 74.9852 97.079 73.8509 95.7623C72.7932 94.5346 71.7348 93.2914 70.7188 92.0195C70.2506 91.4334 71.4712 92.2011 71.6334 92.284C74.9324 93.9713 77.1123 96.9484 79.1393 100.207C80.5947 102.546 74.9652 96.8546 73.3246 94.6757C73.1493 94.4428 71.2886 91.848 72.4509 92.5715C74.37 93.766 76.2238 95.339 77.8721 96.9639C78.8448 97.9228 79.7044 98.9722 80.4831 100.132C80.8812 100.725 80.6096 100.632 80.151 100.379C77.226 98.765 74.2553 96.2388 71.9808 93.6064C71.8614 93.4681 70.6945 92.1742 71.4648 92.4795C72.9965 93.0867 74.3041 94.2563 75.5779 95.3541C77.3526 96.8837 82.2225 102.052 80.3911 100.609C77.4332 98.2792 74.6773 95.9553 72.1699 93.0027C71.2097 91.872 70.2134 90.7267 69.5129 89.3634C69.3198 88.9875 70.6521 90.3449 70.8108 90.5017C73.949 93.6035 77.0532 96.8267 79.8853 100.287C79.9252 100.336 81.0339 101.662 80.2123 101.379C79.3074 101.068 78.3118 100.446 77.4736 99.9536C75.3585 98.7124 73.3482 97.1915 71.383 95.6761C70.6296 95.0951 69.8942 94.4824 69.1246 93.9283C68.7693 93.6725 67.9433 92.9433 67.4385 93.0429C66.9848 93.1325 68.3479 95.7745 68.445 95.9463C69.142 97.1787 69.9035 98.361 70.5808 99.6086C70.9111 100.217 71.6487 101.276 71.6487 102.069C71.6487 102.351 71.3554 101.959 71.3421 101.943C70.7606 101.218 70.2704 100.371 69.7582 99.5856C68.4356 97.5575 67.2313 95.4423 66.2071 93.2039C65.8519 92.4277 65.6695 91.6228 66.4063 92.721C67.8326 94.8467 68.9456 97.3561 70.0086 99.7236C70.3944 100.583 70.7378 101.468 70.9845 102.391C71.2004 103.2 70.9332 102.829 70.6166 102.483C69.3426 101.093 68.0433 99.748 66.81 98.3093C66.632 98.1016 64.058 95.4531 64.199 95.1357C64.24 95.0434 64.3406 95.2676 64.4034 95.3426C64.6457 95.6321 64.905 95.9825 65.1187 96.2855C66.0587 97.6178 66.9279 99.0103 67.7961 100.402C68.3452 101.282 68.8882 102.167 69.4925 103.001C69.8443 103.486 71.121 104.579 70.5808 104.427C70.2933 104.346 69.8306 103.767 69.6458 103.576C68.6982 102.594 67.821 101.524 66.9377 100.471C65.9737 99.3216 64.0575 97.6296 63.8056 95.9291C63.7678 95.6737 66.0209 97.6304 66.2735 97.8838C67.5249 99.1393 68.6792 100.519 69.8859 101.828C71.0018 103.039 68.7132 101.068 68.5217 100.908C67.1713 99.7827 65.7497 98.6898 64.7355 97.1537C63.8175 95.7631 65.0959 96.5831 65.691 96.9927C66.8918 97.8191 67.9664 99.0014 69.2881 99.5856C69.5138 99.6854 69.611 99.6825 69.4669 99.4304C69.0176 98.644 68.5187 97.9075 68.1078 97.0904C67.4909 95.8635 66.4663 93.484 67.3056 92.0885C67.4365 91.8709 68.2509 91.1971 68.2969 91.8356C68.376 92.9339 67.8146 94.1865 67.745 95.3081C67.663 96.6317 67.6372 95.9648 67.3209 95.1529C66.8694 93.9938 66.2562 93.0012 65.3844 92.2035C65.2786 92.1067 64.9602 91.8955 65.2107 92.192C65.8188 92.9117 66.6503 93.4307 67.3567 94.0088" stroke="#E1BE8C" stroke-width="3" stroke-linecap="round"/>
<path d="M60.8892 93.9157C61.9493 94.7812 63.1541 95.3623 64.2858 96.0938C65.4725 96.8609 66.5607 97.771 67.7702 98.4984C68.2915 98.8119 68.755 99.2383 69.2259 99.6369C70.0143 100.304 70.8116 100.955 71.5797 101.652C71.5798 101.653 72.339 102.336 72.2302 102.384C71.9645 102.502 71.5978 102.519 71.3268 102.576C70.8768 102.67 70.4378 102.776 70.0079 102.954C69.3072 103.243 68.5489 102.943 67.8992 102.582C66.6612 101.894 65.6419 100.837 64.5697 99.8866C64.2773 99.6275 63.9613 99.3899 63.7128 99.0793C63.2394 98.4874 62.8204 97.9149 62.2159 97.482C61.4235 96.9146 60.5453 96.5094 60.0065 95.6001C59.9176 95.4499 59.8533 95.2778 59.7484 95.1383C59.5577 94.8847 59.5421 94.5237 59.3458 94.27C59.0063 93.8314 59.2481 93.1616 59.4955 92.7772C60.0649 91.8924 61.2889 91.9086 61.8287 90.9883C61.8733 90.9122 62.1312 90.3615 62.0378 90.2738C62.0279 90.2646 62.0164 90.2909 62.0094 90.3029C61.3761 91.3873 62.8155 88.9942 61.7513 90.7792C61.4639 91.2612 61.1266 91.6973 60.8118 92.1557C60.6797 92.348 60.2457 92.8104 60.2233 93.0793C60.2162 93.1646 60.3847 93.0935 60.4504 93.0502C60.9314 92.734 61.355 92.2807 61.7822 91.8827C61.8208 91.8469 62.5049 91.2397 62.5049 91.2467C62.5049 91.7679 62.069 92.3762 61.9061 92.8527C61.7571 93.2888 61.8854 93.1686 62.061 92.8644C62.3553 92.3544 62.6306 91.8297 62.9205 91.3164C63.2164 90.7926 63.3724 90.5242 63.6612 90.0241C63.7526 89.8658 63.8033 89.6573 63.9451 89.5565C63.9582 89.5472 63.9638 89.5888 63.9606 89.6059C63.9211 89.8212 63.7472 90.3154 63.6974 90.4539C63.4241 91.2134 63.1197 91.959 62.8353 92.7133C62.7904 92.8325 62.2187 94.1888 62.6495 93.3348C62.9399 92.7591 63.2201 92.1334 63.5993 91.6214C63.6495 91.5536 63.6338 91.8 63.6148 91.8857C63.4256 92.7372 63.1356 93.5645 62.8714 94.389C62.7985 94.6168 62.6928 94.8609 62.6288 95.0948C62.5619 95.3396 62.8689 94.6592 62.9798 94.4355C63.7983 92.7847 64.4828 90.9838 65.4473 89.4316C65.8577 88.7711 65.1883 91.0213 64.9724 91.7898C64.8061 92.3815 64.6408 92.9729 64.482 93.5672C64.4223 93.7905 64.3991 93.8838 64.3374 94.0841C64.3235 94.1295 64.262 94.2494 64.2961 94.2206C64.3086 94.2101 64.3144 94.1923 64.322 94.177C64.46 93.9006 64.587 93.6173 64.7246 93.3406C65.2719 92.24 65.8564 91.1704 66.4926 90.1315C66.6612 89.8561 66.8329 89.583 67.0114 89.3155C67.1209 89.1512 67.3973 88.6804 67.4037 88.8856C67.4183 89.3524 67.1965 89.791 67.063 90.2332C66.7768 91.1812 66.3695 92.3937 66.0564 93.3116C65.6197 94.5919 65.1613 95.8624 64.7169 97.1393C64.6221 97.4114 64.4787 97.7494 64.4304 98.0512C64.4173 98.1327 64.5434 97.9413 64.5826 97.8711C64.9422 97.2278 65.2595 96.5558 65.5944 95.8963C65.6321 95.8221 66.126 94.8299 65.9609 95.452C65.8832 95.7447 65.7976 96.0349 65.7157 96.3261C65.6209 96.663 65.6525 96.5367 65.757 96.2913C66.0963 95.4941 66.5273 94.7517 66.9959 94.0434C67.1108 93.8698 67.2328 93.7104 67.2566 93.9912C67.2659 94.1016 67.3313 94.2174 67.4088 94.2845C67.5245 94.3846 67.6678 94.4394 67.796 94.5139C68.1957 94.7463 68.5297 95.068 68.8645 95.4026C69.619 96.1564 70.3197 96.9373 70.919 97.8537C71.511 98.7589 72.1591 99.6358 72.1992 100.807C72.2353 101.865 71.4088 103.115 70.4235 103.209C70.0132 103.248 69.7573 103.255 69.6233 102.803" stroke="#E1BE8C" stroke-width="3"/>
<path d="M72.0859 89.8384C72.5627 90.1758 73.0764 90.4393 73.5519 90.7793C73.8346 90.9814 74.0614 91.2701 74.3469 91.4589C74.7506 91.7258 75.1116 92.0154 75.5496 92.1907C75.9454 92.3492 76.2395 92.6753 76.5511 92.9807C76.8079 93.2324 77.0881 93.4421 77.3512 93.6835C77.6789 93.9841 77.9649 94.2934 78.2545 94.6477C78.7375 95.2384 79.2286 95.7533 79.6586 96.4018C79.9534 96.8464 80.3297 97.2068 80.66 97.6157C80.9314 97.9517 81.1158 98.3574 81.3775 98.7019C81.722 99.1553 82.165 99.5323 82.5648 99.9216C82.7238 100.076 82.9582 100.296 83.05 100.502" stroke="#E1BE8C" stroke-linecap="square"/>
<path d="M82.26 100.868C81.2266 99.7564 80.1881 98.5971 79.0647 97.5982C78.5996 97.1846 78.0661 96.8829 77.5884 96.4888C77.1247 96.1063 76.668 95.7363 76.1946 95.3736C75.5642 94.8907 74.9832 94.377 74.3982 93.8228C73.9048 93.3552 73.3985 92.9033 73.0484 92.2807C72.9322 92.074 72.774 91.8528 72.7825 91.604C72.7969 91.1835 73.7035 91.7225 73.8149 91.7811C74.6414 92.2165 75.2357 92.8379 75.9159 93.4975C76.2568 93.8281 76.5709 94.1642 76.876 94.5372C76.9483 94.6256 77.2373 94.8884 77.2373 95.0367C77.2373 95.0843 75.9238 94.451 75.8333 94.392C75.3943 94.1057 74.9967 93.7461 74.5841 93.4162C74.1679 93.0835 73.716 92.7949 73.3142 92.4404C73.0169 92.1781 72.7476 91.8297 72.5709 91.453C72.5488 91.4058 72.4785 91.3027 72.576 91.3252C73.0114 91.4257 73.4436 91.6645 73.8511 91.8537C74.4155 92.1159 75.0381 92.3257 75.5752 92.6553C75.6148 92.6796 75.7227 92.7441 75.6784 92.754C75.4672 92.8016 74.9627 92.4603 74.806 92.3823C74.2025 92.0818 73.6408 91.7153 73.0561 91.3775C72.7158 91.1808 73.3357 91.4391 73.4149 91.4646C73.6639 91.5447 74.3321 91.9894 74.1298 91.8073C73.686 91.4077 73.1565 91.0609 72.6741 90.7211C72.6473 90.7022 72.4313 90.6012 72.416 90.5498C72.3702 90.395 72.7075 90.5552 72.8496 90.5875C73.5214 90.7404 74.192 90.9817 74.7441 91.453C74.8506 91.5439 74.947 91.7096 74.7105 91.5982C73.914 91.2227 73.1768 90.7044 72.3541 90.3958C72.3091 90.379 72.1772 90.3434 72.3489 90.3726C72.657 90.4249 72.9618 90.5021 73.2626 90.5933C73.6679 90.7162 74.2567 90.8293 74.6099 91.1132C74.9045 91.35 74.0743 90.5615 73.7788 90.3261C73.3405 89.9771 72.7546 89.6877 72.3721 89.2574C72.2714 89.1441 72.6313 89.3908 72.7619 89.4549C73.0306 89.5868 73.3014 89.7109 73.5749 89.8295C73.7425 89.9022 73.9129 89.9723 74.0679 90.0764C74.2371 90.1901 73.6952 89.9297 73.5155 89.8382C73.4121 89.7856 73.3086 89.7329 73.2058 89.6785C73.1211 89.6337 72.8788 89.5757 72.9606 89.5246C73.0317 89.4802 73.2969 89.6073 73.3658 89.6291C73.7489 89.7504 74.1588 89.8458 74.5273 90.0154C74.5605 90.0307 74.0256 89.8533 73.9259 89.8092C73.8815 89.7895 73.1147 89.4568 73.4742 89.5478C73.7156 89.6089 73.8954 89.7524 74.0885 89.9196C74.3955 90.1853 73.7186 89.6663 73.6575 89.6175C73.3242 89.3516 73.5627 89.4541 73.7943 89.5623C74.4266 89.8579 75.0029 90.2366 75.4926 90.7792C76.0279 91.3724 76.5883 91.8908 77.196 92.3881C77.5253 92.6575 77.7836 92.8928 78.0142 93.271C78.3462 93.8152 78.8165 94.133 79.2195 94.5953C79.4288 94.8353 79.5201 95.1871 79.7254 95.4317C79.942 95.6897 80.1778 95.8673 80.4275 96.0996C80.6753 96.3302 80.8683 96.5986 81.0779 96.8721C81.4242 97.3242 81.8979 97.444 82.3064 97.7841C82.7467 98.1505 83.0072 98.7389 83.4524 99.0909C83.8644 99.4167 84.2464 99.7066 84.5571 100.16C84.8926 100.649 85.3696 100.92 85.7856 101.31C85.9767 101.489 86.2474 101.693 86.3947 101.914" stroke="#E1BE8C" stroke-linecap="square"/>
<path d="M74.6873 91.2496C75.3295 92.0018 76.0591 92.6404 76.6437 93.4539C76.9815 93.9238 77.3193 94.3637 77.6968 94.7927C78.436 95.6328 78.9518 96.6226 79.5706 97.5633C80.0567 98.3024 80.5327 99.0579 80.9824 99.8256C81.3593 100.469 81.7238 101.155 82.198 101.716C82.5513 102.134 82.9022 102.573 83.1969 103.046C83.5315 103.584 83.4022 102.955 83.2976 102.637C82.9023 101.434 81.9772 100.419 81.2173 99.4975C80.4563 98.5749 79.6172 97.7564 78.8144 96.8837C78.6666 96.7231 78.1686 96.3215 78.3524 96.4249C79.6868 97.1756 80.8007 98.2925 82.0483 99.2012C82.4014 99.4584 82.7688 99.6883 83.122 99.9447C83.3503 100.111 82.6769 99.5943 82.4561 99.4161C81.8236 98.9056 81.1935 98.3878 80.603 97.8159C80.4319 97.6502 80.2814 97.426 80.1049 97.2671C79.3815 96.6159 81.4871 98.6555 82.1619 99.3697C82.2856 99.5006 82.7021 99.9579 82.833 100.171C82.8824 100.252 82.6667 100.106 82.5955 100.049C82.0833 99.6443 81.5517 99.2618 81.0572 98.8295C80.7372 98.5497 80.4433 98.2388 80.1539 97.9205C80.1286 97.8926 79.8029 97.5992 79.8029 97.4994C79.8029 97.4727 80.9863 98.1049 81.0159 98.1209C81.7357 98.51 82.4953 98.8505 83.1685 99.3406C83.3938 99.5047 83.3226 99.4698 83.1066 99.2651C82.1588 98.3674 81.2799 97.3978 80.3526 96.4771C79.8486 95.9767 80.5437 96.7788 80.6133 96.8663C81.2943 97.7223 82.0745 98.4175 82.7917 99.2245C82.8606 99.302 83.27 99.8087 82.882 99.5526C81.8581 98.8769 80.7587 98.1756 79.9216 97.2148C79.5657 96.8063 80.7941 97.8025 81.2328 98.0918C81.948 98.5636 82.5565 99.1057 83.1943 99.6949C83.2752 99.7697 83.5191 99.9667 83.4163 99.9447C83.1402 99.8855 82.6903 99.3094 82.482 99.1432C81.9986 98.7575 80.4416 97.7871 80.9617 98.1064C81.7399 98.5839 82.4753 99.0467 83.1995 99.6369C83.6002 99.9635 84.0028 100.286 84.3919 100.63C84.9146 101.092 83.2341 99.8792 82.7246 99.3987C82.6961 99.3719 82.0419 98.7726 82.42 98.9921C82.9031 99.2727 83.3551 99.6321 83.8241 99.9418C84.3173 100.268 83.4764 99.7669 83.4163 99.7298C82.9448 99.4391 82.4692 99.1618 81.9787 98.9137C81.7002 98.7729 81.374 98.5796 81.065 98.5217C80.8683 98.4848 81.4308 99.3811 81.4702 99.4452C81.5826 99.6283 82.0225 100.092 82.0225 100.343C82.0225 100.439 81.3585 99.9941 81.2895 99.9447C81.2353 99.9059 80.8312 99.6754 80.8353 99.5846C80.8387 99.5085 81.3683 99.7084 81.3773 99.7124C81.8768 99.9326 82.3951 100.176 82.8794 100.436C83.1932 100.604 82.4353 99.8196 82.3839 99.7646C82.3484 99.7268 81.6775 99.0106 81.9632 99.4336C82.3262 99.971 82.82 100.368 83.215 100.868C83.7119 101.497 81.9619 99.9442 81.3773 99.419C79.9374 98.1257 78.5607 96.7075 77.3819 95.1122C77.3468 95.0646 76.4416 94.0987 76.9225 94.1451C77.3849 94.1897 77.8369 94.4028 78.2285 94.6736C78.4423 94.8215 78.6585 95.1193 78.8944 95.2225C79.0395 95.286 78.6819 94.964 78.5588 94.8566C77.8157 94.2078 77.0698 93.5752 76.3495 92.8934C75.8817 92.4506 75.4192 91.9941 74.9145 91.6039C74.7504 91.4772 74.5509 91.4261 74.3931 91.3077C74.2893 91.2298 74.6401 91.3619 74.7544 91.4181C75.2872 91.6798 75.7376 92.0976 76.1946 92.4926C76.4512 92.7144 76.7142 92.9275 76.9689 93.1519C77.1296 93.2933 77.0188 93.2497 76.9044 93.1228C76.503 92.6774 76.1586 92.1708 75.761 91.7201C75.2885 91.1844 74.772 90.7163 74.2383 90.2622C74.1954 90.2258 73.8126 89.9659 74.0834 90.1112C74.9713 90.5877 75.77 91.1419 76.5353 91.8363C76.6645 91.9535 76.8875 92.0958 76.9896 92.2545C76.9897 92.2546 77.0164 92.3165 76.9999 92.3242C76.95 92.3473 76.9024 92.2696 76.8605 92.2312C76.6337 92.0232 76.4186 91.7985 76.1946 91.5865C76.0788 91.4769 75.8959 91.2514 75.7352 91.2032C75.6734 91.1846 75.6811 91.2213 75.7197 91.2671C75.9751 91.5692 76.2455 91.8632 76.5095 92.1557C76.7053 92.3727 76.9121 92.569 77.1212 92.7685C77.1544 92.8001 77.3521 93.0165 77.1419 92.9166C76.8416 92.774 76.1032 92.0317 76.3495 92.2719C76.7646 92.6767 77.2262 93.0161 77.6194 93.451C77.6504 93.4853 77.7235 93.5264 77.6994 93.5672C77.682 93.5964 77.6442 93.5333 77.6194 93.512C77.4906 93.4015 77.3633 93.2888 77.2348 93.178C77.1042 93.0655 76.8422 92.7561 76.6695 92.7075C76.5453 92.6726 76.8126 92.9474 76.8967 93.056C77.05 93.254 77.5736 93.9006 77.7226 94.0899C77.8736 94.2817 78.1717 94.5544 78.1717 94.8566" stroke="#E1BE8C" stroke-linecap="square"/>
<path d="M74.5337 89.1094L90.0289 102.393" stroke="#E1BE8C" stroke-width="0.5"/>
<path d="M86.7974 101.862C86.149 101.504 85.6169 101.183 85.149 100.562C85.1045 100.504 84.1612 99.276 84.0133 99.4898C83.9695 99.5532 84.6387 100.097 84.65 100.107C85.2694 100.678 85.7979 101.306 86.2657 102.038C86.3621 102.189 86.9593 102.973 86.8559 103.244C86.835 103.299 86.7998 103.143 86.7767 103.089C86.6874 102.882 86.5999 102.68 86.479 102.493C86.1567 101.993 85.7261 101.59 85.3967 101.099C85.2236 100.841 85.0489 100.419 85.4897 100.677C86.0142 100.984 86.5497 101.257 86.966 101.745C87.0161 101.804 87.1897 101.981 87.1897 102.078C87.1897 102.129 86.8795 101.834 86.8765 101.831C86.5121 101.427 86.1194 101.016 85.7925 100.574C85.5914 100.303 86.273 101.029 86.51 101.261C86.6313 101.38 86.7447 101.503 86.8524 101.637C86.8901 101.684 87.0166 101.86 86.8886 101.716C86.6711 101.472 86.4724 101.196 86.2777 100.928C86.0355 100.595 87.5108 101.931 87.2482 101.618C87.0949 101.435 86.8627 101.309 86.6804 101.165C86.6627 101.151 86.9752 101.522 87.0451 101.618" stroke="#E1BE8C" stroke-linecap="square"/>
<path d="M85.4191 100.921C85.6408 100.359 86.5533 101.096 86.8386 101.281C86.8401 101.282 87.5928 101.78 87.5355 101.862C87.3763 102.09 86.4211 101.27 86.3173 101.159C86.2373 101.073 85.7817 100.59 85.8114 100.409C85.8341 100.272 86.2746 100.295 86.3637 100.293C86.5553 100.29 86.2713 100.281 86.2089 100.247C86.0503 100.16 85.8968 100.017 85.7546 99.8983C85.743 99.8886 85.9863 99.9595 86.0437 99.9912C86.0817 100.012 86.2504 100.097 86.2347 100.177C86.2294 100.204 86.0756 100.183 86.1934 100.189C86.4026 100.2 86.6244 100.286 86.8077 100.398C86.9999 100.515 86.6523 100.32 86.6115 100.293C86.2054 100.027 86.7016 100.266 86.849 100.439C86.9173 100.518 86.9258 100.492 87.0348 100.514C87.2111 100.55 87.4133 100.682 87.5278 100.839C87.5634 100.888 87.5198 100.921 87.5639 100.95C87.6264 100.991 87.7087 101.005 87.7652 101.054C87.8441 101.123 87.9187 101.122 87.9949 101.179C88.2046 101.336 87.5017 101.063 87.2568 100.996C87.0212 100.932 86.6771 100.713 86.5237 100.502C86.278 100.164 85.7188 99.9138 85.3571 99.7937C84.9363 99.654 84.6109 99.3863 84.2576 99.0909C83.8876 98.7815 83.4749 98.4657 83.1478 98.0977C82.9494 97.8744 82.7728 97.7308 82.5258 97.572C82.3233 97.4418 82.0155 97.3768 81.8831 97.1451C81.6488 96.735 81.4134 96.4393 81.1011 96.1112C80.9309 95.9325 80.6964 95.7923 80.5616 95.5768C80.3562 95.2484 80.1616 94.9528 79.8441 94.7637C79.5973 94.6166 79.3787 94.4832 79.1472 94.2932C79.0074 94.1784 78.6827 94.0901 78.6827 93.8372C78.6827 93.5106 78.3879 93.3512 78.2645 93.1083C78.2483 93.0763 78.009 92.9747 77.9626 92.9747C77.8553 92.9747 77.6435 92.8941 77.5574 92.8295C77.4475 92.7471 77.2241 92.6415 77.196 92.452C77.1555 92.1786 76.8003 91.9478 76.6411 91.7985C76.5085 91.6742 76.2937 91.5456 76.1249 91.5139C76.0089 91.4922 76.0061 91.4854 75.9184 91.4065C75.8781 91.3702 75.8078 91.2103 75.7765 91.2003C75.6251 91.1516 75.4886 90.8457 75.3119 90.7733C75.1751 90.7174 75.024 90.432 74.9196 90.3145C74.8533 90.2399 74.8039 90.2284 74.757 90.1286C74.7104 90.0297 74.6332 90.0756 74.584 89.995C74.4495 89.7749 74.2043 89.9278 74.2227 89.5768C74.2248 89.536 74.3623 89.4435 74.3982 89.4839C74.4695 89.5641 74.3689 89.7135 74.4782 89.8092C74.5721 89.8913 74.6636 89.8376 74.7544 89.9689C74.8057 90.0432 74.8664 90.0509 74.9196 90.1257C75.0122 90.256 75.3185 90.1535 75.4203 90.268C75.4811 90.3364 75.47 90.4006 75.57 90.4539C75.6875 90.5165 75.7999 90.5693 75.8849 90.6862C75.9898 90.8306 76.0739 91.0295 76.1739 91.2264C76.4056 91.6826 76.9136 91.6792 77.2993 91.9524C77.4465 92.0567 77.7014 92.2209 77.7896 92.3997C77.8506 92.5231 77.9878 92.5977 78.089 92.6843C78.2191 92.7956 78.2717 93.0167 78.4246 93.0793C78.6137 93.1566 78.819 93.478 78.9821 93.6281C79.125 93.7597 79.259 93.9146 79.3795 94.0696C79.4391 94.1462 79.5137 94.3571 79.5654 94.3861" stroke="#E1BE8C" stroke-linecap="round"/>
<path d="M79.6587 93.9158C79.9901 94.587 80.5958 94.9641 81.0163 95.5363C81.2078 95.7968 81.4748 95.9595 81.708 96.1636C81.8096 96.2525 81.9244 96.2418 82.0332 96.303C82.2199 96.408 82.4364 96.5625 82.5752 96.7386C82.9034 97.155 83.1501 97.7635 83.7005 97.8364C83.7897 97.8482 83.9031 98.0059 83.9999 98.0455C84.0557 98.0683 84.2241 98.1834 84.2606 98.2314C84.4301 98.4539 84.732 98.6095 84.9523 98.7541C85.1666 98.8948 85.3872 99.1151 85.5847 99.242C85.6779 99.302 85.9137 99.4047 85.6931 99.4047C85.4615 99.4047 85.2243 99.4244 85.0014 99.3408C84.8645 99.2894 84.7507 99.2478 84.6065 99.2478C84.3045 99.2478 84.0025 99.2478 83.7005 99.2478" stroke="#E1BE8C" stroke-linecap="round"/>
<path d="M86.209 99.666C86.2592 99.9232 86.3359 100.287 86.3949 99.8228" stroke="#E1BE8C" stroke-linecap="round"/>
<path d="M84.6293 98.4637C84.4491 98.3086 84.3138 98.127 84.1183 98.0048C84.0218 97.9445 83.8633 97.9831 83.7905 97.9148C83.6984 97.8284 83.5359 97.7962 83.4214 97.7318C83.2584 97.6401 83.2805 97.399 83.1685 97.363C83.1489 97.3567 83.0715 97.2599 83.0601 97.2381C83.0083 97.139 82.9801 97.2054 82.9207 97.1452C82.902 97.1263 82.7712 96.833 82.8407 96.9738C83.0034 97.3033 83.1672 97.2472 83.4447 97.3165C83.4831 97.3261 83.5821 97.3736 83.5969 97.4182C83.6388 97.5437 83.1735 97.3908 83.153 97.3804C82.7845 97.1934 82.4375 96.9872 82.038 96.8954C81.8729 96.8575 81.6826 96.7484 81.5166 96.7386C81.3704 96.7299 81.4082 96.4673 81.5218 96.4308C81.6341 96.3947 81.8418 96.3726 81.8418 96.2159C81.8418 96.1088 81.8453 95.7876 81.7231 95.7483C81.5865 95.7043 81.4168 95.5973 81.2844 95.5886C81.221 95.5844 81.2006 95.4086 81.1192 95.3824C81.0034 95.3451 80.9428 95.2749 80.8198 95.2749" stroke="#E1BE8C" stroke-linecap="round"/>
<path d="M84.072 98.0454C84.0017 97.9409 83.897 97.6272 83.7933 97.6272C83.6759 97.6272 83.5793 97.5749 83.4681 97.5749C83.2554 97.5749 82.957 97.4104 82.957 97.1567" stroke="#E1BE8C" stroke-linecap="round"/>
<path d="M64.5727 103.223L55.7183 95.7511L58.3008 92.8452" stroke="#E1BE8C" stroke-width="0.5"/>
<path d="M60.75 97.6797C60.7776 97.8278 60.7818 98.1474 60.8481 98.2779C60.8742 98.3293 60.9456 98.2815 60.972 98.3302C61.0104 98.401 61.0268 98.5186 61.052 98.5974C61.1629 98.944 61.281 99.114 61.5605 98.9343C61.6823 98.856 61.8525 99.3857 61.8831 99.5006C61.9462 99.7374 61.9539 99.705 62.1619 99.669C62.2991 99.6453 62.1852 99.7925 62.2419 99.8404C62.2926 99.8832 62.4225 99.4412 62.4225 99.5209C62.4225 99.6773 62.4509 100.759 62.598 100.189C62.6365 100.04 62.6412 100.259 62.6548 100.331C62.6909 100.522 62.6965 100.704 62.7013 100.897C62.7031 100.971 62.7766 100.774 62.7942 100.703C62.8016 100.673 62.9054 100.256 62.9078 100.258C63.0385 100.406 63.0729 100.818 63.0729 101.025C63.0729 101.205 63.1952 100.706 63.2123 100.642C63.2452 100.519 63.2041 100.953 63.3052 101.014C63.4052 101.073 63.4239 100.886 63.4446 100.816" stroke="#E1BE8C" stroke-linecap="round"/>
<path d="M63.4443 100.816C63.7744 101.13 64.1138 101.495 64.5103 101.699C64.8089 101.853 65.1215 101.971 65.4162 102.135C65.8348 102.368 66.2219 102.639 66.5854 102.959C66.6089 102.98 67.1186 103.316 66.9364 103.401C66.5765 103.568 65.8927 103.159 65.5814 102.988C65.0871 102.718 64.6824 102.4 64.2599 102.018C64.2216 101.984 63.8016 101.711 63.9683 101.769C64.2268 101.858 64.5668 102.094 64.7813 102.28C64.9394 102.417 65.03 102.631 65.1607 102.797C65.2577 102.92 65.32 102.931 65.1117 102.901C64.971 102.882 64.8424 102.793 64.6987 102.803C64.6349 102.807 64.8786 102.963 64.9026 102.986C65.114 103.182 65.0767 103.221 64.8381 103.221C64.6992 103.221 64.6648 102.932 64.6058 102.803C64.5411 102.661 64.3344 102.41 64.2135 102.332C63.9938 102.191 63.8681 101.894 63.6302 101.745C63.4093 101.607 63.1332 101.319 62.9798 101.104C62.8962 100.986 62.8014 100.864 62.701 100.764C62.6365 100.699 62.562 100.675 62.5178 100.584C62.4671 100.479 62.3963 100.539 62.3293 100.473C62.0884 100.236 61.7862 100.19 61.5654 99.9274C61.3501 99.6717 61.2141 99.2912 60.9588 99.0678C60.8779 98.997 60.6375 98.8297 60.5433 98.8297C60.5167 98.8297 60.3987 98.7726 60.3884 98.789C60.3462 98.8569 60.7081 99.3468 60.7498 99.4221C60.9569 99.7963 61.3252 99.9951 61.6583 100.212C61.9269 100.387 62.2184 100.482 62.4455 100.738C62.5143 100.815 62.6836 101.069 62.6339 100.926C62.4348 100.356 62.1839 99.8116 61.9912 99.2333C61.9291 99.047 61.8712 98.8078 61.7409 98.6612C61.6477 98.5564 61.3331 98.2408 61.1911 98.2053C61.0099 98.16 60.9327 97.8127 60.8582 97.6506C60.5986 97.0859 60.0949 96.8186 59.609 96.5528C59.3859 96.4308 59.0778 96.2966 58.845 96.2217C58.6498 96.159 58.5097 96.0005 58.334 95.8906C58.1606 95.7823 57.8593 95.6932 57.6603 95.6932C57.4085 95.6932 57.2305 95.5886 56.9867 95.5886C56.917 95.5886 56.3524 95.5722 56.3905 95.7222C56.4302 95.8786 56.6691 96.0977 56.7776 96.1927C56.8777 96.2802 57.0269 96.2594 57.1157 96.3321C57.3462 96.5207 57.6524 96.5928 57.8436 96.8693C58.1269 97.2792 58.3923 97.5874 58.8347 97.7842C59.4929 98.077 60.0967 98.6638 60.6801 99.1143C60.8138 99.2175 61.1941 99.5575 61.075 99.4337C60.64 98.9819 60.1719 98.5734 59.7277 98.1327C59.4814 97.8883 59.2261 97.664 58.9792 97.4182C58.6665 97.107 58.3889 96.7607 58.0681 96.4599C58.0318 96.4258 57.8559 96.2634 57.8952 96.2566C58.323 96.1817 58.7491 96.4953 59.085 96.7503C59.6544 97.1824 60.2433 97.5541 60.8272 97.9584C60.8427 97.9691 61.4349 98.4023 61.3331 98.4928C61.2052 98.6063 60.755 98.2183 60.6414 98.1588C60.6159 98.1455 60.22 97.9885 60.3523 98.1094C60.4385 98.1882 60.7831 98.4727 60.6285 98.6467C60.5496 98.7354 60.1685 98.675 60.1484 98.7542C60.0924 98.9747 60.0056 98.6467 59.9703 98.5276C59.7091 97.6459 59.1916 96.8778 58.5662 96.2914C58.3398 96.0791 58.1152 95.893 57.9158 95.6438C57.7714 95.4632 57.5316 95.2636 57.3222 95.182C57.2118 95.139 57.0554 95.1704 56.9402 95.1704C56.8844 95.1704 57.179 94.9632 57.219 94.9352C57.2903 94.885 57.4377 94.7759 57.5209 94.7551C57.6407 94.7251 57.7099 94.5698 57.8229 94.5024C57.943 94.4309 58.1481 94.0364 58.1481 93.8635" stroke="#E1BE8C" stroke-linecap="round"/>
<path d="M58.3341 92.9749C58.1471 93.1984 58.0476 93.4614 57.9392 93.7299C57.8815 93.8727 57.8092 94.1061 57.7198 94.2178C57.6197 94.343 57.5537 94.41 57.4281 94.5199C57.2677 94.6603 57.1366 94.8484 56.961 94.9613C56.9012 94.9998 56.6872 95.3951 56.739 95.4318C56.9735 95.5979 57.4736 95.5464 57.7456 95.577C58.012 95.607 58.2559 95.6357 58.4167 95.3563C58.4845 95.2382 58.7933 94.4067 58.3599 94.546C58.2185 94.5915 58.4177 96.0163 58.3289 94.7667C58.3005 94.3668 58.1076 94.7739 58.1018 94.9497C58.0948 95.1612 58.1419 94.8444 58.1586 94.8045C58.1753 94.7643 57.9982 95.1207 57.9443 95.214C57.797 95.4689 57.8842 94.5575 57.8927 94.4502C57.9265 94.024 57.8527 94.1435 57.6837 94.4153C57.4541 94.7843 57.6976 94.081 57.7559 93.9739C57.8921 93.7239 57.9624 93.6878 57.9624 93.3814C57.9624 93.2469 57.6576 93.771 57.7817 93.5266C57.833 93.4258 58.0266 93.3946 58.0527 93.2624C58.057 93.2409 58.1246 93.0777 58.1456 93.1607C58.2646 93.6292 57.4978 93.9509 57.4978 94.334" stroke="#E1BE8C" stroke-linecap="round"/>
<path d="M48.3398 105.714L54.9806 93.2605" stroke="#FFDCA0" stroke-width="0.5"/>
<path d="M49.8848 99.069C49.8179 98.8596 49.7168 98.8722 49.5238 98.9157C49.4887 98.9236 49.0805 99.1059 49.033 99.0446C49.0102 99.0153 49.0273 98.9651 49.0373 98.9279C49.0961 98.7103 49.3079 98.295 49.3768 98.1518C49.7648 97.3454 50.1537 96.5347 50.5767 95.7506C50.9285 95.0985 51.3185 94.4585 51.8653 93.9942C51.9489 93.9232 51.7046 94.1455 51.6275 94.2253C50.9688 94.9062 50.4024 95.7138 49.8503 96.4999C48.5255 98.386 47.2654 100.33 46.0537 102.309C45.2599 103.606 44.4702 104.921 43.8051 106.309C43.5535 106.834 43.3282 107.384 43.1284 107.936C43.1124 107.981 43.09 108.023 43.083 108.07C43.065 108.192 43.1873 107.853 43.2386 107.744C44.2153 105.67 45.3591 103.69 46.4861 101.716C46.7107 101.322 47.4754 100.214 47.2082 100.572C46.9427 100.928 46.7168 101.32 46.4731 101.694C45.9211 102.542 45.3278 103.35 44.7521 104.178C44.581 104.424 44.4129 104.672 44.2462 104.922C44.1008 105.14 43.7178 105.782 43.7424 105.511C43.7692 105.216 43.8616 104.932 43.9435 104.65C44.2707 103.523 44.8902 101.719 45.2753 100.665C45.7616 99.3343 46.3328 98.0855 46.9012 96.8065C47.051 96.4694 46.5174 97.4244 46.3196 97.7285C45.6515 98.7554 44.9687 99.7701 44.2937 100.791C43.5587 101.904 42.8636 103.057 42.11 104.153C41.5651 104.946 43.1132 102.497 43.6062 101.662C44.018 100.965 44.3962 100.245 44.7953 99.5385C45.0225 99.1366 45.2599 98.6382 45.5521 98.2807C45.6999 98.0999 45.4283 98.7539 45.3359 98.9765C44.6934 100.522 43.9685 102.028 43.2343 103.521C42.8715 104.259 42.504 104.999 42.1014 105.71C42.0556 105.791 42.0169 105.881 41.9544 105.946C41.8059 106.102 42.113 105.527 42.2009 105.321C43.0031 103.446 43.729 101.53 44.5618 99.6723C44.6269 99.5272 44.6964 99.3847 44.7607 99.2392C44.8039 99.1417 44.8737 99.0002 44.7478 99.1614C44.3865 99.6239 44.0529 100.125 43.7186 100.611C42.6439 102.174 41.5394 103.761 40.6961 105.501C40.6772 105.54 40.6704 105.59 40.6398 105.618C40.5376 105.711 40.7182 105.335 40.7609 105.195C41.0708 104.179 41.4008 103.173 41.7771 102.185C42.2726 100.884 42.8277 99.6143 43.39 98.3488C43.5435 98.0034 44.0676 97.0166 43.8419 97.3076C43.0035 98.3886 42.281 99.64 41.5674 100.828C41.2269 101.395 41.4781 100.8 41.5825 100.524C42.1147 99.1177 42.7232 97.7546 43.3554 96.4026C43.9693 95.0897 44.5547 93.7205 45.271 92.4713C45.3763 92.2876 45.1163 92.8722 45.0332 93.0697C44.5228 94.2827 43.9828 95.4774 43.4116 96.6556C42.5626 98.4071 41.6212 100.106 40.8279 101.891C40.2812 103.121 42.0255 99.4921 42.6506 98.3099C42.9286 97.7842 43.2057 97.215 43.5413 96.7286C43.5651 96.6941 43.5944 96.6189 43.6278 96.641C43.6628 96.6642 43.6267 96.7336 43.6148 96.7773C43.5767 96.9171 43.5272 97.0528 43.4786 97.1884C43.0182 98.4743 42.4252 99.6931 41.8852 100.937C41.829 101.067 41.7672 101.201 41.7209 101.336C41.6667 101.495 41.8305 101.02 41.8852 100.862C42.2128 99.9141 42.6153 99.0005 42.9576 98.0618" stroke="#E1BE8C" stroke-width="4" stroke-linecap="round"/>
<path d="M48.6787 96.9231C49.1826 96.3979 49.6344 95.8093 50.1403 95.2883C50.165 95.2628 50.2501 95.2118 50.2332 95.2445C50.1112 95.4806 49.9576 95.6942 49.816 95.916C49.0244 97.1557 48.1985 98.3707 47.4636 99.6551C47.3163 99.9126 47.1458 100.212 47.0874 100.524C47.0778 100.575 47.0827 100.57 47.109 100.509C47.3103 100.047 47.5065 99.592 47.7317 99.1418C48.3247 97.9566 50.2706 94.5186 49.5543 95.6143C48.9515 96.5365 48.2958 97.4099 47.6733 98.3147C46.967 99.3414 46.3987 100.454 45.7859 101.55C44.7502 103.403 47.5203 97.6238 48.5641 95.7773C49.2405 94.5807 49.9158 93.2743 50.7219 92.1743C50.7803 92.0945 50.6517 92.366 50.6073 92.4565C50.2317 93.2219 49.8363 93.9735 49.4095 94.7044C48.7587 95.819 48.0409 96.8787 47.3598 97.9692C47.2934 98.0756 47.0525 98.4728 46.9663 98.6066C46.9359 98.6539 46.9043 98.7003 46.8712 98.7453C46.8301 98.801 46.7944 98.8516 46.8301 98.738C47.118 97.8227 47.5222 96.9149 47.9025 96.0473C48.2897 95.1643 48.5231 94.6851 48.9663 93.8432C49.1139 93.5628 49.2686 93.2873 49.4225 93.0112C49.5478 92.7863 49.7299 92.5922 49.803 92.3398C49.8642 92.1283 49.544 92.6764 49.4268 92.8555C48.7723 93.8558 48.1336 94.919 47.5371 95.9549C46.4613 97.8233 45.4431 99.6924 44.4281 101.604C43.5644 103.23 42.7947 104.996 41.8487 106.569C41.5992 106.984 42.2183 105.657 42.4217 105.212C42.9489 104.056 43.9587 101.888 44.4627 100.804C45.509 98.5518 46.4878 96.2283 47.6279 94.033C48.1854 92.9596 46.6973 96.2902 46.1664 97.3805C45.1592 99.4487 44.0933 101.491 43.0033 103.506C42.9154 103.669 42.8441 103.814 42.9406 103.531C43.103 103.053 43.4309 102.21 43.5784 101.837C44.5388 99.4114 45.6489 97.061 46.5815 94.6217C46.6273 94.502 46.7467 94.1397 46.681 94.2471C46.3847 94.731 46.1241 95.2414 45.8421 95.7359C44.1876 98.6366 42.5345 101.538 41.1071 104.591C40.8648 105.11 40.8029 105.252 40.625 105.693C40.5626 105.848 40.543 105.897 40.6272 105.718C41.6945 103.447 42.6454 101.105 43.6368 98.7915C44.0162 97.906 44.3433 97.1411 44.7308 96.2809C44.8267 96.068 45.064 95.4129 45.0291 95.6484C44.9839 95.9539 44.7729 96.1967 44.6443 96.4706C43.9368 97.9771 43.2361 99.4877 42.519 100.988C41.9407 102.198 40.0811 105.75 40.7093 104.572C41.7402 102.639 42.6477 100.619 43.5092 98.5847C44.0327 97.3488 44.6012 96.0908 45.0421 94.8115C45.055 94.7741 45.0904 94.6634 45.068 94.6947C44.986 94.8098 44.9249 94.9422 44.8583 95.0693C43.9398 96.8239 43.0773 98.6203 42.2098 100.407C41.2087 102.469 40.1684 104.532 39.3602 106.703C39.2325 107.046 39.2414 107.058 39.3126 106.878C39.8136 105.615 40.3345 104.363 40.8499 103.107C41.8544 100.659 42.8038 98.186 43.7751 95.7213C43.8666 95.4892 44.1686 94.8075 44.0605 95.0304C43.7229 95.7269 43.3844 96.4172 43.0357 97.108C41.8649 99.4275 40.6838 101.739 39.6196 104.124C39.394 104.63 39.2166 105.062 39.0056 105.56C38.9887 105.6 38.9413 105.721 38.9537 105.679C39.042 105.381 39.1817 105.105 39.2996 104.82C40.1409 102.788 41.0033 100.768 41.8055 98.7161C42.2238 97.646 42.3496 97.2936 42.7179 96.2882C42.9956 95.5299 43.1239 95.2047 42.5903 96.242C41.439 98.4803 40.3263 100.744 39.2434 103.025C39.1136 103.298 38.9855 103.573 38.8564 103.847C38.8082 103.949 38.7971 104.089 38.7116 104.153C38.6316 104.213 38.7956 103.959 38.837 103.862C39.2366 102.919 39.268 102.838 39.7299 101.718C40.591 99.6307 41.4474 97.5405 42.3374 95.4683C42.4489 95.2086 42.5661 94.9288 42.6941 94.6728C42.8569 94.3472 42.3925 95.3385 42.2357 95.6678C41.1412 97.9675 40.0275 100.257 38.971 102.579C38.8901 102.757 38.6453 103.289 38.7353 103.117C38.9956 102.619 39.2017 102.042 39.4207 101.526C39.9874 100.19 40.5643 98.8612 41.1504 97.5362C41.2233 97.3713 41.3666 97.2241 41.3666 97.0399C41.3666 96.9928 41.3294 97.1244 41.3104 97.1664C41.1225 97.5806 41.0862 97.6558 40.8585 98.1347C40.4781 98.9345 40.0762 99.7258 39.7342 100.548C39.2934 101.608 40.7482 98.5038 41.2152 97.4583C41.4901 96.843 41.9367 96.0252 42.0584 95.3175C42.0912 95.1273 41.9008 95.6619 41.8206 95.8332C41.3352 96.8709 40.8302 97.8965 40.3223 98.9204C40.1219 99.3245 39.7877 99.9936 39.5656 100.436C39.5095 100.548 39.3817 100.895 39.3905 100.767C39.4026 100.589 39.5151 100.438 39.585 100.278C39.9841 99.3631 40.4121 98.4645 40.8217 97.5557C41.2085 96.6975 41.5739 95.8303 41.933 94.9574C41.9891 94.8212 42.1112 94.4924 42.093 94.8601C42.0786 95.1518 42.0287 95.4417 41.972 95.7262C41.9587 95.7925 41.9287 95.8576 42.0001 95.7651C42.3 95.3762 42.5649 94.9421 42.8368 94.5293C43.4216 93.6412 43.9923 92.7416 44.5708 91.8483C44.6807 91.6786 44.9521 91.2602 45.0897 91.0601C45.1144 91.0242 45.3232 90.6884 45.1913 91.009C44.7486 92.085 44.1957 93.1 43.7405 94.1692C43.7021 94.2594 43.5903 94.5258 43.6497 94.4514C43.8831 94.1597 44.0697 93.7884 44.2897 93.4832C44.4889 93.2068 44.8087 92.7863 45.0183 92.5149C45.149 92.3457 45.2436 92.0765 45.4399 92.0381C45.6203 92.0028 45.1139 93.6609 45.081 93.7459C44.3699 95.5868 45.3498 93.0106 44.7567 94.539C44.7399 94.5823 44.7172 94.7167 44.7437 94.6801C45.5772 93.5321 46.198 92.2039 47.0485 91.0626C47.1934 90.8682 47.4565 90.5264 47.6669 90.3497C47.8334 90.2098 47.7781 90.3521 47.7231 90.52C47.2117 92.0804 46.452 93.5574 45.8291 95.0645C45.6967 95.3849 45.2796 96.1363 45.9026 95.5559C47.2917 94.262 48.4841 92.7264 49.8332 91.3837C49.861 91.356 51.2123 90.0226 51.3575 90.3108C51.3981 90.3913 51.3673 90.4986 51.3467 90.5882C51.2939 90.8183 51.2128 91.0392 51.1391 91.262C50.7558 92.4212 50.3235 93.5637 49.8505 94.6801C49.3912 95.7644 49.4944 95.4609 49.0592 96.3976C48.9815 96.5649 48.7338 96.9852 48.8949 96.9329C49.0074 96.8963 49.0907 96.7869 49.1781 96.6993C49.3666 96.5106 49.5452 96.3095 49.7208 96.1057C50.4627 95.2446 51.1608 94.3354 51.8786 93.4491C51.9144 93.4049 52.346 92.8682 52.4775 92.7314C52.6118 92.5917 52.5804 92.6714 52.5229 92.8579C52.0867 94.2726 51.4373 95.6339 50.7673 96.9231C50.6925 97.067 50.3994 97.4098 50.5381 97.3513C50.6945 97.2853 51.122 96.5208 51.1672 96.4512C51.7344 95.5783 52.1941 94.6235 52.765 93.7556C53.1342 93.1944 51.4397 96.1089 51.7056 95.4781C51.9796 94.8281 52.3495 94.2135 52.7066 93.6194C52.8855 93.3219 53.0137 93.1235 53.1953 92.8434C53.2203 92.8046 53.348 92.5641 53.418 92.5198C53.6075 92.3998 53.2709 92.9903 53.2709 93.235C53.2709 93.498 53.7474 93.0081 53.565 93.527C53.4661 93.8082 53.365 94.184 53.1499 94.3857C53.0656 94.4648 52.888 94.5859 52.845 94.7069C52.7668 94.927 53.0179 94.2673 53.1542 94.0865C53.2494 93.9602 53.3504 93.8489 53.4482 93.7289C53.5007 93.6645 53.62 93.6358 53.6904 93.5756C53.7825 93.4968 53.8401 93.3778 53.9563 93.3323C54.2044 93.2353 54.4412 93.1387 54.6547 92.9626C54.8467 92.8041 54.8665 92.6439 54.9833 92.4468C55.0256 92.3754 55.0819 92.2163 55.1433 92.1719C55.6173 91.829 54.1308 92.7449 53.6817 93.128C53.0833 93.6385 52.546 94.2492 52.0559 94.8869C50.8565 96.4473 49.7747 98.1296 48.6701 99.7744C47.7155 101.196 46.9063 102.737 46.028 104.219C45.9189 104.403 45.8416 104.531 45.6907 104.662C45.164 105.118 44.7801 105.756 44.3632 106.328C43.7177 107.215 43.0504 108.08 42.4087 108.97C42.1807 109.287 41.9555 109.662 41.6563 109.902C41.4355 110.08 41.9687 109.399 42.1622 109.184C42.2981 109.034 42.4565 108.848 42.6249 108.747C42.7984 108.642 42.9374 108.362 43.0746 108.202C43.2351 108.014 43.3687 107.867 43.5611 107.715C43.7903 107.534 43.9309 107.236 44.1254 107.014C44.3496 106.759 44.6261 106.58 44.8605 106.341C44.9582 106.241 45.0367 106.13 45.1372 106.032C45.2525 105.919 45.4596 105.871 45.6042 105.813C45.7198 105.766 45.8759 105.806 45.9545 105.691C46.02 105.595 46.1176 105.499 46.1448 105.377C46.1881 105.182 46.3146 105.042 46.4777 104.976C46.729 104.873 47.1469 104.293 47.1609 104.017C47.1742 103.756 47.3097 103.634 47.3858 103.394C47.4649 103.145 47.5383 102.911 47.6366 102.669C47.7597 102.367 48.0686 102.115 48.1252 101.784C48.1915 101.396 48.3921 101.038 48.523 100.67C48.6186 100.401 48.6706 100.163 48.8387 99.9471C49.1087 99.5999 49.3779 99.2633 49.6084 98.8742C49.793 98.5626 49.9103 98.2109 50.0992 97.906C50.2325 97.6908 50.299 97.444 50.4386 97.2345C50.6038 96.9867 51.0441 96.0288 50.7067 95.7895C50.2547 95.4688 49.577 95.4755 49.0679 95.4732C48.4438 95.4704 47.857 95.5711 47.2755 95.8211C46.2607 96.2573 45.3025 96.9596 44.4281 97.6773C43.3658 98.5492 42.3852 99.5785 41.4228 100.582C39.6134 102.469 37.8885 104.458 36.2165 106.499C35.8559 106.939 35.5157 107.432 35.1312 107.849C34.9947 107.997 34.7469 108.064 34.569 108.095C34.0519 108.182 33.6225 107.693 33.5875 107.121C33.5558 106.605 33.7778 106.082 34.1539 105.788C34.3741 105.616 34.5812 105.536 34.7463 105.282C34.8956 105.053 34.9657 104.76 35.1333 104.548C35.2752 104.368 35.4916 104.338 35.6241 104.149C35.7071 104.03 35.838 103.978 35.9268 103.842C36.0244 103.693 36.0895 103.49 36.2079 103.363C36.4824 103.069 36.8916 102.727 37.0446 102.331C37.1658 102.018 37.4573 101.683 37.6738 101.448C37.8866 101.217 38.0284 100.891 38.171 100.602C38.3173 100.305 38.5131 100.031 38.6683 99.7354C38.826 99.4351 39.0302 99.1911 39.2434 98.9375C39.5223 98.6058 39.5777 98.128 39.9029 97.8184C40.2613 97.4771 40.5004 97.0311 40.798 96.619C40.894 96.486 41.0303 96.3913 41.1288 96.2565C41.3053 96.0149 41.4497 95.763 41.5741 95.4829C41.7913 94.9941 42.2772 94.5406 42.6465 94.2081" stroke="#FFDCA0" stroke-width="4" stroke-linecap="round"/>
<path d="M34.863 103.535C34.834 103.535 34.3348 103.526 34.4046 103.36C34.4629 103.222 34.6866 103.073 34.783 102.947C34.9026 102.79 34.9863 102.565 35.0987 102.375C35.162 102.268 35.2666 102.203 35.33 102.1C35.4224 101.95 35.5091 101.801 35.6241 101.672C35.822 101.449 35.9916 101.157 36.2424 100.996C36.3046 100.956 36.3952 100.791 36.437 100.723C36.4709 100.668 36.6099 100.379 36.5732 100.475C36.4627 100.765 36.1947 100.832 36.0348 101.056C35.9697 101.148 36.1784 100.882 36.2251 100.777C36.2843 100.644 36.2804 100.493 36.3462 100.363C36.3992 100.259 36.5234 100.155 36.5927 100.042C36.636 99.9715 36.7065 99.8894 36.7527 99.8376C36.8136 99.769 36.9208 99.7445 36.984 99.6575C37.0483 99.5691 37.2689 99.2922 37.2759 99.1904C37.2968 98.885 37.5234 98.5833 37.704 98.3682C37.7903 98.2652 37.8375 98.0363 37.9007 97.9059C37.9804 97.7414 38.0509 97.5904 38.1493 97.4388C38.2265 97.3201 38.3757 97.2669 38.465 97.1664C38.5416 97.0802 38.6383 97.0256 38.7158 96.9231C38.7696 96.8519 38.8925 96.5633 38.9082 96.4657C38.9348 96.3012 39.0238 96.1719 39.105 96.0375C39.2726 95.7602 39.5029 95.5351 39.6801 95.2591C39.7804 95.1027 39.9044 94.9976 39.9828 94.8212C40.0391 94.6944 40.1428 94.4964 40.2249 94.393C40.3395 94.2486 40.4255 94.0421 40.5255 93.8797C40.6631 93.656 40.8792 93.4508 41.0898 93.3323" stroke="#FFDCA0" stroke-linecap="round"/>
<path d="M47.9707 105.996C48.2451 105.472 48.4759 104.914 48.7275 104.376C48.8158 104.187 48.8533 104.006 48.9221 103.807C49.0007 103.579 48.9676 103.393 49.108 103.174C49.2487 102.955 49.4064 102.732 49.5253 102.498C49.6198 102.312 49.7133 102.138 49.7999 101.948C49.8258 101.891 49.8876 101.715 49.8777 101.778C49.822 102.133 49.6317 102.497 49.4885 102.814C49.2761 103.286 48.9535 103.661 48.8356 104.191C48.7583 104.539 48.9037 103.714 48.9242 103.632C49.0507 103.128 49.1694 102.518 49.402 102.065C49.5062 101.862 49.6226 101.674 49.7199 101.464C49.8066 101.277 49.846 101.064 49.9944 100.917C50.0592 100.852 50.0204 101.324 50.0161 101.36C49.9704 101.728 49.7765 102.064 49.6312 102.391C49.4955 102.696 49.551 102.605 49.6485 102.318C49.784 101.919 49.9064 101.506 50.0161 101.097C50.0617 100.927 50.0133 101.413 50.0355 101.501C50.0777 101.667 50.221 101.219 50.2755 101.058C50.3377 100.874 50.465 100.748 50.5566 100.586C50.8512 100.065 51.0296 99.4636 51.3652 98.9462C51.5606 98.645 51.7912 98.3451 51.91 97.9926C52.033 97.6279 52.2255 97.075 52.5024 96.8346C52.6522 96.7046 52.7353 96.5815 52.9305 96.5815C53.0336 96.5815 52.5688 97.3354 52.4765 97.4427C52.3261 97.6177 52.1616 97.7974 52.0203 97.9828C51.9607 98.0611 51.9499 98.1947 51.91 98.2894C51.7843 98.588 51.6655 98.8885 51.5209 99.1652C51.3793 99.4359 51.189 99.6146 51.0841 99.9096" stroke="#FFDCA0" stroke-linecap="round"/>
<path d="M53.543 96.1787C53.9527 95.7299 54.5097 95.4227 54.8857 94.9526C54.9627 94.8562 55.1161 94.7978 55.2165 94.7337C55.3981 94.6176 55.5515 94.353 55.6532 94.1547C55.956 93.5641 56.298 93.0883 56.8856 92.8312C57.3826 92.6137 56.9401 93.438 56.8121 93.5951C56.5833 93.8759 56.4125 94.2009 56.1505 94.4466C56.0193 94.5696 55.8635 94.7306 55.7526 94.8553C55.601 95.0259 55.3535 95.126 55.2554 95.3467" stroke="#FFDCA0" stroke-linecap="round"/>
<path d="M57.2015 92.8946C57.1388 93.033 57.0252 93.3545 56.8513 93.3763C56.8077 93.3817 56.7737 93.4664 56.7345 93.4444C56.6796 93.4135 56.8326 93.2542 56.8426 93.2449C57.0253 93.0744 57.1967 92.9438 57.3572 92.7632" stroke="#FFDCA0" stroke-linecap="round"/>
<path d="M56.9292 95.1716C57.0266 94.829 57.038 94.4343 57.2708 94.1985C57.3079 94.1609 57.3509 94.138 57.3573 94.0769C57.3642 94.0105 57.455 94.0325 57.4957 93.9893C57.6092 93.8686 57.7255 93.7777 57.8048 93.6171C57.8926 93.4394 57.9917 93.2393 58.0967 93.0916C58.1963 92.9515 57.9926 93.2724 57.9605 93.3519C57.9133 93.4688 57.8374 93.5708 57.7465 93.639" stroke="#E1BE8C" stroke-opacity="0.85" stroke-linecap="round"/>
<path d="M55.5669 95.6971C55.6385 95.6342 55.818 95.4892 55.8696 95.3906C55.9365 95.2626 56.1194 95.1946 56.2285 95.106C56.4019 94.9651 56.647 94.8534 56.7733 94.6559C56.8664 94.5105 56.898 94.3553 57.0047 94.2253C57.1366 94.0644 57.2245 93.8319 57.4003 93.7047C57.4979 93.6341 57.8176 93.4264 57.8241 93.2887C57.8298 93.1666 58.0804 92.6847 58.1743 92.6318" stroke="#E1BE8C" stroke-opacity="0.85" stroke-linecap="round"/>
<path d="M55.1387 95.6095C55.456 95.3134 55.705 94.8136 55.8695 94.3931C55.9269 94.2463 56.0568 94.1107 56.1527 93.9892C56.3402 93.7519 56.5101 93.5166 56.7127 93.2886C56.9721 92.9967 57.2048 92.6947 57.4262 92.369C57.5775 92.1463 57.8401 91.8435 58.0964 91.8435" stroke="#FFDCA0" stroke-opacity="0.85" stroke-linecap="round"/>
<path d="M48.3398 105.299L55.3496 95.7512" stroke="#FFDCA0" stroke-width="0.5"/>
<path d="M54.9831 95.697C54.6374 96.1346 54.2565 96.5323 53.9539 97.0107C53.7783 97.2884 53.6419 97.6003 53.4264 97.8428C53.2016 98.0957 52.9476 98.2998 52.7648 98.5969C52.4722 99.0724 52.2459 99.5905 51.8783 100.023C51.7585 100.163 51.6822 100.303 51.5972 100.47C51.5458 100.572 51.4579 100.594 51.4394 100.709C51.4182 100.84 51.2495 100.91 51.1692 100.996C51.0453 101.128 50.8521 101.229 50.78 101.412C50.7348 101.526 50.6219 101.571 50.5854 101.653" stroke="#FFDCA0" stroke-opacity="0.85" stroke-linecap="round"/>
<path d="M52.8038 98.412C53.2246 98.2449 53.4533 97.9141 53.6124 97.4584C53.7064 97.1891 54.0001 96.9008 54.2005 96.7237C54.2766 96.6564 54.3932 96.4207 54.3994 96.3101C54.4015 96.2718 54.5206 96.0375 54.434 96.096C54.0756 96.3379 53.8064 96.7811 53.5237 97.1226C53.3593 97.3214 53.1971 97.4774 53.0178 97.6481C52.6711 97.9783 52.5139 98.3872 52.2416 98.8013C52.0807 99.046 51.9194 99.2753 51.7919 99.5262C51.7031 99.7011 51.4776 99.8409 51.3552 100.008C51.1538 100.283 51.0229 100.623 50.7822 100.859C50.6982 100.942 50.6515 101.11 50.6266 101.237C50.6047 101.348 50.4709 101.861 50.566 101.519C50.6107 101.358 50.7238 101.075 50.8579 100.986C50.9867 100.901 51.1738 100.755 51.2644 100.624C51.3471 100.504 51.4793 100.366 51.5498 100.208C51.7044 99.8594 52.0089 99.7505 52.1725 99.4192C52.4072 98.9437 52.7051 98.5465 52.9205 98.0617" stroke="#FFDCA0" stroke-linecap="round"/>
<path d="M54.7884 95.6534C54.5796 95.833 54.4116 96.0419 54.2349 96.2567C54.2055 96.2924 54.16 96.4116 54.1095 96.3954C54.0053 96.3619 54.1926 95.6294 54.2068 95.5609C54.3017 95.1016 54.3738 94.6747 54.6716 94.3397C55.3102 93.6211 55.6186 92.6174 55.878 91.6685" stroke="#FFDCA0" stroke-linecap="round"/>
<path d="M55.3496 95.7513L58.3011 92.0151" stroke="#FFDCA0" stroke-width="0.5"/>
<path d="M40.5922 93.2605L31 106.545" stroke="#FFDCA0" stroke-width="0.5"/>
<path d="M34.2402 103.754C34.4323 103.522 34.9422 102.801 34.6942 102.952C34.563 103.031 34.4235 103.322 34.3397 103.443C34.2263 103.607 34.1147 103.777 33.9937 103.934C33.8623 104.106 34.084 103.421 34.0932 103.394C34.1127 103.337 34.3676 102.718 34.2402 102.772C34.0132 102.867 34.2345 102.586 34.2791 102.519C34.3506 102.41 34.5005 102.222 34.6294 102.222" stroke="#FFDCA0" stroke-linecap="round"/>
<path d="M67.5239 55.899L70.8443 50.9175" stroke="#FFDCA0" stroke-width="0.5"/>
<path d="M72.3203 64.2016L80.8058 60.0503" stroke="#FFDCA0" stroke-width="0.5"/>
<path d="M72.3546 55.9864C72.763 55.3115 73.2017 54.6629 73.6447 54.0161C74.0402 53.4388 74.4347 52.8441 74.8686 52.3005C74.977 52.1648 74.8154 52.3902 74.8079 52.3999C74.4037 52.9249 73.9665 53.4189 73.5661 53.9463C73.4014 54.1632 73.2786 54.4041 73.1452 54.6449C73.0432 54.829 72.9864 54.9267 72.872 55.0983C72.8201 55.1761 72.7023 55.416 72.7023 55.3188C72.7023 55.2771 72.7333 55.243 72.7519 55.207C72.9255 54.8719 73.1122 54.5455 73.2901 54.2133C73.5058 53.8104 74.1544 52.6162 73.8724 52.9635C73.0684 53.9536 72.382 55.101 71.6619 56.1665C71.1409 56.9374 70.6442 57.754 70.0612 58.4706C70.0443 58.4914 69.9958 58.5529 70.0047 58.5265C70.0792 58.3053 70.2436 58.1371 70.3593 57.9396C70.8303 57.1358 71.2662 56.3076 71.7171 55.4896C72.0113 54.9557 72.3264 54.434 72.6043 53.8888C72.6525 53.7943 72.7915 53.5174 72.7175 53.5876C72.4931 53.8004 72.3325 54.0865 72.1503 54.3453C71.6682 55.0302 71.2081 55.7317 70.765 56.4491C70.6193 56.6849 70.2363 57.422 70.3207 57.1509C70.4375 56.7752 70.7144 56.3665 70.8809 56.0268C71.1271 55.5243 71.3564 55.0113 71.6067 54.5114C71.633 54.4588 71.6573 54.4044 71.6895 54.3562C71.7677 54.2388 71.5735 54.6192 71.5101 54.7474C71.1845 55.4061 70.8437 56.0543 70.46 56.6727C70.3695 56.8185 70.2756 56.962 70.1772 57.1012C70.1162 57.1873 69.9528 57.4285 69.9564 57.3185C69.965 57.0557 70.1256 56.8274 70.2296 56.5919C70.3965 56.2141 70.8741 55.1992 71.0327 54.8654C71.3582 54.1798 71.672 53.4715 72.0717 52.8346C72.4338 52.2576 72.1121 52.8654 72.0786 52.9215C71.6343 53.6675 71.1705 54.4001 70.6974 55.1232C70.4624 55.4822 70.236 55.8235 69.9854 56.165C69.9303 56.24 69.8306 56.4632 69.8018 56.3715C69.7731 56.2799 70.0998 55.7852 70.1109 55.7659C70.341 55.3674 70.5807 54.976 70.8119 54.5782C70.9143 54.402 71.0121 54.2203 71.121 54.0487C71.2499 53.8457 70.8869 54.4728 70.7622 54.6791C70.1498 55.6922 69.5403 56.6999 68.9656 57.7409C68.9349 57.7966 68.9047 57.8528 68.8718 57.907C68.7979 58.0289 68.8816 57.836 68.8842 57.8294C69.066 57.371 69.2737 56.9236 69.4872 56.4832C70.0344 55.3548 70.68 54.2834 71.2093 53.1451C71.2173 53.1278 71.2303 53.1102 71.2286 53.0908C71.2221 53.0179 71.1494 53.2073 71.1127 53.2678C70.7367 53.8867 70.3539 54.5002 69.9771 55.1185C69.7433 55.5021 69.5139 55.8895 69.2747 56.269C69.2391 56.3256 69.1397 56.4947 69.1547 56.4273C69.1938 56.2512 69.3 56.0498 69.3658 55.8901C69.6397 55.2254 69.9508 54.587 70.3041 53.9711C70.3386 53.9109 70.6115 53.3598 70.7263 53.3081C70.7431 53.3006 70.7112 53.3453 70.7015 53.3625C70.6236 53.5006 70.4066 53.8541 70.3483 53.9494C69.9835 54.5452 69.5627 55.1322 69.254 55.769C69.1091 56.068 69.5165 55.1554 69.65 54.8499C69.8309 54.4362 69.9977 53.9662 70.2558 53.6031C70.3184 53.5151 70.1509 53.7953 70.0971 53.8904C69.814 54.391 69.5331 54.8931 69.243 55.3886C69.0406 55.7342 68.8388 56.0887 68.6041 56.4087C68.494 56.5588 68.4581 56.582 68.5765 56.3559C68.9626 55.6189 69.3148 54.8652 69.6776 54.114C69.6913 54.0856 69.706 54.0579 69.7204 54.0301C69.7504 53.9723 69.7293 54.0153 69.719 54.0394C69.5795 54.3671 69.4305 54.6816 69.2471 54.9819C69.0894 55.2402 68.9134 55.4839 68.7504 55.738C68.6817 55.8451 68.6154 55.9892 68.531 56.0842C68.481 56.1404 68.5801 55.9343 68.6152 55.8653C68.8033 55.4948 69.032 55.154 69.2389 54.7971C69.2598 54.761 69.5868 54.1764 69.3713 54.499C69.0951 54.9126 68.7845 55.2962 68.5158 55.7163C68.4944 55.7497 68.283 56.1342 68.3999 55.8653C68.5168 55.5966 68.67 55.3564 68.858 55.1449C68.8674 55.1343 68.8998 55.1087 68.8911 55.12C68.8581 55.1634 68.8146 55.2041 68.7807 55.2458C68.7496 55.2841 68.4344 55.7114 68.4109 55.6728C68.3537 55.5787 68.1345 55.9681 68.0729 56.0268C67.986 56.1095 68.1279 55.9242 68.1446 55.8886C68.1993 55.7724 68.2509 55.6572 68.3006 55.5393C68.3851 55.3385 68.4807 55.1323 68.5986 54.9524C68.8011 54.6431 69.0284 54.3611 69.2237 54.0425C69.2739 53.9606 69.301 53.8639 69.3644 53.7926C69.443 53.7041 69.529 53.6242 69.6059 53.5333C69.7316 53.3846 69.7719 53.1786 69.8708 53.0116C70.0167 52.7653 70.2007 52.5565 70.3662 52.3238C70.4572 52.1957 70.5165 52.0366 70.5966 51.8999C70.6509 51.8073 70.7474 51.7534 70.8284 51.695C70.8472 51.6815 70.8931 51.6467 70.8919 51.6717C70.8884 51.7422 70.8478 51.804 70.8229 51.8689C70.7604 52.0319 70.5698 52.5264 70.5263 52.6374C70.2455 53.3537 69.9288 54.0505 69.6473 54.766C69.5837 54.9277 69.6813 54.8462 69.766 54.7676C70.0529 54.5011 70.1938 54.053 70.3689 53.6963C70.5014 53.4266 70.9291 52.6371 70.7815 52.8967C70.5803 53.2507 70.4074 53.6283 70.2268 53.996C70.2119 54.0264 70.197 54.0568 70.1827 54.0876C70.144 54.1707 70.1813 54.1007 70.202 54.0612C70.4648 53.5584 70.7263 53.0574 71.0147 52.5722C71.2524 52.1723 71.502 51.7814 71.7474 51.3876C71.804 51.2968 71.9429 51.0096 71.9199 51.1174C71.8774 51.3168 71.7771 51.5379 71.7005 51.7167C71.4891 52.21 71.2426 52.6824 70.983 53.1451C70.9731 53.1628 70.8161 53.3873 70.8202 53.437C70.8207 53.4443 70.8343 53.4384 70.8395 53.4339C70.9279 53.3572 71.0636 53.1858 71.121 53.1141C71.6652 52.4332 72.1852 51.7344 72.8071 51.1391C72.8541 51.0942 73.0234 50.8867 72.8996 51.1267C72.5605 51.7839 72.1844 52.4197 71.8274 53.0644C71.3846 53.8643 70.941 54.6642 70.5125 55.474C70.2601 55.951 69.9611 56.4519 69.8101 56.9878C69.7375 57.2454 70.0296 56.8756 70.0392 56.8652C70.6476 56.2012 71.1954 55.4706 71.7447 54.7459C72.4225 53.8515 73.0852 52.9412 73.8089 52.0924C73.9367 51.9426 74.2057 51.639 74.3857 51.4931C74.4221 51.4636 74.531 51.4054 74.5154 51.4528C74.4857 51.5427 74.4358 51.6226 74.3912 51.7043C74.1445 52.1561 73.5069 53.244 73.3287 53.5488C72.5202 54.9321 71.7006 56.307 70.8892 57.6881C70.4867 58.373 70.076 59.0567 69.6997 59.7608C69.6214 59.9073 69.5774 59.9907 69.7094 59.8074C69.9394 59.488 70.4477 58.7224 70.5745 58.5327C72.7369 55.3 74.9207 52.0897 77.1385 48.9049C77.3577 48.5901 77.962 47.6083 77.8022 47.9656C77.7552 48.0706 77.6949 48.1673 77.6394 48.2668C77.2155 49.0264 76.8084 49.7307 76.3603 50.487C75.3763 52.1477 74.3627 53.7835 73.3066 55.3871C72.9654 55.9053 72.598 56.5405 72.189 57.0127C72.1721 57.0322 72.1367 57.0833 72.1283 57.0577C72.1137 57.0137 72.1446 56.9653 72.1586 56.9211C72.1916 56.817 72.2295 56.7149 72.269 56.6137C72.5373 55.9255 72.8507 55.2603 73.0969 54.5611C73.1883 54.3016 73.333 54.0117 72.981 54.1171C72.4422 54.2784 71.9871 54.7545 71.5887 55.1713C71.5573 55.2042 71.4756 55.3074 71.488 55.1759C71.5131 54.9098 71.6231 54.6414 71.7074 54.3965C71.8907 53.8642 72.1262 53.319 72.2497 52.7632C72.2676 52.6827 72.2196 52.8024 72.2055 52.8222C72.1093 52.9575 72.3714 52.7141 72.3904 52.7011C72.5114 52.6186 72.6476 52.4901 72.7837 52.4402C72.8892 52.4016 72.7239 52.6823 72.6747 52.7942C72.4133 53.3888 72.1158 53.9702 71.9006 54.5891C71.8934 54.6098 71.9378 54.5708 71.9516 54.5549C72.2639 54.1958 72.5634 53.824 72.8789 53.4681C73.4154 52.8628 73.9747 52.2916 74.5513 51.7353C74.6234 51.6658 75.3871 50.9353 75.5034 50.841C75.582 50.7773 75.6618 50.69 75.7586 50.6842C75.804 50.6815 75.8287 50.7727 75.818 50.8224C75.7751 51.0215 75.6879 51.2057 75.6069 51.3891C75.2572 52.1809 74.8001 52.9993 74.3898 53.7382C73.5274 55.2916 72.6325 56.8227 71.7419 58.3557C71.4516 58.8554 71.1478 59.3497 70.874 59.8617C70.8479 59.9104 70.7776 60.0497 70.8215 60.0217C70.9611 59.9326 71.3454 59.537 71.3707 59.5108C72.1203 58.7347 72.8027 57.8853 73.4943 57.0453C74.1582 56.2388 74.827 55.4373 75.4896 54.6294C75.6232 54.4664 75.9174 54.0049 76.1271 53.8655C76.1419 53.8556 76.1124 53.901 76.1022 53.9168C75.9579 54.14 75.7981 54.35 75.6469 54.5673C74.155 56.7107 72.7013 58.8988 71.3169 61.1318C71.2336 61.2662 71.1509 61.4012 71.0713 61.5386C71.056 61.5649 71.0095 61.6401 71.0327 61.6224C71.0747 61.5901 71.1008 61.5372 71.132 61.492C72.0254 60.1947 72.8371 58.8276 73.7234 57.5235C74.6145 56.212 75.5472 54.9379 76.4541 53.6404C76.5968 53.4362 76.7364 53.2294 76.8777 53.024C76.9425 52.9298 77.0061 52.8345 77.0723 52.7414C77.1018 52.6999 77.1689 52.5673 77.1647 52.6203C77.1589 52.6935 77.1014 52.749 77.0667 52.8113C76.7582 53.3655 76.291 54.1553 76.0001 54.6403C75.1007 56.1399 74.167 57.6079 73.2018 59.0544C73.1288 59.1638 73.0533 59.2713 72.9838 59.3835C72.9726 59.4016 72.944 59.4562 72.9603 59.4441C73.0152 59.4034 73.0591 59.3462 73.1052 59.2935C73.8903 58.3958 74.6323 57.4487 75.3957 56.5283C76.3008 55.4371 77.2087 54.3429 78.1775 53.3221C78.2879 53.2058 78.4 53.0908 78.5197 52.9868C78.5581 52.9534 78.6466 52.8577 78.6494 52.9122C78.6549 53.0186 78.5768 53.1095 78.5308 53.2026C78.4174 53.4318 78.2969 53.6565 78.172 53.878C76.6104 56.6449 74.8156 59.237 73.2487 61.9981C73.1722 62.1329 73.1007 62.2712 73.0321 62.4111C72.994 62.4887 72.9429 62.5631 72.9286 62.6502C72.9239 62.6789 72.9805 62.6335 72.9989 62.613C73.094 62.5069 73.1783 62.3891 73.2653 62.2745C75.0821 59.8791 72.2831 63.5288 74.7858 60.253C75.1482 59.7787 75.5125 59.3061 75.8787 58.8355C75.9391 58.7577 77.0683 57.2904 77.3689 56.9909C77.7855 56.5759 76.8532 58.1025 76.552 58.629C76.0515 59.5039 75.5462 60.3771 75.0218 61.2342C75.0034 61.2643 74.8576 61.5087 74.7872 61.5945C74.7461 61.6446 74.8472 61.4757 74.8811 61.419C75.799 59.8813 76.6946 58.3317 77.5676 56.7612C77.6226 56.6622 77.6839 56.5673 77.7332 56.4646C77.786 56.3545 77.7496 56.3321 77.6449 56.4118C77.3393 56.6444 76.8674 57.1519 76.6514 57.39C76.0885 58.0104 75.4649 58.7605 74.9321 59.4115C74.5274 59.9059 74.1402 60.4795 73.7027 60.9439C73.5108 61.1475 73.8638 60.3765 73.98 60.1102C74.4949 58.9304 75.065 57.7885 75.691 56.6789C75.949 56.2216 76.2404 55.7394 76.5231 55.2924C76.7188 54.9829 76.5895 55.2128 76.4706 55.4213C75.9981 56.2499 75.5009 57.0606 74.9928 57.862C74.8471 58.0918 74.6987 58.3194 74.5499 58.5467C74.4318 58.7271 74.3436 58.9423 74.187 59.0808C74.1626 59.1023 74.2194 59.0212 74.2367 58.9923C74.3956 58.7254 74.5558 58.4595 74.7169 58.1942C75.1737 57.4417 75.6468 56.7044 76.1422 55.9833C76.4387 55.5519 76.7611 55.0192 77.1261 54.6418C77.4225 54.3353 76.6028 55.3305 76.3423 55.6759C75.7405 56.4739 75.1617 57.2907 74.5871 58.1135C74.5114 58.222 74.3026 58.5308 74.1842 58.6724C74.1638 58.6969 74.1006 58.7603 74.1097 58.7283C74.1273 58.6666 74.157 58.61 74.1842 58.5529C74.4087 58.0815 74.7168 57.4943 74.9473 57.0655C75.5276 55.9856 76.1427 54.9349 76.7673 53.8873C76.9662 53.5536 77.2291 53.1798 77.3882 52.8098C77.436 52.6986 77.2531 53.0044 77.1854 53.1016C76.889 53.5273 76.5611 53.9836 76.265 54.3996C75.6109 55.3188 74.9591 56.2399 74.3167 57.1695C74.1979 57.3414 74.0802 57.5141 73.9621 57.6865C73.8756 57.8127 73.8115 57.9672 73.6958 58.0591C73.5345 58.1872 73.8231 57.6369 73.9138 57.4397C74.3805 56.4243 74.9003 55.4357 75.4316 54.4617C75.6166 54.1227 75.824 53.793 75.996 53.4448C76.1194 53.1949 75.6766 53.8896 75.5227 54.1171C74.8998 55.038 74.2729 55.9555 73.6406 56.8683C73.3928 57.226 73.2628 57.4116 73.0334 57.7378C72.9925 57.796 72.872 57.9671 72.8955 57.8977C73.0708 57.3774 73.372 56.8579 73.6323 56.3932C73.9949 55.7458 74.4058 55.1403 74.7996 54.5176C74.9004 54.3584 75.1268 54.0602 75.1832 53.8469C75.2073 53.7561 75.0725 53.9898 75.0204 54.0643C74.9753 54.1287 74.4778 54.8448 74.4657 54.8623C74.1788 55.279 73.4126 56.5911 73.5992 56.1075C74.0018 55.0641 74.7716 54.2499 75.2302 53.2383C75.2418 53.2126 75.2813 53.1462 75.2578 53.1575C75.2182 53.1766 75.1989 53.2283 75.1722 53.2662C75.0995 53.3692 75.0274 53.4727 74.9597 53.5799C74.3452 54.553 73.7998 55.5768 73.2611 56.6043C72.8389 57.4098 72.4212 58.2202 72.0096 59.0326C71.9328 59.1842 71.8745 59.3163 71.833 59.4798" stroke="#FFDCA0" stroke-linecap="round"/>
<path d="M80.6999 58.1382C80.1578 58.7364 79.415 59.1206 78.7101 59.4207C78.4457 59.5332 78.172 59.636 77.9015 59.7296C77.6778 59.8071 77.4474 59.8397 77.2295 59.9408C77.026 60.0353 76.8274 60.1405 76.621 60.228C76.3026 60.3631 76.0647 60.4294 75.8511 60.7466C75.5208 61.2369 75.232 61.7627 74.9128 62.2619C74.8479 62.3635 74.6696 62.5845 74.554 62.6082C74.4127 62.6371 74.3283 62.7056 74.2063 62.7929C74.141 62.8397 74.1263 62.8892 74.0435 62.8892C73.9629 62.8892 73.9449 62.8813 73.8945 62.9451C73.8354 63.0198 73.7553 63.1128 73.6585 63.1128C73.625 63.1128 73.5544 63.0946 73.5467 63.1407C73.5377 63.195 73.4332 63.1571 73.3977 63.1749C73.3032 63.2221 73.2209 63.265 73.1245 63.3084" stroke="#FFDCA0" stroke-linecap="round"/>
<path d="M74.068 62.2744C74.109 62.1696 74.4977 61.1636 74.4544 61.1441C74.3909 61.1155 73.9101 62.1485 73.8583 62.2464C73.6939 62.5571 73.8831 62.24 73.9355 62.1409C74.0109 61.9983 74.0872 61.8568 74.1729 61.7217C74.1807 61.7093 74.3912 61.4338 74.3881 61.4639C74.3631 61.7091 74.2006 62.0042 74.1039 62.2247C74.101 62.2312 74.0591 62.3041 74.0887 62.2325C74.1421 62.1029 74.2202 61.9859 74.3012 61.8769C74.3503 61.8108 74.4059 61.7499 74.4488 61.6782C74.4544 61.6689 74.4654 61.639 74.4654 61.6502C74.4654 61.6903 74.4413 61.7824 74.4516 61.8148C74.459 61.838 75.0064 61.1837 75.0173 61.1689C75.5286 60.4764 76.0553 59.8087 76.6262 59.1769C76.7174 59.076 76.8443 58.9063 76.9657 58.84C77.0605 58.7881 76.9177 59.0731 76.8718 59.18C76.409 60.2584 75.8185 61.2462 75.1829 62.203C74.308 63.5201 77.006 59.6276 78.0061 58.4286C78.0464 58.3802 78.2369 58.0831 78.3179 58.0575C78.3822 58.0371 78.2714 58.1988 78.2406 58.2655C78.1278 58.5102 77.9821 58.7978 77.8543 59.0263C77.5885 59.5017 77.2888 59.949 76.9946 60.4019C76.8151 60.6783 76.6449 61.061 76.4275 61.3055C76.2864 61.4643 76.6472 60.93 76.7697 60.7528C77.2316 60.0848 77.7143 59.4323 78.2075 58.7934C78.6276 58.2492 79.0608 57.7176 79.5184 57.2129C79.5723 57.1534 79.7352 56.9839 79.6978 57.0576C79.6255 57.1996 79.2618 57.7219 79.2397 57.7532C78.6787 58.5425 78.0935 59.3522 77.4045 60.0076C77.3493 60.06 77.3607 60.0261 77.3907 59.9656C77.5272 59.6899 77.6979 59.4346 77.8571 59.1754C77.9429 59.0355 78.0579 58.7353 78.1993 58.6444C78.2256 58.6274 78.1648 58.7007 78.1468 58.7282C77.9479 59.0326 77.738 59.3251 77.5176 59.6101C77.4046 59.7563 77.2894 59.9006 77.1699 60.0402C77.1698 60.0402 77.0436 60.2128 77.0871 60.079C77.3464 59.2811 77.8533 58.6125 78.2572 57.9069C78.2963 57.8386 78.4058 57.6284 78.3676 57.6973C78.2493 57.9103 78.0871 58.1049 77.9454 58.295C77.648 58.6939 77.3541 59.0949 77.065 59.5014C76.974 59.6294 76.7375 60.0145 76.7587 59.8523C76.792 59.5979 76.9861 59.2664 77.0912 59.0651C77.3637 58.5436 77.6785 58.0572 78.0033 57.5762C78.114 57.4122 78.2482 57.2434 78.3455 57.0654C78.4623 56.8517 78.0852 57.4727 77.9523 57.674C77.698 58.0589 77.438 58.439 77.192 58.8307C77.1361 58.9196 76.9912 59.2509 76.8912 59.326C76.7757 59.4126 76.978 59.0277 77.0429 58.8897C77.322 58.2966 77.668 57.7469 78.0309 57.216C78.0832 57.1395 78.1376 57.0648 78.191 56.9893C78.2267 56.9387 78.2958 56.9002 78.2958 56.8356C78.2958 56.784 78.2308 56.9085 78.2006 56.9474C78.1033 57.0729 77.9768 57.2437 77.886 57.3666C77.6718 57.6565 77.0931 58.5655 77.2251 58.2189C77.3317 57.939 77.5453 57.6403 77.6915 57.3976C77.9536 56.9623 78.2332 56.5419 78.5001 56.1105C78.5949 55.9571 78.8933 55.5331 78.7484 55.6245C78.6171 55.7074 78.5296 55.8576 78.4255 55.9801C78.2176 56.2248 78.092 56.3773 77.8929 56.6322C77.7412 56.8264 77.596 57.0251 77.4541 57.2284C77.3965 57.3111 77.4056 57.2742 77.4555 57.1709C77.6093 56.8526 77.7917 56.5512 77.9702 56.2502C78.0963 56.0377 78.2704 55.8168 78.3731 55.5857C78.4116 55.4991 78.2408 55.7098 78.1799 55.7782C77.9499 56.0371 77.7265 56.3031 77.5011 56.567C77.4508 56.6258 77.4015 56.6858 77.3493 56.7424C77.263 56.8359 77.2527 56.8403 77.3134 56.6974C77.548 56.1451 77.8429 55.6239 78.1178 55.0966C78.2478 54.8475 78.1548 54.9682 78.0613 55.0858C77.8743 55.3209 77.7002 55.5688 77.5204 55.8108C77.5068 55.8291 77.1623 56.3043 77.3162 56.0329C77.4169 55.855 77.5072 55.6696 77.5921 55.4817C77.6029 55.4578 77.751 55.1519 77.5976 55.3777C77.4763 55.5563 77.3567 55.7401 77.2458 55.9273C77.0661 56.2305 77.4771 55.8567 77.4817 55.8528C77.8565 55.5285 78.2039 55.1661 78.5773 54.8405C78.7583 54.6826 78.9717 54.5108 78.8216 54.8932C78.6502 55.3296 78.4011 55.7303 78.1937 56.1447C77.9428 56.6461 77.7101 57.1592 77.4735 57.6693C77.3177 58.0049 77.9379 57.1212 78.1634 56.8402C78.2991 56.6711 78.434 56.4984 78.5773 56.3372C78.6198 56.2894 78.5298 56.4616 78.5001 56.5204C78.4559 56.6076 78.4103 56.6945 78.3704 56.7843C78.3374 56.8584 78.4691 56.6613 78.5166 56.598C78.6695 56.3942 78.8269 56.1948 78.9747 55.9863C79.021 55.9211 79.0608 55.85 79.11 55.7875C79.1486 55.7384 79.124 55.8156 79.1182 55.8403C78.9485 56.5659 78.591 57.2334 78.2751 57.8867C78.2337 57.9723 78.1916 58.0575 78.1523 58.1444C78.1231 58.2092 78.0257 58.3236 78.0861 58.3494C78.1979 58.397 78.7423 57.6318 78.7595 57.6103C79.089 57.1981 79.4014 56.7677 79.7419 56.3667C79.818 56.2771 80.0127 56.0067 79.9958 56.1291C79.9751 56.2789 79.7396 56.6095 79.6867 56.7051C79.4374 57.1559 79.1786 57.6015 78.9582 58.0714C78.9163 58.1607 78.8013 58.434 78.834 58.3401C78.8843 58.1954 78.9664 58.0566 79.0451 57.9317C79.2623 57.587 79.51 57.2674 79.753 56.9458C79.8793 56.7786 80.0031 56.6088 80.1338 56.4459C80.1732 56.3966 80.2701 56.2554 80.2718 56.3216C80.2771 56.531 79.9271 57.0014 79.8537 57.1228C79.5928 57.5541 79.3194 57.9756 79.0603 58.4084C79.0154 58.4834 78.9717 58.5593 78.9278 58.635C78.8958 58.6904 78.8823 58.8292 78.8298 58.7996C78.7699 58.7659 78.8914 58.6651 78.9306 58.604C79.0766 58.3764 79.1994 58.2224 79.368 58.0047C79.6087 57.6938 79.8529 57.39 80.0703 57.0576C80.0861 57.0335 80.2639 56.6807 80.3201 56.671C80.3314 56.669 80.3225 56.6976 80.3187 56.7098C80.2841 56.8221 80.1758 57.0646 80.1393 57.1414C79.8467 57.7578 79.4996 58.337 79.1513 58.9145C79.0635 59.0601 78.7786 59.4768 78.8892 59.3524C79.031 59.1928 79.172 58.9523 79.2949 58.7841C79.6067 58.357 79.9185 57.9304 80.2235 57.497C80.2404 57.473 80.4503 57.1627 80.5188 57.0902C80.5285 57.0799 80.5552 57.0581 80.556 57.0731C80.5583 57.1126 80.5371 57.1495 80.5243 57.1865C80.333 57.74 80.0718 58.2819 79.7695 58.7686C79.7351 58.824 79.634 58.9877 79.6536 58.9238C79.7194 58.7091 79.9271 58.4821 80.04 58.2997C80.131 58.1526 80.2163 57.9982 80.3132 57.8556C80.3681 57.7749 80.2675 58.0529 80.2345 58.1475C80.1686 58.337 80.0476 58.5295 80.0041 58.7251" stroke="#FFDCA0" stroke-linecap="round"/>
<path d="M80.7989 59.5635C80.4912 59.8068 80.1511 59.6943 79.8413 59.8492C79.7404 59.8996 79.6814 59.9908 79.5929 60.0541C79.4691 60.1428 79.3933 60.2005 79.2576 60.2482C79.0341 60.3268 78.7911 60.3502 78.576 60.4578C78.4746 60.5085 78.3443 60.5648 78.2655 60.6534C78.1972 60.7303 78.106 60.8094 78.0171 60.8211C77.9979 60.8237 77.9136 60.8983 77.8916 60.9189C77.8482 60.9596 77.7716 60.9997 77.7191 61.0292C77.621 61.0844 77.4795 61.1363 77.3962 61.2248C77.3223 61.3034 77.1895 61.3265 77.1106 61.3956C77.0173 61.4773 76.9287 61.5082 76.8374 61.5881C76.6422 61.7589 76.4415 61.8552 76.1916 61.8552C76.1267 61.8552 75.994 61.9376 75.9308 61.9732C75.8375 62.0257 75.7391 62.0229 75.6328 62.0229" stroke="#FFDCA0" stroke-linecap="round"/>
<path d="M77.1479 60.7933C77.6465 60.4404 78.2105 60.0539 78.7775 59.8586C78.9598 59.7958 79.1368 59.7239 79.317 59.6537C79.5393 59.567 79.7177 59.4135 79.9131 59.2686C80.0447 59.171 80.1809 59.0804 80.316 58.9891C80.4185 58.92 80.4704 58.8141 80.5865 58.7671C80.7017 58.7204 80.8021 58.6641 80.9231 58.6414" stroke="#FFDCA0" stroke-linecap="round"/>
<path d="M80.5757 59.7312C80.6281 59.7658 80.7232 59.8709 80.7744 59.8709" stroke="#FFDCA0" stroke-linecap="round"/>
<path d="M71.5825 65.0318L80.8058 60.0503" stroke="#FFDCA0" stroke-width="0.5"/>
<path d="M70.8447 65.447L72.3204 64.6167" stroke="#FFDCA0" stroke-width="0.5"/>
<path d="M80.6899 60.1992C80.7217 60.2024 80.7869 60.2243 80.8155 60.192C80.8218 60.1851 80.8255 60.1754 80.8255 60.1653C80.8255 60.1462 80.8151 60.147 80.8005 60.147" stroke="#FFDCA0" stroke-width="0.5" stroke-linecap="round"/>
<path d="M80.8509 60.0386C80.8498 60.0467 80.8399 60.0985 80.8491 60.1068C80.8563 60.1133 80.8545 60.1259 80.8545 60.1349C80.8545 60.1524 80.8652 60.1656 80.8652 60.1831" stroke="#FFDCA0" stroke-width="0.5" stroke-linecap="round"/>
<path d="M78.6707 60.5607C78.6575 60.5956 78.6385 60.6237 78.6886 60.6249C78.7556 60.6265 78.8214 60.6008 78.8842 60.5776C78.908 60.5688 78.9599 60.5379 78.9887 60.5413C79.0008 60.5427 78.9729 60.5625 78.9633 60.5709C78.8954 60.6297 78.8213 60.6788 78.7437 60.7194C78.7121 60.736 78.6755 60.7564 78.6406 60.7636C78.6287 60.7661 78.6526 60.7385 78.6628 60.731C78.6932 60.7089 78.7266 60.6914 78.7601 60.6762C78.7673 60.6729 78.7787 60.6676 78.7875 60.6664C78.7971 60.665 78.7832 60.6721 78.7831 60.6722C78.7352 60.6995 78.685 60.7218 78.6368 60.7489C78.6208 60.7579 78.6051 60.7677 78.5891 60.7768C78.5856 60.7787 78.5761 60.7843 78.5778 60.7803C78.5853 60.7625 78.6137 60.7415 78.6255 60.731C78.6478 60.7114 78.6645 60.6983 78.6874 60.6802C78.6949 60.6743 78.7065 60.6716 78.7096 60.6619C78.7096 60.6617 78.6634 60.6699 78.6565 60.6731" stroke="#FFDCA0" stroke-width="0.5" stroke-linecap="round"/>
<path d="M73.5059 167.156L33.1533 135.541L27.3417 144.933L67.6943 176.548L73.5059 167.156Z" fill="#E1BE8C"/>
<path d="M619.388 267.402C618.686 267.467 616.286 267.421 615.375 267.334C613.848 267.177 611.618 266.771 608.284 266.053C602.951 264.904 600.964 264.633 598.216 264.66C595.838 264.691 593.122 265.091 591.508 265.646C587.314 267.08 585.54 269.407 586.434 272.305C586.554 272.729 587.073 273.724 587.624 274.613C589.117 277.048 589.479 278.31 589.01 279.397C588.634 280.301 587.763 280.756 586.113 280.917C583.71 281.164 579.953 280.6 575.106 279.28C574.071 279.002 571.024 278.034 568.31 277.124C563.66 275.571 561.853 275.011 558.973 274.229C549.771 271.723 542.208 270.803 536.832 271.536C535.442 271.73 533.327 272.362 532.438 272.86C530.696 273.839 529.664 275.274 529.539 276.903C529.433 278.421 529.992 280.154 531.222 282.114C533.23 285.297 536.529 288.546 541.365 292.122C544.695 294.569 549.122 297.404 552.937 299.523C561.37 304.193 562.844 305.046 565.755 306.935C570.127 309.77 572.954 312.138 574.168 313.975C574.805 314.953 574.966 315.694 574.673 316.373C574.376 317.061 573.822 317.423 572.422 317.799C569.21 318.68 564.068 318.488 554.179 317.128C547.002 316.139 542.482 315.815 536.376 315.85C521.578 315.926 511.261 319.188 510.681 323.972C510.543 325.087 510.814 326.083 511.588 327.285C512.345 328.462 513.203 329.372 514.692 330.572C518.305 333.511 524.663 336.744 533.141 339.972C535.526 340.883 536.738 341.418 537.728 341.993C540.696 343.716 541.452 345.851 539.736 347.661C537.715 349.794 533.495 351.13 528.924 351.081C527.476 351.059 527.449 351.059 525.944 350.596C524.224 350.057 523.751 350.008 522.33 350.21C521.378 350.344 520.148 350.741 518.791 351.337C518.33 351.546 517.28 351.909 516.469 352.131C514.699 352.631 513.977 353.031 513.695 353.685C513.519 354.092 513.525 354.173 513.809 354.566C513.978 354.812 514.334 355.133 514.595 355.294C515.537 355.851 517.659 356.317 520.855 356.653C524.876 357.085 527.42 356.605 528.782 355.168L529.201 354.739L530.123 354.801C537.063 355.285 543.448 352.884 546.277 348.719C548.422 345.564 547.55 341.724 544.032 338.79C542.061 337.145 540.034 336.107 535.261 334.265C527.602 331.306 523.006 328.607 522.603 326.802C521.919 323.832 531.585 323.127 546.02 325.104C548.588 325.463 549.67 325.63 555.664 326.651C571.312 329.321 582.872 329.167 588.941 326.224C593.758 323.885 594.573 319.801 591.225 314.657C588.401 310.305 583.061 305.603 575.036 300.402C571.161 297.88 567.954 296.043 561.35 292.517C550.438 286.708 543.646 282.06 541.671 279.054C540.522 277.289 541.22 276.499 543.93 276.497C547.811 276.518 554.208 278.102 564.639 281.648C569.389 283.257 571.31 283.837 574.25 284.543C583.792 286.836 590.657 286.825 593.348 284.508C594.045 283.913 594.583 282.89 594.699 281.983C594.936 280.032 594.1 277.702 591.857 274.074C591.016 272.71 590.797 272.262 590.764 271.829C590.561 269.273 593.708 266.824 597.867 266.297C600.08 266.012 601.16 266.091 605.839 266.843C612.713 267.96 617.539 268.245 619.529 267.647C620.067 267.485 619.988 267.349 619.388 267.402Z" fill="#3F6348"/>
<path d="M501.894 142.919L447.107 164.382L454.579 177.7L509.365 156.238L501.894 142.919Z" fill="#E1BE8C"/>
<path d="M528.044 189.533L473.257 210.995L480.729 224.314L535.516 202.851L528.044 189.533Z" fill="#E1BE8C"/>
<path d="M554.194 236.147L499.408 257.609L506.879 270.927L561.666 249.465L554.194 236.147Z" fill="#E1BE8C"/>
<path d="M580.345 282.76L525.558 304.223L533.029 317.541L587.816 296.078L580.345 282.76Z" fill="#E1BE8C"/>
<path d="M606.495 329.374L551.708 350.836L559.18 364.154L613.966 342.692L606.495 329.374Z" fill="#E1BE8C"/>
<path d="M632.645 375.987L577.858 397.45L585.33 410.768L640.117 389.306L632.645 375.987Z" fill="#E1BE8C"/>
<path d="M710.101 508.096L713.146 506.903C714.867 506.229 714.496 502.571 712.328 498.83L497.444 128.146C495.375 124.579 492.431 122.258 490.79 122.901L487.746 124.094C486.025 124.768 486.396 128.427 488.564 132.167L703.448 502.851C705.516 506.419 708.46 508.739 710.101 508.096Z" fill="#FFDCA0"/>
<path d="M649.832 531.706L646.788 532.899C645.067 533.573 641.939 530.994 639.885 527.209L436.364 152.074C434.406 148.463 434.154 145.088 435.796 144.445L438.84 143.252C440.561 142.578 443.689 145.157 445.743 148.942L649.264 524.077C651.222 527.688 651.474 531.063 649.832 531.706Z" fill="#FFDCA0"/>
<path d="M563.709 305.75L546.484 295.715L552.796 287.931L575.585 301.034L563.709 305.75Z" fill="#3F6349"/>
<path d="M538.214 315.49L524.983 315.98L528.166 323.474L542.329 324.266L538.214 315.49Z" fill="#3F6349" stroke="#3F6349" stroke-width="0.1"/>
</g>
<defs>
<clipPath id="clip0_85_1265">
<rect width="600" height="720" fill="white"/>
</clipPath>
</defs>
</svg>
