<svg width="1280" height="720" viewBox="0 0 1280 720" fill="none" xmlns="http://www.w3.org/2000/svg">
<g clip-path="url(#clip0_66_1317)">
<rect width="1280" height="720" fill="#CFF09E"/>
<path d="M367.059 29.9329L277.56 -32.4376L263.883 -14.7645L353.382 47.606L367.059 29.9329Z" fill="#E1BE8C"/>
<path d="M319.188 91.7893L229.689 29.4188L216.011 47.0919L305.51 109.462L319.188 91.7893Z" fill="#E1BE8C"/>
<path d="M271.316 153.646L181.817 91.2753L168.139 108.948L257.638 171.319L271.316 153.646Z" fill="#E1BE8C"/>
<path d="M79.8285 401.072L-9.67054 338.701L-23.3481 356.374L66.1509 418.745L79.8285 401.072Z" fill="#E1BE8C"/>
<path d="M223.444 215.502L133.945 153.132L120.267 170.805L209.766 233.175L223.444 215.502Z" fill="#E1BE8C"/>
<path d="M175.572 277.359L86.0731 214.988L72.3956 232.661L161.895 295.032L175.572 277.359Z" fill="#E1BE8C"/>
<path d="M127.7 339.215L38.2013 276.845L24.5237 294.518L114.023 356.888L127.7 339.215Z" fill="#E1BE8C"/>
<path d="M31.9566 462.928L-57.5424 400.558L-71.2199 418.231L18.2791 480.601L31.9566 462.928Z" fill="#E1BE8C"/>
<path d="M-4.59904 519.069L0.374489 522.535C3.18567 524.494 8.64022 521.925 12.411 516.867L386.105 15.5461C389.701 10.7204 390.427 5.40913 387.746 3.54072L382.772 0.0747651C379.961 -1.88431 374.506 0.684615 370.736 5.7429L-2.95853 507.064C-6.55505 511.889 -7.28125 517.2 -4.59904 519.069Z" fill="#FFDCA0"/>
<path d="M-103.054 450.457L-108.028 446.991C-110.839 445.032 -109.888 439.324 -105.93 434.396L286.326 -53.9883C290.102 -58.6884 295.226 -60.9349 297.907 -59.0665L302.881 -55.6005C305.692 -53.6414 304.741 -47.9339 300.783 -43.0059L-91.4735 445.379C-95.2492 450.079 -100.372 452.326 -103.054 450.457Z" fill="#FFDCA0"/>
<g clip-path="url(#clip1_66_1317)">
<path d="M120 239L136 250" stroke="#FFDCA0" stroke-width="0.5"/>
<path d="M121.672 243.816C122.638 244.516 123.628 245.124 124.652 245.731C125.94 246.493 121.874 244.61 120.531 243.949C120.162 243.767 119.793 243.585 119.429 243.394C119.278 243.314 119.111 243.254 118.987 243.137C118.772 242.937 119.563 243.256 119.845 243.34C120.682 243.59 121.543 243.838 122.324 244.239C122.392 244.274 122.177 244.172 122.135 244.108C121.969 243.854 122.711 244.309 122.982 244.445C123.463 244.687 123.934 244.967 124.434 245.167C124.529 245.205 124.531 245.191 124.463 245.191" stroke="#FFDCA0" stroke-width="0.5" stroke-linecap="round"/>
<path d="M125.677 246.648C126.216 246.924 126.348 246.982 126.926 247.34C127.279 247.558 127.628 247.783 127.971 248.016C128.127 248.122 129.471 249.021 129.699 249.364C129.738 249.423 129.577 249.479 129.511 249.457C128.793 249.21 127.234 248.257 126.728 247.937C126.187 247.595 125.659 247.232 125.133 246.866C125.11 246.849 123.776 245.915 123.508 245.621C123.351 245.447 123.958 245.758 124.169 245.861C124.922 246.228 125.676 246.606 126.391 247.043C126.491 247.104 126.588 247.17 126.681 247.241C126.697 247.253 126.734 247.295 126.715 247.29C126.66 247.277 126.613 247.24 126.564 247.212C126.372 247.099 126.186 246.972 126 246.85" stroke="#E1BE8C" stroke-width="0.5" stroke-linecap="round"/>
<path d="M125.92 246.486C126.591 246.956 127.27 247.419 127.893 247.953C128.002 248.047 128.119 248.135 128.207 248.248C128.231 248.278 128.129 248.235 128.097 248.214C127.685 247.938 126.871 247.27 126.574 247.025C125.957 246.518 125.125 245.95 124.625 245.299C124.533 245.178 124.964 245.343 124.989 245.353" stroke="#E1BE8C" stroke-width="0.5" stroke-linecap="round"/>
<path d="M126.162 247.74C125.67 247.479 125.241 247.129 124.787 246.809" stroke="#E1BE8C" stroke-width="0.5" stroke-linecap="round"/>
<path d="M124.787 246.809C124.52 246.617 123.495 245.9 123.209 245.623C123.155 245.569 123.043 245.404 123.12 245.412C123.369 245.435 123.596 245.571 123.821 245.681C124.478 246.002 126.032 246.882 126.621 247.295C127.596 247.979 126.818 247.744 126.171 247.52C124.863 247.066 123.36 246.37 122.09 245.834C121.449 245.563 120.486 245.032 121.362 245.74C121.899 246.173 123.357 247.159 123.762 247.798C123.845 247.929 123.784 248.231 123.63 248.243C123.18 248.279 122.737 248.075 122.315 247.915C121.473 247.596 120.025 246.837 119.245 246.279C118.424 245.691 119.321 245.998 119.547 246.081C120.148 246.302 120.827 246.645 121.412 246.926C121.763 247.095 121.339 246.88 120.985 246.648C120.526 246.347 119.84 245.89 119.425 245.506C119.226 245.322 119.044 245.108 119.439 245.209C119.867 245.319 120.271 245.557 120.661 245.758" stroke="#E1BE8C" stroke-width="0.5" stroke-linecap="round"/>
<path d="M121.075 242.508C121.743 243.003 122.357 243.568 122.969 244.13C123.327 244.46 124.304 245.346 124.667 245.809C125.115 246.38 124.438 245.987 124.236 245.876C123.43 245.433 122.372 244.683 121.654 244.179C121.209 243.866 120.762 243.553 120.326 243.228C120.126 243.079 119.878 242.968 119.746 242.757C119.68 242.65 119.99 242.819 120.104 242.873C120.518 243.067 120.92 243.288 121.327 243.499C121.769 243.728 123.348 244.547 123.891 244.875C124.685 245.354 122.207 244.086 121.415 243.602C120.955 243.321 119.607 242.463 119.078 241.98C118.808 241.733 119.738 242.301 120.04 242.508C120.478 242.809 121.757 243.725 122.14 244.15C122.792 244.871 122.023 244.71 121.499 244.559C120.479 244.266 118.468 243.362 117.544 242.947C116.944 242.676 116.348 242.398 115.759 242.103C115.325 241.886 116.629 242.537 117.061 242.759C117.178 242.819 117.46 243.001 117.214 242.764C117.048 242.604 116.106 241.779 116.055 241.734C115.791 241.497 114.985 240.945 115.34 240.945C115.554 240.945 115.749 241.075 115.947 241.157C116.326 241.314 116.697 241.493 117.071 241.662C117.626 241.913 118.163 242.212 118.74 242.407C118.981 242.488 118.312 242.134 118.092 242.007C117.227 241.51 117.856 241.892 118.116 242.079C118.16 242.11 119.694 243.202 118.782 242.873C118.568 242.795 117.845 242.472 117.623 242.384C117.541 242.352 117.46 242.301 117.372 242.303C117.336 242.304 117.407 242.368 117.436 242.389C117.795 242.652 117.901 242.544 118.067 242.222C118.161 242.039 118.366 242.516 118.457 242.7C118.593 242.975 118.657 243.122 118.777 243.385C118.797 243.428 118.841 243.545 118.859 243.501C118.875 243.461 118.967 242.97 119.053 243.067C119.199 243.231 119.181 243.597 119.206 243.802C119.219 243.91 119.229 243.587 119.241 243.479C119.247 243.424 119.258 243.369 119.26 243.314C119.262 243.29 119.25 243.361 119.246 243.385C119.199 243.662 119.138 244.046 119.103 244.312C119.078 244.496 118.935 245.007 119.053 244.865C119.212 244.674 119.188 244.387 119.26 244.15C119.364 243.812 119.558 243.214 119.694 242.878C119.799 242.621 119.856 242.522 119.813 242.858C119.737 243.439 119.6 244.015 119.492 244.591C119.441 244.866 119.536 244.477 119.564 244.384C119.666 244.047 119.794 243.619 119.938 243.297C120.029 243.094 120.148 242.87 120.109 243.255C120.076 243.565 119.955 244.005 119.872 244.3C119.589 245.304 120.142 243.973 120.187 243.886C120.276 243.716 120.356 243.541 120.454 243.376C120.581 243.16 120.656 243.031 120.651 243.366C120.648 243.541 120.55 244.402 120.538 244.554C120.526 244.694 120.48 245.07 120.582 244.973C120.8 244.768 121.094 243.912 121.055 244.209C121.02 244.48 120.897 244.738 120.809 244.993" stroke="#E1BE8C" stroke-width="0.5" stroke-linecap="round"/>
<path d="M119.359 243.735C119.359 243.53 119.361 243.326 119.355 243.122C119.354 243.107 119.359 242.717 119.313 242.967C119.213 243.514 119.363 242.707 119.277 243.161C119.272 243.188 119.244 243.258 119.265 243.241C119.307 243.205 119.293 243.134 119.307 243.08C119.319 243.029 119.403 242.695 119.428 242.647C119.439 242.625 119.478 242.592 119.492 242.612C119.536 242.677 119.542 242.761 119.558 242.837C119.626 243.172 119.637 243.413 119.694 243.751C119.709 243.841 119.71 243.937 119.752 244.018C119.764 244.04 119.81 244.024 119.825 244.005C119.939 243.862 119.926 243.707 120.072 243.584C120.229 243.452 120.248 243.77 120.25 243.795C120.27 243.987 120.239 244.285 120.217 244.478C120.208 244.553 120.149 244.77 120.185 244.704C120.212 244.656 120.212 244.597 120.225 244.544" stroke="#E1BE8C" stroke-width="0.5" stroke-linecap="round"/>
<path d="M121.374 245.561C121.451 245.495 121.788 245.196 121.706 245.532C121.612 245.921 121.005 246.972 121.196 246.62C121.248 246.524 121.712 245.604 121.844 245.683C121.883 245.706 121.859 245.772 121.856 245.817C121.85 245.894 121.816 245.969 121.815 246.047C121.812 246.243 121.841 246.341 122.079 246.348C122.391 246.358 123.067 246.166 123.317 246.101C123.559 246.039 124.46 245.777 124.747 245.758C125.102 245.734 125.374 245.803 125.563 246.131C125.753 246.461 125.797 247.075 125.849 247.424C125.878 247.616 125.878 247.816 125.94 248C125.973 248.095 126.026 248.227 126.125 248.238C126.321 248.258 126.809 247.701 126.854 247.656C126.957 247.55 127.048 247.43 127.161 247.335C127.191 247.31 127.271 247.263 127.274 247.302C127.282 247.39 127.014 247.922 127.008 247.934C126.965 248.028 126.826 248.278 126.918 248.231C127.063 248.158 127.156 248.01 127.28 247.905C127.33 247.863 127.377 247.81 127.438 247.788C127.458 247.78 127.484 247.809 127.485 247.83C127.493 247.905 127.389 248.06 127.465 248.056C127.57 248.05 127.999 247.482 127.9 247.924C127.85 248.147 127.74 248.342 127.661 248.554C127.585 248.759 127.708 248.575 127.781 248.489C127.949 248.289 128.145 248.032 128.327 247.842C128.473 247.689 128.508 247.666 128.429 247.859C128.393 247.948 128.34 248.031 128.305 248.12C128.289 248.16 128.236 248.259 128.276 248.246C128.354 248.221 128.397 248.135 128.451 248.074C128.555 247.957 128.647 247.829 128.751 247.712C128.844 247.609 129.086 247.297 128.95 247.691C128.852 247.977 128.465 248.796 128.354 249.035C128.262 249.232 127.941 249.793 128.084 249.629C128.239 249.451 128.329 249.226 128.454 249.026" stroke="#E1BE8C" stroke-width="0.5" stroke-linecap="round"/>
<path d="M124.538 246.051C124.372 246.686 123.78 248.563 123.926 247.923C123.958 247.779 124.171 247.176 124.184 247.14C124.236 246.994 124.287 246.847 124.347 246.704C124.358 246.679 124.399 246.611 124.395 246.638C124.379 246.746 124.342 246.85 124.31 246.955C124.202 247.303 124.092 247.608 123.968 247.949C123.949 248.003 123.886 248.164 123.908 248.111C124.024 247.831 124.127 247.545 124.237 247.263C124.439 246.746 124.63 246.223 124.841 245.71C124.972 245.391 124.623 246.365 124.513 246.692C124.45 246.879 124.386 247.065 124.324 247.252C124.297 247.336 124.254 247.417 124.245 247.504C124.22 247.727 124.563 246.669 124.515 246.888C124.447 247.197 124.317 247.49 124.222 247.792C124.19 247.894 124.139 247.993 124.133 248.1C124.129 248.163 124.19 247.987 124.213 247.928C124.284 247.751 124.348 247.571 124.413 247.392C124.503 247.148 124.749 246.406 124.678 246.657C124.513 247.233 124.288 247.799 124.092 248.365C124.055 248.47 124.019 248.575 123.982 248.68C123.886 248.949 124.169 248.141 124.267 247.874C124.322 247.721 124.375 247.567 124.439 247.417C124.484 247.312 124.402 247.643 124.374 247.754C124.301 248.05 124.281 248.127 124.452 247.729C124.753 247.029 124.993 246.295 125.323 245.607C125.415 245.416 125.182 246.007 125.109 246.206C125.089 246.26 125.026 246.42 125.052 246.369C125.182 246.121 125.267 245.851 125.381 245.595C125.398 245.557 125.451 245.445 125.439 245.485C125.397 245.632 125.339 245.775 125.287 245.919C125.204 246.148 125.118 246.377 125.034 246.606C124.979 246.752 124.924 246.899 124.868 247.045C124.847 247.101 124.909 246.933 124.93 246.878C125.017 246.651 125.107 246.425 125.193 246.197C125.288 245.945 125.584 245.205 125.423 245.421C125.129 245.814 124.5 247.146 124.665 246.684C124.75 246.447 125.25 245.397 125.318 245.248C125.371 245.133 125.584 244.85 125.469 244.9C125.338 244.958 125.326 245.148 125.258 245.274C125.127 245.519 124.999 245.766 124.87 246.013C124.494 246.739 124.589 246.571 124.72 246.304C124.842 246.054 124.965 245.804 125.085 245.552C125.282 245.138 125.517 244.738 125.649 244.299C125.704 244.115 125.451 244.628 125.361 244.798C125.334 244.849 125.267 245.006 125.28 244.95C125.321 244.784 125.438 244.643 125.485 244.478C125.558 244.226 125.201 244.921 125.1 245.163C124.963 245.494 125.338 245.059 125.347 245.053" stroke="#E1BE8C" stroke-width="0.5" stroke-linecap="round"/>
<path d="M124.492 247.055C124.106 246.74 123.742 246.403 123.346 246.1C122.812 245.69 122.26 245.312 121.753 244.867C121.358 244.52 121.016 244.243 120.781 243.773" stroke="white" stroke-linecap="round"/>
<path d="M121.602 242.367C122.321 243.104 122.96 243.892 123.596 244.702C123.864 245.044 124.127 245.391 124.392 245.735C124.543 245.931 124.688 246.13 124.844 246.321C124.885 246.371 124.935 246.499 124.983 246.456C125.037 246.407 124.95 246.313 124.931 246.243C124.831 245.877 124.784 245.642 124.51 245.329C124.464 245.278 123.672 244.423 123.355 244.806C122.868 245.396 124.201 247.053 124.204 247.057C124.621 247.623 125.082 248.162 125.599 248.639C125.757 248.785 127.019 249.989 127.643 249.472C127.842 249.308 127.836 248.981 127.836 248.724C127.838 248.196 127.633 247.646 127.196 247.324C126.798 247.03 126.458 247.262 126.176 247.536C126.1 247.611 126.045 247.587 125.977 247.484" stroke="#E1BE8C" stroke-linecap="round"/>
<path d="M122.663 245.923L124.781 248.042" stroke="#E1BE8C" stroke-width="5" stroke-linecap="square"/>
<path d="M128.104 245.778V251.157" stroke="#E1BE8C" stroke-width="5" stroke-linecap="square"/>
<path d="M124 242.5L131 247.853M131 247.853L132.5 249L131.088 247.853L124.5 242.5L131 247.5V247.853Z" stroke="#E1BE8C" stroke-width="3"/>
<path d="M122.821 246.831C122.854 246.61 122.884 246.388 122.93 246.17C122.94 246.124 122.947 246.076 122.965 246.032C122.997 245.957 122.961 246.196 122.949 246.277C122.924 246.449 122.816 246.957 122.877 246.794C122.956 246.585 122.991 246.345 123.102 246.149C123.201 245.973 123.047 246.548 123.005 246.745C122.983 246.851 122.959 246.958 122.936 247.065C122.899 247.235 122.897 247.235 122.927 247.112C122.952 247.008 123.029 246.7 123.01 246.804C122.987 246.93 122.952 247.051 122.922 247.175" stroke="#E1BE8C" stroke-width="0.5" stroke-linecap="round"/>
</g>
<path d="M168.854 91.4107C168.255 92.0914 165.946 94.1328 165.003 94.8334C163.41 95.9946 160.915 97.5034 157.079 99.6405C150.94 103.057 148.805 104.498 146.238 106.92C144.024 109.023 141.847 111.816 140.858 113.814C138.281 118.996 138.847 123.025 142.48 125.34C143.001 125.688 144.449 126.298 145.825 126.767C149.576 128.066 151.134 129.098 151.737 130.666C152.252 131.959 151.87 133.203 150.467 134.811C148.438 137.167 144.35 139.837 138.505 142.649C137.262 143.254 133.455 144.873 130.018 146.266C124.135 148.657 121.891 149.632 118.421 151.305C107.326 156.643 99.3045 162.247 94.9377 167.711C93.813 169.128 92.4259 171.645 92.0668 172.95C91.3652 175.512 91.7732 177.943 93.2223 179.79C94.5842 181.502 96.7788 182.866 99.8262 183.887C104.785 185.536 111.026 186.131 119.031 185.736C124.528 185.449 131.434 184.62 137.074 183.561C149.526 181.202 151.738 180.829 156.302 180.31C163.157 179.529 168.104 179.594 171.018 180.498C172.56 180.988 173.426 181.639 173.803 182.619C174.185 183.611 174.009 184.48 173.051 186.101C170.868 189.838 165.832 194.11 155.192 201.27C147.469 206.464 142.891 210.053 137.164 215.407C123.274 228.375 116.679 240.841 120.737 246.452C121.681 247.762 122.895 248.588 124.782 249.198C126.629 249.795 128.315 250.019 130.876 250.004C137.113 249.994 146.225 247.909 157.332 243.972C160.458 242.868 162.117 242.384 163.604 242.135C168.063 241.39 170.831 243.01 170.954 246.437C171.101 250.473 168.406 255.574 164.046 259.502C162.658 260.739 162.632 260.763 160.767 261.579C158.626 262.502 158.131 262.861 156.985 264.314C156.216 265.285 155.438 266.78 154.731 268.599C154.497 269.223 153.855 270.525 153.304 271.468C152.116 273.543 151.819 274.599 152.182 275.543C152.408 276.131 152.492 276.211 153.139 276.384C153.535 276.499 154.18 276.532 154.58 276.476C156.006 276.251 158.457 274.9 161.796 272.476C166.005 269.436 167.943 266.707 167.846 263.988L167.829 263.165L168.758 262.428C175.772 256.902 179.485 248.779 178.145 241.87C177.132 236.634 172.613 233.296 166.469 233.227C163.026 233.188 160.114 233.845 153.838 236.035C143.763 239.546 136.828 240.667 134.71 239.092C131.206 236.517 139.649 227.347 155.172 216.888C157.939 215.035 159.122 214.271 165.76 210.141C183.094 199.365 193.854 189.135 196.747 180.709C199.042 174.018 195.878 168.949 187.768 166.374C180.914 164.188 171.35 163.818 158.771 165.255C152.688 165.936 147.892 166.769 138.268 168.757C122.381 172.057 111.497 173.011 106.741 171.522C103.957 170.639 103.856 169.187 106.41 166.826C110.093 163.468 117.653 159.589 130.909 154.291C136.939 151.872 139.311 150.819 142.765 149.012C153.975 143.151 160.442 137.161 160.751 132.345C160.835 131.103 160.358 129.543 159.595 128.472C157.94 126.184 154.908 124.425 149.3 122.505C147.194 121.783 146.555 121.494 146.108 121.061C143.456 118.51 144.067 113.155 147.485 108.971C149.299 106.741 150.393 105.884 155.533 102.612C163.093 97.8185 167.922 93.9212 169.224 91.5496C169.575 90.9083 169.37 90.8325 168.854 91.4107Z" fill="#3F6348"/>
<path d="M129 170L122.5 176" stroke="#FFDCA0" stroke-width="0.5"/>
<path d="M129.5 170L125.5 174" stroke="#FFDCA0" stroke-width="0.5"/>
<path d="M97 183L97.375 182.5M97.375 182.5L106 171L110.5 182L97.375 182.5Z" stroke="#FFDCA0" stroke-width="0.5"/>
<path d="M120 239L136 250.5" stroke="#E1BE8C" stroke-width="0.5"/>
<path d="M120 239.5L119.5 239M120 239.5L131.5 250L134 249.5M120 239.5L120.5 240H121L133 250H133.5H134.5L134 249.5M120 239.5V240L122 244.5M134 249.5L133.5 249.5V249M132 249.5L124 243L128 250L130 249L125 244.5L127 247.5L128.5 248L128 249L129 248.5V249C128.2 249.4 131.667 249.167 133.5 249M133.5 249C133.1 249 133.667 249 134 249" stroke="#E1BE8C" stroke-width="0.5"/>
<path d="M145.758 175.325C149.944 178.403 151.144 179.798 156.993 184.835C160.428 187.792 157.314 184.576 156.111 183.27C154.523 181.546 148.282 178.445 150.573 178.936C152.764 179.406 158.426 182.788 156.191 182.628C151.129 182.266 147.382 176.515 142.388 175.405C141.832 175.282 146.186 178.118 147.082 178.856C151.144 182.201 148.255 180.672 145.116 179.257C140.851 177.335 148.175 179.676 149.129 180.06C153.063 181.643 150.464 181.717 147.925 180.381C143.941 178.284 146.012 179.793 147.684 181.705C148.772 182.948 142.976 180.499 142.147 180.381C141.535 180.293 147.218 184.763 143.23 181.825C141.068 180.232 142.526 180.789 144.153 181.264C145.061 181.529 142.256 179.212 141.946 178.656C141.355 177.591 144.565 179.676 143.311 178.736C141.694 177.523 138.796 176.394 137.573 174.763C136.693 173.59 140.401 175.541 141.826 175.887C142.471 176.043 142.42 175.155 144.434 175.807C146.244 176.392 151.165 179.357 149.49 178.455C148.415 177.876 147.301 177.374 146.24 176.77C145.446 176.318 143.153 175.832 143.913 175.325C147.304 173.064 153.117 179.247 144.795 173.921C140.191 170.974 155.57 175.341 144.956 169.868C139.816 167.218 153.271 171.634 150.894 171.634C148.461 171.634 146.12 170.35 143.752 170.35C142.874 170.35 145.76 170.992 144.153 170.992C139.408 170.992 148.394 170.523 147.203 171.714" stroke="#E1BE8C" stroke-width="3" stroke-linecap="round"/>
<path d="M149.253 170.655C151.209 172.907 153.027 175.047 154.073 177.871C154.572 179.218 154.39 178.801 153.741 177.884C152.794 176.549 151.617 175.401 150.666 174.083C150.32 173.603 149.738 171.682 150.708 172.968C151.228 173.657 154.799 179.78 154.752 179.796C153.867 180.091 151.378 176.186 151.033 175.71C150.035 174.331 148.056 171.843 148.166 169.97C148.209 169.248 150.478 171.508 150.583 171.611C152.286 173.281 154.159 174.801 155.507 176.79C155.605 176.936 156.976 179.396 155.998 178.563C154.316 177.131 152.612 175.599 151.075 174.014C149.641 172.535 148.207 171.037 146.83 169.506C146.195 168.8 147.85 169.724 148.069 169.824C152.54 171.856 155.495 175.442 158.242 179.366C160.214 182.184 152.585 175.329 150.361 172.705C150.124 172.424 147.602 169.299 149.177 170.17C151.778 171.609 154.291 173.504 156.524 175.461C157.843 176.616 159.008 177.88 160.063 179.276C160.603 179.99 160.234 179.879 159.613 179.574C155.649 177.63 151.623 174.587 148.54 171.417C148.378 171.25 146.797 169.692 147.841 170.06C149.917 170.791 151.689 172.2 153.415 173.522C155.82 175.364 162.42 181.589 159.938 179.851C155.93 177.045 152.195 174.246 148.796 170.69C147.495 169.328 146.145 167.948 145.196 166.306C144.934 165.854 146.739 167.489 146.954 167.677C151.208 171.413 155.415 175.296 159.253 179.463C159.307 179.522 160.81 181.119 159.696 180.779C158.47 180.404 157.12 179.654 155.984 179.062C153.118 177.567 150.393 175.735 147.73 173.91C146.709 173.21 145.712 172.472 144.669 171.805C144.188 171.496 143.068 170.618 142.384 170.738C141.769 170.846 143.617 174.028 143.748 174.235C144.693 175.72 145.725 177.143 146.643 178.646C147.09 179.379 148.09 180.655 148.09 181.61C148.09 181.95 147.693 181.478 147.675 181.458C146.887 180.584 146.222 179.565 145.528 178.619C143.736 176.176 142.103 173.628 140.715 170.932C140.234 169.997 139.987 169.028 140.985 170.35C142.918 172.911 144.427 175.933 145.867 178.785C146.39 179.82 146.856 180.885 147.19 181.998C147.482 182.971 147.12 182.525 146.691 182.109C144.965 180.434 143.204 178.814 141.532 177.081C141.291 176.831 137.803 173.641 137.994 173.259C138.049 173.148 138.186 173.418 138.271 173.508C138.599 173.857 138.951 174.279 139.24 174.644C140.514 176.248 141.692 177.926 142.869 179.602C143.613 180.662 144.349 181.727 145.168 182.732C145.645 183.317 147.375 184.632 146.643 184.449C146.253 184.352 145.626 183.655 145.376 183.424C144.091 182.242 142.903 180.953 141.705 179.685C140.399 178.301 137.802 176.263 137.461 174.214C137.409 173.907 140.463 176.264 140.805 176.569C142.501 178.081 144.066 179.742 145.701 181.319C147.213 182.777 144.112 180.403 143.852 180.211C142.022 178.856 140.095 177.54 138.721 175.689C137.477 174.014 139.209 175.002 140.016 175.495C141.643 176.491 143.1 177.915 144.891 178.619C145.197 178.739 145.328 178.735 145.133 178.432C144.524 177.484 143.848 176.597 143.291 175.613C142.455 174.135 141.067 171.269 142.204 169.589C142.381 169.326 143.485 168.515 143.547 169.284C143.655 170.607 142.894 172.115 142.8 173.467C142.688 175.061 142.653 174.257 142.225 173.28C141.613 171.883 140.782 170.688 139.6 169.727C139.457 169.611 139.025 169.356 139.365 169.713C140.189 170.58 141.316 171.205 142.273 171.902" stroke="#E1BE8C" stroke-width="3" stroke-linecap="round"/>
<path d="M133.508 171.789C134.945 172.832 136.578 173.532 138.112 174.413C139.72 175.337 141.195 176.433 142.834 177.309C143.54 177.687 144.168 178.2 144.807 178.68C145.875 179.484 146.956 180.267 147.997 181.108C147.997 181.108 149.026 181.931 148.878 181.989C148.518 182.131 148.021 182.152 147.654 182.22C147.044 182.334 146.449 182.461 145.866 182.675C144.917 183.023 143.889 182.662 143.009 182.227C141.331 181.399 139.949 180.125 138.496 178.981C138.1 178.669 137.672 178.383 137.335 178.009C136.693 177.296 136.125 176.606 135.306 176.085C134.232 175.401 133.042 174.913 132.312 173.818C132.191 173.637 132.104 173.43 131.962 173.262C131.704 172.956 131.683 172.521 131.416 172.216C130.956 171.688 131.284 170.881 131.619 170.418C132.391 169.352 134.05 169.372 134.781 168.263C134.842 168.172 135.191 167.508 135.065 167.403C135.052 167.392 135.036 167.423 135.026 167.438C134.168 168.744 136.119 165.862 134.677 168.011C134.287 168.592 133.83 169.117 133.403 169.669C133.224 169.901 132.636 170.458 132.606 170.782C132.596 170.885 132.824 170.799 132.914 170.747C133.565 170.366 134.139 169.82 134.719 169.341C134.771 169.297 135.698 168.566 135.698 168.575C135.698 169.202 135.107 169.935 134.886 170.509C134.684 171.034 134.858 170.889 135.096 170.523C135.495 169.909 135.868 169.277 136.261 168.659C136.662 168.028 136.874 167.704 137.265 167.102C137.389 166.911 137.458 166.66 137.65 166.539C137.668 166.528 137.675 166.578 137.671 166.598C137.617 166.858 137.382 167.453 137.314 167.62C136.944 168.534 136.531 169.432 136.146 170.341C136.085 170.485 135.31 172.118 135.894 171.09C136.287 170.396 136.667 169.643 137.181 169.026C137.249 168.944 137.228 169.241 137.202 169.344C136.946 170.37 136.553 171.366 136.195 172.359C136.096 172.634 135.953 172.928 135.866 173.209C135.775 173.504 136.191 172.685 136.342 172.415C137.451 170.427 138.378 168.258 139.686 166.388C140.242 165.593 139.335 168.303 139.042 169.229C138.817 169.941 138.593 170.654 138.377 171.369C138.296 171.638 138.265 171.751 138.181 171.992C138.163 172.047 138.079 172.191 138.126 172.156C138.142 172.144 138.15 172.122 138.161 172.104C138.348 171.771 138.52 171.43 138.706 171.097C139.448 169.771 140.24 168.483 141.102 167.231C141.331 166.9 141.564 166.571 141.805 166.248C141.954 166.051 142.328 165.484 142.337 165.731C142.357 166.293 142.056 166.821 141.875 167.354C141.488 168.496 140.935 169.956 140.511 171.062C139.919 172.604 139.298 174.134 138.696 175.672C138.567 176 138.373 176.407 138.307 176.77C138.29 176.868 138.461 176.638 138.514 176.553C139.001 175.779 139.431 174.969 139.885 174.175C139.936 174.085 140.605 172.89 140.382 173.64C140.276 173.992 140.16 174.342 140.049 174.692C139.921 175.098 139.964 174.946 140.105 174.65C140.565 173.69 141.149 172.796 141.784 171.943C141.94 171.734 142.105 171.542 142.138 171.88C142.15 172.013 142.239 172.153 142.344 172.233C142.501 172.354 142.695 172.42 142.869 172.51C143.41 172.79 143.863 173.177 144.317 173.58C145.339 174.488 146.289 175.429 147.101 176.532C147.903 177.623 148.782 178.679 148.836 180.09C148.885 181.363 147.765 182.87 146.43 182.983C145.874 183.03 145.527 183.037 145.345 182.493" stroke="#E1BE8C" stroke-width="3"/>
<path d="M148.682 166.878C149.328 167.284 150.024 167.602 150.669 168.011C151.052 168.255 151.359 168.603 151.746 168.83C152.293 169.151 152.783 169.5 153.376 169.711C153.913 169.902 154.311 170.295 154.734 170.663C155.082 170.966 155.461 171.219 155.818 171.509C156.262 171.871 156.65 172.244 157.042 172.671C157.697 173.382 158.362 174.002 158.945 174.783C159.345 175.319 159.855 175.753 160.302 176.246C160.67 176.65 160.92 177.139 161.275 177.554C161.742 178.1 162.342 178.554 162.884 179.023C163.099 179.209 163.417 179.474 163.541 179.722" stroke="#E1BE8C" stroke-linecap="square"/>
<path d="M162.471 180.163C161.071 178.824 159.663 177.428 158.141 176.225C157.51 175.726 156.787 175.363 156.14 174.888C155.511 174.428 154.893 173.982 154.251 173.545C153.397 172.963 152.609 172.345 151.816 171.677C151.148 171.114 150.461 170.57 149.987 169.82C149.829 169.571 149.615 169.304 149.627 169.005C149.646 168.498 150.875 169.148 151.026 169.218C152.146 169.742 152.951 170.491 153.873 171.285C154.335 171.684 154.761 172.088 155.174 172.538C155.272 172.644 155.664 172.961 155.664 173.139C155.664 173.197 153.884 172.434 153.761 172.363C153.166 172.018 152.627 171.585 152.068 171.188C151.504 170.787 150.892 170.439 150.347 170.012C149.944 169.696 149.579 169.277 149.34 168.823C149.31 168.766 149.215 168.642 149.347 168.669C149.937 168.79 150.523 169.078 151.075 169.306C151.84 169.621 152.684 169.874 153.411 170.271C153.465 170.3 153.611 170.378 153.551 170.39C153.265 170.447 152.581 170.036 152.369 169.942C151.551 169.58 150.79 169.139 149.997 168.732C149.536 168.495 150.376 168.806 150.484 168.837C150.821 168.933 151.727 169.469 151.453 169.25C150.851 168.768 150.134 168.351 149.48 167.941C149.443 167.919 149.151 167.797 149.13 167.735C149.068 167.549 149.525 167.742 149.718 167.781C150.628 167.965 151.537 168.255 152.285 168.823C152.429 168.932 152.56 169.132 152.24 168.998C151.16 168.546 150.161 167.921 149.046 167.55C148.985 167.529 148.806 167.487 149.039 167.522C149.457 167.585 149.87 167.678 150.277 167.788C150.827 167.936 151.625 168.072 152.103 168.414C152.502 168.699 151.377 167.749 150.977 167.466C150.383 167.045 149.589 166.697 149.07 166.178C148.934 166.042 149.422 166.339 149.599 166.416C149.963 166.575 150.33 166.725 150.701 166.868C150.928 166.955 151.159 167.039 151.369 167.165C151.598 167.302 150.864 166.988 150.62 166.878C150.48 166.815 150.34 166.751 150.2 166.686C150.086 166.632 149.757 166.562 149.868 166.5C149.964 166.447 150.324 166.6 150.417 166.626C150.936 166.772 151.492 166.887 151.991 167.091C152.036 167.11 151.311 166.896 151.176 166.843C151.116 166.819 150.077 166.419 150.564 166.528C150.891 166.602 151.135 166.775 151.397 166.976C151.813 167.296 150.895 166.671 150.812 166.612C150.361 166.292 150.684 166.415 150.998 166.546C151.855 166.902 152.636 167.358 153.299 168.011C154.025 168.726 154.785 169.35 155.608 169.949C156.054 170.274 156.404 170.557 156.717 171.013C157.167 171.668 157.804 172.051 158.35 172.608C158.634 172.897 158.758 173.32 159.036 173.615C159.33 173.926 159.649 174.14 159.988 174.42C160.323 174.697 160.585 175.021 160.869 175.35C161.338 175.894 161.98 176.039 162.534 176.448C163.131 176.89 163.484 177.599 164.087 178.022C164.646 178.415 165.163 178.764 165.584 179.31C166.039 179.899 166.685 180.225 167.249 180.695C167.508 180.911 167.875 181.156 168.075 181.422" stroke="#E1BE8C" stroke-linecap="square"/>
<path d="M152.208 168.578C153.078 169.484 154.067 170.253 154.86 171.233C155.317 171.799 155.775 172.329 156.287 172.846C157.289 173.857 157.988 175.05 158.826 176.183C159.485 177.073 160.13 177.983 160.74 178.908C161.25 179.683 161.744 180.509 162.387 181.185C162.866 181.688 163.341 182.216 163.741 182.787C164.194 183.435 164.019 182.677 163.877 182.294C163.341 180.845 162.088 179.622 161.058 178.512C160.027 177.401 158.889 176.415 157.801 175.364C157.601 175.171 156.926 174.687 157.175 174.811C158.984 175.716 160.493 177.061 162.184 178.155C162.663 178.465 163.161 178.742 163.639 179.051C163.949 179.251 163.036 178.629 162.737 178.414C161.88 177.799 161.026 177.176 160.225 176.487C159.993 176.287 159.79 176.017 159.55 175.826C158.57 175.042 161.424 177.498 162.338 178.358C162.506 178.516 163.07 179.067 163.248 179.324C163.315 179.421 163.022 179.245 162.926 179.177C162.232 178.689 161.511 178.228 160.841 177.708C160.407 177.371 160.009 176.996 159.617 176.613C159.582 176.579 159.141 176.226 159.141 176.106C159.141 176.074 160.745 176.835 160.785 176.854C161.76 177.323 162.79 177.733 163.702 178.323C164.008 178.521 163.911 178.479 163.618 178.232C162.334 177.151 161.143 175.983 159.886 174.874C159.203 174.272 160.145 175.238 160.239 175.343C161.162 176.374 162.22 177.212 163.192 178.183C163.285 178.277 163.84 178.887 163.314 178.579C161.926 177.765 160.436 176.92 159.302 175.763C158.82 175.271 160.484 176.471 161.079 176.819C162.048 177.387 162.873 178.04 163.737 178.75C163.847 178.84 164.177 179.077 164.038 179.051C163.664 178.98 163.054 178.286 162.772 178.085C162.117 177.621 160.007 176.452 160.712 176.837C161.766 177.412 162.763 177.969 163.744 178.68C164.287 179.074 164.833 179.462 165.36 179.876C166.069 180.433 163.791 178.972 163.101 178.393C163.062 178.361 162.175 177.639 162.688 177.904C163.343 178.242 163.955 178.674 164.591 179.047C165.259 179.44 164.12 178.837 164.038 178.792C163.399 178.442 162.755 178.108 162.09 177.809C161.712 177.64 161.27 177.407 160.851 177.337C160.585 177.293 161.347 178.372 161.401 178.449C161.553 178.67 162.149 179.228 162.149 179.53C162.149 179.646 161.249 179.11 161.156 179.051C161.082 179.004 160.535 178.727 160.54 178.617C160.545 178.526 161.263 178.766 161.275 178.771C161.952 179.036 162.654 179.33 163.311 179.642C163.736 179.845 162.709 178.9 162.639 178.834C162.591 178.788 161.682 177.926 162.069 178.435C162.561 179.083 163.23 179.561 163.765 180.163C164.439 180.921 162.067 179.05 161.275 178.418C159.323 176.86 157.458 175.152 155.86 173.23C155.812 173.173 154.586 172.01 155.237 172.066C155.864 172.119 156.477 172.376 157.007 172.702C157.297 172.88 157.59 173.239 157.91 173.363C158.106 173.44 157.622 173.052 157.455 172.923C156.448 172.141 155.437 171.379 154.461 170.558C153.827 170.025 153.2 169.475 152.516 169.005C152.294 168.852 152.023 168.791 151.809 168.648C151.669 168.554 152.144 168.713 152.299 168.781C153.021 169.096 153.632 169.599 154.251 170.075C154.599 170.342 154.955 170.599 155.3 170.869C155.518 171.04 155.368 170.987 155.213 170.834C154.669 170.298 154.202 169.688 153.663 169.145C153.023 168.499 152.323 167.936 151.599 167.389C151.541 167.345 151.023 167.032 151.39 167.207C152.593 167.781 153.675 168.448 154.713 169.285C154.888 169.426 155.19 169.597 155.328 169.788C155.328 169.789 155.365 169.863 155.342 169.872C155.275 169.9 155.21 169.807 155.153 169.76C154.846 169.51 154.554 169.239 154.251 168.984C154.094 168.852 153.846 168.58 153.628 168.522C153.545 168.5 153.555 168.544 153.607 168.599C153.953 168.963 154.32 169.317 154.678 169.669C154.943 169.931 155.223 170.167 155.507 170.408C155.552 170.446 155.82 170.706 155.535 170.586C155.128 170.414 154.127 169.52 154.461 169.809C155.023 170.297 155.649 170.706 156.182 171.23C156.224 171.271 156.323 171.32 156.29 171.369C156.267 171.405 156.215 171.329 156.182 171.303C156.007 171.17 155.835 171.034 155.661 170.901C155.484 170.765 155.129 170.393 154.895 170.334C154.726 170.292 155.088 170.623 155.202 170.754C155.41 170.992 156.12 171.771 156.322 171.999C156.526 172.23 156.93 172.559 156.93 172.923" stroke="#E1BE8C" stroke-linecap="square"/>
<path d="M152 166L173 182" stroke="#E1BE8C" stroke-width="0.5"/>
<path d="M168.621 181.36C167.742 180.929 167.021 180.542 166.387 179.795C166.326 179.724 165.048 178.245 164.848 178.503C164.788 178.579 165.695 179.234 165.71 179.247C166.55 179.934 167.266 180.69 167.9 181.572C168.031 181.753 168.84 182.698 168.7 183.025C168.672 183.09 168.624 182.903 168.593 182.838C168.472 182.588 168.353 182.346 168.189 182.12C167.752 181.518 167.169 181.032 166.722 180.441C166.488 180.13 166.251 179.621 166.848 179.932C167.559 180.302 168.285 180.632 168.849 181.22C168.917 181.29 169.152 181.503 169.152 181.621C169.152 181.682 168.732 181.326 168.728 181.322C168.234 180.836 167.702 180.34 167.259 179.809C166.986 179.482 167.91 180.357 168.231 180.637C168.395 180.779 168.549 180.927 168.695 181.089C168.746 181.146 168.918 181.358 168.744 181.185C168.45 180.89 168.18 180.558 167.916 180.236C167.588 179.834 169.588 181.443 169.232 181.066C169.024 180.846 168.709 180.694 168.462 180.52C168.438 180.503 168.862 180.951 168.956 181.066" stroke="#E1BE8C" stroke-linecap="square"/>
<path d="M166.753 180.226C167.053 179.55 168.29 180.438 168.676 180.66C168.678 180.661 169.698 181.261 169.621 181.36C169.405 181.634 168.111 180.647 167.97 180.513C167.861 180.41 167.244 179.828 167.284 179.611C167.315 179.445 167.912 179.473 168.033 179.471C168.292 179.466 167.908 179.456 167.823 179.415C167.608 179.31 167.4 179.137 167.207 178.995C167.191 178.983 167.521 179.069 167.599 179.107C167.65 179.132 167.879 179.235 167.858 179.331C167.851 179.363 167.642 179.337 167.802 179.345C168.085 179.358 168.386 179.462 168.634 179.597C168.895 179.738 168.424 179.503 168.369 179.471C167.818 179.15 168.491 179.438 168.69 179.646C168.783 179.742 168.795 179.709 168.942 179.737C169.181 179.78 169.455 179.939 169.61 180.128C169.659 180.187 169.599 180.226 169.659 180.261C169.744 180.311 169.856 180.328 169.932 180.387C170.039 180.47 170.14 180.469 170.243 180.538C170.528 180.727 169.575 180.397 169.243 180.317C168.924 180.24 168.458 179.977 168.25 179.723C167.917 179.315 167.159 179.014 166.669 178.869C166.098 178.701 165.657 178.378 165.178 178.023C164.677 177.65 164.118 177.27 163.674 176.826C163.405 176.557 163.166 176.384 162.831 176.193C162.557 176.036 162.14 175.958 161.96 175.679C161.643 175.185 161.324 174.829 160.9 174.434C160.67 174.218 160.352 174.05 160.169 173.79C159.891 173.394 159.627 173.038 159.197 172.811C158.862 172.634 158.566 172.473 158.253 172.244C158.063 172.106 157.623 171.999 157.623 171.695C157.623 171.301 157.223 171.109 157.056 170.817C157.034 170.778 156.71 170.656 156.647 170.656C156.502 170.656 156.215 170.559 156.098 170.481C155.949 170.382 155.646 170.255 155.608 170.026C155.553 169.697 155.072 169.419 154.856 169.239C154.676 169.089 154.385 168.935 154.156 168.896C153.999 168.87 153.995 168.862 153.877 168.767C153.822 168.723 153.727 168.531 153.684 168.519C153.479 168.46 153.294 168.092 153.055 168.004C152.869 167.937 152.664 167.593 152.523 167.452C152.433 167.362 152.366 167.348 152.303 167.228C152.239 167.109 152.135 167.164 152.068 167.067C151.886 166.802 151.554 166.986 151.578 166.563C151.581 166.514 151.768 166.403 151.816 166.451C151.913 166.548 151.777 166.728 151.925 166.843C152.052 166.942 152.176 166.877 152.299 167.036C152.369 167.125 152.451 167.134 152.523 167.224C152.648 167.381 153.064 167.258 153.202 167.396C153.284 167.478 153.269 167.555 153.404 167.62C153.564 167.695 153.716 167.759 153.831 167.9C153.973 168.073 154.087 168.313 154.223 168.55C154.537 169.1 155.225 169.096 155.748 169.425C155.948 169.55 156.293 169.748 156.413 169.963C156.495 170.112 156.681 170.202 156.818 170.306C156.995 170.44 157.066 170.706 157.273 170.782C157.529 170.875 157.808 171.262 158.029 171.443C158.222 171.601 158.404 171.788 158.567 171.975C158.648 172.067 158.749 172.321 158.819 172.356" stroke="#E1BE8C" stroke-linecap="round"/>
<path d="M158.945 171.789C159.394 172.598 160.215 173.052 160.785 173.741C161.045 174.055 161.407 174.251 161.723 174.497C161.86 174.604 162.016 174.591 162.163 174.664C162.416 174.791 162.71 174.977 162.898 175.189C163.343 175.691 163.677 176.424 164.423 176.511C164.544 176.526 164.698 176.716 164.829 176.763C164.904 176.791 165.133 176.929 165.182 176.987C165.412 177.255 165.821 177.443 166.12 177.617C166.41 177.786 166.709 178.052 166.977 178.204C167.103 178.277 167.422 178.4 167.123 178.4C166.81 178.4 166.488 178.424 166.186 178.323C166.001 178.262 165.846 178.211 165.651 178.211C165.242 178.211 164.832 178.211 164.423 178.211" stroke="#E1BE8C" stroke-linecap="round"/>
<path d="M167.823 178.715C167.891 179.025 167.995 179.463 168.075 178.904" stroke="#E1BE8C" stroke-linecap="round"/>
<path d="M165.682 177.267C165.438 177.08 165.254 176.862 164.989 176.714C164.859 176.642 164.644 176.688 164.545 176.606C164.42 176.502 164.2 176.463 164.045 176.386C163.824 176.275 163.854 175.985 163.702 175.941C163.676 175.934 163.571 175.817 163.555 175.791C163.485 175.672 163.447 175.751 163.366 175.679C163.341 175.656 163.164 175.303 163.258 175.473C163.478 175.869 163.7 175.802 164.076 175.885C164.129 175.897 164.263 175.954 164.283 176.008C164.34 176.159 163.709 175.975 163.681 175.962C163.182 175.737 162.711 175.489 162.17 175.378C161.946 175.332 161.688 175.201 161.463 175.189C161.265 175.179 161.316 174.862 161.47 174.818C161.623 174.775 161.904 174.748 161.904 174.56C161.904 174.431 161.909 174.044 161.743 173.996C161.558 173.944 161.328 173.815 161.149 173.804C161.063 173.799 161.035 173.587 160.925 173.556C160.768 173.511 160.686 173.426 160.519 173.426" stroke="#E1BE8C" stroke-linecap="round"/>
<path d="M164.927 176.763C164.831 176.637 164.689 176.26 164.549 176.26C164.39 176.26 164.259 176.197 164.108 176.197C163.82 176.197 163.416 175.998 163.416 175.693" stroke="#E1BE8C" stroke-linecap="round"/>
<path d="M138.5 183L126.5 174L130 170.5" stroke="#E1BE8C" stroke-width="0.5"/>
<path d="M133.319 176.323C133.357 176.501 133.362 176.886 133.452 177.043C133.488 177.105 133.584 177.047 133.62 177.106C133.672 177.191 133.694 177.333 133.729 177.428C133.879 177.845 134.039 178.05 134.418 177.834C134.583 177.739 134.813 178.377 134.855 178.516C134.94 178.801 134.951 178.762 135.233 178.719C135.419 178.69 135.264 178.867 135.341 178.925C135.41 178.977 135.586 178.444 135.586 178.54C135.586 178.729 135.624 180.032 135.824 179.345C135.876 179.165 135.882 179.429 135.901 179.516C135.95 179.746 135.957 179.965 135.964 180.198C135.966 180.287 136.066 180.049 136.09 179.964C136.1 179.928 136.24 179.426 136.244 179.429C136.421 179.606 136.467 180.103 136.467 180.352C136.467 180.569 136.633 179.968 136.656 179.89C136.701 179.742 136.645 180.266 136.782 180.338C136.918 180.41 136.943 180.185 136.971 180.1" stroke="#E1BE8C" stroke-linecap="round"/>
<path d="M136.971 180.1C137.418 180.478 137.878 180.917 138.416 181.164C138.82 181.349 139.244 181.491 139.643 181.688C140.211 181.969 140.735 182.296 141.228 182.682C141.26 182.707 141.951 183.112 141.704 183.213C141.216 183.414 140.289 182.922 139.867 182.717C139.197 182.391 138.649 182.008 138.076 181.548C138.025 181.507 137.455 181.178 137.681 181.248C138.031 181.355 138.492 181.64 138.783 181.863C138.997 182.028 139.12 182.287 139.297 182.486C139.429 182.634 139.513 182.647 139.231 182.612C139.04 182.588 138.866 182.481 138.671 182.493C138.585 182.498 138.915 182.686 138.947 182.713C139.234 182.95 139.183 182.997 138.86 182.997C138.672 182.997 138.625 182.648 138.545 182.493C138.457 182.322 138.177 182.02 138.013 181.926C137.716 181.756 137.545 181.399 137.223 181.22C136.924 181.053 136.549 180.706 136.341 180.447C136.228 180.305 136.1 180.158 135.964 180.037C135.876 179.96 135.775 179.93 135.715 179.82C135.647 179.695 135.551 179.767 135.46 179.688C135.133 179.402 134.724 179.346 134.425 179.03C134.133 178.722 133.948 178.264 133.603 177.994C133.493 177.909 133.167 177.708 133.039 177.708C133.003 177.708 132.843 177.639 132.829 177.659C132.772 177.74 133.263 178.331 133.319 178.421C133.6 178.872 134.099 179.111 134.55 179.373C134.914 179.583 135.31 179.698 135.617 180.006C135.711 180.099 135.94 180.405 135.873 180.233C135.603 179.546 135.263 178.89 135.002 178.194C134.918 177.969 134.839 177.681 134.662 177.505C134.536 177.379 134.11 176.998 133.917 176.956C133.672 176.901 133.567 176.483 133.466 176.288C133.114 175.607 132.432 175.285 131.773 174.965C131.471 174.818 131.053 174.657 130.738 174.567C130.473 174.491 130.283 174.3 130.045 174.168C129.81 174.037 129.402 173.93 129.132 173.93C128.791 173.93 128.55 173.804 128.219 173.804C128.125 173.804 127.36 173.784 127.411 173.965C127.465 174.153 127.789 174.417 127.936 174.532C128.071 174.637 128.274 174.612 128.394 174.699C128.706 174.927 129.121 175.013 129.381 175.347C129.764 175.84 130.124 176.211 130.724 176.448C131.616 176.801 132.434 177.508 133.225 178.05C133.406 178.175 133.921 178.584 133.76 178.435C133.17 177.891 132.536 177.399 131.934 176.868C131.6 176.574 131.254 176.304 130.92 176.008C130.496 175.633 130.12 175.216 129.685 174.853C129.636 174.812 129.397 174.617 129.45 174.608C130.03 174.518 130.608 174.896 131.063 175.203C131.835 175.724 132.633 176.171 133.424 176.658C133.445 176.671 134.248 177.193 134.11 177.302C133.936 177.439 133.326 176.971 133.172 176.9C133.138 176.884 132.601 176.695 132.781 176.84C132.897 176.935 133.364 177.278 133.155 177.487C133.048 177.594 132.531 177.521 132.504 177.617C132.428 177.882 132.311 177.487 132.263 177.344C131.909 176.282 131.207 175.357 130.36 174.65C130.053 174.395 129.749 174.171 129.478 173.87C129.283 173.653 128.958 173.412 128.674 173.314C128.524 173.262 128.312 173.3 128.156 173.3C128.081 173.3 128.48 173.051 128.534 173.017C128.631 172.956 128.83 172.825 128.943 172.8C129.106 172.764 129.199 172.577 129.353 172.496C129.515 172.41 129.793 171.934 129.793 171.726" stroke="#E1BE8C" stroke-linecap="round"/>
<path d="M130.045 170.656C129.792 170.925 129.657 171.242 129.51 171.565C129.432 171.737 129.334 172.018 129.213 172.153C129.077 172.304 128.987 172.384 128.817 172.517C128.6 172.686 128.422 172.912 128.184 173.048C128.103 173.095 127.813 173.571 127.883 173.615C128.201 173.815 128.879 173.753 129.248 173.79C129.609 173.826 129.939 173.861 130.157 173.524C130.249 173.382 130.668 172.38 130.08 172.548C129.888 172.603 130.159 174.319 130.038 172.814C130 172.332 129.738 172.823 129.73 173.034C129.721 173.289 129.785 172.908 129.807 172.86C129.83 172.811 129.59 173.24 129.517 173.353C129.317 173.66 129.435 172.562 129.447 172.433C129.493 171.92 129.393 172.063 129.164 172.391C128.853 172.835 129.183 171.988 129.262 171.859C129.446 171.558 129.541 171.515 129.541 171.146C129.541 170.984 129.128 171.615 129.297 171.32C129.366 171.199 129.628 171.161 129.664 171.002C129.67 170.976 129.761 170.78 129.79 170.88C129.951 171.444 128.912 171.831 128.912 172.293" stroke="#E1BE8C" stroke-linecap="round"/>
<path d="M116.5 186L125.5 171" stroke="#FFDCA0" stroke-width="0.5"/>
<path d="M118.594 177.996C118.503 177.744 118.367 177.759 118.105 177.811C118.057 177.821 117.504 178.041 117.44 177.967C117.409 177.931 117.432 177.871 117.446 177.826C117.525 177.564 117.812 177.064 117.906 176.891C118.432 175.92 118.959 174.944 119.532 173.999C120.009 173.214 120.537 172.443 121.278 171.884C121.392 171.798 121.061 172.066 120.956 172.162C120.063 172.982 119.296 173.955 118.547 174.902C116.752 177.173 115.044 179.515 113.402 181.899C112.326 183.461 111.256 185.044 110.355 186.716C110.014 187.349 109.708 188.011 109.437 188.676C109.416 188.73 109.385 188.781 109.376 188.838C109.352 188.984 109.517 188.576 109.587 188.445C110.911 185.946 112.461 183.562 113.988 181.184C114.292 180.71 115.329 179.376 114.967 179.807C114.607 180.235 114.301 180.707 113.97 181.158C113.222 182.179 112.418 183.153 111.638 184.149C111.406 184.446 111.178 184.745 110.952 185.046C110.755 185.308 110.236 186.082 110.27 185.755C110.306 185.399 110.431 185.058 110.542 184.718C110.986 183.36 111.825 181.187 112.347 179.918C113.006 178.316 113.78 176.811 114.551 175.271C114.754 174.865 114.031 176.015 113.762 176.381C112.857 177.618 111.932 178.841 111.017 180.071C110.021 181.41 109.079 182.8 108.057 184.12C107.319 185.075 109.417 182.125 110.085 181.12C110.643 180.28 111.156 179.412 111.697 178.562C112.004 178.077 112.326 177.477 112.722 177.047C112.922 176.829 112.555 177.617 112.429 177.885C111.559 179.747 110.576 181.56 109.581 183.358C109.089 184.247 108.591 185.138 108.046 185.995C107.984 186.093 107.931 186.201 107.846 186.28C107.645 186.466 108.061 185.774 108.18 185.527C109.268 183.269 110.251 180.96 111.38 178.723C111.468 178.548 111.563 178.376 111.65 178.201C111.708 178.084 111.803 177.913 111.632 178.107C111.143 178.664 110.69 179.268 110.237 179.854C108.781 181.736 107.284 183.648 106.141 185.743C106.115 185.79 106.106 185.85 106.065 185.884C105.926 185.997 106.171 185.543 106.229 185.374C106.649 184.15 107.096 182.939 107.606 181.75C108.278 180.183 109.03 178.653 109.792 177.129C110 176.713 110.71 175.524 110.404 175.875C109.268 177.177 108.289 178.684 107.322 180.115C106.86 180.797 107.201 180.08 107.342 179.748C108.064 178.055 108.888 176.413 109.745 174.785C110.577 173.203 111.371 171.554 112.341 170.049C112.484 169.828 112.132 170.532 112.019 170.77C111.327 172.231 110.595 173.67 109.821 175.089C108.671 177.199 107.395 179.245 106.32 181.395C105.579 182.877 107.943 178.506 108.79 177.082C109.167 176.449 109.542 175.763 109.997 175.177C110.029 175.136 110.069 175.045 110.114 175.072C110.162 175.1 110.113 175.183 110.097 175.236C110.045 175.404 109.978 175.568 109.912 175.731C109.288 177.28 108.484 178.748 107.753 180.246C107.676 180.402 107.593 180.564 107.53 180.727C107.457 180.918 107.679 180.346 107.753 180.156C108.197 179.014 108.742 177.913 109.206 176.783" stroke="#E1BE8C" stroke-width="4" stroke-linecap="round"/>
<path d="M116.959 175.412C117.642 174.779 118.254 174.07 118.94 173.442C118.973 173.412 119.089 173.35 119.066 173.39C118.901 173.674 118.692 173.931 118.5 174.198C117.428 175.692 116.308 177.155 115.312 178.702C115.113 179.012 114.882 179.372 114.802 179.748C114.789 179.81 114.796 179.803 114.832 179.731C115.105 179.174 115.37 178.626 115.676 178.084C116.479 176.656 119.116 172.515 118.146 173.835C117.329 174.946 116.44 175.998 115.597 177.088C114.639 178.324 113.869 179.665 113.039 180.985C111.635 183.216 115.389 176.255 116.804 174.031C117.721 172.59 118.636 171.017 119.728 169.692C119.807 169.596 119.633 169.923 119.573 170.032C119.064 170.954 118.528 171.859 117.949 172.739C117.067 174.082 116.095 175.358 115.172 176.671C115.082 176.8 114.755 177.278 114.638 177.439C114.597 177.496 114.554 177.552 114.509 177.606C114.454 177.673 114.405 177.734 114.454 177.597C114.844 176.495 115.392 175.402 115.907 174.357C116.432 173.293 116.748 172.716 117.349 171.702C117.549 171.364 117.758 171.032 117.967 170.7C118.137 170.429 118.384 170.195 118.483 169.891C118.566 169.636 118.132 170.297 117.973 170.512C117.086 171.717 116.22 172.998 115.412 174.245C113.954 176.496 112.574 178.747 111.198 181.049C110.028 183.008 108.985 185.135 107.703 187.03C107.365 187.529 108.204 185.931 108.479 185.395C109.194 184.003 110.562 181.391 111.245 180.085C112.663 177.373 113.99 174.575 115.535 171.93C116.291 170.638 114.274 174.649 113.554 175.962C112.189 178.453 110.745 180.914 109.267 183.341C109.148 183.536 109.052 183.712 109.182 183.37C109.403 182.794 109.847 181.779 110.047 181.33C111.348 178.408 112.853 175.578 114.117 172.64C114.179 172.495 114.341 172.059 114.252 172.188C113.85 172.771 113.497 173.386 113.115 173.982C110.873 177.475 108.632 180.97 106.698 184.647C106.369 185.272 106.285 185.443 106.044 185.975C105.96 186.161 105.933 186.22 106.047 186.004C107.494 183.269 108.782 180.448 110.126 177.662C110.64 176.595 111.083 175.674 111.609 174.638C111.739 174.382 112.06 173.593 112.013 173.876C111.952 174.244 111.666 174.537 111.491 174.867C110.533 176.681 109.583 178.5 108.611 180.308C107.827 181.765 105.307 186.043 106.158 184.624C107.556 182.296 108.785 179.863 109.953 177.413C110.663 175.924 111.433 174.409 112.031 172.868C112.048 172.823 112.096 172.69 112.066 172.727C111.955 172.866 111.872 173.026 111.781 173.179C110.537 175.292 109.368 177.456 108.192 179.608C106.835 182.091 105.425 184.576 104.33 187.191C104.157 187.604 104.169 187.618 104.266 187.402C104.944 185.88 105.65 184.373 106.349 182.86C107.71 179.911 108.997 176.933 110.313 173.964C110.437 173.684 110.847 172.863 110.7 173.132C110.243 173.971 109.784 174.802 109.311 175.634C107.725 178.428 106.124 181.212 104.682 184.085C104.376 184.694 104.135 185.215 103.85 185.814C103.827 185.862 103.762 186.008 103.779 185.957C103.899 185.598 104.088 185.266 104.248 184.923C105.388 182.476 106.557 180.043 107.644 177.571C108.211 176.282 108.382 175.858 108.881 174.647C109.257 173.733 109.431 173.342 108.708 174.591C107.147 177.287 105.639 180.013 104.172 182.76C103.996 183.09 103.822 183.421 103.647 183.751C103.582 183.874 103.567 184.043 103.451 184.12C103.343 184.192 103.565 183.886 103.621 183.768C104.163 182.633 104.205 182.536 104.831 181.187C105.998 178.673 107.159 176.155 108.365 173.659C108.516 173.346 108.675 173.009 108.848 172.701C109.069 172.309 108.44 173.503 108.227 173.9C106.744 176.669 105.234 179.427 103.803 182.224C103.693 182.438 103.361 183.079 103.483 182.872C103.836 182.272 104.115 181.577 104.412 180.955C105.18 179.347 105.962 177.746 106.756 176.15C106.855 175.951 107.049 175.774 107.049 175.552C107.049 175.495 106.999 175.654 106.973 175.705C106.719 176.203 106.669 176.294 106.361 176.871C105.845 177.834 105.3 178.787 104.837 179.777C104.239 181.054 106.211 177.315 106.844 176.056C107.217 175.315 107.822 174.33 107.987 173.478C108.031 173.249 107.773 173.892 107.665 174.099C107.007 175.349 106.322 176.584 105.634 177.817C105.362 178.304 104.909 179.11 104.608 179.643C104.532 179.777 104.359 180.195 104.371 180.041C104.388 179.827 104.54 179.645 104.635 179.452C105.176 178.35 105.756 177.268 106.311 176.173C106.835 175.14 107.33 174.095 107.817 173.044C107.893 172.88 108.058 172.484 108.034 172.927C108.014 173.278 107.947 173.627 107.87 173.97C107.852 174.05 107.811 174.128 107.908 174.017C108.314 173.548 108.673 173.025 109.042 172.528C109.834 171.459 110.608 170.375 111.392 169.299C111.541 169.095 111.909 168.591 112.095 168.35C112.128 168.307 112.412 167.902 112.233 168.288C111.633 169.584 110.883 170.807 110.267 172.095C110.215 172.203 110.063 172.524 110.144 172.434C110.46 172.083 110.713 171.636 111.011 171.268C111.281 170.935 111.714 170.429 111.998 170.102C112.175 169.898 112.304 169.574 112.57 169.528C112.814 169.485 112.128 171.482 112.083 171.585C111.12 173.802 112.448 170.699 111.644 172.54C111.621 172.592 111.59 172.754 111.626 172.71C112.756 171.327 113.597 169.727 114.75 168.353C114.946 168.119 115.303 167.707 115.588 167.494C115.813 167.326 115.739 167.497 115.664 167.699C114.971 169.579 113.941 171.358 113.097 173.173C112.918 173.559 112.352 174.464 113.197 173.765C115.079 172.206 116.695 170.357 118.524 168.74C118.561 168.706 120.393 167.1 120.59 167.447C120.645 167.544 120.603 167.673 120.575 167.781C120.503 168.059 120.393 168.325 120.294 168.593C119.774 169.989 119.188 171.365 118.547 172.71C117.925 174.016 118.065 173.65 117.475 174.779C117.369 174.98 117.034 175.486 117.252 175.423C117.405 175.379 117.517 175.247 117.636 175.142C117.891 174.915 118.133 174.672 118.371 174.427C119.377 173.39 120.323 172.295 121.296 171.227C121.344 171.174 121.929 170.528 122.107 170.363C122.29 170.195 122.247 170.29 122.169 170.515C121.578 172.219 120.698 173.859 119.79 175.412C119.688 175.585 119.291 175.998 119.479 175.927C119.691 175.848 120.27 174.927 120.332 174.843C121.1 173.792 121.723 172.642 122.497 171.596C122.997 170.92 120.701 174.431 121.061 173.671C121.433 172.888 121.934 172.148 122.418 171.432C122.66 171.074 122.834 170.835 123.08 170.498C123.114 170.451 123.287 170.161 123.382 170.108C123.639 169.963 123.183 170.675 123.183 170.969C123.183 171.286 123.829 170.696 123.581 171.321C123.447 171.66 123.31 172.112 123.019 172.355C122.904 172.451 122.664 172.596 122.606 172.742C122.499 173.007 122.84 172.213 123.025 171.995C123.154 171.843 123.291 171.709 123.423 171.564C123.494 171.487 123.656 171.452 123.751 171.38C123.876 171.285 123.954 171.141 124.112 171.087C124.448 170.97 124.769 170.853 125.058 170.641C125.318 170.45 125.345 170.257 125.503 170.02C125.561 169.934 125.637 169.742 125.72 169.689C126.363 169.276 124.348 170.379 123.74 170.84C122.928 171.455 122.2 172.191 121.536 172.959C119.911 174.838 118.444 176.865 116.947 178.846C115.654 180.557 114.557 182.414 113.367 184.199C113.219 184.421 113.114 184.575 112.91 184.732C112.196 185.282 111.675 186.05 111.11 186.74C110.236 187.808 109.331 188.849 108.462 189.922C108.153 190.303 107.847 190.754 107.442 191.044C107.143 191.258 107.865 190.437 108.128 190.18C108.312 189.999 108.526 189.774 108.755 189.652C108.99 189.527 109.178 189.189 109.364 188.996C109.582 188.77 109.763 188.593 110.023 188.41C110.334 188.191 110.525 187.833 110.788 187.566C111.092 187.258 111.467 187.043 111.784 186.754C111.917 186.634 112.023 186.5 112.159 186.382C112.316 186.246 112.596 186.188 112.792 186.118C112.949 186.062 113.161 186.11 113.267 185.972C113.356 185.856 113.488 185.741 113.525 185.594C113.584 185.359 113.755 185.191 113.976 185.11C114.317 184.987 114.883 184.288 114.902 183.956C114.92 183.641 115.104 183.495 115.207 183.206C115.314 182.906 115.414 182.624 115.547 182.333C115.714 181.968 116.132 181.665 116.209 181.266C116.299 180.799 116.571 180.368 116.748 179.924C116.878 179.6 116.948 179.314 117.176 179.054C117.542 178.636 117.907 178.23 118.219 177.762C118.469 177.386 118.628 176.963 118.884 176.595C119.065 176.336 119.155 176.039 119.344 175.787C119.568 175.488 120.165 174.334 119.708 174.046C119.095 173.66 118.177 173.668 117.487 173.665C116.641 173.662 115.845 173.783 115.057 174.084C113.682 174.61 112.383 175.455 111.198 176.32C109.759 177.37 108.43 178.61 107.125 179.819C104.673 182.091 102.336 184.487 100.07 186.945C99.5808 187.475 99.1198 188.069 98.5986 188.571C98.4136 188.749 98.0778 188.831 97.8368 188.867C97.136 188.972 96.5539 188.383 96.5065 187.695C96.4636 187.073 96.7644 186.443 97.2742 186.089C97.5726 185.882 97.8532 185.785 98.0771 185.48C98.2794 185.204 98.3744 184.85 98.6016 184.595C98.7938 184.378 99.0871 184.343 99.2667 184.114C99.3792 183.971 99.5565 183.908 99.6769 183.745C99.8092 183.565 99.8974 183.321 100.058 183.168C100.43 182.813 100.984 182.402 101.192 181.925C101.356 181.548 101.751 181.145 102.045 180.862C102.333 180.583 102.525 180.19 102.718 179.842C102.917 179.485 103.182 179.155 103.392 178.799C103.606 178.437 103.883 178.143 104.172 177.838C104.55 177.438 104.625 176.863 105.066 176.49C105.551 176.079 105.875 175.542 106.279 175.045C106.409 174.885 106.594 174.771 106.727 174.609C106.966 174.318 107.162 174.014 107.331 173.677C107.625 173.088 108.283 172.542 108.784 172.141" stroke="#FFDCA0" stroke-width="4" stroke-linecap="round"/>
<path d="M98.2353 183.376C98.1959 183.376 97.5194 183.365 97.6141 183.165C97.693 182.998 97.9961 182.819 98.1268 182.667C98.2889 182.478 98.4024 182.206 98.5546 181.978C98.6405 181.849 98.7822 181.771 98.8682 181.647C98.9934 181.466 99.1109 181.287 99.2667 181.131C99.535 180.863 99.7649 180.511 100.105 180.317C100.189 180.269 100.312 180.07 100.368 179.989C100.414 179.922 100.603 179.574 100.553 179.69C100.403 180.039 100.04 180.119 99.8234 180.39C99.7351 180.5 100.018 180.18 100.081 180.053C100.161 179.893 100.156 179.711 100.245 179.555C100.317 179.429 100.485 179.304 100.579 179.168C100.638 179.083 100.734 178.984 100.796 178.922C100.879 178.839 101.024 178.81 101.11 178.705C101.197 178.599 101.496 178.265 101.505 178.143C101.534 177.775 101.841 177.411 102.086 177.152C102.203 177.028 102.267 176.752 102.352 176.595C102.46 176.397 102.556 176.215 102.689 176.033C102.794 175.89 102.996 175.826 103.117 175.705C103.221 175.601 103.352 175.535 103.457 175.412C103.53 175.326 103.696 174.978 103.718 174.861C103.754 174.663 103.874 174.507 103.984 174.345C104.211 174.011 104.524 173.74 104.764 173.407C104.9 173.219 105.068 173.093 105.174 172.88C105.25 172.727 105.391 172.489 105.502 172.364C105.657 172.19 105.774 171.942 105.909 171.746C106.096 171.477 106.389 171.229 106.674 171.087" stroke="#FFDCA0" stroke-linecap="round"/>
<path d="M116 186.34C116.372 185.708 116.685 185.036 117.026 184.388C117.145 184.161 117.196 183.942 117.289 183.703C117.396 183.429 117.351 183.204 117.541 182.941C117.732 182.677 117.946 182.408 118.107 182.126C118.235 181.902 118.362 181.692 118.479 181.464C118.514 181.396 118.598 181.183 118.584 181.259C118.509 181.686 118.251 182.125 118.057 182.507C117.769 183.075 117.332 183.526 117.172 184.166C117.067 184.584 117.264 183.59 117.292 183.492C117.464 182.885 117.624 182.15 117.94 181.605C118.081 181.36 118.239 181.133 118.371 180.881C118.488 180.655 118.541 180.399 118.743 180.222C118.83 180.144 118.778 180.712 118.772 180.755C118.71 181.198 118.447 181.603 118.25 181.997C118.066 182.365 118.142 182.255 118.274 181.909C118.457 181.429 118.623 180.931 118.772 180.438C118.834 180.233 118.768 180.819 118.798 180.925C118.856 181.125 119.05 180.586 119.124 180.392C119.208 180.169 119.38 180.018 119.504 179.823C119.904 179.196 120.146 178.471 120.6 177.848C120.865 177.485 121.178 177.124 121.339 176.7C121.505 176.26 121.766 175.594 122.142 175.305C122.345 175.148 122.457 175 122.722 175C122.861 175 122.232 175.908 122.106 176.037C121.903 176.248 121.68 176.464 121.488 176.688C121.407 176.782 121.393 176.943 121.339 177.057C121.168 177.417 121.007 177.779 120.811 178.112C120.619 178.438 120.362 178.653 120.219 179.008" stroke="#FFDCA0" stroke-linecap="round"/>
<path d="M123.552 174.515C124.108 173.974 124.862 173.604 125.372 173.038C125.476 172.922 125.684 172.852 125.82 172.774C126.066 172.635 126.274 172.316 126.412 172.077C126.822 171.366 127.286 170.793 128.082 170.483C128.756 170.221 128.156 171.214 127.983 171.403C127.673 171.741 127.441 172.133 127.086 172.429C126.908 172.577 126.697 172.771 126.547 172.921C126.341 173.126 126.006 173.247 125.873 173.513" stroke="#FFDCA0" stroke-linecap="round"/>
<path d="M128.51 170.559C128.425 170.726 128.271 171.113 128.035 171.139C127.976 171.146 127.93 171.248 127.877 171.221C127.802 171.184 128.01 170.992 128.023 170.981C128.271 170.776 128.503 170.619 128.721 170.401" stroke="#FFDCA0" stroke-linecap="round"/>
<path d="M128.141 173.302C128.273 172.889 128.288 172.414 128.604 172.13C128.654 172.084 128.712 172.057 128.721 171.983C128.73 171.903 128.853 171.93 128.908 171.878C129.062 171.732 129.22 171.623 129.327 171.429C129.446 171.215 129.581 170.974 129.723 170.797C129.858 170.628 129.582 171.014 129.538 171.11C129.474 171.251 129.371 171.374 129.248 171.456" stroke="#E1BE8C" stroke-opacity="0.85" stroke-linecap="round"/>
<path d="M126.295 173.935C126.392 173.859 126.635 173.684 126.705 173.565C126.796 173.411 127.044 173.329 127.192 173.223C127.427 173.053 127.759 172.918 127.93 172.681C128.056 172.505 128.099 172.319 128.243 172.162C128.422 171.968 128.541 171.688 128.78 171.535C128.912 171.45 129.345 171.2 129.354 171.034C129.362 170.887 129.701 170.306 129.829 170.243" stroke="#E1BE8C" stroke-opacity="0.85" stroke-linecap="round"/>
<path d="M125.714 173.829C126.144 173.473 126.482 172.871 126.705 172.364C126.783 172.187 126.959 172.024 127.089 171.878C127.343 171.592 127.573 171.309 127.848 171.034C128.199 170.682 128.514 170.319 128.814 169.926C129.02 169.658 129.375 169.293 129.723 169.293" stroke="#FFDCA0" stroke-opacity="0.85" stroke-linecap="round"/>
<path d="M116.5 185.5L126 174" stroke="#FFDCA0" stroke-width="0.5"/>
<path d="M125.503 173.935C125.035 174.462 124.519 174.941 124.109 175.517C123.871 175.852 123.686 176.227 123.394 176.519C123.089 176.824 122.745 177.07 122.497 177.428C122.101 178 121.794 178.624 121.296 179.145C121.133 179.314 121.03 179.482 120.915 179.684C120.845 179.806 120.726 179.833 120.701 179.971C120.672 180.129 120.443 180.214 120.335 180.317C120.167 180.476 119.905 180.598 119.807 180.818C119.746 180.956 119.593 181.009 119.543 181.108" stroke="#FFDCA0" stroke-opacity="0.85" stroke-linecap="round"/>
<path d="M122.55 177.205C123.121 177.003 123.43 176.605 123.646 176.056C123.773 175.732 124.171 175.385 124.443 175.171C124.546 175.09 124.704 174.806 124.713 174.673C124.716 174.627 124.877 174.345 124.76 174.415C124.274 174.707 123.909 175.24 123.526 175.652C123.303 175.891 123.083 176.079 122.84 176.285C122.37 176.682 122.157 177.175 121.788 177.674C121.57 177.968 121.352 178.245 121.179 178.547C121.058 178.757 120.753 178.926 120.587 179.127C120.314 179.458 120.137 179.867 119.81 180.153C119.697 180.252 119.633 180.455 119.599 180.607C119.57 180.74 119.389 181.359 119.517 180.947C119.578 180.753 119.731 180.412 119.913 180.305C120.088 180.202 120.341 180.026 120.464 179.868C120.576 179.724 120.755 179.558 120.851 179.367C121.06 178.948 121.473 178.817 121.695 178.418C122.013 177.845 122.416 177.367 122.708 176.783" stroke="#FFDCA0" stroke-linecap="round"/>
<path d="M125.24 173.882C124.957 174.098 124.729 174.35 124.49 174.609C124.45 174.652 124.388 174.795 124.32 174.776C124.179 174.735 124.433 173.853 124.452 173.771C124.58 173.217 124.678 172.703 125.082 172.3C125.947 171.434 126.365 170.225 126.717 169.082" stroke="#FFDCA0" stroke-linecap="round"/>
<path d="M126 174L130 169.5" stroke="#FFDCA0" stroke-width="0.5"/>
<path d="M106 171L93 187" stroke="#FFDCA0" stroke-width="0.5"/>
<path d="M97.3913 183.639C97.6516 183.36 98.3427 182.491 98.0066 182.673C97.8287 182.769 97.6398 183.118 97.5261 183.264C97.3724 183.462 97.2213 183.667 97.0573 183.856C96.8791 184.062 97.1796 183.238 97.192 183.206C97.2185 183.137 97.5639 182.391 97.3913 182.456C97.0836 182.571 97.3836 182.233 97.444 182.151C97.5409 182.02 97.7441 181.793 97.9187 181.793" stroke="#FFDCA0" stroke-linecap="round"/>
<path d="M142.5 126L147 120" stroke="#FFDCA0" stroke-width="0.5"/>
<path d="M149 136L160.5 131" stroke="#FFDCA0" stroke-width="0.5"/>
<path d="M149.046 126.105C149.6 125.292 150.194 124.511 150.795 123.732C151.331 123.037 151.865 122.32 152.453 121.666C152.6 121.502 152.381 121.774 152.371 121.785C151.823 122.418 151.231 123.013 150.688 123.648C150.465 123.909 150.299 124.199 150.118 124.489C149.98 124.711 149.902 124.829 149.748 125.035C149.677 125.129 149.517 125.418 149.517 125.301C149.517 125.251 149.56 125.21 149.585 125.166C149.82 124.763 150.073 124.37 150.314 123.969C150.607 123.484 151.485 122.046 151.103 122.464C150.014 123.657 149.083 125.039 148.107 126.322C147.401 127.251 146.728 128.234 145.938 129.097C145.915 129.122 145.849 129.196 145.862 129.164C145.963 128.898 146.185 128.695 146.342 128.458C146.981 127.49 147.571 126.492 148.182 125.507C148.581 124.864 149.008 124.235 149.385 123.579C149.45 123.465 149.638 123.131 149.538 123.216C149.234 123.472 149.016 123.817 148.769 124.128C148.116 124.953 147.493 125.798 146.892 126.662C146.695 126.946 146.175 127.834 146.29 127.508C146.448 127.055 146.823 126.563 147.049 126.154C147.383 125.549 147.694 124.931 148.033 124.329C148.068 124.265 148.101 124.2 148.145 124.142C148.251 124 147.988 124.458 147.902 124.613C147.461 125.406 146.999 126.187 146.479 126.932C146.356 127.107 146.229 127.28 146.095 127.448C146.013 127.551 145.791 127.842 145.796 127.71C145.808 127.393 146.025 127.118 146.166 126.834C146.393 126.379 147.04 125.157 147.255 124.755C147.696 123.929 148.121 123.076 148.663 122.309C149.154 121.614 148.718 122.346 148.672 122.414C148.07 123.312 147.441 124.194 146.8 125.065C146.482 125.498 146.175 125.909 145.835 126.32C145.761 126.411 145.626 126.679 145.587 126.569C145.548 126.459 145.99 125.863 146.006 125.84C146.317 125.359 146.642 124.888 146.956 124.409C147.094 124.197 147.227 123.978 147.374 123.771C147.549 123.527 147.057 124.282 146.888 124.531C146.058 125.751 145.232 126.964 144.453 128.218C144.412 128.285 144.371 128.353 144.326 128.418C144.226 128.565 144.339 128.333 144.343 128.325C144.589 127.773 144.871 127.234 145.16 126.704C145.902 125.344 146.777 124.054 147.494 122.683C147.505 122.662 147.523 122.641 147.52 122.617C147.511 122.53 147.413 122.758 147.363 122.831C146.854 123.576 146.335 124.315 145.824 125.06C145.507 125.522 145.196 125.988 144.872 126.445C144.824 126.514 144.689 126.717 144.71 126.636C144.763 126.424 144.907 126.181 144.996 125.989C145.367 125.188 145.789 124.42 146.267 123.678C146.314 123.605 146.684 122.942 146.84 122.879C146.862 122.87 146.819 122.924 146.806 122.945C146.7 123.111 146.406 123.537 146.327 123.652C145.833 124.369 145.263 125.076 144.844 125.843C144.648 126.203 145.2 125.104 145.381 124.736C145.626 124.238 145.852 123.672 146.202 123.235C146.287 123.129 146.06 123.466 145.987 123.581C145.603 124.183 145.222 124.788 144.829 125.385C144.555 125.801 144.282 126.228 143.963 126.614C143.814 126.795 143.766 126.822 143.926 126.55C144.449 125.662 144.927 124.755 145.418 123.85C145.437 123.816 145.457 123.782 145.476 123.749C145.517 123.679 145.488 123.731 145.474 123.76C145.285 124.155 145.083 124.534 144.835 124.895C144.621 125.206 144.383 125.5 144.162 125.806C144.069 125.935 143.979 126.108 143.864 126.223C143.797 126.291 143.931 126.042 143.978 125.959C144.233 125.513 144.543 125.102 144.824 124.673C144.852 124.629 145.295 123.925 145.003 124.314C144.629 124.812 144.208 125.274 143.844 125.78C143.815 125.82 143.528 126.283 143.687 125.959C143.845 125.636 144.053 125.346 144.308 125.092C144.32 125.079 144.364 125.048 144.352 125.062C144.308 125.114 144.249 125.163 144.203 125.213C144.161 125.259 143.733 125.774 143.702 125.727C143.624 125.614 143.327 126.083 143.243 126.154C143.126 126.253 143.318 126.03 143.341 125.987C143.415 125.847 143.485 125.709 143.552 125.567C143.667 125.325 143.796 125.076 143.956 124.86C144.23 124.487 144.538 124.147 144.803 123.764C144.871 123.665 144.908 123.549 144.994 123.463C145.1 123.356 145.217 123.26 145.321 123.15C145.491 122.971 145.546 122.723 145.68 122.522C145.878 122.225 146.127 121.974 146.351 121.694C146.475 121.539 146.555 121.348 146.664 121.183C146.737 121.072 146.868 121.007 146.978 120.936C147.003 120.92 147.066 120.878 147.064 120.908C147.059 120.993 147.004 121.068 146.97 121.146C146.886 121.342 146.627 121.938 146.568 122.071C146.188 122.934 145.759 123.773 145.377 124.635C145.291 124.83 145.423 124.732 145.538 124.637C145.927 124.316 146.118 123.776 146.355 123.347C146.535 123.022 147.114 122.071 146.914 122.384C146.642 122.81 146.407 123.265 146.163 123.708C146.142 123.744 146.122 123.781 146.103 123.818C146.05 123.918 146.101 123.834 146.129 123.786C146.485 123.181 146.84 122.577 147.23 121.993C147.553 121.511 147.891 121.04 148.223 120.566C148.3 120.457 148.488 120.111 148.457 120.241C148.4 120.481 148.264 120.747 148.16 120.962C147.873 121.557 147.539 122.126 147.187 122.683C147.174 122.704 146.961 122.975 146.967 123.034C146.968 123.043 146.986 123.036 146.993 123.031C147.113 122.938 147.297 122.732 147.374 122.645C148.112 121.825 148.817 120.984 149.66 120.267C149.723 120.213 149.953 119.963 149.785 120.252C149.325 121.043 148.816 121.809 148.332 122.586C147.732 123.549 147.13 124.513 146.55 125.488C146.208 126.062 145.803 126.666 145.598 127.311C145.499 127.621 145.895 127.176 145.908 127.164C146.733 126.364 147.475 125.484 148.22 124.611C149.138 123.534 150.036 122.437 151.017 121.415C151.19 121.234 151.555 120.869 151.799 120.693C151.848 120.658 151.996 120.588 151.975 120.645C151.935 120.753 151.867 120.849 151.806 120.947C151.472 121.492 150.608 122.802 150.366 123.169C149.271 124.835 148.16 126.491 147.06 128.155C146.515 128.98 145.958 129.803 145.448 130.651C145.342 130.828 145.282 130.928 145.461 130.707C145.773 130.323 146.462 129.4 146.634 129.172C149.564 125.278 152.524 121.412 155.53 117.576C155.827 117.197 156.646 116.014 156.429 116.444C156.366 116.571 156.284 116.687 156.209 116.807C155.634 117.722 155.082 118.57 154.475 119.481C153.142 121.482 151.768 123.452 150.337 125.383C149.874 126.007 149.376 126.772 148.822 127.341C148.799 127.365 148.751 127.426 148.74 127.395C148.72 127.342 148.762 127.284 148.781 127.231C148.825 127.105 148.877 126.982 148.93 126.861C149.294 126.032 149.719 125.23 150.052 124.388C150.176 124.076 150.372 123.727 149.895 123.854C149.165 124.048 148.548 124.621 148.008 125.123C147.966 125.163 147.855 125.287 147.872 125.129C147.906 124.808 148.055 124.485 148.169 124.19C148.418 123.549 148.737 122.892 148.904 122.223C148.928 122.126 148.863 122.27 148.844 122.294C148.714 122.457 149.069 122.164 149.095 122.148C149.259 122.049 149.443 121.894 149.628 121.834C149.771 121.787 149.547 122.125 149.48 122.26C149.126 122.976 148.723 123.677 148.431 124.422C148.421 124.447 148.481 124.4 148.5 124.381C148.923 123.948 149.329 123.501 149.757 123.072C150.484 122.343 151.242 121.655 152.023 120.985C152.121 120.901 153.156 120.021 153.314 119.908C153.42 119.831 153.528 119.726 153.66 119.719C153.721 119.716 153.755 119.825 153.74 119.885C153.682 120.125 153.564 120.347 153.454 120.568C152.98 121.522 152.361 122.507 151.805 123.397C150.636 125.268 149.423 127.112 148.216 128.959C147.822 129.561 147.411 130.156 147.04 130.773C147.004 130.831 146.909 130.999 146.969 130.965C147.158 130.858 147.679 130.382 147.713 130.35C148.729 129.415 149.654 128.392 150.591 127.38C151.491 126.409 152.397 125.444 153.295 124.471C153.476 124.274 153.875 123.718 154.159 123.551C154.179 123.539 154.139 123.593 154.125 123.612C153.93 123.881 153.713 124.134 153.508 124.396C151.486 126.978 149.516 129.613 147.64 132.302C147.527 132.464 147.415 132.627 147.307 132.792C147.286 132.824 147.223 132.915 147.255 132.893C147.312 132.855 147.347 132.791 147.389 132.736C148.6 131.174 149.7 129.527 150.901 127.956C152.109 126.377 153.373 124.842 154.602 123.279C154.796 123.034 154.985 122.784 155.176 122.537C155.264 122.424 155.35 122.309 155.44 122.197C155.48 122.147 155.571 121.987 155.565 122.051C155.557 122.139 155.479 122.206 155.432 122.281C155.014 122.948 154.381 123.9 153.987 124.484C152.768 126.29 151.503 128.058 150.194 129.8C150.095 129.932 149.993 130.062 149.899 130.197C149.884 130.219 149.845 130.284 149.867 130.27C149.942 130.221 150.001 130.152 150.064 130.088C151.128 129.007 152.133 127.866 153.168 126.758C154.394 125.444 155.625 124.126 156.938 122.896C157.088 122.756 157.239 122.617 157.402 122.492C157.454 122.452 157.574 122.337 157.577 122.402C157.585 122.53 157.479 122.64 157.417 122.752C157.263 123.028 157.1 123.299 156.93 123.566C154.814 126.898 152.382 130.02 150.258 133.346C150.154 133.508 150.058 133.675 149.964 133.843C149.913 133.937 149.844 134.026 149.824 134.131C149.818 134.166 149.895 134.111 149.92 134.086C150.048 133.959 150.163 133.817 150.28 133.679C152.743 130.794 148.949 135.19 152.341 131.244C152.832 130.673 153.326 130.104 153.822 129.537C153.904 129.443 155.435 127.676 155.842 127.315C156.407 126.815 155.143 128.654 154.735 129.288C154.057 130.342 153.372 131.393 152.661 132.426C152.636 132.462 152.439 132.756 152.343 132.86C152.287 132.92 152.424 132.717 152.47 132.648C153.714 130.796 154.928 128.93 156.111 127.038C156.186 126.919 156.269 126.805 156.336 126.681C156.407 126.548 156.358 126.521 156.216 126.617C155.802 126.898 155.162 127.509 154.87 127.796C154.107 128.543 153.262 129.446 152.54 130.23C151.991 130.826 151.466 131.517 150.873 132.076C150.613 132.321 151.092 131.393 151.249 131.072C151.947 129.651 152.72 128.276 153.568 126.939C153.918 126.388 154.313 125.808 154.696 125.269C154.961 124.896 154.786 125.173 154.625 125.424C153.984 126.422 153.31 127.399 152.622 128.364C152.424 128.641 152.223 128.915 152.021 129.189C151.861 129.406 151.742 129.665 151.53 129.832C151.497 129.858 151.574 129.76 151.597 129.726C151.812 129.404 152.03 129.084 152.248 128.764C152.867 127.858 153.508 126.97 154.18 126.101C154.581 125.582 155.018 124.94 155.513 124.486C155.915 124.116 154.804 125.315 154.451 125.731C153.635 126.692 152.851 127.676 152.072 128.667C151.969 128.798 151.686 129.17 151.526 129.34C151.498 129.37 151.413 129.446 151.425 129.408C151.449 129.333 151.489 129.265 151.526 129.196C151.83 128.628 152.248 127.921 152.56 127.405C153.346 126.104 154.18 124.839 155.027 123.577C155.296 123.175 155.653 122.725 155.868 122.279C155.933 122.145 155.685 122.513 155.593 122.631C155.192 123.143 154.747 123.693 154.346 124.194C153.459 125.301 152.576 126.41 151.705 127.53C151.545 127.737 151.385 127.945 151.225 128.153C151.108 128.305 151.021 128.491 150.864 128.602C150.645 128.756 151.037 128.093 151.159 127.855C151.792 126.632 152.496 125.442 153.216 124.269C153.467 123.86 153.748 123.463 153.981 123.044C154.149 122.743 153.548 123.58 153.34 123.854C152.496 124.963 151.646 126.068 150.789 127.167C150.453 127.598 150.277 127.822 149.966 128.215C149.911 128.285 149.748 128.491 149.779 128.407C150.017 127.78 150.425 127.155 150.778 126.595C151.269 125.815 151.826 125.086 152.36 124.336C152.496 124.144 152.803 123.785 152.88 123.528C152.912 123.419 152.73 123.7 152.659 123.79C152.598 123.868 151.924 124.73 151.907 124.751C151.519 125.253 150.48 126.833 150.733 126.251C151.279 124.994 152.322 124.014 152.943 122.795C152.959 122.764 153.013 122.684 152.981 122.698C152.927 122.721 152.901 122.783 152.865 122.829C152.766 122.953 152.669 123.077 152.577 123.207C151.744 124.379 151.005 125.612 150.275 126.849C149.703 127.819 149.137 128.796 148.579 129.774C148.475 129.957 148.396 130.116 148.339 130.313" stroke="#FFDCA0" stroke-linecap="round"/>
<path d="M160.356 128.697C159.622 129.417 158.615 129.88 157.66 130.242C157.302 130.377 156.93 130.501 156.564 130.614C156.261 130.707 155.949 130.746 155.653 130.868C155.377 130.982 155.108 131.109 154.829 131.214C154.397 131.377 154.075 131.457 153.785 131.839C153.337 132.429 152.946 133.062 152.513 133.664C152.425 133.786 152.184 134.052 152.027 134.081C151.836 134.116 151.721 134.198 151.556 134.303C151.467 134.36 151.447 134.419 151.335 134.419C151.226 134.419 151.202 134.41 151.133 134.487C151.053 134.577 150.945 134.689 150.814 134.689C150.768 134.689 150.672 134.667 150.662 134.722C150.65 134.788 150.508 134.742 150.46 134.763C150.332 134.82 150.22 134.872 150.09 134.924" stroke="#FFDCA0" stroke-linecap="round"/>
<path d="M151.369 133.679C151.424 133.553 151.951 132.341 151.893 132.317C151.807 132.283 151.155 133.527 151.085 133.645C150.862 134.019 151.118 133.637 151.189 133.518C151.292 133.346 151.395 133.176 151.511 133.013C151.522 132.998 151.807 132.666 151.803 132.703C151.769 132.998 151.549 133.353 151.418 133.619C151.414 133.627 151.357 133.715 151.397 133.628C151.469 133.472 151.575 133.331 151.685 133.2C151.752 133.12 151.827 133.047 151.885 132.961C151.893 132.949 151.908 132.914 151.908 132.927C151.908 132.975 151.875 133.086 151.889 133.125C151.899 133.153 152.641 132.365 152.656 132.347C153.348 131.513 154.062 130.709 154.836 129.948C154.96 129.827 155.132 129.622 155.296 129.542C155.425 129.48 155.231 129.823 155.169 129.952C154.542 131.251 153.741 132.44 152.88 133.593C151.694 135.179 155.351 130.491 156.706 129.047C156.761 128.988 157.019 128.631 157.129 128.6C157.216 128.575 157.066 128.77 157.024 128.85C156.871 129.145 156.674 129.491 156.5 129.767C156.14 130.339 155.734 130.878 155.335 131.423C155.092 131.756 154.861 132.217 154.567 132.512C154.375 132.703 154.864 132.06 155.031 131.846C155.656 131.042 156.311 130.256 156.979 129.486C157.548 128.831 158.135 128.19 158.756 127.582C158.829 127.511 159.05 127.307 158.999 127.395C158.901 127.566 158.408 128.196 158.378 128.233C157.618 129.184 156.825 130.159 155.891 130.949C155.816 131.012 155.831 130.971 155.872 130.898C156.057 130.566 156.288 130.258 156.504 129.946C156.62 129.778 156.776 129.416 156.968 129.307C157.004 129.286 156.921 129.374 156.897 129.408C156.627 129.774 156.343 130.126 156.044 130.47C155.891 130.646 155.735 130.82 155.573 130.988C155.573 130.988 155.402 131.196 155.461 131.035C155.812 130.073 156.499 129.268 157.046 128.418C157.099 128.336 157.248 128.083 157.196 128.166C157.036 128.422 156.816 128.657 156.624 128.886C156.221 129.366 155.822 129.849 155.431 130.339C155.307 130.493 154.987 130.957 155.016 130.761C155.061 130.455 155.324 130.056 155.466 129.813C155.835 129.185 156.262 128.599 156.702 128.02C156.852 127.823 157.034 127.619 157.166 127.405C157.324 127.147 156.813 127.895 156.633 128.138C156.289 128.601 155.936 129.059 155.603 129.531C155.527 129.638 155.331 130.037 155.195 130.128C155.039 130.232 155.313 129.768 155.401 129.602C155.779 128.888 156.248 128.226 156.74 127.586C156.811 127.494 156.884 127.404 156.957 127.313C157.005 127.252 157.099 127.206 157.099 127.128C157.099 127.066 157.011 127.216 156.97 127.263C156.838 127.414 156.666 127.62 156.543 127.768C156.253 128.117 155.469 129.212 155.648 128.794C155.792 128.457 156.082 128.097 156.28 127.805C156.635 127.281 157.014 126.774 157.376 126.255C157.504 126.07 157.908 125.559 157.712 125.669C157.534 125.769 157.416 125.95 157.275 126.098C156.993 126.392 156.822 126.576 156.553 126.883C156.347 127.117 156.15 127.356 155.958 127.601C155.88 127.701 155.892 127.656 155.96 127.532C156.168 127.149 156.415 126.786 156.657 126.423C156.828 126.167 157.064 125.901 157.204 125.623C157.256 125.518 157.024 125.772 156.942 125.854C156.63 126.166 156.327 126.487 156.022 126.804C155.954 126.875 155.887 126.948 155.816 127.016C155.699 127.128 155.685 127.134 155.767 126.962C156.085 126.296 156.485 125.669 156.858 125.034C157.034 124.733 156.908 124.879 156.781 125.02C156.527 125.304 156.292 125.602 156.048 125.894C156.029 125.916 155.563 126.488 155.771 126.161C155.908 125.947 156.03 125.724 156.145 125.497C156.16 125.469 156.36 125.1 156.153 125.372C155.988 125.587 155.826 125.809 155.676 126.034C155.432 126.399 155.989 125.949 155.995 125.944C156.503 125.554 156.974 125.117 157.48 124.725C157.726 124.535 158.015 124.328 157.811 124.789C157.579 125.314 157.241 125.797 156.96 126.296C156.62 126.9 156.305 127.518 155.984 128.132C155.773 128.536 156.614 127.472 156.919 127.134C157.103 126.93 157.286 126.722 157.48 126.528C157.538 126.47 157.416 126.678 157.376 126.748C157.316 126.853 157.254 126.958 157.2 127.066C157.155 127.156 157.334 126.918 157.398 126.842C157.605 126.596 157.818 126.356 158.019 126.105C158.082 126.027 158.136 125.941 158.202 125.866C158.254 125.807 158.221 125.9 158.213 125.929C157.983 126.803 157.499 127.607 157.071 128.394C157.015 128.497 156.957 128.6 156.904 128.704C156.865 128.783 156.733 128.92 156.815 128.951C156.966 129.009 157.704 128.087 157.727 128.061C158.174 127.565 158.597 127.046 159.059 126.563C159.162 126.455 159.426 126.13 159.403 126.277C159.375 126.457 159.055 126.856 158.984 126.971C158.646 127.514 158.295 128.051 157.996 128.617C157.94 128.724 157.784 129.053 157.828 128.94C157.896 128.766 158.008 128.599 158.114 128.448C158.409 128.033 158.744 127.648 159.074 127.261C159.245 127.059 159.413 126.855 159.59 126.659C159.643 126.599 159.774 126.429 159.777 126.509C159.784 126.761 159.31 127.328 159.21 127.474C158.856 127.993 158.486 128.501 158.135 129.022C158.074 129.113 158.015 129.204 157.955 129.295C157.912 129.362 157.894 129.529 157.823 129.494C157.741 129.453 157.906 129.332 157.959 129.258C158.157 128.984 158.323 128.798 158.552 128.536C158.878 128.162 159.209 127.796 159.504 127.395C159.525 127.366 159.766 126.941 159.842 126.93C159.858 126.927 159.845 126.962 159.84 126.977C159.793 127.112 159.647 127.404 159.597 127.496C159.201 128.239 158.73 128.936 158.258 129.632C158.139 129.807 157.753 130.309 157.903 130.159C158.095 129.967 158.286 129.677 158.453 129.475C158.875 128.961 159.298 128.447 159.711 127.925C159.734 127.896 160.019 127.522 160.111 127.435C160.125 127.422 160.161 127.396 160.162 127.414C160.165 127.462 160.136 127.506 160.119 127.551C159.86 128.217 159.506 128.87 159.096 129.456C159.049 129.523 158.912 129.72 158.939 129.643C159.028 129.385 159.31 129.111 159.463 128.891C159.586 128.714 159.701 128.528 159.833 128.357C159.907 128.259 159.771 128.594 159.726 128.708C159.637 128.936 159.473 129.168 159.414 129.404" stroke="#FFDCA0" stroke-linecap="round"/>
<path d="M160.491 130.414C160.074 130.707 159.613 130.571 159.193 130.758C159.056 130.819 158.976 130.928 158.856 131.005C158.688 131.111 158.586 131.181 158.402 131.238C158.099 131.333 157.77 131.361 157.478 131.491C157.341 131.552 157.164 131.62 157.057 131.726C156.965 131.819 156.841 131.914 156.721 131.928C156.695 131.931 156.58 132.021 156.551 132.046C156.492 132.095 156.388 132.143 156.317 132.179C156.184 132.246 155.992 132.308 155.879 132.415C155.779 132.509 155.599 132.537 155.492 132.62C155.366 132.719 155.246 132.756 155.122 132.852C154.857 133.058 154.585 133.174 154.247 133.174C154.159 133.174 153.979 133.273 153.893 133.316C153.767 133.379 153.633 133.376 153.489 133.376" stroke="#FFDCA0" stroke-linecap="round"/>
<path d="M155.543 131.895C156.219 131.47 156.983 131.004 157.752 130.769C157.999 130.693 158.238 130.607 158.483 130.522C158.784 130.418 159.026 130.233 159.291 130.058C159.469 129.941 159.653 129.832 159.837 129.722C159.975 129.638 160.046 129.511 160.203 129.454C160.359 129.398 160.495 129.33 160.659 129.303" stroke="#FFDCA0" stroke-linecap="round"/>
<path d="M160.188 130.616C160.259 130.657 160.388 130.784 160.457 130.784" stroke="#FFDCA0" stroke-linecap="round"/>
<path d="M148 137L160.5 131" stroke="#FFDCA0" stroke-width="0.5"/>
<path d="M147 137.5L149 136.5" stroke="#FFDCA0" stroke-width="0.5"/>
<path d="M160.343 131.179C160.386 131.183 160.475 131.209 160.514 131.171C160.522 131.162 160.527 131.151 160.527 131.138C160.527 131.115 160.513 131.116 160.493 131.116" stroke="#FFDCA0" stroke-width="0.5" stroke-linecap="round"/>
<path d="M160.561 130.986C160.559 130.996 160.546 131.058 160.559 131.068C160.568 131.076 160.566 131.091 160.566 131.102C160.566 131.123 160.58 131.139 160.58 131.16" stroke="#FFDCA0" stroke-width="0.5" stroke-linecap="round"/>
<path d="M157.607 131.614C157.589 131.656 157.563 131.69 157.631 131.692C157.722 131.694 157.811 131.663 157.896 131.635C157.928 131.624 157.999 131.587 158.038 131.591C158.054 131.593 158.016 131.617 158.003 131.627C157.911 131.698 157.811 131.757 157.706 131.806C157.663 131.826 157.613 131.85 157.566 131.859C157.55 131.862 157.582 131.829 157.596 131.82C157.637 131.793 157.682 131.772 157.728 131.754C157.738 131.75 157.753 131.743 157.765 131.742C157.778 131.74 157.759 131.749 157.759 131.749C157.694 131.782 157.626 131.808 157.561 131.841C157.539 131.852 157.518 131.864 157.496 131.875C157.491 131.877 157.478 131.884 157.481 131.879C157.491 131.858 157.529 131.832 157.545 131.82C157.576 131.796 157.598 131.78 157.629 131.758C157.639 131.751 157.655 131.748 157.659 131.736C157.659 131.736 157.597 131.746 157.587 131.75" stroke="#FFDCA0" stroke-width="0.5" stroke-linecap="round"/>
<rect x="95.9189" y="221.925" width="66.6395" height="13.7837" transform="rotate(34.8491 95.9189 221.925)" fill="#E1BE8C"/>
<path d="M1174.91 241.651C1174.06 241.953 1171.06 242.612 1169.9 242.765C1167.95 243.003 1165.05 243.106 1160.67 243.104C1153.68 243.099 1151.12 243.317 1147.71 244.182C1144.76 244.941 1141.51 246.32 1139.68 247.583C1134.92 250.854 1133.45 254.648 1135.49 258.439C1135.77 258.997 1136.73 260.234 1137.7 261.314C1140.33 264.275 1141.19 265.935 1140.95 267.598C1140.77 268.978 1139.83 269.878 1137.83 270.6C1134.92 271.669 1130.07 272.01 1123.62 271.619C1122.24 271.542 1118.15 271.103 1114.48 270.645C1108.2 269.868 1105.78 269.628 1101.95 269.399C1089.7 268.658 1080.01 269.645 1073.55 272.29C1071.89 272.98 1069.46 274.503 1068.51 275.468C1066.65 277.364 1065.83 279.685 1066.19 282.004C1066.54 284.162 1067.79 286.422 1069.94 288.798C1073.45 292.654 1078.59 296.211 1085.74 299.765C1090.66 302.192 1097.07 304.83 1102.49 306.652C1114.46 310.656 1116.56 311.407 1120.79 313.177C1127.12 315.833 1131.39 318.299 1133.49 320.507C1134.59 321.685 1135.03 322.676 1134.88 323.715C1134.73 324.768 1134.15 325.441 1132.53 326.39C1128.82 328.59 1122.36 329.869 1109.63 330.941C1100.39 331.716 1094.67 332.621 1087.08 334.508C1068.7 339.069 1056.91 346.744 1057.71 353.62C1057.89 355.224 1058.55 356.537 1059.89 357.989C1061.21 359.41 1062.56 360.426 1064.8 361.66C1070.23 364.689 1079.16 367.305 1090.73 369.276C1093.99 369.833 1095.67 370.219 1097.08 370.726C1101.32 372.246 1102.94 375.01 1101.38 378.062C1099.55 381.658 1094.72 384.801 1089.02 386.108C1087.22 386.512 1087.18 386.521 1085.16 386.325C1082.85 386.088 1082.25 386.161 1080.54 386.872C1079.4 387.346 1078 388.272 1076.5 389.516C1075.99 389.948 1074.8 390.772 1073.87 391.328C1071.82 392.561 1071.05 393.339 1070.91 394.339C1070.82 394.963 1070.86 395.074 1071.33 395.54C1071.62 395.833 1072.17 396.176 1072.54 396.322C1073.89 396.82 1076.68 396.834 1080.76 396.343C1085.9 395.738 1088.91 394.298 1090.15 391.877L1090.53 391.149L1091.7 390.958C1100.48 389.548 1107.66 384.262 1109.85 377.575C1111.52 372.51 1109.21 367.394 1103.9 364.342C1100.93 362.631 1098.08 361.786 1091.55 360.642C1081.09 358.802 1074.51 356.405 1073.44 353.997C1071.64 350.042 1083.44 346.145 1102.02 344.57C1105.33 344.3 1106.73 344.209 1114.51 343.835C1134.82 342.865 1149.15 339.17 1155.76 333.221C1161.01 328.494 1160.72 322.527 1154.92 316.329C1150.02 311.082 1141.89 306.101 1130.25 301.231C1124.63 298.863 1120.06 297.256 1110.72 294.305C1095.3 289.451 1085.38 284.983 1081.96 281.367C1079.97 279.24 1080.59 277.923 1083.96 277.104C1088.79 275.965 1097.25 276.259 1111.35 278.087C1117.77 278.912 1120.35 279.147 1124.23 279.25C1136.82 279.591 1145.36 277.509 1147.97 273.454C1148.65 272.41 1148.99 270.815 1148.85 269.509C1148.52 266.704 1146.74 263.692 1142.8 259.284C1141.32 257.627 1140.9 257.064 1140.72 256.469C1139.66 252.949 1142.79 248.571 1147.8 246.581C1150.46 245.516 1151.83 245.3 1157.89 244.946C1166.79 244.441 1172.88 243.389 1175.17 241.952C1175.78 241.563 1175.64 241.397 1174.91 241.651Z" fill="#3F6348"/>
<path d="M996.431 103.179L935.667 151.205L948.544 167.498L1009.31 119.472L996.431 103.179Z" fill="#E1BE8C"/>
<path d="M1041.5 160.205L980.738 208.23L993.615 224.523L1054.38 176.497L1041.5 160.205Z" fill="#E1BE8C"/>
<path d="M1086.57 217.23L1025.81 265.255L1038.69 281.548L1099.45 233.522L1086.57 217.23Z" fill="#E1BE8C"/>
<path d="M1266.85 445.33L1206.09 493.356L1218.97 509.648L1279.73 461.623L1266.85 445.33Z" fill="#E1BE8C"/>
<path d="M1131.64 274.255L1070.88 322.28L1083.76 338.573L1144.52 290.548L1131.64 274.255Z" fill="#E1BE8C"/>
<path d="M1176.71 331.28L1115.95 379.305L1128.83 395.598L1189.59 347.573L1176.71 331.28Z" fill="#E1BE8C"/>
<path d="M1221.78 388.305L1161.02 436.33L1173.9 452.623L1234.66 404.598L1221.78 388.305Z" fill="#E1BE8C"/>
<path d="M1311.92 502.355L1251.16 550.381L1264.04 566.673L1324.8 518.648L1311.92 502.355Z" fill="#E1BE8C"/>
<path d="M1353.6 548.832L1356.97 546.163C1358.88 544.654 1357.4 539.631 1353.69 535.078L986.828 83.8565C983.296 79.5139 979.05 77.2102 977.229 78.6488L973.853 81.3176C971.944 82.8261 973.431 87.8495 977.132 92.4025L1344 543.624C1347.53 547.967 1351.78 550.271 1353.6 548.832Z" fill="#FFDCA0"/>
<path d="M1286.75 601.663L1283.38 604.332C1281.47 605.84 1276.92 603.234 1273.35 598.58L919.085 137.398C915.675 132.959 914.415 128.295 916.235 126.856L919.612 124.188C921.521 122.679 926.065 125.286 929.639 129.939L1283.9 591.121C1287.31 595.56 1288.57 600.224 1286.75 601.663Z" fill="#FFDCA0"/>
<path d="M1117.85 312L1094 303.5L1099.5 290.5L1131 301.5L1117.85 312Z" fill="#3F6349"/>
<path d="M1089.5 334L1073.5 339L1079.5 348.5L1097 345L1089.5 334Z" fill="#3F6349" stroke="#3F6349" stroke-width="0.1"/>
</g>
<defs>
<clipPath id="clip0_66_1317">
<rect width="1280" height="720" fill="white"/>
</clipPath>
<clipPath id="clip1_66_1317">
<rect width="105" height="168" fill="white" transform="translate(28 188)"/>
</clipPath>
</defs>
</svg>
