<svg width="600" height="720" viewBox="0 0 600 720" fill="none" xmlns="http://www.w3.org/2000/svg">
<g clip-path="url(#clip0_70_1411)">
<rect width="600" height="720" fill="#CFF09E"/>
<path d="M233.219 -23.8608L167.181 -75.644L157.089 -60.9709L223.127 -9.18764L233.219 -23.8608Z" fill="#E1BE8C"/>
<path d="M197.896 27.4957L131.858 -24.2876L121.766 -9.61442L187.804 42.1688L197.896 27.4957Z" fill="#E1BE8C"/>
<path d="M162.573 78.8521L96.5349 27.0689L86.4427 41.742L152.481 93.5253L162.573 78.8521Z" fill="#E1BE8C"/>
<path d="M21.2813 284.278L-44.7567 232.495L-54.8489 247.168L11.1892 298.951L21.2813 284.278Z" fill="#E1BE8C"/>
<path d="M127.25 130.209L61.212 78.4253L51.1198 93.0985L117.158 144.882L127.25 130.209Z" fill="#E1BE8C"/>
<path d="M91.9272 181.565L25.8891 129.782L15.7969 144.455L81.835 196.238L91.9272 181.565Z" fill="#E1BE8C"/>
<path d="M56.6042 232.921L-9.43385 181.138L-19.526 195.811L46.5121 247.595L56.6042 232.921Z" fill="#E1BE8C"/>
<path d="M-14.0416 335.634L-80.0797 283.851L-90.1718 298.524L-24.1337 350.308L-14.0416 335.634Z" fill="#E1BE8C"/>
<path d="M-41.0147 382.245L-37.3449 385.123C-35.2706 386.75 -31.2459 384.617 -28.4636 380.417L247.272 -35.8054C249.925 -39.812 250.461 -44.2217 248.482 -45.7729L244.813 -48.6505C242.738 -50.2771 238.714 -48.1442 235.931 -43.9446L-39.8042 372.278C-42.458 376.284 -42.9938 380.694 -41.0147 382.245Z" fill="#FFDCA0"/>
<path d="M-113.661 325.28L-117.331 322.403C-119.405 320.776 -118.704 316.037 -115.783 311.946L173.649 -93.5365C176.435 -97.4388 180.215 -99.3039 182.194 -97.7527L185.863 -94.875C187.938 -93.2485 187.236 -88.5098 184.316 -84.4184L-105.116 321.064C-107.902 324.967 -111.682 326.832 -113.661 325.28Z" fill="#FFDCA0"/>
<path d="M89.3182 27.1923C88.8516 27.7693 87.067 29.5123 86.3405 30.1142C85.1148 31.1127 83.2003 32.4207 80.2615 34.2808C75.5588 37.2551 73.9176 38.4976 71.9304 40.5613C70.2156 42.3533 68.5137 44.7133 67.725 46.3875C65.6711 50.7303 66.0119 54.0427 68.7024 55.863C69.0876 56.1374 70.1664 56.605 71.1941 56.9579C73.9959 57.9364 75.1483 58.7496 75.5699 60.029C75.9306 61.0833 75.6154 62.12 74.5232 63.4831C72.9425 65.4787 69.8023 67.7852 65.3345 70.2522C64.3836 70.7829 61.478 72.215 58.8562 73.4508C54.368 75.5712 52.655 76.4329 50.0023 77.9005C41.5206 82.5847 35.3509 87.4118 31.9408 92.0313C31.0623 93.2294 29.9623 95.3419 29.6636 96.4286C29.0797 98.5615 29.3354 100.558 30.3888 102.047C31.3794 103.426 33.0054 104.497 35.2819 105.264C38.9868 106.502 43.6806 106.837 49.7262 106.312C53.8783 105.937 59.1043 105.08 63.3803 104.065C72.8221 101.807 74.4983 101.444 77.9517 100.901C83.1376 100.085 86.8673 100.016 89.0459 100.689C90.1984 101.055 90.8375 101.571 91.1009 102.37C91.3677 103.18 91.2168 103.902 90.4593 105.264C88.7328 108.404 84.8434 112.057 76.6658 118.234C70.7305 122.714 67.2012 125.792 62.7673 130.356C52.0145 141.408 46.7748 151.865 49.715 156.396C50.3987 157.454 51.297 158.106 52.7072 158.563C54.0875 159.009 55.3539 159.152 57.2855 159.075C61.9896 158.912 68.9062 156.962 77.367 153.435C79.7482 152.445 81.0102 152.004 82.1366 151.762C85.5157 151.035 87.5689 152.304 87.5885 155.13C87.6128 158.458 85.471 162.737 82.0988 166.089C81.026 167.145 81.006 167.165 79.5815 167.886C77.9468 168.701 77.5661 169.01 76.6708 170.238C76.0701 171.059 75.4511 172.313 74.8795 173.832C74.6894 174.354 74.1776 175.444 73.7418 176.237C72.8013 177.979 72.555 178.859 72.8086 179.628C72.9667 180.108 73.028 180.172 73.512 180.299C73.8081 180.384 74.2942 180.395 74.5974 180.339C75.6771 180.118 77.5545 178.941 80.1245 176.857C83.3641 174.242 84.8843 171.94 84.8693 169.698L84.8734 169.019L85.59 168.387C90.9985 163.65 93.9721 156.851 93.1089 151.18C92.4571 146.883 89.1203 144.24 84.4881 144.336C81.8923 144.39 79.6824 145.004 74.9018 146.969C67.2282 150.12 61.9746 151.219 60.4108 149.971C57.8227 147.932 64.3862 140.151 76.317 131.128C78.444 129.53 79.3522 128.869 84.4467 125.294C97.7505 115.964 106.084 107.25 108.446 100.221C110.319 94.6394 108.042 90.5335 101.98 88.6102C96.8583 86.9761 89.6527 86.9097 80.1355 88.4101C75.5327 89.1247 71.8985 89.9318 64.5975 91.8132C52.5452 94.9349 44.3166 95.9938 40.7611 94.8836C38.6807 94.2235 38.6351 93.0276 40.6121 91.0144C43.4614 88.1502 49.2462 84.7585 59.3563 80.0539C63.9561 77.9062 65.7676 76.9773 68.4107 75.3992C76.9906 70.2807 81.9959 65.1738 82.3319 61.1899C82.4222 60.1624 82.0956 58.8863 81.5427 58.0216C80.3441 56.1734 78.0948 54.7974 73.9062 53.3521C72.3332 52.8082 71.8578 52.5858 71.5294 52.2399C69.584 50.1995 70.1597 45.7637 72.8267 42.224C74.2422 40.337 75.0856 39.6022 79.032 36.7728C84.8362 32.6264 88.5613 29.2883 89.5942 27.2978C89.8725 26.7596 89.7196 26.7021 89.3182 27.1923Z" fill="#3F6348"/>
<path d="M57.5632 92.4302L52.7671 97.4117" stroke="#FFDCA0" stroke-width="0.5"/>
<path d="M57.9321 92.4302L54.9807 95.7512" stroke="#FFDCA0" stroke-width="0.5"/>
<path d="M33.9515 103.223L34.2316 102.813M34.2316 102.813L40.6739 93.3697L43.6883 102.093L34.2316 102.813Z" stroke="#FFDCA0" stroke-width="0.5"/>
<path d="M51.1582 150.103L62.4926 158.88" stroke="#E1BE8C" stroke-width="0.5"/>
<path d="M51.13 150.466L50.7788 150.079M51.13 150.466L59.2275 158.561L61.0449 158.102M51.13 150.466L51.4812 150.853L51.8426 150.841L60.3118 158.525L60.6732 158.513L61.396 158.489L61.0449 158.102M51.13 150.466L51.1197 150.865L52.4733 154.405M61.0449 158.102L60.6835 158.114L60.6937 157.715M59.5992 158.15L53.9497 153.16L56.6976 158.645L58.1638 157.8L54.6418 154.332L56.026 156.676L57.1 157.039L56.7181 157.848L57.4512 157.425L57.441 157.824C56.8545 158.162 59.3651 157.893 60.6937 157.715M60.6937 157.715C60.4046 157.725 60.8142 157.711 61.0552 157.703" stroke="#E1BE8C" stroke-width="0.5"/>
<path d="M69.9285 96.8515C73.017 99.4068 73.9024 100.565 78.2184 104.747C80.7526 107.202 78.4547 104.532 77.5671 103.448C76.3954 102.016 71.7903 99.442 73.4813 99.8497C75.0979 100.24 79.2753 103.047 77.6263 102.915C73.8916 102.614 71.1262 97.8395 67.4415 96.9181C67.0317 96.8156 70.2442 99.1703 70.9055 99.7831C73.9027 102.56 71.7709 101.291 69.4548 100.116C66.3073 98.5201 71.7116 100.464 72.4155 100.783C75.3184 102.097 73.4005 102.158 71.5273 101.049C68.5879 99.3083 70.1154 100.561 71.3496 102.148C72.1519 103.18 67.8754 101.147 67.2639 101.049C66.812 100.976 71.0054 104.688 68.0633 102.248C66.4678 100.926 67.5433 101.388 68.7442 101.782C69.4143 102.002 67.3441 100.079 67.1158 99.6165C66.6796 98.7329 69.0477 100.464 68.1225 99.6832C66.9297 98.6766 64.791 97.7388 63.8887 96.3851C63.2395 95.4111 65.9755 97.031 67.027 97.3179C67.5029 97.4477 67.4649 96.7101 68.9515 97.2512C70.2871 97.7375 73.9179 100.199 72.6819 99.45C71.8889 98.9695 71.067 98.5522 70.2838 98.0508C69.6982 97.6759 68.006 97.272 68.5666 96.8515C71.0691 94.9742 75.3585 100.108 69.2179 95.6855C65.8205 93.2389 77.1679 96.8645 69.3364 92.3208C65.5438 90.1204 75.4721 93.7866 73.7182 93.7866C71.9228 93.7866 70.1956 92.7206 68.4481 92.7206C67.8001 92.7206 69.9295 93.2536 68.7442 93.2536C65.2425 93.2536 71.873 92.8645 70.9943 93.8532" stroke="#E1BE8C" stroke-width="3" stroke-linecap="round"/>
<path d="M72.5074 92.974C73.9503 94.8441 75.2919 96.6201 76.0636 98.9648C76.4319 100.083 76.2978 99.7376 75.8184 98.9763C75.1202 97.8677 74.2511 96.914 73.5498 95.8199C73.2944 95.4216 72.8649 93.8267 73.5804 94.8943C73.9641 95.4668 76.5996 100.55 76.5644 100.563C75.9116 100.808 74.075 97.5665 73.8206 97.171C73.084 96.0262 71.6239 93.9607 71.7052 92.4049C71.7365 91.8061 73.4111 93.6821 73.4884 93.7674C74.7453 95.1539 76.1268 96.4161 77.1213 98.0679C77.1943 98.1891 78.2059 100.231 77.4841 99.5397C76.2427 98.3509 74.9855 97.0791 73.8512 95.7624C72.7935 94.5347 71.7351 93.2915 70.7191 92.0196C70.2509 91.4335 71.4715 92.2012 71.6337 92.2841C74.9327 93.9714 77.1126 96.9485 79.1396 100.207C80.595 102.546 74.9655 96.8547 73.3249 94.6758C73.1496 94.4429 71.2889 91.8481 72.4512 92.5716C74.3703 93.7661 76.2241 95.3391 77.8724 96.964C78.8451 97.9229 79.7047 98.9723 80.4834 100.132C80.8815 100.725 80.6099 100.632 80.1513 100.379C77.2263 98.7651 74.2556 96.2389 71.9811 93.6065C71.8617 93.4682 70.6948 92.1743 71.4651 92.4796C72.9968 93.0868 74.3044 94.2564 75.5782 95.3542C77.3529 96.8838 82.2228 102.052 80.3914 100.609C77.4335 98.2793 74.6776 95.9554 72.1702 93.0028C71.21 91.8721 70.2137 90.7268 69.5132 89.3635C69.3201 88.9876 70.6524 90.345 70.8111 90.5018C73.9493 93.6036 77.0535 96.8268 79.8856 100.287C79.9255 100.336 81.0342 101.662 80.2126 101.379C79.3077 101.068 78.3121 100.446 77.4739 99.9537C75.3588 98.7125 73.3485 97.1916 71.3833 95.6762C70.6299 95.0952 69.8945 94.4825 69.1249 93.9284C68.7696 93.6726 67.9436 92.9434 67.4388 93.043C66.9851 93.1326 68.3482 95.7746 68.4453 95.9464C69.1423 97.1788 69.9038 98.3611 70.5811 99.6087C70.9114 100.217 71.649 101.276 71.649 102.069C71.649 102.351 71.3557 101.959 71.3424 101.943C70.7609 101.218 70.2707 100.371 69.7585 99.5857C68.4359 97.5576 67.2316 95.4424 66.2074 93.204C65.8522 92.4278 65.6698 91.6229 66.4066 92.7211C67.8329 94.8468 68.9459 97.3562 70.0089 99.7237C70.3947 100.583 70.7381 101.468 70.9848 102.391C71.2007 103.2 70.9335 102.829 70.6169 102.483C69.3429 101.093 68.0436 99.7481 66.8103 98.3094C66.6323 98.1017 64.0583 95.4532 64.1993 95.1358C64.2403 95.0435 64.3409 95.2677 64.4037 95.3427C64.646 95.6322 64.9053 95.9826 65.119 96.2856C66.059 97.6179 66.9282 99.0104 67.7964 100.402C68.3455 101.282 68.8885 102.167 69.4928 103.001C69.8446 103.486 71.1213 104.579 70.5811 104.427C70.2936 104.346 69.8309 103.767 69.6461 103.576C68.6985 102.594 67.8213 101.524 66.938 100.471C65.974 99.3217 64.0578 97.6297 63.8059 95.9292C63.7681 95.6738 66.0212 97.6305 66.2738 97.8839C67.5252 99.1394 68.6795 100.519 69.8862 101.828C71.0021 103.039 68.7135 101.068 68.522 100.908C67.1716 99.7828 65.75 98.6899 64.7358 97.1538C63.8178 95.7632 65.0962 96.5832 65.6913 96.9928C66.8921 97.8192 67.9667 99.0015 69.2884 99.5857C69.5141 99.6855 69.6113 99.6826 69.4672 99.4305C69.0179 98.6441 68.519 97.9076 68.1081 97.0905C67.4912 95.8636 66.4666 93.4841 67.3059 92.0886C67.4368 91.871 68.2512 91.1972 68.2972 91.8357C68.3763 92.934 67.8149 94.1866 67.7453 95.3082C67.6633 96.6318 67.6375 95.9649 67.3212 95.153C66.8697 93.9939 66.2565 93.0013 65.3847 92.2036C65.2789 92.1068 64.9605 91.8956 65.211 92.1921C65.8191 92.9118 66.6506 93.4308 67.357 94.0089" stroke="#E1BE8C" stroke-width="3" stroke-linecap="round"/>
<path d="M60.8894 93.9158C61.9495 94.7813 63.1543 95.3624 64.286 96.0939C65.4727 96.861 66.5609 97.7711 67.7704 98.4985C68.2917 98.812 68.7552 99.2384 69.2261 99.637C70.0145 100.304 70.8118 100.955 71.5799 101.652C71.58 101.653 72.3392 102.336 72.2304 102.384C71.9647 102.502 71.598 102.519 71.327 102.576C70.877 102.67 70.438 102.776 70.0081 102.954C69.3074 103.243 68.5491 102.943 67.8994 102.582C66.6614 101.894 65.6421 100.837 64.5699 99.8867C64.2775 99.6276 63.9615 99.39 63.713 99.0794C63.2396 98.4875 62.8206 97.915 62.2161 97.4821C61.4237 96.9147 60.5455 96.5095 60.0067 95.6002C59.9178 95.45 59.8535 95.2779 59.7486 95.1384C59.5579 94.8848 59.5423 94.5238 59.346 94.2701C59.0065 93.8315 59.2483 93.1617 59.4957 92.7773C60.0651 91.8925 61.2891 91.9087 61.8289 90.9884C61.8735 90.9123 62.1314 90.3616 62.038 90.2739C62.0281 90.2647 62.0166 90.291 62.0096 90.303C61.3763 91.3874 62.8157 88.9943 61.7515 90.7793C61.4641 91.2613 61.1268 91.6974 60.812 92.1558C60.6799 92.3481 60.2459 92.8105 60.2235 93.0794C60.2164 93.1647 60.3849 93.0936 60.4506 93.0503C60.9316 92.7341 61.3552 92.2808 61.7824 91.8828C61.821 91.847 62.5051 91.2398 62.5051 91.2468C62.5051 91.768 62.0692 92.3763 61.9063 92.8528C61.7573 93.2889 61.8856 93.1687 62.0612 92.8645C62.3555 92.3545 62.6308 91.8298 62.9207 91.3165C63.2166 90.7927 63.3726 90.5243 63.6614 90.0242C63.7528 89.8659 63.8035 89.6574 63.9453 89.5566C63.9584 89.5473 63.964 89.5889 63.9608 89.606C63.9213 89.8213 63.7474 90.3155 63.6976 90.454C63.4243 91.2135 63.1199 91.9591 62.8355 92.7134C62.7906 92.8326 62.2189 94.1889 62.6497 93.3349C62.9401 92.7592 63.2203 92.1335 63.5995 91.6215C63.6497 91.5537 63.634 91.8001 63.615 91.8858C63.4258 92.7373 63.1358 93.5646 62.8716 94.3891C62.7987 94.6169 62.693 94.861 62.629 95.0949C62.5621 95.3397 62.8691 94.6593 62.98 94.4356C63.7985 92.7848 64.483 90.9839 65.4475 89.4317C65.8579 88.7712 65.1885 91.0214 64.9726 91.7899C64.8063 92.3816 64.641 92.973 64.4822 93.5673C64.4225 93.7906 64.3993 93.8839 64.3376 94.0842C64.3237 94.1296 64.2622 94.2495 64.2963 94.2207C64.3088 94.2102 64.3146 94.1924 64.3222 94.1771C64.4602 93.9007 64.5872 93.6174 64.7248 93.3407C65.2721 92.2401 65.8566 91.1705 66.4928 90.1316C66.6614 89.8562 66.8331 89.5831 67.0116 89.3156C67.1211 89.1513 67.3975 88.6805 67.4039 88.8857C67.4185 89.3525 67.1967 89.7911 67.0632 90.2333C66.777 91.1813 66.3697 92.3938 66.0566 93.3117C65.6199 94.592 65.1615 95.8625 64.7171 97.1394C64.6223 97.4115 64.4789 97.7495 64.4306 98.0513C64.4175 98.1328 64.5436 97.9414 64.5828 97.8712C64.9424 97.2279 65.2597 96.5559 65.5946 95.8964C65.6323 95.8222 66.1262 94.83 65.9611 95.4521C65.8834 95.7448 65.7978 96.035 65.7159 96.3262C65.6211 96.6631 65.6527 96.5368 65.7572 96.2914C66.0965 95.4942 66.5275 94.7518 66.9961 94.0435C67.111 93.8699 67.233 93.7105 67.2568 93.9913C67.2661 94.1017 67.3315 94.2175 67.409 94.2846C67.5247 94.3847 67.668 94.4395 67.7962 94.514C68.1959 94.7464 68.5299 95.0681 68.8647 95.4027C69.6192 96.1565 70.3199 96.9374 70.9192 97.8538C71.5112 98.759 72.1593 99.6359 72.1994 100.807C72.2355 101.865 71.409 103.115 70.4237 103.209C70.0134 103.248 69.7575 103.255 69.6235 102.803" stroke="#E1BE8C" stroke-width="3"/>
<path d="M72.0859 89.8383C72.5627 90.1757 73.0764 90.4392 73.5519 90.7792C73.8346 90.9813 74.0614 91.27 74.3469 91.4588C74.7506 91.7257 75.1116 92.0153 75.5496 92.1906C75.9454 92.3491 76.2395 92.6752 76.5511 92.9806C76.8079 93.2323 77.0881 93.442 77.3512 93.6834C77.6789 93.984 77.9649 94.2933 78.2545 94.6476C78.7375 95.2383 79.2286 95.7532 79.6586 96.4017C79.9534 96.8463 80.3297 97.2067 80.66 97.6156C80.9314 97.9516 81.1158 98.3573 81.3775 98.7018C81.722 99.1552 82.165 99.5322 82.5648 99.9215C82.7238 100.076 82.9582 100.296 83.05 100.502" stroke="#E1BE8C" stroke-linecap="square"/>
<path d="M82.2602 100.868C81.2268 99.7564 80.1883 98.5971 79.0649 97.5982C78.5998 97.1846 78.0663 96.8829 77.5886 96.4888C77.1249 96.1063 76.6682 95.7363 76.1948 95.3736C75.5644 94.8907 74.9834 94.377 74.3984 93.8228C73.905 93.3552 73.3987 92.9033 73.0486 92.2807C72.9324 92.074 72.7742 91.8528 72.7827 91.604C72.7971 91.1835 73.7037 91.7225 73.8151 91.7811C74.6416 92.2165 75.2359 92.8379 75.9161 93.4975C76.257 93.8281 76.5711 94.1642 76.8762 94.5372C76.9485 94.6256 77.2375 94.8884 77.2375 95.0367C77.2375 95.0843 75.924 94.451 75.8335 94.392C75.3945 94.1057 74.9969 93.7461 74.5843 93.4162C74.1681 93.0835 73.7162 92.7949 73.3144 92.4404C73.0171 92.1781 72.7478 91.8297 72.5711 91.453C72.549 91.4058 72.4787 91.3027 72.5762 91.3252C73.0116 91.4257 73.4438 91.6645 73.8513 91.8537C74.4157 92.1159 75.0383 92.3257 75.5754 92.6553C75.615 92.6796 75.7229 92.7441 75.6786 92.754C75.4674 92.8016 74.9629 92.4603 74.8062 92.3823C74.2027 92.0818 73.641 91.7153 73.0563 91.3775C72.716 91.1808 73.3359 91.4391 73.4151 91.4646C73.6641 91.5447 74.3323 91.9894 74.13 91.8073C73.6862 91.4077 73.1567 91.0609 72.6743 90.7211C72.6475 90.7022 72.4315 90.6012 72.4162 90.5498C72.3704 90.395 72.7077 90.5552 72.8498 90.5875C73.5216 90.7404 74.1922 90.9817 74.7443 91.453C74.8508 91.5439 74.9472 91.7096 74.7107 91.5982C73.9142 91.2227 73.177 90.7044 72.3543 90.3958C72.3093 90.379 72.1774 90.3434 72.3491 90.3726C72.6572 90.4249 72.962 90.5021 73.2628 90.5933C73.6681 90.7162 74.2569 90.8293 74.6101 91.1132C74.9047 91.35 74.0745 90.5615 73.779 90.3261C73.3407 89.9771 72.7548 89.6877 72.3723 89.2574C72.2716 89.1441 72.6315 89.3908 72.7621 89.4549C73.0308 89.5868 73.3016 89.7109 73.5751 89.8295C73.7427 89.9022 73.9131 89.9723 74.0681 90.0764C74.2373 90.1901 73.6954 89.9297 73.5157 89.8382C73.4123 89.7856 73.3088 89.7329 73.206 89.6785C73.1213 89.6337 72.879 89.5757 72.9608 89.5246C73.0319 89.4802 73.2971 89.6073 73.366 89.6291C73.7491 89.7504 74.159 89.8458 74.5275 90.0154C74.5607 90.0307 74.0258 89.8533 73.9261 89.8092C73.8817 89.7895 73.1149 89.4568 73.4744 89.5478C73.7158 89.6089 73.8956 89.7524 74.0887 89.9196C74.3957 90.1853 73.7188 89.6663 73.6577 89.6175C73.3244 89.3516 73.5629 89.4541 73.7945 89.5623C74.4268 89.8579 75.0031 90.2366 75.4928 90.7792C76.0281 91.3724 76.5885 91.8908 77.1962 92.3881C77.5255 92.6575 77.7838 92.8928 78.0144 93.271C78.3464 93.8152 78.8167 94.133 79.2197 94.5953C79.429 94.8353 79.5203 95.1871 79.7256 95.4317C79.9422 95.6897 80.178 95.8673 80.4277 96.0996C80.6755 96.3302 80.8685 96.5986 81.0781 96.8721C81.4244 97.3242 81.8981 97.444 82.3066 97.7841C82.7469 98.1505 83.0074 98.7389 83.4526 99.0909C83.8646 99.4167 84.2466 99.7066 84.5573 100.16C84.8928 100.649 85.3698 100.92 85.7858 101.31C85.9769 101.489 86.2476 101.693 86.3949 101.914" stroke="#E1BE8C" stroke-linecap="square"/>
<path d="M74.6876 91.2497C75.3298 92.0019 76.0594 92.6405 76.644 93.454C76.9818 93.9239 77.3196 94.3638 77.6971 94.7928C78.4363 95.6329 78.9521 96.6227 79.5709 97.5634C80.057 98.3025 80.533 99.058 80.9827 99.8257C81.3596 100.469 81.7241 101.155 82.1983 101.716C82.5516 102.134 82.9025 102.573 83.1972 103.046C83.5318 103.584 83.4025 102.955 83.2979 102.637C82.9026 101.434 81.9775 100.419 81.2176 99.4976C80.4566 98.575 79.6175 97.7565 78.8147 96.8838C78.6669 96.7232 78.1689 96.3216 78.3527 96.425C79.6871 97.1757 80.801 98.2926 82.0486 99.2013C82.4017 99.4585 82.7691 99.6884 83.1223 99.9448C83.3506 100.111 82.6772 99.5944 82.4564 99.4162C81.8239 98.9057 81.1938 98.3879 80.6033 97.816C80.4322 97.6503 80.2817 97.4261 80.1052 97.2672C79.3818 96.616 81.4874 98.6556 82.1622 99.3698C82.2859 99.5007 82.7024 99.958 82.8333 100.171C82.8827 100.252 82.667 100.106 82.5958 100.049C82.0836 99.6444 81.552 99.2619 81.0575 98.8296C80.7375 98.5498 80.4436 98.2389 80.1542 97.9206C80.1289 97.8927 79.8032 97.5993 79.8032 97.4995C79.8032 97.4728 80.9866 98.105 81.0162 98.121C81.736 98.5101 82.4956 98.8506 83.1688 99.3407C83.3941 99.5048 83.3229 99.4699 83.1069 99.2652C82.1591 98.3675 81.2802 97.3979 80.3529 96.4772C79.8489 95.9768 80.544 96.7789 80.6136 96.8664C81.2946 97.7224 82.0748 98.4176 82.792 99.2246C82.8609 99.3021 83.2703 99.8088 82.8823 99.5527C81.8584 98.877 80.759 98.1757 79.9219 97.2149C79.566 96.8064 80.7944 97.8026 81.2331 98.0919C81.9483 98.5637 82.5568 99.1058 83.1946 99.695C83.2755 99.7698 83.5194 99.9668 83.4166 99.9448C83.1405 99.8856 82.6906 99.3095 82.4823 99.1433C81.9989 98.7576 80.4419 97.7872 80.962 98.1065C81.7402 98.584 82.4756 99.0468 83.1998 99.637C83.6005 99.9636 84.0031 100.286 84.3922 100.63C84.9149 101.092 83.2344 99.8793 82.7249 99.3988C82.6964 99.372 82.0422 98.7727 82.4203 98.9922C82.9034 99.2728 83.3554 99.6322 83.8244 99.9419C84.3176 100.268 83.4767 99.767 83.4166 99.7299C82.9451 99.4392 82.4695 99.1619 81.979 98.9138C81.7005 98.773 81.3743 98.5797 81.0653 98.5218C80.8686 98.4849 81.4311 99.3812 81.4705 99.4453C81.5829 99.6284 82.0228 100.092 82.0228 100.343C82.0228 100.439 81.3588 99.9942 81.2898 99.9448C81.2356 99.906 80.8315 99.6755 80.8356 99.5847C80.839 99.5086 81.3686 99.7085 81.3776 99.7125C81.8771 99.9327 82.3954 100.176 82.8797 100.436C83.1935 100.604 82.4356 99.8197 82.3842 99.7647C82.3487 99.7269 81.6778 99.0107 81.9635 99.4337C82.3265 99.9711 82.8203 100.368 83.2153 100.868C83.7122 101.497 81.9622 99.9443 81.3776 99.4191C79.9377 98.1258 78.561 96.7076 77.3822 95.1123C77.3471 95.0647 76.4419 94.0988 76.9228 94.1452C77.3852 94.1898 77.8372 94.4029 78.2288 94.6737C78.4426 94.8216 78.6588 95.1194 78.8947 95.2226C79.0398 95.2861 78.6822 94.9641 78.5591 94.8567C77.816 94.2079 77.0701 93.5753 76.3498 92.8935C75.882 92.4507 75.4195 91.9942 74.9148 91.604C74.7507 91.4773 74.5512 91.4262 74.3934 91.3078C74.2896 91.2299 74.6404 91.362 74.7547 91.4182C75.2875 91.6799 75.7379 92.0977 76.1949 92.4927C76.4515 92.7145 76.7145 92.9276 76.9692 93.152C77.1299 93.2934 77.0191 93.2498 76.9047 93.1229C76.5033 92.6775 76.1589 92.1709 75.7613 91.7202C75.2888 91.1845 74.7723 90.7164 74.2386 90.2623C74.1957 90.2259 73.8129 89.966 74.0837 90.1113C74.9716 90.5878 75.7703 91.142 76.5356 91.8364C76.6648 91.9536 76.8878 92.0959 76.9899 92.2546C76.99 92.2547 77.0167 92.3166 77.0002 92.3243C76.9503 92.3474 76.9027 92.2697 76.8608 92.2313C76.634 92.0233 76.4189 91.7986 76.1949 91.5866C76.0791 91.477 75.8962 91.2515 75.7355 91.2033C75.6737 91.1847 75.6814 91.2214 75.72 91.2672C75.9754 91.5693 76.2458 91.8633 76.5098 92.1558C76.7056 92.3728 76.9124 92.5691 77.1215 92.7686C77.1547 92.8002 77.3524 93.0166 77.1422 92.9167C76.8419 92.7741 76.1035 92.0318 76.3498 92.272C76.7649 92.6768 77.2265 93.0162 77.6197 93.4511C77.6507 93.4854 77.7238 93.5265 77.6997 93.5673C77.6823 93.5965 77.6445 93.5334 77.6197 93.5121C77.4909 93.4016 77.3636 93.2889 77.2351 93.1781C77.1045 93.0656 76.8425 92.7562 76.6698 92.7076C76.5456 92.6727 76.8129 92.9475 76.897 93.0561C77.0503 93.2541 77.5739 93.9007 77.7229 94.09C77.8739 94.2818 78.172 94.5545 78.172 94.8567" stroke="#E1BE8C" stroke-linecap="square"/>
<path d="M74.5339 89.1093L90.0291 102.393" stroke="#E1BE8C" stroke-width="0.5"/>
<path d="M86.7976 101.862C86.1492 101.504 85.6171 101.183 85.1492 100.562C85.1047 100.504 84.1614 99.276 84.0135 99.4898C83.9697 99.5532 84.6389 100.097 84.6502 100.107C85.2696 100.678 85.7981 101.306 86.2659 102.038C86.3623 102.189 86.9595 102.973 86.8561 103.244C86.8352 103.299 86.8 103.143 86.7769 103.089C86.6876 102.882 86.6001 102.68 86.4792 102.493C86.1569 101.993 85.7263 101.59 85.3969 101.099C85.2238 100.841 85.0491 100.419 85.4899 100.677C86.0144 100.984 86.5499 101.257 86.9662 101.745C87.0163 101.804 87.1899 101.981 87.1899 102.078C87.1899 102.129 86.8797 101.834 86.8767 101.831C86.5123 101.427 86.1196 101.016 85.7927 100.574C85.5916 100.303 86.2732 101.029 86.5102 101.261C86.6315 101.38 86.7449 101.503 86.8526 101.637C86.8903 101.684 87.0168 101.86 86.8888 101.716C86.6713 101.472 86.4726 101.196 86.2779 100.928C86.0357 100.595 87.511 101.931 87.2484 101.618C87.0951 101.435 86.8629 101.309 86.6806 101.165C86.6629 101.151 86.9754 101.522 87.0453 101.618" stroke="#E1BE8C" stroke-linecap="square"/>
<path d="M85.4193 100.921C85.641 100.359 86.5535 101.096 86.8388 101.281C86.8403 101.282 87.593 101.78 87.5357 101.862C87.3765 102.09 86.4213 101.27 86.3175 101.159C86.2375 101.073 85.7819 100.59 85.8116 100.409C85.8343 100.272 86.2748 100.295 86.3639 100.293C86.5555 100.29 86.2715 100.281 86.2091 100.247C86.0505 100.16 85.897 100.017 85.7548 99.8984C85.7432 99.8887 85.9865 99.9596 86.0439 99.9913C86.0819 100.012 86.2506 100.097 86.2349 100.177C86.2296 100.204 86.0758 100.183 86.1936 100.189C86.4028 100.2 86.6246 100.286 86.8079 100.398C87.0001 100.515 86.6525 100.32 86.6117 100.293C86.2056 100.027 86.7018 100.266 86.8492 100.439C86.9175 100.518 86.926 100.492 87.035 100.514C87.2113 100.55 87.4135 100.682 87.528 100.839C87.5636 100.888 87.52 100.921 87.5641 100.95C87.6266 100.991 87.7089 101.005 87.7654 101.054C87.8443 101.123 87.9189 101.122 87.9951 101.179C88.2048 101.336 87.5019 101.063 87.257 100.996C87.0214 100.932 86.6773 100.713 86.5239 100.502C86.2782 100.164 85.719 99.9139 85.3573 99.7938C84.9365 99.6541 84.6111 99.3864 84.2578 99.091C83.8878 98.7816 83.4751 98.4658 83.148 98.0978C82.9496 97.8745 82.773 97.7309 82.526 97.5721C82.3235 97.4419 82.0157 97.3769 81.8833 97.1452C81.649 96.7351 81.4136 96.4394 81.1013 96.1113C80.9311 95.9326 80.6966 95.7924 80.5618 95.5769C80.3564 95.2485 80.1618 94.9529 79.8443 94.7638C79.5975 94.6167 79.3789 94.4833 79.1474 94.2933C79.0076 94.1785 78.6829 94.0902 78.6829 93.8373C78.6829 93.5107 78.3881 93.3513 78.2647 93.1084C78.2485 93.0764 78.0092 92.9748 77.9628 92.9748C77.8555 92.9748 77.6437 92.8942 77.5576 92.8296C77.4477 92.7472 77.2243 92.6416 77.1962 92.4521C77.1557 92.1787 76.8005 91.9479 76.6413 91.7986C76.5087 91.6743 76.2939 91.5457 76.1251 91.514C76.0091 91.4923 76.0063 91.4855 75.9186 91.4066C75.8783 91.3703 75.808 91.2104 75.7767 91.2004C75.6253 91.1517 75.4888 90.8458 75.3121 90.7734C75.1753 90.7175 75.0242 90.4321 74.9198 90.3146C74.8535 90.24 74.8041 90.2285 74.7572 90.1287C74.7106 90.0298 74.6334 90.0757 74.5842 89.9951C74.4497 89.775 74.2045 89.9279 74.2229 89.5769C74.225 89.5361 74.3625 89.4436 74.3984 89.484C74.4697 89.5642 74.3691 89.7136 74.4784 89.8093C74.5723 89.8914 74.6638 89.8377 74.7546 89.969C74.8059 90.0433 74.8666 90.051 74.9198 90.1258C75.0124 90.2561 75.3187 90.1536 75.4205 90.2681C75.4813 90.3365 75.4702 90.4007 75.5702 90.454C75.6877 90.5166 75.8001 90.5694 75.8851 90.6863C75.99 90.8307 76.0741 91.0296 76.1741 91.2265C76.4058 91.6827 76.9138 91.6793 77.2995 91.9525C77.4467 92.0568 77.7016 92.221 77.7898 92.3998C77.8508 92.5232 77.988 92.5978 78.0892 92.6844C78.2193 92.7957 78.2719 93.0168 78.4248 93.0794C78.6139 93.1567 78.8192 93.4781 78.9823 93.6282C79.1252 93.7598 79.2592 93.9147 79.3797 94.0697C79.4393 94.1463 79.5139 94.3572 79.5656 94.3862" stroke="#E1BE8C" stroke-linecap="round"/>
<path d="M79.6587 93.9158C79.9901 94.587 80.5958 94.9641 81.0163 95.5363C81.2078 95.7968 81.4748 95.9595 81.708 96.1636C81.8096 96.2525 81.9244 96.2418 82.0332 96.303C82.2199 96.408 82.4364 96.5625 82.5752 96.7386C82.9034 97.155 83.1501 97.7635 83.7005 97.8364C83.7897 97.8482 83.9031 98.0059 83.9999 98.0455C84.0557 98.0683 84.2241 98.1834 84.2606 98.2314C84.4301 98.4539 84.732 98.6095 84.9523 98.7541C85.1666 98.8948 85.3872 99.1151 85.5847 99.242C85.6779 99.302 85.9137 99.4047 85.6931 99.4047C85.4615 99.4047 85.2243 99.4244 85.0014 99.3408C84.8645 99.2894 84.7507 99.2478 84.6065 99.2478C84.3045 99.2478 84.0025 99.2478 83.7005 99.2478" stroke="#E1BE8C" stroke-linecap="round"/>
<path d="M86.2092 99.666C86.2594 99.9232 86.3361 100.287 86.3951 99.8228" stroke="#E1BE8C" stroke-linecap="round"/>
<path d="M84.6296 98.4637C84.4494 98.3086 84.3141 98.127 84.1186 98.0048C84.0221 97.9445 83.8636 97.9831 83.7908 97.9148C83.6987 97.8284 83.5362 97.7962 83.4217 97.7318C83.2587 97.6401 83.2808 97.399 83.1688 97.363C83.1492 97.3567 83.0718 97.2599 83.0604 97.2381C83.0086 97.139 82.9804 97.2054 82.921 97.1452C82.9023 97.1263 82.7715 96.833 82.841 96.9738C83.0037 97.3033 83.1675 97.2472 83.445 97.3165C83.4834 97.3261 83.5824 97.3736 83.5972 97.4182C83.6391 97.5437 83.1738 97.3908 83.1533 97.3804C82.7848 97.1934 82.4378 96.9872 82.0383 96.8954C81.8732 96.8575 81.6829 96.7484 81.5169 96.7386C81.3707 96.7299 81.4085 96.4673 81.5221 96.4308C81.6344 96.3947 81.8421 96.3726 81.8421 96.2159C81.8421 96.1088 81.8456 95.7876 81.7234 95.7483C81.5868 95.7043 81.4171 95.5973 81.2847 95.5886C81.2213 95.5844 81.2009 95.4086 81.1195 95.3824C81.0037 95.3451 80.9431 95.2749 80.8201 95.2749" stroke="#E1BE8C" stroke-linecap="round"/>
<path d="M84.072 98.0454C84.0017 97.9409 83.897 97.6272 83.7933 97.6272C83.6759 97.6272 83.5793 97.5749 83.4681 97.5749C83.2554 97.5749 82.957 97.4104 82.957 97.1567" stroke="#E1BE8C" stroke-linecap="round"/>
<path d="M64.5729 103.223L55.7185 95.7512L58.301 92.8453" stroke="#E1BE8C" stroke-width="0.5"/>
<path d="M60.7502 97.6796C60.7778 97.8277 60.782 98.1473 60.8483 98.2778C60.8744 98.3292 60.9458 98.2814 60.9722 98.3301C61.0106 98.4009 61.027 98.5185 61.0522 98.5973C61.1631 98.9439 61.2812 99.1139 61.5607 98.9342C61.6825 98.8559 61.8527 99.3856 61.8833 99.5005C61.9464 99.7373 61.9541 99.7049 62.1621 99.6689C62.2993 99.6452 62.1854 99.7924 62.2421 99.8403C62.2928 99.8831 62.4227 99.4411 62.4227 99.5208C62.4227 99.6772 62.4511 100.759 62.5982 100.189C62.6367 100.04 62.6414 100.259 62.655 100.331C62.6911 100.522 62.6967 100.704 62.7015 100.897C62.7033 100.971 62.7768 100.774 62.7944 100.703C62.8018 100.673 62.9056 100.256 62.908 100.258C63.0387 100.406 63.0731 100.818 63.0731 101.025C63.0731 101.205 63.1954 100.706 63.2125 100.642C63.2454 100.519 63.2043 100.953 63.3054 101.014C63.4054 101.073 63.4241 100.886 63.4448 100.816" stroke="#E1BE8C" stroke-linecap="round"/>
<path d="M63.4446 100.816C63.7747 101.13 64.1141 101.495 64.5106 101.699C64.8092 101.853 65.1218 101.971 65.4165 102.135C65.8351 102.368 66.2222 102.639 66.5857 102.959C66.6092 102.98 67.1189 103.316 66.9367 103.401C66.5768 103.568 65.893 103.159 65.5817 102.988C65.0874 102.718 64.6827 102.4 64.2602 102.018C64.2219 101.984 63.8019 101.711 63.9686 101.769C64.2271 101.858 64.5671 102.094 64.7816 102.28C64.9397 102.417 65.0303 102.631 65.161 102.797C65.258 102.92 65.3203 102.931 65.112 102.901C64.9713 102.882 64.8427 102.793 64.699 102.803C64.6352 102.807 64.8789 102.963 64.9029 102.986C65.1143 103.182 65.077 103.221 64.8384 103.221C64.6995 103.221 64.6651 102.932 64.6061 102.803C64.5414 102.661 64.3347 102.41 64.2138 102.332C63.9941 102.191 63.8684 101.894 63.6305 101.745C63.4096 101.607 63.1335 101.319 62.9801 101.104C62.8965 100.986 62.8017 100.864 62.7013 100.764C62.6368 100.699 62.5623 100.675 62.5181 100.584C62.4674 100.479 62.3966 100.539 62.3296 100.473C62.0887 100.236 61.7865 100.19 61.5657 99.9274C61.3504 99.6717 61.2144 99.2912 60.9591 99.0678C60.8782 98.997 60.6378 98.8297 60.5436 98.8297C60.517 98.8297 60.399 98.7726 60.3887 98.789C60.3465 98.8569 60.7084 99.3468 60.7501 99.4221C60.9572 99.7963 61.3255 99.9951 61.6586 100.212C61.9272 100.387 62.2187 100.482 62.4458 100.738C62.5146 100.815 62.6839 101.069 62.6342 100.926C62.4351 100.356 62.1842 99.8116 61.9915 99.2333C61.9294 99.047 61.8715 98.8078 61.7412 98.6612C61.648 98.5564 61.3334 98.2408 61.1914 98.2053C61.0102 98.16 60.933 97.8127 60.8585 97.6506C60.5989 97.0859 60.0952 96.8186 59.6093 96.5528C59.3862 96.4308 59.0781 96.2966 58.8453 96.2217C58.6501 96.159 58.51 96.0005 58.3343 95.8906C58.1609 95.7823 57.8596 95.6932 57.6606 95.6932C57.4088 95.6932 57.2308 95.5886 56.987 95.5886C56.9173 95.5886 56.3527 95.5722 56.3908 95.7222C56.4305 95.8786 56.6694 96.0977 56.7779 96.1927C56.878 96.2802 57.0272 96.2594 57.116 96.3321C57.3465 96.5207 57.6527 96.5928 57.8439 96.8693C58.1272 97.2792 58.3926 97.5874 58.835 97.7842C59.4932 98.077 60.097 98.6638 60.6804 99.1143C60.8141 99.2175 61.1944 99.5575 61.0753 99.4337C60.6403 98.9819 60.1722 98.5734 59.728 98.1327C59.4817 97.8883 59.2264 97.664 58.9795 97.4182C58.6668 97.107 58.3892 96.7607 58.0684 96.4599C58.0321 96.4258 57.8562 96.2634 57.8955 96.2566C58.3233 96.1817 58.7494 96.4953 59.0853 96.7503C59.6547 97.1824 60.2436 97.5541 60.8275 97.9584C60.843 97.9691 61.4352 98.4023 61.3334 98.4928C61.2055 98.6063 60.7553 98.2183 60.6417 98.1588C60.6162 98.1455 60.2203 97.9885 60.3526 98.1094C60.4388 98.1882 60.7834 98.4727 60.6288 98.6467C60.5499 98.7354 60.1688 98.675 60.1487 98.7542C60.0927 98.9747 60.0059 98.6467 59.9706 98.5276C59.7094 97.6459 59.1919 96.8778 58.5665 96.2914C58.3401 96.0791 58.1155 95.893 57.9161 95.6438C57.7717 95.4632 57.5319 95.2636 57.3225 95.182C57.2121 95.139 57.0557 95.1704 56.9405 95.1704C56.8847 95.1704 57.1793 94.9632 57.2193 94.9352C57.2906 94.885 57.438 94.7759 57.5212 94.7551C57.641 94.7251 57.7102 94.5698 57.8232 94.5024C57.9433 94.4309 58.1484 94.0364 58.1484 93.8635" stroke="#E1BE8C" stroke-linecap="round"/>
<path d="M58.3343 92.9749C58.1473 93.1984 58.0478 93.4614 57.9394 93.7299C57.8817 93.8727 57.8094 94.1061 57.72 94.2178C57.6199 94.343 57.5539 94.41 57.4283 94.5199C57.2679 94.6603 57.1368 94.8484 56.9612 94.9613C56.9014 94.9998 56.6874 95.3951 56.7392 95.4318C56.9737 95.5979 57.4738 95.5464 57.7458 95.577C58.0122 95.607 58.2561 95.6357 58.4169 95.3563C58.4847 95.2382 58.7935 94.4067 58.3601 94.546C58.2187 94.5915 58.4179 96.0163 58.3291 94.7667C58.3007 94.3668 58.1078 94.7739 58.102 94.9497C58.095 95.1612 58.1421 94.8444 58.1588 94.8045C58.1755 94.7643 57.9984 95.1207 57.9445 95.214C57.7972 95.4689 57.8844 94.5575 57.8929 94.4502C57.9267 94.024 57.8529 94.1435 57.6839 94.4153C57.4543 94.7843 57.6978 94.081 57.7561 93.9739C57.8923 93.7239 57.9626 93.6878 57.9626 93.3814C57.9626 93.2469 57.6578 93.771 57.7819 93.5266C57.8332 93.4258 58.0268 93.3946 58.0529 93.2624C58.0572 93.2409 58.1248 93.0777 58.1458 93.1607C58.2648 93.6292 57.498 93.9509 57.498 94.334" stroke="#E1BE8C" stroke-linecap="round"/>
<path d="M48.3398 105.714L54.9806 93.2605" stroke="#FFDCA0" stroke-width="0.5"/>
<path d="M49.885 99.069C49.8181 98.8596 49.717 98.8722 49.524 98.9157C49.4889 98.9236 49.0807 99.1059 49.0332 99.0446C49.0104 99.0153 49.0275 98.9651 49.0375 98.9279C49.0963 98.7103 49.3081 98.295 49.377 98.1518C49.765 97.3454 50.1539 96.5347 50.5769 95.7506C50.9287 95.0985 51.3187 94.4585 51.8655 93.9942C51.9491 93.9232 51.7048 94.1455 51.6277 94.2253C50.969 94.9062 50.4026 95.7138 49.8505 96.4999C48.5257 98.386 47.2656 100.33 46.0539 102.309C45.2601 103.606 44.4704 104.921 43.8053 106.309C43.5537 106.834 43.3284 107.384 43.1286 107.936C43.1126 107.981 43.0902 108.023 43.0832 108.07C43.0652 108.192 43.1875 107.853 43.2388 107.744C44.2155 105.67 45.3593 103.69 46.4863 101.716C46.7109 101.322 47.4756 100.214 47.2084 100.572C46.9429 100.928 46.717 101.32 46.4733 101.694C45.9213 102.542 45.328 103.35 44.7523 104.178C44.5812 104.424 44.4131 104.672 44.2464 104.922C44.101 105.14 43.718 105.782 43.7426 105.511C43.7694 105.216 43.8618 104.932 43.9437 104.65C44.2709 103.523 44.8904 101.719 45.2755 100.665C45.7618 99.3343 46.333 98.0855 46.9014 96.8065C47.0512 96.4694 46.5176 97.4244 46.3198 97.7285C45.6517 98.7554 44.9689 99.7701 44.2939 100.791C43.5589 101.904 42.8638 103.057 42.1102 104.153C41.5653 104.946 43.1134 102.497 43.6064 101.662C44.0182 100.965 44.3964 100.245 44.7955 99.5385C45.0227 99.1366 45.2601 98.6382 45.5523 98.2807C45.7001 98.0999 45.4285 98.7539 45.3361 98.9765C44.6936 100.522 43.9687 102.028 43.2345 103.521C42.8717 104.259 42.5042 104.999 42.1016 105.71C42.0558 105.791 42.0171 105.881 41.9546 105.946C41.8061 106.102 42.1132 105.527 42.2011 105.321C43.0033 103.446 43.7292 101.53 44.562 99.6723C44.6271 99.5272 44.6966 99.3847 44.7609 99.2392C44.8041 99.1417 44.8739 99.0002 44.748 99.1614C44.3867 99.6239 44.0531 100.125 43.7188 100.611C42.6441 102.174 41.5396 103.761 40.6963 105.501C40.6774 105.54 40.6706 105.59 40.64 105.618C40.5378 105.711 40.7184 105.335 40.7611 105.195C41.071 104.179 41.401 103.173 41.7773 102.185C42.2728 100.884 42.8279 99.6143 43.3902 98.3488C43.5437 98.0034 44.0678 97.0166 43.8421 97.3076C43.0037 98.3886 42.2812 99.64 41.5676 100.828C41.2271 101.395 41.4783 100.8 41.5827 100.524C42.1149 99.1177 42.7234 97.7546 43.3556 96.4026C43.9695 95.0897 44.5549 93.7205 45.2712 92.4713C45.3765 92.2876 45.1165 92.8722 45.0334 93.0697C44.523 94.2827 43.983 95.4774 43.4118 96.6556C42.5628 98.4071 41.6214 100.106 40.8281 101.891C40.2814 103.121 42.0257 99.4921 42.6508 98.3099C42.9288 97.7842 43.2059 97.215 43.5415 96.7286C43.5653 96.6941 43.5946 96.6189 43.628 96.641C43.663 96.6642 43.6269 96.7336 43.615 96.7773C43.5769 96.9171 43.5274 97.0528 43.4788 97.1884C43.0184 98.4743 42.4254 99.6931 41.8854 100.937C41.8292 101.067 41.7674 101.201 41.7211 101.336C41.6669 101.495 41.8307 101.02 41.8854 100.862C42.213 99.9141 42.6155 99.0005 42.9578 98.0618" stroke="#E1BE8C" stroke-width="4" stroke-linecap="round"/>
<path d="M48.6787 96.9232C49.1826 96.398 49.6344 95.8094 50.1403 95.2884C50.165 95.2629 50.2501 95.2119 50.2332 95.2446C50.1112 95.4807 49.9576 95.6943 49.816 95.9161C49.0244 97.1558 48.1985 98.3708 47.4636 99.6552C47.3163 99.9127 47.1458 100.212 47.0874 100.524C47.0778 100.575 47.0827 100.57 47.109 100.509C47.3103 100.047 47.5065 99.5921 47.7317 99.1419C48.3247 97.9567 50.2706 94.5187 49.5543 95.6144C48.9515 96.5366 48.2958 97.41 47.6733 98.3148C46.967 99.3415 46.3987 100.454 45.7859 101.55C44.7502 103.403 47.5203 97.6239 48.5641 95.7774C49.2405 94.5808 49.9158 93.2744 50.7219 92.1744C50.7803 92.0946 50.6517 92.3661 50.6073 92.4566C50.2317 93.222 49.8363 93.9736 49.4095 94.7045C48.7587 95.8191 48.0409 96.8788 47.3598 97.9693C47.2934 98.0757 47.0525 98.4729 46.9663 98.6067C46.9359 98.654 46.9043 98.7004 46.8712 98.7454C46.8301 98.8011 46.7944 98.8517 46.8301 98.7381C47.118 97.8228 47.5222 96.915 47.9025 96.0474C48.2897 95.1644 48.5231 94.6852 48.9663 93.8433C49.1139 93.5629 49.2686 93.2874 49.4225 93.0113C49.5478 92.7864 49.7299 92.5923 49.803 92.3399C49.8642 92.1284 49.544 92.6765 49.4268 92.8556C48.7723 93.8559 48.1336 94.9191 47.5371 95.955C46.4613 97.8234 45.4431 99.6925 44.4281 101.604C43.5644 103.23 42.7947 104.996 41.8487 106.569C41.5992 106.984 42.2183 105.657 42.4217 105.212C42.9489 104.056 43.9587 101.888 44.4627 100.804C45.509 98.5519 46.4878 96.2284 47.6279 94.0331C48.1854 92.9597 46.6973 96.2903 46.1664 97.3806C45.1592 99.4488 44.0933 101.491 43.0033 103.506C42.9154 103.669 42.8441 103.814 42.9406 103.531C43.103 103.053 43.4309 102.21 43.5784 101.837C44.5388 99.4115 45.6489 97.0611 46.5815 94.6218C46.6273 94.5021 46.7467 94.1398 46.681 94.2472C46.3847 94.7311 46.1241 95.2415 45.8421 95.736C44.1876 98.6367 42.5345 101.538 41.1071 104.591C40.8648 105.11 40.8029 105.252 40.625 105.693C40.5626 105.848 40.543 105.897 40.6272 105.718C41.6945 103.447 42.6454 101.105 43.6368 98.7916C44.0162 97.9061 44.3433 97.1412 44.7308 96.281C44.8267 96.0681 45.064 95.413 45.0291 95.6485C44.9839 95.954 44.7729 96.1968 44.6443 96.4707C43.9368 97.9772 43.2361 99.4878 42.519 100.988C41.9407 102.198 40.0811 105.75 40.7093 104.572C41.7402 102.639 42.6477 100.619 43.5092 98.5848C44.0327 97.3489 44.6012 96.0909 45.0421 94.8116C45.055 94.7742 45.0904 94.6635 45.068 94.6948C44.986 94.8099 44.9249 94.9423 44.8583 95.0694C43.9398 96.824 43.0773 98.6204 42.2098 100.407C41.2087 102.469 40.1684 104.532 39.3602 106.703C39.2325 107.046 39.2414 107.058 39.3126 106.878C39.8136 105.615 40.3345 104.363 40.8499 103.107C41.8544 100.659 42.8038 98.1861 43.7751 95.7214C43.8666 95.4893 44.1686 94.8076 44.0605 95.0305C43.7229 95.727 43.3844 96.4173 43.0357 97.1081C41.8649 99.4276 40.6838 101.739 39.6196 104.124C39.394 104.63 39.2166 105.062 39.0056 105.56C38.9887 105.6 38.9413 105.721 38.9537 105.679C39.042 105.381 39.1817 105.105 39.2996 104.82C40.1409 102.788 41.0033 100.768 41.8055 98.7162C42.2238 97.6461 42.3496 97.2937 42.7179 96.2883C42.9956 95.53 43.1239 95.2048 42.5903 96.2421C41.439 98.4804 40.3263 100.744 39.2434 103.025C39.1136 103.298 38.9855 103.573 38.8564 103.847C38.8082 103.949 38.7971 104.089 38.7116 104.153C38.6316 104.213 38.7956 103.959 38.837 103.862C39.2366 102.919 39.268 102.838 39.7299 101.718C40.591 99.6308 41.4474 97.5406 42.3374 95.4684C42.4489 95.2087 42.5661 94.9289 42.6941 94.6729C42.8569 94.3473 42.3925 95.3386 42.2357 95.6679C41.1412 97.9676 40.0275 100.257 38.971 102.579C38.8901 102.757 38.6453 103.289 38.7353 103.117C38.9956 102.619 39.2017 102.042 39.4207 101.526C39.9874 100.19 40.5643 98.8613 41.1504 97.5363C41.2233 97.3714 41.3666 97.2242 41.3666 97.04C41.3666 96.9929 41.3294 97.1245 41.3104 97.1665C41.1225 97.5807 41.0862 97.6559 40.8585 98.1348C40.4781 98.9346 40.0762 99.7259 39.7342 100.548C39.2934 101.608 40.7482 98.5039 41.2152 97.4584C41.4901 96.8431 41.9367 96.0253 42.0584 95.3176C42.0912 95.1274 41.9008 95.662 41.8206 95.8333C41.3352 96.871 40.8302 97.8966 40.3223 98.9205C40.1219 99.3246 39.7877 99.9937 39.5656 100.436C39.5095 100.548 39.3817 100.895 39.3905 100.767C39.4026 100.589 39.5151 100.438 39.585 100.278C39.9841 99.3632 40.4121 98.4646 40.8217 97.5558C41.2085 96.6976 41.5739 95.8304 41.933 94.9575C41.9891 94.8213 42.1112 94.4925 42.093 94.8602C42.0786 95.1519 42.0287 95.4418 41.972 95.7263C41.9587 95.7926 41.9287 95.8577 42.0001 95.7652C42.3 95.3763 42.5649 94.9422 42.8368 94.5294C43.4216 93.6413 43.9923 92.7417 44.5708 91.8484C44.6807 91.6787 44.9521 91.2603 45.0897 91.0602C45.1144 91.0243 45.3232 90.6885 45.1913 91.0091C44.7486 92.0851 44.1957 93.1001 43.7405 94.1693C43.7021 94.2595 43.5903 94.5259 43.6497 94.4515C43.8831 94.1598 44.0697 93.7885 44.2897 93.4833C44.4889 93.2069 44.8087 92.7864 45.0183 92.515C45.149 92.3458 45.2436 92.0766 45.4399 92.0382C45.6203 92.0029 45.1139 93.661 45.081 93.746C44.3699 95.5869 45.3498 93.0107 44.7567 94.5391C44.7399 94.5824 44.7172 94.7168 44.7437 94.6802C45.5772 93.5322 46.198 92.204 47.0485 91.0627C47.1934 90.8683 47.4565 90.5265 47.6669 90.3498C47.8334 90.2099 47.7781 90.3522 47.7231 90.5201C47.2117 92.0805 46.452 93.5575 45.8291 95.0646C45.6967 95.385 45.2796 96.1364 45.9026 95.556C47.2917 94.2621 48.4841 92.7265 49.8332 91.3838C49.861 91.3561 51.2123 90.0227 51.3575 90.3109C51.3981 90.3914 51.3673 90.4987 51.3467 90.5883C51.2939 90.8184 51.2128 91.0393 51.1391 91.2621C50.7558 92.4213 50.3235 93.5638 49.8505 94.6802C49.3912 95.7645 49.4944 95.461 49.0592 96.3977C48.9815 96.565 48.7338 96.9853 48.8949 96.933C49.0074 96.8964 49.0907 96.787 49.1781 96.6994C49.3666 96.5107 49.5452 96.3096 49.7208 96.1058C50.4627 95.2447 51.1608 94.3355 51.8786 93.4492C51.9144 93.405 52.346 92.8683 52.4775 92.7315C52.6118 92.5918 52.5804 92.6715 52.5229 92.858C52.0867 94.2727 51.4373 95.634 50.7673 96.9232C50.6925 97.0671 50.3994 97.4099 50.5381 97.3514C50.6945 97.2854 51.122 96.5209 51.1672 96.4513C51.7344 95.5784 52.1941 94.6236 52.765 93.7557C53.1342 93.1945 51.4397 96.109 51.7056 95.4782C51.9796 94.8282 52.3495 94.2136 52.7066 93.6195C52.8855 93.322 53.0137 93.1236 53.1953 92.8435C53.2203 92.8047 53.348 92.5642 53.418 92.5199C53.6075 92.3999 53.2709 92.9904 53.2709 93.2351C53.2709 93.4981 53.7474 93.0082 53.565 93.5271C53.4661 93.8083 53.365 94.1841 53.1499 94.3858C53.0656 94.4649 52.888 94.586 52.845 94.707C52.7668 94.9271 53.0179 94.2674 53.1542 94.0866C53.2494 93.9603 53.3504 93.849 53.4482 93.729C53.5007 93.6646 53.62 93.6359 53.6904 93.5757C53.7825 93.4969 53.8401 93.3779 53.9563 93.3324C54.2044 93.2354 54.4412 93.1388 54.6547 92.9627C54.8467 92.8042 54.8665 92.644 54.9833 92.4469C55.0256 92.3755 55.0819 92.2164 55.1433 92.172C55.6173 91.8291 54.1308 92.745 53.6817 93.1281C53.0833 93.6386 52.546 94.2493 52.0559 94.887C50.8565 96.4474 49.7747 98.1297 48.6701 99.7745C47.7155 101.196 46.9063 102.737 46.028 104.219C45.9189 104.403 45.8416 104.531 45.6907 104.662C45.164 105.118 44.7801 105.756 44.3632 106.328C43.7177 107.215 43.0504 108.08 42.4087 108.97C42.1807 109.287 41.9555 109.662 41.6563 109.902C41.4355 110.08 41.9687 109.399 42.1622 109.184C42.2981 109.034 42.4565 108.848 42.6249 108.747C42.7984 108.642 42.9374 108.362 43.0746 108.202C43.2351 108.014 43.3687 107.867 43.5611 107.715C43.7903 107.534 43.9309 107.236 44.1254 107.014C44.3496 106.759 44.6261 106.58 44.8605 106.341C44.9582 106.241 45.0367 106.13 45.1372 106.032C45.2525 105.919 45.4596 105.871 45.6042 105.813C45.7198 105.766 45.8759 105.806 45.9545 105.691C46.02 105.595 46.1176 105.499 46.1448 105.377C46.1881 105.182 46.3146 105.042 46.4777 104.976C46.729 104.873 47.1469 104.293 47.1609 104.017C47.1742 103.756 47.3097 103.634 47.3858 103.394C47.4649 103.145 47.5383 102.911 47.6366 102.669C47.7597 102.367 48.0686 102.115 48.1252 101.784C48.1915 101.396 48.3921 101.038 48.523 100.67C48.6186 100.401 48.6706 100.163 48.8387 99.9472C49.1087 99.6 49.3779 99.2634 49.6084 98.8743C49.793 98.5627 49.9103 98.211 50.0992 97.9061C50.2325 97.6909 50.299 97.4441 50.4386 97.2346C50.6038 96.9868 51.0441 96.0289 50.7067 95.7896C50.2547 95.4689 49.577 95.4756 49.0679 95.4733C48.4438 95.4705 47.857 95.5712 47.2755 95.8212C46.2607 96.2574 45.3025 96.9597 44.4281 97.6774C43.3658 98.5493 42.3852 99.5786 41.4228 100.582C39.6134 102.469 37.8885 104.458 36.2165 106.499C35.8559 106.939 35.5157 107.432 35.1312 107.849C34.9947 107.997 34.7469 108.064 34.569 108.095C34.0519 108.182 33.6225 107.693 33.5875 107.121C33.5558 106.605 33.7778 106.082 34.1539 105.788C34.3741 105.616 34.5812 105.536 34.7463 105.282C34.8956 105.053 34.9657 104.76 35.1333 104.548C35.2752 104.368 35.4916 104.338 35.6241 104.149C35.7071 104.03 35.838 103.978 35.9268 103.842C36.0244 103.693 36.0895 103.49 36.2079 103.363C36.4824 103.069 36.8916 102.727 37.0446 102.331C37.1658 102.018 37.4573 101.683 37.6738 101.448C37.8866 101.217 38.0284 100.891 38.171 100.602C38.3173 100.305 38.5131 100.031 38.6683 99.7355C38.826 99.4352 39.0302 99.1912 39.2434 98.9376C39.5223 98.6059 39.5777 98.1281 39.9029 97.8185C40.2613 97.4772 40.5004 97.0312 40.798 96.6191C40.894 96.4861 41.0303 96.3914 41.1288 96.2566C41.3053 96.015 41.4497 95.7631 41.5741 95.483C41.7913 94.9942 42.2772 94.5407 42.6465 94.2082" stroke="#FFDCA0" stroke-width="4" stroke-linecap="round"/>
<path d="M34.863 103.535C34.834 103.535 34.3348 103.526 34.4046 103.36C34.4629 103.222 34.6866 103.073 34.783 102.947C34.9026 102.79 34.9863 102.565 35.0987 102.375C35.162 102.268 35.2666 102.203 35.33 102.1C35.4224 101.95 35.5091 101.801 35.6241 101.672C35.822 101.449 35.9916 101.157 36.2424 100.996C36.3046 100.956 36.3952 100.791 36.437 100.723C36.4709 100.668 36.6099 100.379 36.5732 100.475C36.4627 100.765 36.1947 100.832 36.0348 101.056C35.9697 101.148 36.1784 100.882 36.2251 100.777C36.2843 100.644 36.2804 100.493 36.3462 100.363C36.3992 100.259 36.5234 100.155 36.5927 100.042C36.636 99.9716 36.7065 99.8895 36.7527 99.8377C36.8136 99.7691 36.9208 99.7446 36.984 99.6576C37.0483 99.5692 37.2689 99.2923 37.2759 99.1905C37.2968 98.8851 37.5234 98.5834 37.704 98.3683C37.7903 98.2653 37.8375 98.0364 37.9007 97.906C37.9804 97.7415 38.0509 97.5905 38.1493 97.4389C38.2265 97.3202 38.3757 97.267 38.465 97.1665C38.5416 97.0803 38.6383 97.0257 38.7158 96.9232C38.7696 96.852 38.8925 96.5634 38.9082 96.4658C38.9348 96.3013 39.0238 96.172 39.105 96.0376C39.2726 95.7603 39.5029 95.5352 39.6801 95.2592C39.7804 95.1028 39.9044 94.9977 39.9828 94.8213C40.0391 94.6945 40.1428 94.4965 40.2249 94.3931C40.3395 94.2487 40.4255 94.0422 40.5255 93.8798C40.6631 93.6561 40.8792 93.4509 41.0898 93.3324" stroke="#FFDCA0" stroke-linecap="round"/>
<path d="M47.9709 105.996C48.2453 105.472 48.4761 104.914 48.7277 104.376C48.816 104.187 48.8535 104.006 48.9223 103.807C49.0009 103.579 48.9678 103.393 49.1082 103.174C49.2489 102.955 49.4066 102.732 49.5255 102.498C49.62 102.312 49.7135 102.138 49.8001 101.948C49.826 101.891 49.8878 101.715 49.8779 101.778C49.8222 102.133 49.6319 102.497 49.4887 102.814C49.2763 103.286 48.9537 103.661 48.8358 104.191C48.7585 104.539 48.9039 103.714 48.9244 103.632C49.0509 103.128 49.1696 102.518 49.4022 102.065C49.5064 101.862 49.6228 101.674 49.7201 101.464C49.8068 101.277 49.8462 101.064 49.9946 100.917C50.0594 100.852 50.0206 101.324 50.0163 101.36C49.9706 101.728 49.7767 102.064 49.6314 102.391C49.4957 102.696 49.5512 102.605 49.6487 102.318C49.7842 101.919 49.9066 101.506 50.0163 101.097C50.0619 100.927 50.0135 101.413 50.0357 101.501C50.0779 101.667 50.2212 101.219 50.2757 101.058C50.3379 100.874 50.4652 100.748 50.5568 100.586C50.8514 100.065 51.0298 99.4636 51.3654 98.9462C51.5608 98.645 51.7914 98.3451 51.9102 97.9926C52.0332 97.6279 52.2257 97.075 52.5026 96.8346C52.6524 96.7046 52.7355 96.5815 52.9307 96.5815C53.0338 96.5815 52.569 97.3354 52.4767 97.4427C52.3263 97.6177 52.1618 97.7974 52.0205 97.9828C51.9609 98.0611 51.9501 98.1947 51.9102 98.2894C51.7845 98.588 51.6657 98.8885 51.5211 99.1652C51.3795 99.4359 51.1892 99.6146 51.0843 99.9096" stroke="#FFDCA0" stroke-linecap="round"/>
<path d="M53.5432 96.1787C53.9529 95.7299 54.5099 95.4227 54.8859 94.9526C54.9629 94.8562 55.1163 94.7978 55.2167 94.7337C55.3983 94.6176 55.5517 94.353 55.6534 94.1547C55.9562 93.5641 56.2982 93.0883 56.8858 92.8312C57.3828 92.6137 56.9403 93.438 56.8123 93.5951C56.5835 93.8759 56.4127 94.2009 56.1507 94.4466C56.0195 94.5696 55.8637 94.7306 55.7528 94.8553C55.6012 95.0259 55.3537 95.126 55.2556 95.3467" stroke="#FFDCA0" stroke-linecap="round"/>
<path d="M57.2015 92.8946C57.1388 93.033 57.0252 93.3545 56.8513 93.3763C56.8077 93.3817 56.7737 93.4664 56.7345 93.4444C56.6796 93.4135 56.8326 93.2542 56.8426 93.2449C57.0253 93.0744 57.1967 92.9438 57.3572 92.7632" stroke="#FFDCA0" stroke-linecap="round"/>
<path d="M56.9292 95.1716C57.0266 94.829 57.038 94.4343 57.2708 94.1985C57.3079 94.1609 57.3509 94.138 57.3573 94.0769C57.3642 94.0105 57.455 94.0325 57.4957 93.9893C57.6092 93.8686 57.7255 93.7777 57.8048 93.6171C57.8926 93.4394 57.9917 93.2393 58.0967 93.0916C58.1963 92.9515 57.9926 93.2724 57.9605 93.3519C57.9133 93.4688 57.8374 93.5708 57.7465 93.639" stroke="#E1BE8C" stroke-opacity="0.85" stroke-linecap="round"/>
<path d="M55.5669 95.6971C55.6385 95.6342 55.818 95.4892 55.8696 95.3906C55.9365 95.2626 56.1194 95.1946 56.2285 95.106C56.4019 94.9651 56.647 94.8534 56.7733 94.6559C56.8664 94.5105 56.898 94.3553 57.0047 94.2253C57.1366 94.0644 57.2245 93.8319 57.4003 93.7047C57.4979 93.6341 57.8176 93.4264 57.8241 93.2887C57.8298 93.1666 58.0804 92.6847 58.1743 92.6318" stroke="#E1BE8C" stroke-opacity="0.85" stroke-linecap="round"/>
<path d="M55.1389 95.6095C55.4562 95.3134 55.7052 94.8136 55.8697 94.3931C55.9271 94.2463 56.057 94.1107 56.1529 93.9892C56.3404 93.7519 56.5103 93.5166 56.7129 93.2886C56.9723 92.9967 57.205 92.6947 57.4264 92.369C57.5777 92.1463 57.8403 91.8435 58.0966 91.8435" stroke="#FFDCA0" stroke-opacity="0.85" stroke-linecap="round"/>
<path d="M48.3398 105.299L55.3496 95.7512" stroke="#FFDCA0" stroke-width="0.5"/>
<path d="M54.9834 95.6971C54.6377 96.1347 54.2568 96.5324 53.9542 97.0108C53.7786 97.2885 53.6422 97.6004 53.4267 97.8429C53.2019 98.0958 52.9479 98.2999 52.7651 98.597C52.4725 99.0725 52.2462 99.5906 51.8786 100.023C51.7588 100.163 51.6825 100.303 51.5975 100.47C51.5461 100.572 51.4582 100.594 51.4397 100.709C51.4185 100.84 51.2498 100.91 51.1695 100.996C51.0456 101.128 50.8524 101.229 50.7803 101.412C50.7351 101.526 50.6222 101.571 50.5857 101.653" stroke="#FFDCA0" stroke-opacity="0.85" stroke-linecap="round"/>
<path d="M52.804 98.4121C53.2248 98.245 53.4535 97.9142 53.6126 97.4585C53.7066 97.1892 54.0003 96.9009 54.2007 96.7238C54.2768 96.6565 54.3934 96.4208 54.3996 96.3102C54.4017 96.2719 54.5208 96.0376 54.4342 96.0961C54.0758 96.338 53.8066 96.7812 53.5239 97.1227C53.3595 97.3215 53.1973 97.4775 53.018 97.6482C52.6713 97.9784 52.5141 98.3873 52.2418 98.8014C52.0809 99.0461 51.9196 99.2754 51.7921 99.5263C51.7033 99.7012 51.4778 99.841 51.3554 100.008C51.154 100.283 51.0231 100.623 50.7824 100.859C50.6984 100.942 50.6517 101.11 50.6268 101.237C50.6049 101.348 50.4711 101.861 50.5662 101.519C50.6109 101.358 50.724 101.075 50.8581 100.986C50.9869 100.901 51.174 100.755 51.2646 100.624C51.3473 100.504 51.4795 100.366 51.55 100.208C51.7046 99.8595 52.0091 99.7506 52.1727 99.4193C52.4074 98.9438 52.7053 98.5466 52.9207 98.0618" stroke="#FFDCA0" stroke-linecap="round"/>
<path d="M54.7887 95.6534C54.5799 95.833 54.4119 96.0419 54.2352 96.2567C54.2058 96.2924 54.1603 96.4116 54.1098 96.3954C54.0056 96.3619 54.1929 95.6294 54.2071 95.5609C54.302 95.1016 54.3741 94.6747 54.6719 94.3397C55.3105 93.6211 55.6189 92.6174 55.8783 91.6685" stroke="#FFDCA0" stroke-linecap="round"/>
<path d="M55.3496 95.7513L58.3011 92.0151" stroke="#FFDCA0" stroke-width="0.5"/>
<path d="M40.5922 93.2605L31 106.545" stroke="#FFDCA0" stroke-width="0.5"/>
<path d="M34.2404 103.754C34.4325 103.522 34.9424 102.801 34.6944 102.952C34.5632 103.031 34.4237 103.322 34.3399 103.443C34.2265 103.607 34.1149 103.777 33.9939 103.934C33.8625 104.106 34.0842 103.421 34.0934 103.394C34.1129 103.337 34.3678 102.718 34.2404 102.772C34.0134 102.867 34.2347 102.586 34.2793 102.519C34.3508 102.41 34.5007 102.222 34.6296 102.222" stroke="#FFDCA0" stroke-linecap="round"/>
<path d="M67.5242 55.8991L70.8446 50.9176" stroke="#FFDCA0" stroke-width="0.5"/>
<path d="M72.3203 64.2017L80.8058 60.0504" stroke="#FFDCA0" stroke-width="0.5"/>
<path d="M72.3546 55.9864C72.763 55.3115 73.2017 54.6629 73.6447 54.0161C74.0402 53.4388 74.4347 52.8441 74.8686 52.3005C74.977 52.1648 74.8154 52.3902 74.8079 52.3999C74.4037 52.9249 73.9665 53.4189 73.5661 53.9463C73.4014 54.1632 73.2786 54.4041 73.1452 54.6449C73.0432 54.829 72.9864 54.9267 72.872 55.0983C72.8201 55.1761 72.7023 55.416 72.7023 55.3188C72.7023 55.2771 72.7333 55.243 72.7519 55.207C72.9255 54.8719 73.1122 54.5455 73.2901 54.2133C73.5058 53.8104 74.1544 52.6162 73.8724 52.9635C73.0684 53.9536 72.382 55.101 71.6619 56.1665C71.1409 56.9374 70.6442 57.754 70.0612 58.4706C70.0443 58.4914 69.9958 58.5529 70.0047 58.5265C70.0792 58.3053 70.2436 58.1371 70.3593 57.9396C70.8303 57.1358 71.2662 56.3076 71.7171 55.4896C72.0113 54.9557 72.3264 54.434 72.6043 53.8888C72.6525 53.7943 72.7915 53.5174 72.7175 53.5876C72.4931 53.8004 72.3325 54.0865 72.1503 54.3453C71.6682 55.0302 71.2081 55.7317 70.765 56.4491C70.6193 56.6849 70.2363 57.422 70.3207 57.1509C70.4375 56.7752 70.7144 56.3665 70.8809 56.0268C71.1271 55.5243 71.3564 55.0113 71.6067 54.5114C71.633 54.4588 71.6573 54.4044 71.6895 54.3562C71.7677 54.2388 71.5735 54.6192 71.5101 54.7474C71.1845 55.4061 70.8437 56.0543 70.46 56.6727C70.3695 56.8185 70.2756 56.962 70.1772 57.1012C70.1162 57.1873 69.9528 57.4285 69.9564 57.3185C69.965 57.0557 70.1256 56.8274 70.2296 56.5919C70.3965 56.2141 70.8741 55.1992 71.0327 54.8654C71.3582 54.1798 71.672 53.4715 72.0717 52.8346C72.4338 52.2576 72.1121 52.8654 72.0786 52.9215C71.6343 53.6675 71.1705 54.4001 70.6974 55.1232C70.4624 55.4822 70.236 55.8235 69.9854 56.165C69.9303 56.24 69.8306 56.4632 69.8018 56.3715C69.7731 56.2799 70.0998 55.7852 70.1109 55.7659C70.341 55.3674 70.5807 54.976 70.8119 54.5782C70.9143 54.402 71.0121 54.2203 71.121 54.0487C71.2499 53.8457 70.8869 54.4728 70.7622 54.6791C70.1498 55.6922 69.5403 56.6999 68.9656 57.7409C68.9349 57.7966 68.9047 57.8528 68.8718 57.907C68.7979 58.0289 68.8816 57.836 68.8842 57.8294C69.066 57.371 69.2737 56.9236 69.4872 56.4832C70.0344 55.3548 70.68 54.2834 71.2093 53.1451C71.2173 53.1278 71.2303 53.1102 71.2286 53.0908C71.2221 53.0179 71.1494 53.2073 71.1127 53.2678C70.7367 53.8867 70.3539 54.5002 69.9771 55.1185C69.7433 55.5021 69.5139 55.8895 69.2747 56.269C69.2391 56.3256 69.1397 56.4947 69.1547 56.4273C69.1938 56.2512 69.3 56.0498 69.3658 55.8901C69.6397 55.2254 69.9508 54.587 70.3041 53.9711C70.3386 53.9109 70.6115 53.3598 70.7263 53.3081C70.7431 53.3006 70.7112 53.3453 70.7015 53.3625C70.6236 53.5006 70.4066 53.8541 70.3483 53.9494C69.9835 54.5452 69.5627 55.1322 69.254 55.769C69.1091 56.068 69.5165 55.1554 69.65 54.8499C69.8309 54.4362 69.9977 53.9662 70.2558 53.6031C70.3184 53.5151 70.1509 53.7953 70.0971 53.8904C69.814 54.391 69.5331 54.8931 69.243 55.3886C69.0406 55.7342 68.8388 56.0887 68.6041 56.4087C68.494 56.5588 68.4581 56.582 68.5765 56.3559C68.9626 55.6189 69.3148 54.8652 69.6776 54.114C69.6913 54.0856 69.706 54.0579 69.7204 54.0301C69.7504 53.9723 69.7293 54.0153 69.719 54.0394C69.5795 54.3671 69.4305 54.6816 69.2471 54.9819C69.0894 55.2402 68.9134 55.4839 68.7504 55.738C68.6817 55.8451 68.6154 55.9892 68.531 56.0842C68.481 56.1404 68.5801 55.9343 68.6152 55.8653C68.8033 55.4948 69.032 55.154 69.2389 54.7971C69.2598 54.761 69.5868 54.1764 69.3713 54.499C69.0951 54.9126 68.7845 55.2962 68.5158 55.7163C68.4944 55.7497 68.283 56.1342 68.3999 55.8653C68.5168 55.5966 68.67 55.3564 68.858 55.1449C68.8674 55.1343 68.8998 55.1087 68.8911 55.12C68.8581 55.1634 68.8146 55.2041 68.7807 55.2458C68.7496 55.2841 68.4344 55.7114 68.4109 55.6728C68.3537 55.5787 68.1345 55.9681 68.0729 56.0268C67.986 56.1095 68.1279 55.9242 68.1446 55.8886C68.1993 55.7724 68.2509 55.6572 68.3006 55.5393C68.3851 55.3385 68.4807 55.1323 68.5986 54.9524C68.8011 54.6431 69.0284 54.3611 69.2237 54.0425C69.2739 53.9606 69.301 53.8639 69.3644 53.7926C69.443 53.7041 69.529 53.6242 69.6059 53.5333C69.7316 53.3846 69.7719 53.1786 69.8708 53.0116C70.0167 52.7653 70.2007 52.5565 70.3662 52.3238C70.4572 52.1957 70.5165 52.0366 70.5966 51.8999C70.6509 51.8073 70.7474 51.7534 70.8284 51.695C70.8472 51.6815 70.8931 51.6467 70.8919 51.6717C70.8884 51.7422 70.8478 51.804 70.8229 51.8689C70.7604 52.0319 70.5698 52.5264 70.5263 52.6374C70.2455 53.3537 69.9288 54.0505 69.6473 54.766C69.5837 54.9277 69.6813 54.8462 69.766 54.7676C70.0529 54.5011 70.1938 54.053 70.3689 53.6963C70.5014 53.4266 70.9291 52.6371 70.7815 52.8967C70.5803 53.2507 70.4074 53.6283 70.2268 53.996C70.2119 54.0264 70.197 54.0568 70.1827 54.0876C70.144 54.1707 70.1813 54.1007 70.202 54.0612C70.4648 53.5584 70.7263 53.0574 71.0147 52.5722C71.2524 52.1723 71.502 51.7814 71.7474 51.3876C71.804 51.2968 71.9429 51.0096 71.9199 51.1174C71.8774 51.3168 71.7771 51.5379 71.7005 51.7167C71.4891 52.21 71.2426 52.6824 70.983 53.1451C70.9731 53.1628 70.8161 53.3873 70.8202 53.437C70.8207 53.4443 70.8343 53.4384 70.8395 53.4339C70.9279 53.3572 71.0636 53.1858 71.121 53.1141C71.6652 52.4332 72.1852 51.7344 72.8071 51.1391C72.8541 51.0942 73.0234 50.8867 72.8996 51.1267C72.5605 51.7839 72.1844 52.4197 71.8274 53.0644C71.3846 53.8643 70.941 54.6642 70.5125 55.474C70.2601 55.951 69.9611 56.4519 69.8101 56.9878C69.7375 57.2454 70.0296 56.8756 70.0392 56.8652C70.6476 56.2012 71.1954 55.4706 71.7447 54.7459C72.4225 53.8515 73.0852 52.9412 73.8089 52.0924C73.9367 51.9426 74.2057 51.639 74.3857 51.4931C74.4221 51.4636 74.531 51.4054 74.5154 51.4528C74.4857 51.5427 74.4358 51.6226 74.3912 51.7043C74.1445 52.1561 73.5069 53.244 73.3287 53.5488C72.5202 54.9321 71.7006 56.307 70.8892 57.6881C70.4867 58.373 70.076 59.0567 69.6997 59.7608C69.6214 59.9073 69.5774 59.9907 69.7094 59.8074C69.9394 59.488 70.4477 58.7224 70.5745 58.5327C72.7369 55.3 74.9207 52.0897 77.1385 48.9049C77.3577 48.5901 77.962 47.6083 77.8022 47.9656C77.7552 48.0706 77.6949 48.1673 77.6394 48.2668C77.2155 49.0264 76.8084 49.7307 76.3603 50.487C75.3763 52.1477 74.3627 53.7835 73.3066 55.3871C72.9654 55.9053 72.598 56.5405 72.189 57.0127C72.1721 57.0322 72.1367 57.0833 72.1283 57.0577C72.1137 57.0137 72.1446 56.9653 72.1586 56.9211C72.1916 56.817 72.2295 56.7149 72.269 56.6137C72.5373 55.9255 72.8507 55.2603 73.0969 54.5611C73.1883 54.3016 73.333 54.0117 72.981 54.1171C72.4422 54.2784 71.9871 54.7545 71.5887 55.1713C71.5573 55.2042 71.4756 55.3074 71.488 55.1759C71.5131 54.9098 71.6231 54.6414 71.7074 54.3965C71.8907 53.8642 72.1262 53.319 72.2497 52.7632C72.2676 52.6827 72.2196 52.8024 72.2055 52.8222C72.1093 52.9575 72.3714 52.7141 72.3904 52.7011C72.5114 52.6186 72.6476 52.4901 72.7837 52.4402C72.8892 52.4016 72.7239 52.6823 72.6747 52.7942C72.4133 53.3888 72.1158 53.9702 71.9006 54.5891C71.8934 54.6098 71.9378 54.5708 71.9516 54.5549C72.2639 54.1958 72.5634 53.824 72.8789 53.4681C73.4154 52.8628 73.9747 52.2916 74.5513 51.7353C74.6234 51.6658 75.3871 50.9353 75.5034 50.841C75.582 50.7773 75.6618 50.69 75.7586 50.6842C75.804 50.6815 75.8287 50.7727 75.818 50.8224C75.7751 51.0215 75.6879 51.2057 75.6069 51.3891C75.2572 52.1809 74.8001 52.9993 74.3898 53.7382C73.5274 55.2916 72.6325 56.8227 71.7419 58.3557C71.4516 58.8554 71.1478 59.3497 70.874 59.8617C70.8479 59.9104 70.7776 60.0497 70.8215 60.0217C70.9611 59.9326 71.3454 59.537 71.3707 59.5108C72.1203 58.7347 72.8027 57.8853 73.4943 57.0453C74.1582 56.2388 74.827 55.4373 75.4896 54.6294C75.6232 54.4664 75.9174 54.0049 76.1271 53.8655C76.1419 53.8556 76.1124 53.901 76.1022 53.9168C75.9579 54.14 75.7981 54.35 75.6469 54.5673C74.155 56.7107 72.7013 58.8988 71.3169 61.1318C71.2336 61.2662 71.1509 61.4012 71.0713 61.5386C71.056 61.5649 71.0095 61.6401 71.0327 61.6224C71.0747 61.5901 71.1008 61.5372 71.132 61.492C72.0254 60.1947 72.8371 58.8276 73.7234 57.5235C74.6145 56.212 75.5472 54.9379 76.4541 53.6404C76.5968 53.4362 76.7364 53.2294 76.8777 53.024C76.9425 52.9298 77.0061 52.8345 77.0723 52.7414C77.1018 52.6999 77.1689 52.5673 77.1647 52.6203C77.1589 52.6935 77.1014 52.749 77.0667 52.8113C76.7582 53.3655 76.291 54.1553 76.0001 54.6403C75.1007 56.1399 74.167 57.6079 73.2018 59.0544C73.1288 59.1638 73.0533 59.2713 72.9838 59.3835C72.9726 59.4016 72.944 59.4562 72.9603 59.4441C73.0152 59.4034 73.0591 59.3462 73.1052 59.2935C73.8903 58.3958 74.6323 57.4487 75.3957 56.5283C76.3008 55.4371 77.2087 54.3429 78.1775 53.3221C78.2879 53.2058 78.4 53.0908 78.5197 52.9868C78.5581 52.9534 78.6466 52.8577 78.6494 52.9122C78.6549 53.0186 78.5768 53.1095 78.5308 53.2026C78.4174 53.4318 78.2969 53.6565 78.172 53.878C76.6104 56.6449 74.8156 59.237 73.2487 61.9981C73.1722 62.1329 73.1007 62.2712 73.0321 62.4111C72.994 62.4887 72.9429 62.5631 72.9286 62.6502C72.9239 62.6789 72.9805 62.6335 72.9989 62.613C73.094 62.5069 73.1783 62.3891 73.2653 62.2745C75.0821 59.8791 72.2831 63.5288 74.7858 60.253C75.1482 59.7787 75.5125 59.3061 75.8787 58.8355C75.9391 58.7577 77.0683 57.2904 77.3689 56.9909C77.7855 56.5759 76.8532 58.1025 76.552 58.629C76.0515 59.5039 75.5462 60.3771 75.0218 61.2342C75.0034 61.2643 74.8576 61.5087 74.7872 61.5945C74.7461 61.6446 74.8472 61.4757 74.8811 61.419C75.799 59.8813 76.6946 58.3317 77.5676 56.7612C77.6226 56.6622 77.6839 56.5673 77.7332 56.4646C77.786 56.3545 77.7496 56.3321 77.6449 56.4118C77.3393 56.6444 76.8674 57.1519 76.6514 57.39C76.0885 58.0104 75.4649 58.7605 74.9321 59.4115C74.5274 59.9059 74.1402 60.4795 73.7027 60.9439C73.5108 61.1475 73.8638 60.3765 73.98 60.1102C74.4949 58.9304 75.065 57.7885 75.691 56.6789C75.949 56.2216 76.2404 55.7394 76.5231 55.2924C76.7188 54.9829 76.5895 55.2128 76.4706 55.4213C75.9981 56.2499 75.5009 57.0606 74.9928 57.862C74.8471 58.0918 74.6987 58.3194 74.5499 58.5467C74.4318 58.7271 74.3436 58.9423 74.187 59.0808C74.1626 59.1023 74.2194 59.0212 74.2367 58.9923C74.3956 58.7254 74.5558 58.4595 74.7169 58.1942C75.1737 57.4417 75.6468 56.7044 76.1422 55.9833C76.4387 55.5519 76.7611 55.0192 77.1261 54.6418C77.4225 54.3353 76.6028 55.3305 76.3423 55.6759C75.7405 56.4739 75.1617 57.2907 74.5871 58.1135C74.5114 58.222 74.3026 58.5308 74.1842 58.6724C74.1638 58.6969 74.1006 58.7603 74.1097 58.7283C74.1273 58.6666 74.157 58.61 74.1842 58.5529C74.4087 58.0815 74.7168 57.4943 74.9473 57.0655C75.5276 55.9856 76.1427 54.9349 76.7673 53.8873C76.9662 53.5536 77.2291 53.1798 77.3882 52.8098C77.436 52.6986 77.2531 53.0044 77.1854 53.1016C76.889 53.5273 76.5611 53.9836 76.265 54.3996C75.6109 55.3188 74.9591 56.2399 74.3167 57.1695C74.1979 57.3414 74.0802 57.5141 73.9621 57.6865C73.8756 57.8127 73.8115 57.9672 73.6958 58.0591C73.5345 58.1872 73.8231 57.6369 73.9138 57.4397C74.3805 56.4243 74.9003 55.4357 75.4316 54.4617C75.6166 54.1227 75.824 53.793 75.996 53.4448C76.1194 53.1949 75.6766 53.8896 75.5227 54.1171C74.8998 55.038 74.2729 55.9555 73.6406 56.8683C73.3928 57.226 73.2628 57.4116 73.0334 57.7378C72.9925 57.796 72.872 57.9671 72.8955 57.8977C73.0708 57.3774 73.372 56.8579 73.6323 56.3932C73.9949 55.7458 74.4058 55.1403 74.7996 54.5176C74.9004 54.3584 75.1268 54.0602 75.1832 53.8469C75.2073 53.7561 75.0725 53.9898 75.0204 54.0643C74.9753 54.1287 74.4778 54.8448 74.4657 54.8623C74.1788 55.279 73.4126 56.5911 73.5992 56.1075C74.0018 55.0641 74.7716 54.2499 75.2302 53.2383C75.2418 53.2126 75.2813 53.1462 75.2578 53.1575C75.2182 53.1766 75.1989 53.2283 75.1722 53.2662C75.0995 53.3692 75.0274 53.4727 74.9597 53.5799C74.3452 54.553 73.7998 55.5768 73.2611 56.6043C72.8389 57.4098 72.4212 58.2202 72.0096 59.0326C71.9328 59.1842 71.8745 59.3163 71.833 59.4798" stroke="#FFDCA0" stroke-linecap="round"/>
<path d="M80.6999 58.1383C80.1578 58.7365 79.415 59.1207 78.7101 59.4208C78.4457 59.5333 78.172 59.6361 77.9015 59.7297C77.6778 59.8072 77.4474 59.8398 77.2295 59.9409C77.026 60.0354 76.8274 60.1406 76.621 60.2281C76.3026 60.3632 76.0647 60.4295 75.8511 60.7467C75.5208 61.237 75.232 61.7628 74.9128 62.262C74.8479 62.3636 74.6696 62.5846 74.554 62.6083C74.4127 62.6372 74.3283 62.7057 74.2063 62.793C74.141 62.8398 74.1263 62.8893 74.0435 62.8893C73.9629 62.8893 73.9449 62.8814 73.8945 62.9452C73.8354 63.0199 73.7553 63.1129 73.6585 63.1129C73.625 63.1129 73.5544 63.0947 73.5467 63.1408C73.5377 63.1951 73.4332 63.1572 73.3977 63.175C73.3032 63.2222 73.2209 63.2651 73.1245 63.3085" stroke="#FFDCA0" stroke-linecap="round"/>
<path d="M74.0682 62.2745C74.1092 62.1697 74.4979 61.1637 74.4546 61.1442C74.3911 61.1156 73.9103 62.1486 73.8585 62.2465C73.6941 62.5572 73.8833 62.2401 73.9357 62.141C74.0111 61.9984 74.0874 61.8569 74.1731 61.7218C74.1809 61.7094 74.3914 61.4339 74.3883 61.464C74.3633 61.7092 74.2008 62.0043 74.1041 62.2248C74.1012 62.2313 74.0593 62.3042 74.0889 62.2326C74.1423 62.103 74.2204 61.986 74.3014 61.877C74.3505 61.8109 74.4061 61.75 74.449 61.6783C74.4546 61.669 74.4656 61.6391 74.4656 61.6503C74.4656 61.6904 74.4415 61.7825 74.4518 61.8149C74.4592 61.8381 75.0066 61.1838 75.0175 61.169C75.5288 60.4765 76.0555 59.8088 76.6264 59.177C76.7176 59.0761 76.8445 58.9064 76.9659 58.8401C77.0607 58.7882 76.9179 59.0732 76.872 59.1801C76.4092 60.2585 75.8187 61.2463 75.1831 62.2031C74.3082 63.5202 77.0062 59.6277 78.0063 58.4287C78.0466 58.3803 78.2371 58.0832 78.3181 58.0576C78.3824 58.0372 78.2716 58.1989 78.2408 58.2656C78.128 58.5103 77.9823 58.7979 77.8545 59.0264C77.5887 59.5018 77.289 59.9491 76.9948 60.402C76.8153 60.6784 76.6451 61.0611 76.4277 61.3056C76.2866 61.4644 76.6474 60.9301 76.7699 60.7529C77.2318 60.0849 77.7145 59.4324 78.2077 58.7935C78.6278 58.2493 79.061 57.7177 79.5186 57.213C79.5725 57.1535 79.7354 56.984 79.698 57.0577C79.6257 57.1997 79.262 57.722 79.2399 57.7533C78.6789 58.5426 78.0937 59.3523 77.4047 60.0077C77.3495 60.0601 77.3609 60.0262 77.3909 59.9657C77.5274 59.69 77.6981 59.4347 77.8573 59.1755C77.9431 59.0356 78.0581 58.7354 78.1995 58.6445C78.2258 58.6275 78.165 58.7008 78.147 58.7283C77.9481 59.0327 77.7382 59.3252 77.5178 59.6102C77.4048 59.7564 77.2896 59.9007 77.1701 60.0403C77.17 60.0403 77.0438 60.2129 77.0873 60.0791C77.3466 59.2812 77.8535 58.6126 78.2574 57.907C78.2965 57.8387 78.406 57.6285 78.3678 57.6974C78.2495 57.9104 78.0873 58.105 77.9456 58.2951C77.6482 58.694 77.3543 59.095 77.0652 59.5015C76.9742 59.6295 76.7377 60.0146 76.7589 59.8524C76.7922 59.598 76.9863 59.2665 77.0914 59.0652C77.3639 58.5437 77.6787 58.0573 78.0035 57.5763C78.1142 57.4123 78.2484 57.2435 78.3457 57.0655C78.4625 56.8518 78.0854 57.4728 77.9525 57.6741C77.6982 58.059 77.4382 58.4391 77.1922 58.8308C77.1363 58.9197 76.9914 59.251 76.8914 59.3261C76.7759 59.4127 76.9782 59.0278 77.0431 58.8898C77.3222 58.2967 77.6682 57.747 78.0311 57.2161C78.0834 57.1396 78.1378 57.0649 78.1912 56.9894C78.2269 56.9388 78.296 56.9003 78.296 56.8357C78.296 56.7841 78.231 56.9086 78.2008 56.9475C78.1035 57.073 77.977 57.2438 77.8862 57.3667C77.672 57.6566 77.0933 58.5656 77.2253 58.219C77.3319 57.9391 77.5455 57.6404 77.6917 57.3977C77.9538 56.9624 78.2334 56.542 78.5003 56.1106C78.5951 55.9572 78.8935 55.5332 78.7486 55.6246C78.6173 55.7075 78.5298 55.8577 78.4257 55.9802C78.2178 56.2249 78.0922 56.3774 77.8931 56.6323C77.7414 56.8265 77.5962 57.0252 77.4543 57.2285C77.3967 57.3112 77.4058 57.2743 77.4557 57.171C77.6095 56.8527 77.7919 56.5513 77.9704 56.2503C78.0965 56.0378 78.2706 55.8169 78.3733 55.5858C78.4118 55.4992 78.241 55.7099 78.1801 55.7783C77.9501 56.0372 77.7267 56.3032 77.5013 56.5671C77.451 56.6259 77.4017 56.6859 77.3495 56.7425C77.2632 56.836 77.2529 56.8404 77.3136 56.6975C77.5482 56.1452 77.8431 55.624 78.118 55.0967C78.248 54.8476 78.155 54.9683 78.0615 55.0859C77.8745 55.321 77.7004 55.5689 77.5206 55.8109C77.507 55.8292 77.1625 56.3044 77.3164 56.033C77.4171 55.8551 77.5074 55.6697 77.5923 55.4818C77.6031 55.4579 77.7512 55.152 77.5978 55.3778C77.4765 55.5564 77.3569 55.7402 77.246 55.9274C77.0663 56.2306 77.4773 55.8568 77.4819 55.8529C77.8567 55.5286 78.2041 55.1662 78.5775 54.8406C78.7585 54.6827 78.9719 54.5109 78.8218 54.8933C78.6504 55.3297 78.4013 55.7304 78.1939 56.1448C77.943 56.6462 77.7103 57.1593 77.4737 57.6694C77.3179 58.005 77.9381 57.1213 78.1636 56.8403C78.2993 56.6712 78.4342 56.4985 78.5775 56.3373C78.62 56.2895 78.53 56.4617 78.5003 56.5205C78.4561 56.6077 78.4105 56.6946 78.3706 56.7844C78.3376 56.8585 78.4693 56.6614 78.5168 56.5981C78.6697 56.3943 78.8271 56.1949 78.9749 55.9864C79.0212 55.9212 79.061 55.8501 79.1102 55.7876C79.1488 55.7385 79.1242 55.8157 79.1184 55.8404C78.9487 56.566 78.5912 57.2335 78.2753 57.8868C78.2339 57.9724 78.1918 58.0576 78.1525 58.1445C78.1233 58.2093 78.0259 58.3237 78.0863 58.3495C78.1981 58.3971 78.7425 57.6319 78.7597 57.6104C79.0892 57.1982 79.4016 56.7678 79.7421 56.3668C79.8182 56.2772 80.0129 56.0068 79.996 56.1292C79.9753 56.279 79.7398 56.6096 79.6869 56.7052C79.4376 57.156 79.1788 57.6016 78.9584 58.0715C78.9165 58.1608 78.8015 58.4341 78.8342 58.3402C78.8845 58.1955 78.9666 58.0567 79.0453 57.9318C79.2625 57.5871 79.5102 57.2675 79.7532 56.9459C79.8795 56.7787 80.0033 56.6089 80.134 56.446C80.1734 56.3967 80.2703 56.2555 80.272 56.3217C80.2773 56.5311 79.9273 57.0015 79.8539 57.1229C79.593 57.5542 79.3196 57.9757 79.0605 58.4085C79.0156 58.4835 78.9719 58.5594 78.928 58.6351C78.896 58.6905 78.8825 58.8293 78.83 58.7997C78.7701 58.766 78.8916 58.6652 78.9308 58.6041C79.0768 58.3765 79.1996 58.2225 79.3682 58.0048C79.6089 57.6939 79.8531 57.3901 80.0705 57.0577C80.0863 57.0336 80.2641 56.6808 80.3203 56.6711C80.3316 56.6691 80.3227 56.6977 80.3189 56.7099C80.2843 56.8222 80.176 57.0647 80.1395 57.1415C79.8469 57.7579 79.4998 58.3371 79.1515 58.9146C79.0637 59.0602 78.7788 59.4769 78.8894 59.3525C79.0312 59.1929 79.1722 58.9524 79.2951 58.7842C79.6069 58.3571 79.9187 57.9305 80.2237 57.4971C80.2406 57.4731 80.4505 57.1628 80.519 57.0903C80.5287 57.08 80.5554 57.0582 80.5562 57.0732C80.5585 57.1127 80.5373 57.1496 80.5245 57.1866C80.3332 57.7401 80.072 58.282 79.7697 58.7687C79.7353 58.8241 79.6342 58.9878 79.6538 58.9239C79.7196 58.7092 79.9273 58.4822 80.0402 58.2998C80.1312 58.1527 80.2165 57.9983 80.3134 57.8557C80.3683 57.775 80.2677 58.053 80.2347 58.1476C80.1688 58.3371 80.0478 58.5296 80.0043 58.7252" stroke="#FFDCA0" stroke-linecap="round"/>
<path d="M80.7992 59.5636C80.4915 59.8069 80.1514 59.6944 79.8416 59.8493C79.7407 59.8997 79.6817 59.9909 79.5932 60.0542C79.4694 60.1429 79.3936 60.2006 79.2579 60.2483C79.0344 60.3269 78.7914 60.3503 78.5763 60.4579C78.4749 60.5086 78.3446 60.5649 78.2658 60.6535C78.1975 60.7304 78.1063 60.8095 78.0174 60.8212C77.9982 60.8238 77.9139 60.8984 77.8919 60.919C77.8485 60.9597 77.7719 60.9998 77.7194 61.0293C77.6213 61.0845 77.4798 61.1364 77.3965 61.2249C77.3226 61.3035 77.1898 61.3266 77.1109 61.3957C77.0176 61.4774 76.929 61.5083 76.8377 61.5882C76.6425 61.759 76.4418 61.8553 76.1919 61.8553C76.127 61.8553 75.9943 61.9377 75.9311 61.9733C75.8378 62.0258 75.7394 62.023 75.6331 62.023" stroke="#FFDCA0" stroke-linecap="round"/>
<path d="M77.1482 60.7933C77.6468 60.4404 78.2108 60.0539 78.7778 59.8586C78.9601 59.7958 79.1371 59.7239 79.3173 59.6537C79.5396 59.567 79.718 59.4135 79.9134 59.2686C80.045 59.171 80.1812 59.0804 80.3163 58.9891C80.4188 58.92 80.4707 58.8141 80.5868 58.7671C80.702 58.7204 80.8024 58.6641 80.9234 58.6414" stroke="#FFDCA0" stroke-linecap="round"/>
<path d="M80.5757 59.7313C80.6281 59.7659 80.7232 59.871 80.7744 59.871" stroke="#FFDCA0" stroke-linecap="round"/>
<path d="M71.5825 65.0319L80.8058 60.0504" stroke="#FFDCA0" stroke-width="0.5"/>
<path d="M70.8447 65.4471L72.3204 64.6168" stroke="#FFDCA0" stroke-width="0.5"/>
<path d="M80.6902 60.1992C80.722 60.2024 80.7872 60.2243 80.8158 60.192C80.8221 60.1851 80.8258 60.1754 80.8258 60.1653C80.8258 60.1462 80.8154 60.147 80.8008 60.147" stroke="#FFDCA0" stroke-width="0.5" stroke-linecap="round"/>
<path d="M80.8509 60.0386C80.8498 60.0467 80.8399 60.0985 80.8491 60.1068C80.8563 60.1133 80.8545 60.1259 80.8545 60.1349C80.8545 60.1524 80.8652 60.1656 80.8652 60.1831" stroke="#FFDCA0" stroke-width="0.5" stroke-linecap="round"/>
<path d="M78.671 60.5606C78.6578 60.5955 78.6388 60.6236 78.6889 60.6248C78.7559 60.6264 78.8217 60.6007 78.8845 60.5775C78.9083 60.5687 78.9602 60.5378 78.989 60.5412C79.0011 60.5426 78.9732 60.5624 78.9636 60.5708C78.8957 60.6296 78.8216 60.6787 78.744 60.7193C78.7124 60.7359 78.6758 60.7563 78.6409 60.7635C78.629 60.766 78.6529 60.7384 78.6631 60.7309C78.6935 60.7088 78.7269 60.6913 78.7604 60.6761C78.7676 60.6728 78.779 60.6675 78.7878 60.6663C78.7974 60.6649 78.7835 60.672 78.7834 60.6721C78.7355 60.6994 78.6853 60.7217 78.6371 60.7488C78.6211 60.7578 78.6054 60.7676 78.5894 60.7767C78.5859 60.7786 78.5764 60.7842 78.5781 60.7802C78.5856 60.7624 78.614 60.7414 78.6258 60.7309C78.6481 60.7113 78.6648 60.6982 78.6877 60.6801C78.6952 60.6742 78.7068 60.6715 78.7099 60.6618C78.7099 60.6616 78.6637 60.6698 78.6568 60.673" stroke="#FFDCA0" stroke-width="0.5" stroke-linecap="round"/>
<rect width="51.2625" height="11.0443" transform="matrix(0.787175 0.616729 -0.526207 0.850356 33.1536 135.541)" fill="#E1BE8C"/>
<path d="M619.388 267.402C618.686 267.467 616.286 267.421 615.375 267.334C613.848 267.177 611.618 266.771 608.284 266.053C602.951 264.904 600.964 264.633 598.216 264.66C595.838 264.691 593.122 265.091 591.508 265.646C587.314 267.08 585.54 269.407 586.434 272.305C586.554 272.729 587.073 273.724 587.624 274.613C589.117 277.048 589.479 278.31 589.01 279.397C588.634 280.301 587.763 280.756 586.113 280.917C583.71 281.164 579.953 280.6 575.106 279.28C574.071 279.002 571.024 278.034 568.31 277.124C563.66 275.571 561.853 275.011 558.973 274.229C549.771 271.723 542.208 270.803 536.832 271.536C535.442 271.73 533.327 272.362 532.438 272.86C530.696 273.839 529.664 275.274 529.539 276.903C529.433 278.421 529.992 280.154 531.222 282.114C533.23 285.297 536.529 288.546 541.365 292.122C544.695 294.569 549.122 297.404 552.937 299.523C561.37 304.193 562.844 305.046 565.755 306.935C570.127 309.77 572.954 312.138 574.168 313.975C574.805 314.953 574.966 315.694 574.673 316.373C574.376 317.061 573.822 317.423 572.422 317.799C569.21 318.68 564.068 318.488 554.179 317.128C547.002 316.139 542.482 315.815 536.376 315.85C521.578 315.926 511.261 319.188 510.681 323.972C510.543 325.087 510.814 326.083 511.588 327.285C512.345 328.462 513.203 329.372 514.692 330.572C518.305 333.511 524.663 336.744 533.141 339.972C535.526 340.883 536.738 341.418 537.728 341.993C540.696 343.716 541.452 345.851 539.736 347.661C537.715 349.794 533.495 351.13 528.924 351.081C527.476 351.059 527.449 351.059 525.944 350.596C524.224 350.057 523.751 350.008 522.33 350.21C521.378 350.344 520.148 350.741 518.791 351.337C518.33 351.546 517.28 351.909 516.469 352.131C514.699 352.631 513.977 353.031 513.695 353.685C513.519 354.092 513.525 354.173 513.809 354.566C513.978 354.812 514.334 355.133 514.595 355.294C515.537 355.851 517.659 356.317 520.855 356.653C524.876 357.085 527.42 356.605 528.782 355.168L529.201 354.739L530.123 354.801C537.063 355.285 543.448 352.884 546.277 348.719C548.422 345.564 547.55 341.724 544.032 338.79C542.061 337.145 540.034 336.107 535.261 334.265C527.602 331.306 523.006 328.607 522.603 326.802C521.919 323.832 531.585 323.127 546.02 325.104C548.588 325.463 549.67 325.63 555.664 326.651C571.312 329.321 582.872 329.167 588.941 326.224C593.758 323.885 594.573 319.801 591.225 314.657C588.401 310.305 583.061 305.603 575.036 300.402C571.161 297.88 567.954 296.043 561.35 292.517C550.438 286.708 543.646 282.06 541.671 279.054C540.522 277.289 541.22 276.499 543.93 276.497C547.811 276.518 554.208 278.102 564.639 281.648C569.389 283.257 571.31 283.837 574.25 284.543C583.792 286.836 590.657 286.825 593.348 284.508C594.045 283.913 594.583 282.89 594.699 281.983C594.936 280.032 594.1 277.702 591.857 274.074C591.016 272.71 590.797 272.262 590.764 271.829C590.561 269.273 593.708 266.824 597.867 266.297C600.08 266.012 601.16 266.091 605.839 266.843C612.713 267.96 617.539 268.245 619.529 267.647C620.067 267.485 619.988 267.349 619.388 267.402Z" fill="#3F6348"/>
<path d="M501.894 142.919L447.107 164.382L454.579 177.7L509.365 156.238L501.894 142.919Z" fill="#E1BE8C"/>
<path d="M528.044 189.533L473.257 210.995L480.729 224.314L535.516 202.851L528.044 189.533Z" fill="#E1BE8C"/>
<path d="M554.194 236.147L499.408 257.609L506.879 270.927L561.666 249.465L554.194 236.147Z" fill="#E1BE8C"/>
<path d="M658.795 422.601L604.009 444.063L611.48 457.382L666.267 435.919L658.795 422.601Z" fill="#E1BE8C"/>
<path d="M580.345 282.76L525.558 304.223L533.029 317.541L587.816 296.078L580.345 282.76Z" fill="#E1BE8C"/>
<path d="M606.495 329.374L551.708 350.836L559.18 364.154L613.966 342.692L606.495 329.374Z" fill="#E1BE8C"/>
<path d="M632.645 375.987L577.858 397.45L585.33 410.768L640.117 389.306L632.645 375.987Z" fill="#E1BE8C"/>
<path d="M684.946 469.215L630.159 490.677L637.63 503.995L692.417 482.533L684.946 469.215Z" fill="#E1BE8C"/>
<path d="M710.101 508.096L713.146 506.903C714.867 506.229 714.496 502.571 712.328 498.83L497.444 128.146C495.375 124.579 492.431 122.258 490.79 122.901L487.746 124.094C486.025 124.768 486.396 128.427 488.564 132.167L703.448 502.851C705.516 506.419 708.46 508.739 710.101 508.096Z" fill="#FFDCA0"/>
<path d="M649.832 531.706L646.788 532.899C645.067 533.573 641.939 530.994 639.885 527.209L436.364 152.074C434.406 148.463 434.154 145.088 435.796 144.445L438.84 143.252C440.561 142.578 443.689 145.157 445.743 148.942L649.264 524.077C651.222 527.688 651.474 531.063 649.832 531.706Z" fill="#FFDCA0"/>
<path d="M563.709 305.75L546.484 295.715L552.796 287.931L575.585 301.034L563.709 305.75Z" fill="#3F6349"/>
<path d="M538.214 315.49L524.983 315.98L528.166 323.474L542.329 324.266L538.214 315.49Z" fill="#3F6349" stroke="#3F6349" stroke-width="0.1"/>
</g>
<defs>
<clipPath id="clip0_70_1411">
<rect width="600" height="720" fill="white"/>
</clipPath>
</defs>
</svg>
