<svg xmlns="http://www.w3.org/2000/svg" width="303" height="84" fill="none" viewBox="0 0 303 84">
  <path fill="#3F6348" d="M47.58.398c-1.538.392-9.776 3.664-13.966 5.566-7.859 3.608-11.907 7.72-12.451 12.642-.142 1.398-.19 1.454-1.255 2.013-1.23.644-2.296 1.035-3.693 1.315-1.657.336-6.96.196-11.173-.308-3.953-.475-4.095-.475-4.569.028-.26.28-.473.727-.473 1.007 0 1.09.757 1.315 11.528 3.524.426.084.781.252.781.336 0 .112-1.61 1.314-3.574 2.657-4.474 3.104-4.592 3.216-4.38 4.167.19.98.734 1.119 2.344.616 1.918-.588 3.361-1.51 7.078-4.531 3.787-3.049 6.036-4.392 8.427-4.979 2.154-.531 3.29-.531 7.623 0 9.492 1.119 18.18 3.216 24.973 6.041 10.724 4.42 15.032 9.146 23.767 26.04 2.793 5.425 4.474 8.25 6.746 11.355 3.693 5.118 8.688 9.09 14.061 11.215 9.73 3.832 20.761 1.119 27.081-6.629 1.87-2.293 2.793-4 4.948-9.09 3.266-7.719 4.781-10.18 7.527-12.334 2.557-2.013 4.64-2.825 7.244-2.797 3.835.056 7.22 1.679 10.818 5.175 1.112 1.09 4.048 4.642 6.51 7.887 6.296 8.279 7.551 9.565 12.143 12.446 4.403 2.797 9.327 4.307 13.967 4.335 3.408 0 5.752-.56 9.161-2.181 4.048-1.93 6.178-3.776 12.12-10.573 6.154-7.02 8.498-9.005 12.806-10.767 7.812-3.217 15.505-.84 22.891 7.048.686.727 2.509 3.16 4.048 5.425 6.51 9.482 12.001 14.013 19.221 15.775 1.894.475 2.841.531 6.037.42 4.142-.168 6.533-.588 10.439-1.903 2.864-.922 7.054-3.188 9.35-5.034 3.385-2.657 6.439-7.328 7.102-10.74.331-1.734 0-3.356-.876-4.615-1.326-1.846-2.367-1.986-8.853-1.258-7.788.867-10.866 1.035-13.47.727-4.663-.531-6.935-1.594-11.504-5.342-3.859-3.133-6.273-5.482-11.836-11.467-7.054-7.608-10.392-10.628-14.582-13.258-5.823-3.663-13.019-5.65-17.919-4.95-5.374.783-9.54 3.412-14.961 9.425-6.676 7.412-8.001 8.727-10.25 10.041-1.184.7-3.243 1.594-4.545 2.014-2.083.643-2.817.727-6.155.727-4.639.028-6.746-.531-10.723-2.74-4.237-2.406-5.752-3.804-12.475-11.608-7.338-8.53-8.948-9.985-13.493-12.11-4.332-2.042-9.777-1.958-14.7.168-3.93 1.706-8.072 5.454-14.18 12.81-1.68 2.041-3.882 4.418-4.853 5.257-3.574 3.16-7.314 4.783-10.96 4.783-2.651 0-3.787-.335-6.438-1.818-4.143-2.35-7.03-5.985-10.203-12.81-.994-2.181-2.414-5.23-3.125-6.768-3.93-8.502-7.67-12.894-14.392-16.865-4.427-2.601-9.824-4.643-14.677-5.51-2.84-.503-7.93-.503-10.036 0Zm11.718 3.944c6.462 1.286 13.824 5.677 18.204 10.852 2.107 2.489 3.645 5.006 5.634 9.257 5.61 11.999 6.486 13.509 9.729 17.089 7.646 8.447 17.872 8.894 27.151 1.203.971-.811 3.954-4 6.629-7.104 2.674-3.077 5.491-6.21 6.296-6.909 3.504-3.16 6.77-4.643 10.913-4.894 2.415-.14 2.793-.112 4.734.587 4.403 1.622 6.439 3.412 13.564 11.915 5.776 6.908 8.593 9.593 12.452 11.747 8.545 4.782 19.813 4.894 26.536.196 2.651-1.819 5.066-4.14 9.066-8.67 4.261-4.84 5.705-6.21 8.096-7.72 2.841-1.79 4.805-2.377 8.119-2.377 3.125 0 5.256.447 8.641 1.845 5.255 2.182 9.776 5.762 16.665 13.202 9.303 10.013 11.93 12.558 15.67 14.99 3.101 2.043 6.913 3.805 10.085 4.672 2.296.643 3.219.755 6.462.755 3.267 0 4.356-.112 7.812-.867 6.297-1.37 6.51-1.399 7.409-.504.474.476.758 1.007.758 1.427 0 2.713-4.451 7.16-10.298 10.292l-2.604 1.399-2.722-.028c-5.515-.056-11.836-2.378-17.162-6.321-3.172-2.322-5.444-4.587-11.41-11.412-2.959-3.412-6.462-7.187-7.764-8.446-6.155-5.873-11.434-8.559-18.417-9.425-4.758-.616-9.445.503-13.209 3.132-2.249 1.566-5.728 5.538-9.326 10.572-5.753 8.083-8.688 10.824-13.304 12.362-1.515.504-2.415.616-5.161.588-3.953-.028-6.012-.56-9.232-2.433-4.024-2.35-6.793-5.287-13.161-14.013-5.658-7.72-8.285-10.46-12.309-12.698-3.196-1.818-4.498-2.125-8.854-2.125-4.497 0-5.918.363-9.469 2.377-4.568 2.601-7.361 5.873-13.658 15.858-4.427 7.048-6.51 9.901-8.522 11.691-3.243 2.909-6.249 3.972-10.368 3.692-5.918-.392-8.901-3.384-14.772-14.935-2.106-4.168-4-7.16-5.728-9.034-1.657-1.79-5.303-4.895-7.291-6.21-.758-.503-2.486-2.125-3.835-3.607-4.9-5.398-9.8-8.419-17.02-10.544-3.314-.98-8.759-2.182-11.126-2.434-5.657-.587-11.93-1.762-14.724-2.713-3.124-1.062-4.19-2.964-2.793-4.922 2.793-3.916 17.801-10.88 25.684-11.915 1.42-.196 5.705.112 7.93.56Zm90.498 35.1c.946.28 2.201.755 2.769 1.063 1.326.7 4.38 3.02 4.38 3.328 0 .14-.545.784-1.208 1.455l-1.207 1.203-2.628-1.091c-2.651-1.091-2.675-1.091-6.202-1.063-2.533 0-3.858.14-4.663.447l-1.113.448-2.035-1.762c-1.137-.979-2.107-1.846-2.178-1.93-.166-.196 2.154-1.398 3.811-1.958 3.054-1.063 7.007-1.118 10.274-.14Zm-14.132 5.147c.97.867 1.775 1.65 1.799 1.762.023.111-.379.503-.9.895-1.539 1.118-4.237 4.726-5.61 7.495l-1.278 2.545-1.208-.559c-2.201-1.035-3.598-1.734-3.787-1.93-.545-.56 7.954-11.747 8.9-11.747.19 0 1.113.7 2.084 1.539Zm96.557-.56c1.965.448 3.764 1.035 5.066 1.678l.828.42-.97 1.958c-.687 1.454-1.065 1.93-1.349 1.846-3.315-1.147-10.132-.895-13.493.531l-1.018.42-2.154-1.399c-3.362-2.125-3.267-1.986-1.918-2.992 1.989-1.483 4.569-2.546 7.315-2.993 1.278-.224 5.87.112 7.693.531ZM79.064 46.015c1.989 1.846 2.935 2.909 4.166 4.727l1.113 1.65-.923.503c-.497.28-1.09.476-1.279.504-.189 0-.78-.923-1.302-2.014a103.63 103.63 0 0 0-2.32-4.475c-1.443-2.685-1.443-2.713.545-.895Zm81.952 2.126a202.373 202.373 0 0 1 4.332 5.817c1.278 1.762 2.533 3.496 2.793 3.832.45.587.45.587-.26 1.035-.402.251-.781.447-.805.447-.047 0-.947-1.146-1.965-2.545-2.177-2.937-5.326-6.293-7.267-7.747-.757-.588-1.349-1.091-1.349-1.175 0-.168 2.178-2.237 2.367-2.237.071 0 1.042 1.174 2.154 2.573Zm81.218.559c2.888 2.07 5.421 4.531 9.256 8.922l3.29 3.776-1.065.755-1.065.727-2.841-3.3c-3.077-3.58-6.344-6.349-9.232-7.831-.923-.476-1.799-.867-1.941-.867-.142 0-.26-.084-.26-.168 0-.28 1.538-3.468 1.68-3.468.071 0 1.066.67 2.178 1.454Zm-25.447 2.098 1.988 1.258-2.106 1.595c-2.628 2.013-4.403 3.775-8.167 8.054-1.633 1.902-3.054 3.44-3.125 3.44-.213 0-2.036-1.454-2.036-1.621 0-.056.616-.895 1.373-1.846.758-.951 2.486-3.3 3.835-5.23 3.74-5.23 5.468-7.3 5.895-7.105.213.084 1.254.755 2.343 1.455Zm-129.32 7.635c1.019 1.986 2.439 4.531 3.125 5.622 1.35 2.125 1.35 2.265.119 3.132l-.71.476-1.516-2.154c-2.13-3.02-5.633-9.397-5.373-9.733.213-.224 1.775-.923 2.13-.95.237-.029 1.042 1.286 2.226 3.607Zm40.55.727.782.364-.995 2.321c-1.041 2.462-2.319 4.727-3.574 6.433l-.781 1.035-3.007-1.818c-1.68-1.007-3.03-1.874-3.03-1.958 0-.112.498-.81 1.089-1.622.616-.783 1.894-2.713 2.888-4.251l1.752-2.825 2.06.95a134.59 134.59 0 0 1 2.816 1.371Zm43.959 3.133c3.006 3.328 6.699 5.873 10.084 6.936.829.28 1.586.56 1.705.671.142.14-.19 3.02-.379 3.245-.166.196-3.006-.98-4.427-1.846-2.793-1.65-4.829-3.44-7.693-6.74l-2.817-3.245.687-.448c.402-.251.804-.447.923-.475.094 0 .97.839 1.917 1.902Zm86.474 3.16c2.461 2.741 5.728 5.762 7.906 7.3l1.61 1.119-.711 1.175c-1.515 2.433-1.136 2.321-3.314.978-1.325-.81-2.58-1.901-3.929-3.384-2.438-2.74-6.226-7.831-5.894-7.97.142-.057.662-.392 1.183-.784.521-.364.994-.7 1.042-.7.047 0 .994 1.008 2.107 2.266Zm-55.677 2.63c-3.432 3.635-8.735 5.733-14.463 5.733h-2.77l.142-1.343c.308-2.377.261-2.349 1.634-2.153 1.728.252 5.775-.336 7.882-1.147 2.012-.783 3.48-1.622 5.184-2.993l1.184-.95 1.136.867 1.137.867-1.066 1.118Zm-84.059 1.146 2.983 1.846-1.255 1.09c-2.248 1.93-5.207 3.469-7.882 4.112-2.959.727-2.651.867-3.575-1.51-.449-1.147-.805-2.21-.805-2.322 0-.14.569-.447 1.255-.727 1.633-.615 3.575-1.846 5.019-3.216.662-.587 1.207-1.09 1.23-1.09.048-.029 1.397.81 3.03 1.817Zm-23.79.14c2.344 2.098 5.705 3.328 9.138 3.328h1.917l.355 1.035c.213.587.545 1.538.758 2.154l.402 1.062-1.491-.195c-2.723-.364-5.918-1.51-8.593-3.049-2.438-1.426-5.563-3.832-5.563-4.28 0-.39 1.538-1.426 1.775-1.202.142.112.71.644 1.302 1.147Zm175.953 6.181c.947.587 5.895 2.461 7.41 2.797.828.168 1.444.42 1.373.56-.071.111-1.634.223-3.48.223-3.22 0-5.397-.252-7.339-.867l-.899-.28.899-1.37c.947-1.455 1.208-1.594 2.036-1.063Z"/>
  <path fill="#3F6348" d="M45.213 8.62c-1.136.7-1.61 1.847-1.16 2.77.9 1.902 3.29 2.461 5.019 1.202 2.888-2.097-.781-5.929-3.859-3.971Z"/>
</svg>
