<svg width="101" height="227" viewBox="0 0 101 227" fill="none" xmlns="http://www.w3.org/2000/svg">
<path d="M91.9294 21.3729L56.3951 12.519L54.5526 19.9135L90.087 28.7674L91.9294 21.3729Z" fill="#E1BE8C"/>
<path d="M85.4808 47.254L49.9464 38.4001L48.104 45.7946L83.6383 54.6485L85.4808 47.254Z" fill="#E1BE8C"/>
<path d="M79.0321 73.1351L43.4978 64.2811L41.6553 71.6757L77.1897 80.5296L79.0321 73.1351Z" fill="#E1BE8C"/>
<path d="M53.2375 176.659L17.7031 167.805L15.8607 175.2L51.395 184.054L53.2375 176.659Z" fill="#E1BE8C"/>
<path d="M72.5835 99.0161L37.0491 90.1622L35.2067 97.5568L70.741 106.411L72.5835 99.0161Z" fill="#E1BE8C"/>
<path d="M66.1348 124.897L30.6005 116.043L28.758 123.438L64.2924 132.292L66.1348 124.897Z" fill="#E1BE8C"/>
<path d="M59.6862 150.778L24.1518 141.924L22.3093 149.319L57.8437 158.173L59.6862 150.778Z" fill="#E1BE8C"/>
<path d="M46.7888 202.54L11.2545 193.687L9.41203 201.081L44.9464 209.935L46.7888 202.54Z" fill="#E1BE8C"/>
<path d="M43.0392 225.167L45.0139 225.659C46.13 225.938 47.4555 224.429 47.9389 222.33L95.8433 14.3633C96.3041 12.3615 95.825 10.5629 94.7605 10.2976L92.7858 9.80563C91.6697 9.52753 90.3442 11.0362 89.8607 13.1346L41.9564 221.102C41.4954 223.104 41.9743 224.902 43.0392 225.167Z" fill="#FFDCA0"/>
<path d="M3.94889 215.427L1.97423 214.935C0.858082 214.657 0.395424 212.703 0.95309 210.623L56.2274 4.49237C56.7598 2.50847 58.0268 1.1449 59.0913 1.41013L61.0659 1.90215C62.1821 2.18025 62.6447 4.13449 62.0871 6.21439L6.81271 212.345C6.28061 214.329 5.01382 215.693 3.94889 215.427Z" fill="#FFDCA0"/>
</svg>
