<svg xmlns="http://www.w3.org/2000/svg" width="360" height="800" fill="none" viewBox="0 0 360 800">
  <g clip-path="url(#a)">
    <path fill="#CFF09E" d="M0 0h360v800H0z"/>
    <path fill="#E1BE8C" d="M31.837 13.689 7.332 51.405l10.197 6.626 24.505-37.717-10.197-6.625Zm35.691 23.189L43.023 74.594l10.198 6.626 24.505-37.716-10.198-6.626Zm35.692 23.189L78.715 97.784l10.197 6.625 24.505-37.716-10.197-6.626Zm142.765 92.758-24.505 37.716 10.197 6.626 24.506-37.717-10.198-6.625ZM138.911 83.257l-24.505 37.716 10.197 6.626 24.505-37.717-10.197-6.625Zm35.691 23.189-24.505 37.717 10.198 6.625 24.505-37.716-10.198-6.626Zm35.692 23.19-24.505 37.716 10.197 6.626 24.505-37.717-10.197-6.625Zm71.382 46.378-24.505 37.717 10.198 6.625 24.505-37.716-10.198-6.626Z"/>
    <path fill="#FFDCA0" fill-opacity=".85" d="m313.495 194.004 1.362-2.096c.77-1.184-1.001-3.685-3.908-5.517L22.876 4.787c-2.773-1.748-5.555-2.238-6.29-1.108l-1.36 2.096c-.77 1.184 1 3.685 3.907 5.517l288.073 181.604c2.773 1.748 5.555 2.239 6.289 1.108Zm-26.957 41.491-1.362 2.096c-.769 1.185-3.774.582-6.629-1.329L-4.443 46.835c-2.724-1.823-4.302-4.167-3.568-5.297l1.362-2.096c.77-1.184 3.774-.582 6.629 1.33l282.99 189.426c2.724 1.824 4.302 4.167 3.568 5.297Z"/>
    <path fill="#E1BE8C" fill-opacity=".85" d="m384.799 527.023-46.038-54.252-12.667 10.018 46.038 54.252 12.667-10.018Zm-44.335 35.063-46.038-54.251-12.667 10.018 46.039 54.252 12.666-10.019ZM296.13 597.15l-46.038-54.251-12.667 10.018 46.038 54.251 12.667-10.018ZM118.793 737.405l-46.038-54.251-12.666 10.018 46.037 54.251 12.667-10.018Zm133.003-105.191-46.038-54.252-12.667 10.019 46.038 54.251 12.667-10.018Zm-44.334 35.064-46.038-54.252-12.667 10.018 46.038 54.252 12.667-10.018Zm-44.335 35.064-46.038-54.252-12.666 10.018 46.038 54.252 12.666-10.018ZM74.46 772.469l-46.04-54.251-12.667 10.018 46.038 54.251 12.667-10.018Z"/>
    <path fill="#FFDCA0" fill-opacity=".85" d="m38.761 805.238 2.559 3.015c1.446 1.704 5.57.723 9.1-2.164l349.901-286.136c3.367-2.755 4.944-6.23 3.565-7.855l-2.558-3.015c-1.446-1.704-5.57-.723-9.101 2.164l-349.9 286.137c-3.368 2.754-4.945 6.229-3.566 7.854Zm-50.645-59.68-2.558-3.015c-1.446-1.704.361-5.415 3.988-8.188L348.995 459.47c3.46-2.646 7.299-3.455 8.679-1.83l2.558 3.015c1.446 1.704-.362 5.415-3.988 8.189L-3.205 743.729c-3.46 2.645-7.299 3.455-8.679 1.829Z"/>
  </g>
  <defs>
    <clipPath id="a">
      <path fill="#fff" d="M0 0h360v800H0z"/>
    </clipPath>
  </defs>
</svg>
