<svg width="611" height="800" viewBox="0 0 611 800" fill="none" xmlns="http://www.w3.org/2000/svg">
<g clip-path="url(#clip0_88_1675)">
<rect width="611" height="800" fill="#CFF09E"/>
<path d="M229.074 609.836C228.352 610.362 225.683 611.861 224.619 612.352C222.826 613.161 220.076 614.146 215.885 615.494C209.179 617.649 206.797 618.627 203.801 620.433C201.213 622.003 198.527 624.207 197.166 625.872C193.624 630.189 193.4 633.946 196.527 636.621C196.972 637.019 198.279 637.8 199.543 638.442C202.985 640.209 204.318 641.392 204.607 642.913C204.864 644.171 204.246 645.244 202.553 646.49C200.098 648.319 195.555 650.113 189.256 651.762C187.914 652.119 183.852 653 180.199 653.733C173.943 654.993 171.545 655.531 167.804 656.514C155.846 659.645 146.861 663.497 141.502 667.792C140.12 668.907 138.266 670.982 137.659 672.115C136.471 674.339 136.401 676.616 137.47 678.524C138.478 680.295 140.375 681.879 143.177 683.284C147.739 685.559 153.768 687.073 161.725 687.962C167.193 688.557 174.152 688.879 179.91 688.794C192.627 688.587 194.877 688.592 199.471 688.831C206.371 689.189 211.228 690.019 213.922 691.297C215.345 691.983 216.071 692.711 216.252 693.662C216.436 694.625 216.095 695.389 214.837 696.715C211.962 699.778 206.175 702.883 194.311 707.744C185.701 711.27 180.498 713.825 173.82 717.807C157.63 727.45 148.72 737.774 151.626 743.515C152.301 744.856 153.336 745.798 155.076 746.647C156.778 747.479 158.394 747.945 160.918 748.331C167.061 749.295 176.436 748.816 188.134 746.963C191.426 746.444 193.154 746.262 194.665 746.268C199.2 746.284 201.611 748.192 201.068 751.331C200.429 755.029 196.786 759.254 191.732 762.151C190.126 763.061 190.096 763.079 188.101 763.531C185.813 764.038 185.257 764.287 183.847 765.432C182.901 766.197 181.845 767.436 180.797 768.983C180.445 769.515 179.561 770.6 178.835 771.373C177.263 773.077 176.766 773.993 176.94 774.908C177.049 775.479 177.116 775.565 177.719 775.823C178.086 775.99 178.715 776.12 179.12 776.132C180.567 776.149 183.242 775.301 187 773.614C191.733 771.502 194.171 769.32 194.603 766.829L194.745 766.076L195.803 765.55C203.781 761.612 209.012 754.794 209.033 748.293C209.051 743.368 205.25 739.624 199.215 738.603C195.833 738.031 192.839 738.174 186.234 739.19C175.634 740.817 168.59 740.757 166.811 738.992C163.86 736.101 173.951 729.067 191.262 721.963C194.346 720.707 195.659 720.196 202.995 717.47C222.151 710.359 234.729 702.721 239.211 695.5C242.768 689.764 240.637 684.656 233.152 681.047C226.829 677.987 217.485 676.159 204.822 675.507C198.701 675.179 193.818 675.19 183.958 675.499C167.677 676.028 156.777 675.2 152.383 673.103C149.814 671.864 149.995 670.526 152.968 668.774C157.245 666.291 165.441 663.937 179.519 661.179C185.925 659.917 188.465 659.327 192.215 658.22C204.388 654.631 211.917 650.185 213.156 645.847C213.48 644.73 213.313 643.234 212.769 642.141C211.584 639.799 208.94 637.725 203.791 635.102C201.858 634.116 201.285 633.753 200.928 633.29C198.813 630.553 200.453 625.773 204.63 622.495C206.848 620.747 208.091 620.137 213.786 617.959C222.159 614.773 227.669 611.977 229.411 610.02C229.881 609.491 229.694 609.39 229.074 609.836Z" fill="#3F6348"/>
<path d="M15.0072 544.293L-28.2641 604.868L-10.8589 615.085L32.4124 554.511L15.0072 544.293Z" fill="#E1BE8C"/>
<path d="M75.9259 580.056L32.6545 640.631L50.0597 650.848L93.331 590.274L75.9259 580.056Z" fill="#E1BE8C"/>
<path d="M136.845 615.819L93.5732 676.394L110.978 686.611L154.25 626.037L136.845 615.819Z" fill="#E1BE8C"/>
<path d="M380.519 758.871L337.248 819.445L354.653 829.663L397.924 769.089L380.519 758.871Z" fill="#E1BE8C"/>
<path d="M197.763 651.582L154.492 712.156L171.897 722.374L215.168 661.8L197.763 651.582Z" fill="#E1BE8C"/>
<path d="M258.682 687.345L215.41 747.919L232.816 758.137L276.087 697.563L258.682 687.345Z" fill="#E1BE8C"/>
<path d="M319.6 723.108L276.329 783.682L293.734 793.9L337.006 733.326L319.6 723.108Z" fill="#E1BE8C"/>
<path d="M441.438 794.634L398.166 855.208L415.571 865.426L458.843 804.852L441.438 794.634Z" fill="#E1BE8C"/>
<path d="M495.819 822.258L498.224 818.891C499.583 816.989 496.596 813.072 491.633 810.249L-0.203876 530.426C-4.93812 527.733 -9.72286 527.037 -11.0191 528.851L-13.4237 532.217C-14.7829 534.12 -11.7962 538.037 -6.83353 540.86L485.004 820.683C489.738 823.376 494.522 824.073 495.819 822.258Z" fill="#FFDCA0"/>
<path d="M448.218 888.894L445.813 892.26C444.454 894.163 439.289 893.294 434.417 890.344L-48.4454 597.958C-53.0925 595.143 -55.7509 591.47 -54.4547 589.656L-52.0501 586.289C-50.6909 584.387 -45.5266 585.255 -40.6544 588.205L442.208 880.591C446.856 883.406 449.514 887.078 448.218 888.894Z" fill="#FFDCA0"/>
<path d="M196.29 688.713L170.8 688.667L172.024 675.647L205.624 675.51L196.29 688.713Z" fill="#3F6349"/>
<path d="M175.978 716.619L162.205 725.91L170.908 732.334L186.585 723.886L175.978 716.619Z" fill="#3F6349" stroke="#3F6349" stroke-width="0.1"/>
<path d="M46.4652 -2.97151L-24.1385 72.2399L-0.497439 81.1416L70.1063 5.93025L46.4652 -2.97151Z" fill="#E1BE8C"/>
<path d="M129.21 28.1849L58.606 103.396L82.2471 112.298L152.851 37.0867L129.21 28.1849Z" fill="#E1BE8C"/>
<path d="M211.954 59.3413L141.351 134.553L164.992 143.454L235.595 68.2431L211.954 59.3413Z" fill="#E1BE8C"/>
<path d="M542.932 183.967L472.329 259.178L495.97 268.08L566.574 192.869L542.932 183.967Z" fill="#E1BE8C"/>
<path d="M294.699 90.4977L224.095 165.709L247.736 174.611L318.34 99.3995L294.699 90.4977Z" fill="#E1BE8C"/>
<path d="M377.443 121.654L306.84 196.866L330.481 205.767L401.084 130.556L377.443 121.654Z" fill="#E1BE8C"/>
<path d="M460.188 152.811L389.584 228.022L413.225 236.924L483.829 161.712L460.188 152.811Z" fill="#E1BE8C"/>
<path d="M625.677 215.123L555.073 290.335L578.714 299.237L649.318 224.025L625.677 215.123Z" fill="#E1BE8C"/>
<path d="M700.134 238.066L704.058 233.887C706.275 231.524 702.516 227.548 695.763 225.111L26.4836 -16.3411C20.0412 -18.6644 13.2516 -18.7199 11.1365 -16.4668L7.21304 -12.2873C4.99535 -9.92489 8.75455 -5.94809 15.5075 -3.51169L684.787 237.941C691.229 240.264 698.018 240.32 700.134 238.066Z" fill="#FFDCA0"/>
<path d="M622.465 320.804L618.541 324.984C616.324 327.346 609.012 327.154 602.406 324.56L-52.2298 67.509C-58.5299 65.0343 -61.8502 61.283 -59.7352 59.03L-55.8117 54.8504C-53.594 52.488 -46.2819 52.68 -39.6764 55.2736L614.96 312.325C621.26 314.799 624.581 318.55 622.465 320.804Z" fill="#FFDCA0"/>
<path d="M317.957 149.213L327.015 132.502" stroke="#FFDCA0" stroke-width="0.5"/>
<path d="M322.56 147.191C323.143 146.18 323.63 145.151 324.113 144.089C324.72 142.753 323.327 146.932 322.828 148.314C322.691 148.694 322.553 149.074 322.406 149.449C322.345 149.605 322.305 149.776 322.204 149.908C322.029 150.137 322.253 149.327 322.303 149.041C322.452 148.191 322.596 147.318 322.903 146.512C322.93 146.442 322.855 146.663 322.796 146.709C322.562 146.894 322.927 146.123 323.031 145.843C323.214 145.348 323.437 144.859 323.577 144.348C323.603 144.25 323.59 144.25 323.598 144.317" stroke="#FFDCA0" stroke-width="0.5" stroke-linecap="round"/>
<path d="M324.905 143.003C325.116 142.447 325.158 142.311 325.446 141.71C325.621 141.343 325.804 140.98 325.995 140.622C326.082 140.459 326.818 139.057 327.133 138.805C327.187 138.762 327.263 138.918 327.248 138.985C327.088 139.716 326.323 141.335 326.065 141.862C325.789 142.425 325.489 142.977 325.187 143.526C325.174 143.55 324.402 144.945 324.14 145.233C323.985 145.402 324.223 144.776 324.301 144.559C324.576 143.783 324.863 143.007 325.214 142.263C325.263 142.16 325.317 142.058 325.376 141.961C325.386 141.944 325.424 141.904 325.422 141.924C325.414 141.979 325.384 142.028 325.361 142.079C325.272 142.278 325.167 142.472 325.068 142.666" stroke="#E1BE8C" stroke-width="0.5" stroke-linecap="round"/>
<path d="M324.715 142.774C325.104 142.072 325.484 141.364 325.942 140.705C326.022 140.589 326.096 140.467 326.198 140.37C326.225 140.344 326.195 140.449 326.178 140.482C325.952 140.912 325.382 141.77 325.174 142.084C324.742 142.735 324.275 143.603 323.686 144.148C323.577 144.249 323.689 143.809 323.696 143.782" stroke="#E1BE8C" stroke-width="0.5" stroke-linecap="round"/>
<path d="M325.936 142.439C325.734 142.947 325.437 143.399 325.172 143.874" stroke="#E1BE8C" stroke-width="0.5" stroke-linecap="round"/>
<path d="M325.172 143.874C325.012 144.154 324.42 145.225 324.178 145.529C324.131 145.588 323.979 145.711 323.978 145.634C323.972 145.385 324.08 145.15 324.163 144.918C324.405 144.241 325.096 142.633 325.437 142.017C326.003 140.998 325.861 141.787 325.715 142.446C325.419 143.78 324.904 145.324 324.522 146.625C324.329 147.282 323.914 148.277 324.515 147.355C324.883 146.789 325.691 145.267 326.281 144.817C326.401 144.725 326.709 144.763 326.74 144.915C326.83 145.36 326.679 145.814 326.57 146.245C326.352 147.105 325.768 148.6 325.305 149.416C324.817 150.276 325.017 149.362 325.072 149.132C325.22 148.518 325.482 147.818 325.692 147.216C325.818 146.855 325.654 147.292 325.465 147.661C325.221 148.139 324.847 148.855 324.513 149.295C324.353 149.506 324.162 149.703 324.216 149.304C324.274 148.871 324.463 148.452 324.616 148.049" stroke="#E1BE8C" stroke-width="0.5" stroke-linecap="round"/>
<path d="M321.326 147.882C321.741 147.182 322.231 146.53 322.718 145.881C323.004 145.5 323.771 144.464 324.189 144.068C324.705 143.581 324.394 144.282 324.307 144.491C323.963 145.325 323.341 146.432 322.924 147.182C322.665 147.648 322.406 148.114 322.134 148.572C322.009 148.782 321.928 149.036 321.734 149.183C321.636 149.257 321.767 148.936 321.806 148.819C321.951 148.393 322.123 147.978 322.285 147.558C322.461 147.102 323.088 145.473 323.35 144.909C323.734 144.085 322.765 146.64 322.377 147.462C322.152 147.941 321.458 149.344 321.039 149.905C320.825 150.191 321.28 149.225 321.45 148.91C321.698 148.452 322.459 147.114 322.837 146.702C323.478 146 323.409 146.775 323.321 147.307C323.151 148.342 322.49 150.407 322.186 151.355C321.988 151.971 321.781 152.584 321.558 153.19C321.393 153.638 321.887 152.294 322.057 151.849C322.103 151.728 322.25 151.434 322.043 151.696C321.904 151.873 321.193 152.871 321.154 152.924C320.949 153.204 320.495 154.046 320.453 153.693C320.427 153.481 320.534 153.278 320.592 153.075C320.703 152.687 320.838 152.306 320.961 151.921C321.145 151.351 321.38 150.796 321.505 150.208C321.557 149.963 321.284 150.654 321.184 150.882C320.792 151.778 321.097 151.125 321.252 150.852C321.278 150.807 322.184 149.201 321.964 150.131C321.913 150.35 321.677 151.092 321.616 151.319C321.593 151.402 321.552 151.487 321.565 151.574C321.57 151.61 321.625 151.535 321.643 151.504C321.863 151.129 321.742 151.031 321.401 150.89C321.207 150.811 321.658 150.572 321.831 150.468C322.089 150.312 322.228 150.237 322.476 150.098C322.517 150.075 322.628 150.023 322.582 150.008C322.54 149.995 322.04 149.941 322.126 149.848C322.272 149.69 322.638 149.681 322.84 149.641C322.946 149.62 322.623 149.634 322.514 149.631C322.459 149.629 322.403 149.622 322.347 149.623C322.323 149.624 322.396 149.631 322.42 149.633C322.701 149.659 323.092 149.69 323.362 149.705C323.547 149.716 324.074 149.819 323.918 149.713C323.709 149.569 323.426 149.615 323.181 149.561C322.832 149.483 322.212 149.336 321.86 149.225C321.592 149.141 321.486 149.091 321.826 149.109C322.415 149.141 323.006 149.233 323.593 149.297C323.873 149.328 323.474 149.263 323.378 149.242C323.03 149.166 322.587 149.07 322.249 148.952C322.036 148.877 321.798 148.775 322.187 148.786C322.5 148.794 322.954 148.882 323.258 148.942C324.293 149.148 322.899 148.699 322.807 148.66C322.626 148.585 322.443 148.518 322.266 148.434C322.036 148.324 321.898 148.259 322.233 148.239C322.407 148.229 323.278 148.261 323.431 148.262C323.572 148.263 323.952 148.281 323.844 148.187C323.613 147.986 322.724 147.758 323.025 147.774C323.299 147.789 323.572 147.892 323.836 147.96" stroke="#E1BE8C" stroke-width="0.5" stroke-linecap="round"/>
<path d="M322.755 149.494C322.551 149.51 322.347 149.523 322.144 149.544C322.13 149.546 321.74 149.571 321.995 149.598C322.552 149.656 321.73 149.568 322.193 149.618C322.22 149.621 322.294 149.644 322.274 149.625C322.233 149.586 322.163 149.605 322.108 149.595C322.056 149.586 321.713 149.528 321.662 149.507C321.639 149.498 321.601 149.462 321.62 149.447C321.679 149.398 321.762 149.385 321.836 149.364C322.162 149.271 322.401 149.242 322.732 149.161C322.819 149.139 322.915 149.13 322.991 149.082C323.011 149.069 322.99 149.025 322.968 149.011C322.813 148.908 322.66 148.933 322.52 148.797C322.369 148.652 322.684 148.609 322.709 148.605C322.898 148.571 323.199 148.579 323.393 148.587C323.47 148.59 323.693 148.632 323.622 148.601C323.571 148.578 323.514 148.582 323.459 148.573" stroke="#E1BE8C" stroke-width="0.5" stroke-linecap="round"/>
<path d="M324.336 147.356C324.261 147.285 323.922 146.973 324.267 147.028C324.666 147.093 325.787 147.617 325.413 147.454C325.31 147.409 324.338 147.017 324.4 146.88C324.419 146.84 324.488 146.858 324.533 146.858C324.611 146.859 324.689 146.886 324.767 146.882C324.963 146.87 325.057 146.834 325.036 146.597C325.008 146.287 324.736 145.63 324.642 145.386C324.551 145.151 324.182 144.276 324.129 143.993C324.063 143.642 324.099 143.366 324.403 143.155C324.71 142.941 325.316 142.851 325.658 142.773C325.846 142.73 326.046 142.715 326.222 142.639C326.313 142.6 326.438 142.538 326.437 142.438C326.434 142.242 325.82 141.799 325.77 141.758C325.652 141.663 325.521 141.583 325.413 141.477C325.384 141.449 325.328 141.374 325.367 141.367C325.453 141.353 326.016 141.579 326.029 141.584C326.127 141.62 326.393 141.739 326.336 141.651C326.245 141.513 326.086 141.431 325.967 141.316C325.919 141.269 325.861 141.227 325.831 141.168C325.822 141.149 325.847 141.122 325.867 141.118C325.942 141.105 326.109 141.196 326.095 141.122C326.077 141.018 325.459 140.634 325.912 140.7C326.14 140.732 326.348 140.827 326.568 140.889C326.782 140.95 326.584 140.841 326.489 140.776C326.27 140.623 325.99 140.448 325.779 140.282C325.609 140.148 325.582 140.115 325.784 140.179C325.877 140.209 325.966 140.254 326.06 140.283C326.101 140.295 326.206 140.341 326.188 140.301C326.154 140.226 326.063 140.19 325.996 140.141C325.867 140.046 325.728 139.965 325.599 139.87C325.485 139.786 325.145 139.569 325.555 139.674C325.851 139.75 326.714 140.072 326.965 140.165C327.173 140.242 327.771 140.518 327.59 140.389C327.395 140.248 327.159 140.175 326.945 140.066" stroke="#E1BE8C" stroke-width="0.5" stroke-linecap="round"/>
<path d="M324.446 144.179C325.099 144.296 327.041 144.742 326.386 144.646C326.239 144.624 325.612 144.458 325.574 144.448C325.422 144.407 325.27 144.368 325.12 144.319C325.094 144.31 325.021 144.274 325.048 144.276C325.158 144.284 325.267 144.313 325.375 144.337C325.735 144.417 326.052 144.504 326.407 144.601C326.463 144.617 326.631 144.667 326.576 144.649C326.282 144.554 325.985 144.474 325.69 144.386C325.151 144.225 324.606 144.074 324.07 143.903C323.736 143.796 324.749 144.07 325.089 144.155C325.282 144.204 325.475 144.253 325.669 144.3C325.756 144.321 325.842 144.357 325.93 144.36C326.155 144.368 325.059 144.107 325.283 144.139C325.6 144.183 325.907 144.29 326.22 144.362C326.325 144.386 326.43 144.428 326.537 144.427C326.601 144.426 326.418 144.378 326.356 144.36C326.171 144.303 325.985 144.253 325.798 144.202C325.544 144.131 324.775 143.942 325.033 143.994C325.628 144.114 326.219 144.295 326.807 144.447C326.916 144.476 327.025 144.504 327.134 144.533C327.413 144.608 326.575 144.388 326.296 144.311C326.137 144.267 325.977 144.226 325.82 144.174C325.71 144.137 326.05 144.194 326.164 144.213C326.468 144.264 326.547 144.278 326.13 144.138C325.395 143.891 324.635 143.709 323.91 143.432C323.709 143.355 324.325 143.543 324.532 143.6C324.589 143.615 324.756 143.666 324.702 143.644C324.438 143.534 324.16 143.469 323.891 143.376C323.851 143.362 323.733 143.317 323.774 143.326C323.926 143.357 324.075 143.404 324.225 143.445C324.464 143.51 324.702 143.577 324.94 143.645C325.093 143.688 325.245 143.731 325.398 143.776C325.456 143.793 325.281 143.744 325.223 143.727C324.987 143.658 324.751 143.585 324.514 143.517C324.251 143.442 323.478 143.203 323.712 143.347C324.139 143.61 325.543 144.134 325.062 144.004C324.815 143.938 323.709 143.521 323.552 143.464C323.431 143.421 323.123 143.23 323.187 143.341C323.26 143.466 323.451 143.464 323.585 143.521C323.845 143.634 324.107 143.742 324.369 143.851C325.137 144.171 324.958 144.088 324.677 143.979C324.412 143.876 324.148 143.773 323.883 143.673C323.447 143.509 323.019 143.305 322.566 143.207C322.376 143.166 322.918 143.379 323.098 143.455C323.152 143.478 323.317 143.533 323.26 143.524C323.089 143.496 322.934 143.391 322.764 143.356C322.504 143.302 323.24 143.605 323.493 143.686C323.84 143.799 323.361 143.458 323.354 143.45" stroke="#E1BE8C" stroke-width="0.5" stroke-linecap="round"/>
<path d="M325.452 144.148C325.184 144.555 324.892 144.942 324.637 145.358C324.292 145.918 323.981 146.496 323.598 147.032C323.299 147.45 323.064 147.81 322.624 148.079" stroke="white" stroke-linecap="round"/>
<path d="M321.124 147.37C321.772 146.601 322.482 145.907 323.214 145.215C323.523 144.922 323.837 144.636 324.149 144.346C324.325 144.182 324.508 144.024 324.679 143.854C324.724 143.81 324.845 143.751 324.797 143.706C324.742 143.656 324.659 143.75 324.591 143.774C324.238 143.901 324.009 143.965 323.73 144.261C323.684 144.309 322.927 145.16 323.346 145.446C323.993 145.886 325.486 144.438 325.489 144.435C326.003 143.978 326.486 143.48 326.9 142.93C327.026 142.763 328.077 141.419 327.487 140.838C327.299 140.654 326.974 140.684 326.717 140.703C326.191 140.741 325.667 140.986 325.398 141.443C325.153 141.861 325.424 142.181 325.732 142.44C325.815 142.51 325.798 142.567 325.704 142.642" stroke="#E1BE8C" stroke-linecap="round"/>
<path d="M324.542 146.049L326.402 143.787" stroke="#E1BE8C" stroke-width="5" stroke-linecap="square"/>
<path d="M323.748 140.658L329.111 140.254" stroke="#E1BE8C" stroke-width="5" stroke-linecap="square"/>
<path d="M320.969 144.979L325.471 137.627M325.471 137.627L326.436 136.052L325.46 137.54L320.91 144.482L325.119 137.654L325.471 137.627Z" stroke="#E1BE8C" stroke-width="3"/>
<path d="M325.429 145.824C325.205 145.808 324.98 145.795 324.757 145.766C324.709 145.759 324.661 145.756 324.615 145.741C324.536 145.716 324.779 145.733 324.861 145.739C325.036 145.751 325.555 145.82 325.385 145.771C325.167 145.708 324.924 145.692 324.715 145.597C324.528 145.512 325.12 145.621 325.321 145.648C325.43 145.662 325.539 145.678 325.648 145.693C325.822 145.717 325.823 145.718 325.696 145.698C325.59 145.681 325.273 145.628 325.38 145.639C325.507 145.652 325.633 145.678 325.759 145.698" stroke="#E1BE8C" stroke-width="0.5" stroke-linecap="round"/>
<path d="M141.662 135.096C142.669 135.588 145.823 137.484 146.946 138.26C148.814 139.569 151.355 141.624 155.034 144.784C160.917 149.84 163.277 151.597 166.974 153.704C170.181 155.522 174.236 157.304 176.986 158.109C184.124 160.206 188.992 159.71 190.911 156.689C191.207 156.255 191.583 155.053 191.802 153.912C192.425 150.799 193.298 149.503 195.09 148.993C196.564 148.558 198.215 148.867 200.59 150.016C204.062 151.679 208.471 155.044 213.522 159.86C214.606 160.885 217.632 164.024 220.278 166.858C224.815 171.71 226.625 173.56 229.628 176.42C239.218 185.564 248.324 192.163 256.286 195.739C258.35 196.66 261.852 197.791 263.573 198.079C266.95 198.642 269.869 198.288 271.785 197.077C273.556 195.938 274.673 194.113 275.137 191.585C275.876 187.47 274.962 182.302 272.348 175.682C270.533 171.135 267.67 165.427 264.856 160.768C258.616 150.48 257.565 148.652 255.709 144.879C252.919 139.214 251.689 135.12 252.042 132.702C252.242 131.423 252.824 130.702 253.945 130.384C255.079 130.061 256.208 130.2 258.48 130.982C263.713 132.763 270.37 136.901 282.108 145.657C290.624 152.011 296.308 155.775 304.495 160.477C324.327 171.882 341.601 177.254 347.514 173.859C348.896 173.069 349.603 172.058 349.862 170.493C350.116 168.961 349.947 167.564 349.25 165.446C347.585 160.285 342.571 152.76 334.724 143.596C332.519 141.017 331.477 139.648 330.773 138.419C328.662 134.735 329.947 132.433 334.181 132.308C339.169 132.159 346.237 134.355 352.285 137.936C354.193 139.075 354.23 139.097 355.742 140.635C357.458 142.4 358.036 142.807 360.151 143.745C361.564 144.375 363.632 145.009 366.084 145.581C366.924 145.771 368.716 146.293 370.037 146.743C372.935 147.712 374.33 147.95 375.408 147.643C376.08 147.452 376.158 147.382 376.202 146.846C376.24 146.518 376.11 145.983 375.935 145.652C375.277 144.475 372.944 142.456 369.04 139.71C364.138 136.247 360.225 134.662 356.865 134.761L355.845 134.781L354.68 134.017C345.938 128.251 334.837 125.234 326.587 126.39C320.335 127.263 317.376 131.025 318.919 136.109C319.783 138.958 321.372 141.362 325.764 146.541C332.809 154.854 336.044 160.583 334.643 162.347C332.365 165.264 318.706 158.34 301.564 145.567C298.523 143.29 297.258 142.316 290.355 136.852C272.337 122.582 256.744 113.749 245.483 111.412C236.541 109.559 231.067 112.211 230.01 118.939C229.104 124.624 231.18 132.541 236.304 142.939C238.766 147.968 241.074 151.93 246.101 159.88C254.424 173.002 258.497 182.001 257.904 185.947C257.542 188.256 255.761 188.35 252.143 186.252C246.984 183.228 240.148 176.999 230.036 166.067C225.425 161.094 223.484 159.138 220.318 156.293C210.046 147.057 200.871 141.747 194.791 141.524C193.222 141.462 191.406 141.868 190.275 142.507C187.863 143.891 186.477 146.412 185.572 151.065C185.231 152.813 185.041 153.343 184.621 153.716C182.146 155.928 175.315 155.458 169.198 152.659C165.939 151.173 164.582 150.274 159.145 146.043C151.17 139.82 145.036 135.851 141.737 134.79C140.845 134.503 140.805 134.674 141.662 135.096Z" fill="#3F6348"/>
<path d="M245.904 167.929L254.103 172.388" stroke="#FFDCA0" stroke-width="0.5"/>
<path d="M245.858 167.542L251.293 170.257" stroke="#FFDCA0" stroke-width="0.5"/>
<path d="M265.337 191.457L264.696 191.2M264.696 191.2L249.935 185.294L261.101 182.041L264.696 191.2Z" stroke="#FFDCA0" stroke-width="0.5"/>
<path d="M336.239 167.298L344.967 155.862" stroke="#E1BE8C" stroke-width="0.5"/>
<path d="M336.58 167.375L336.155 167.733M336.58 167.375L345.292 159.15L344.179 157.381M336.58 167.375L337.006 167.017L336.892 166.663L344.948 158.086L344.834 157.732L344.605 157.023L344.179 157.381M336.58 167.375L337.121 167.372L341.525 165.923M344.179 157.381L344.294 157.735L343.753 157.739M344.637 158.799L339.446 164.515L346.093 161.632L344.555 160.22L340.838 163.796L343.621 162.358L343.818 161.291L345.013 161.638L344.243 160.933L344.784 160.929C345.399 161.494 344.353 159.037 343.753 157.739M343.753 157.739C343.845 158.022 343.715 157.62 343.639 157.384" stroke="#E1BE8C" stroke-width="0.5"/>
<path d="M251.084 154.452C254.589 150.919 256.243 149.857 262.073 144.85C265.497 141.91 261.716 144.627 260.175 145.682C258.141 147.075 254.798 152.201 255.206 150.381C255.596 148.64 259.349 143.936 259.355 145.681C259.369 149.633 252.439 153.082 251.499 157.052C251.395 157.494 254.579 153.854 255.429 153.09C259.285 149.628 257.619 152.009 256.12 154.574C254.084 158.058 256.365 152.167 256.762 151.392C258.4 148.196 258.735 150.201 257.281 152.293C254.998 155.576 256.715 153.83 258.979 152.353C260.45 151.393 257.891 156.112 257.819 156.765C257.765 157.247 262.893 152.423 259.546 155.789C257.731 157.614 258.3 156.433 258.749 155.128C259 154.4 256.33 156.792 255.654 157.084C254.362 157.643 256.702 154.961 255.628 156.021C254.244 157.387 253.085 159.738 251.135 160.84C249.732 161.633 251.856 158.577 252.161 157.441C252.299 156.927 251.179 157.052 251.816 155.43C252.389 153.974 255.683 149.883 254.697 151.265C254.065 152.152 253.533 153.062 252.867 153.941C252.37 154.598 251.967 156.42 251.256 155.88C248.078 153.471 255.362 148.382 249.396 155.331C246.095 159.175 250.19 146.857 244.252 155.593C241.376 159.823 245.712 148.988 245.933 150.828C246.16 152.711 244.753 154.645 244.973 156.478C245.055 157.158 245.599 154.863 245.749 156.107C246.191 159.78 244.761 152.869 246.379 153.678" stroke="#E1BE8C" stroke-width="3" stroke-linecap="round"/>
<path d="M244.847 152.191C247.516 150.463 250.054 148.852 253.531 147.774C255.19 147.259 254.679 147.439 253.579 148.029C251.977 148.889 250.633 149.91 249.054 150.771C248.479 151.085 246.102 151.718 247.639 150.845C248.463 150.377 255.879 147.029 255.904 147.065C256.36 147.721 251.65 150.02 251.079 150.332C249.427 151.236 246.463 153.005 244.081 153.098C243.164 153.134 245.813 151.162 245.933 151.071C247.888 149.594 249.638 148 252.03 146.767C252.206 146.677 255.191 145.381 254.228 146.218C252.572 147.656 250.792 149.121 248.928 150.462C247.19 151.712 245.429 152.965 243.618 154.177C242.784 154.735 243.8 153.367 243.906 153.187C246.062 149.533 250.325 146.905 255.036 144.405C258.418 142.609 250.453 149.168 247.338 151.138C247.005 151.349 243.285 153.599 244.241 152.296C245.82 150.146 247.984 148.021 250.253 146.106C251.592 144.976 253.083 143.954 254.752 143.004C255.606 142.518 255.499 142.814 255.171 143.324C253.08 146.577 249.604 149.983 245.878 152.671C245.682 152.812 243.857 154.184 244.225 153.341C244.957 151.665 246.575 150.159 248.088 148.697C250.196 146.66 257.459 140.959 255.491 143.045C252.313 146.415 249.118 149.573 244.934 152.542C243.331 153.679 241.711 154.855 239.721 155.746C239.173 155.992 241.074 154.439 241.293 154.254C245.625 150.607 250.147 146.981 255.064 143.613C255.134 143.565 257.015 142.25 256.688 143.145C256.328 144.129 255.504 145.245 254.86 146.181C253.235 148.542 251.17 150.825 249.108 153.06C248.318 153.917 247.477 154.759 246.729 155.63C246.384 156.032 245.377 156.982 245.592 157.5C245.786 157.966 249.641 156.232 249.891 156.111C251.682 155.238 253.388 154.304 255.204 153.45C256.09 153.034 257.612 152.139 258.821 152.048C259.25 152.015 258.69 152.368 258.666 152.384C257.634 153.077 256.406 153.688 255.273 154.316C252.348 155.936 249.276 157.442 245.993 158.773C244.855 159.235 243.651 159.518 245.232 158.619C248.292 156.879 251.977 155.424 255.452 154.037C256.713 153.534 258.018 153.072 259.395 152.708C260.6 152.388 260.069 152.711 259.582 153.083C257.623 154.579 255.737 156.096 253.699 157.555C253.405 157.765 249.693 160.769 249.191 160.658C249.045 160.625 249.374 160.494 249.481 160.419C249.892 160.132 250.393 159.82 250.828 159.561C252.74 158.422 254.753 157.351 256.765 156.28C258.038 155.603 259.317 154.932 260.512 154.203C261.208 153.778 262.712 152.313 262.549 152.897C262.462 153.208 261.638 153.76 261.37 153.976C259.993 155.082 258.472 156.125 256.979 157.173C255.348 158.316 253.011 160.52 250.45 160.979C250.066 161.048 252.764 158.46 253.119 158.166C254.875 156.71 256.831 155.341 258.675 153.924C260.38 152.615 257.664 155.242 257.445 155.461C255.9 157.007 254.413 158.623 252.2 159.863C250.196 160.986 251.284 159.551 251.834 158.88C252.942 157.525 254.608 156.262 255.332 154.809C255.456 154.561 255.439 154.459 255.073 154.639C253.931 155.201 252.871 155.809 251.678 156.333C249.885 157.121 246.387 158.469 244.154 157.749C243.806 157.636 242.676 156.86 243.643 156.738C245.308 156.529 247.288 156.974 249.007 156.918C251.034 156.853 250.021 156.956 248.823 157.381C247.113 157.988 245.678 158.745 244.572 159.751C244.438 159.873 244.156 160.231 244.576 159.934C245.596 159.214 246.283 158.282 247.075 157.475" stroke="#E1BE8C" stroke-width="3" stroke-linecap="round"/>
<path d="M247.749 164.269C248.935 163.058 249.668 161.728 250.641 160.457C251.66 159.124 252.91 157.878 253.867 156.526C254.279 155.943 254.87 155.408 255.418 154.868C256.336 153.965 257.227 153.054 258.194 152.168C258.194 152.168 259.14 151.293 259.227 151.402C259.44 151.667 259.513 152.05 259.633 152.327C259.834 152.789 260.051 153.237 260.375 153.667C260.904 154.369 260.543 155.199 260.075 155.922C259.183 157.299 257.7 158.49 256.387 159.724C256.029 160.06 255.706 160.419 255.264 160.715C254.422 161.28 253.602 161.785 253.018 162.469C252.253 163.365 251.746 164.333 250.428 165.002C250.211 165.113 249.956 165.2 249.757 165.326C249.394 165.555 248.846 165.613 248.484 165.848C247.858 166.254 246.807 166.077 246.19 165.862C244.769 165.366 244.639 164.081 243.168 163.62C243.046 163.582 242.174 163.375 242.053 163.483C242.04 163.494 242.081 163.503 242.1 163.509C243.833 164.049 240.004 162.814 242.859 163.725C243.63 163.971 244.338 164.275 245.076 164.553C245.386 164.669 246.145 165.071 246.558 165.064C246.689 165.062 246.559 164.893 246.485 164.829C245.942 164.361 245.198 163.969 244.537 163.566C244.478 163.53 243.466 162.882 243.477 162.881C244.271 162.821 245.253 163.209 246 163.325C246.684 163.431 246.485 163.31 245.999 163.161C245.184 162.911 244.349 162.682 243.531 162.437C242.695 162.187 242.266 162.054 241.467 161.808C241.214 161.731 240.89 161.702 240.718 161.564C240.703 161.552 240.765 161.541 240.792 161.542C241.125 161.559 241.9 161.685 242.118 161.721C243.31 161.921 244.485 162.154 245.671 162.366C245.858 162.4 247.998 162.844 246.642 162.49C245.727 162.251 244.738 162.029 243.91 161.69C243.8 161.645 244.178 161.633 244.311 161.644C245.633 161.744 246.93 161.954 248.221 162.136C248.577 162.186 248.962 162.269 249.327 162.309C249.709 162.352 248.633 162.108 248.278 162.017C245.658 161.348 242.826 160.837 240.338 160.003C239.28 159.648 242.794 160.092 243.993 160.231C244.916 160.337 245.839 160.443 246.764 160.541C247.113 160.578 247.258 160.592 247.571 160.633C247.642 160.643 247.832 160.693 247.784 160.661C247.766 160.649 247.738 160.645 247.714 160.639C247.276 160.526 246.828 160.425 246.389 160.312C244.642 159.865 242.937 159.374 241.274 158.826C240.832 158.681 240.394 158.532 239.964 158.376C239.7 158.28 238.947 158.044 239.259 158.014C239.969 157.945 240.666 158.127 241.356 158.216C242.838 158.408 244.738 158.696 246.176 158.919C248.183 159.23 250.178 159.565 252.18 159.885C252.607 159.953 253.14 160.064 253.606 160.08C253.732 160.085 253.425 159.974 253.313 159.941C252.287 159.638 251.222 159.382 250.175 159.107C250.057 159.076 248.482 158.672 249.451 158.773C249.907 158.821 250.36 158.878 250.814 158.93C251.34 158.991 251.143 158.972 250.756 158.891C249.498 158.626 248.312 158.26 247.173 157.849C246.894 157.749 246.636 157.639 247.061 157.582C247.228 157.56 247.396 157.478 247.489 157.389C247.627 157.256 247.692 157.099 247.789 156.956C248.093 156.51 248.541 156.123 249.009 155.733C250.063 154.856 251.165 154.031 252.486 153.297C253.792 152.572 255.046 151.792 256.827 151.615C258.434 151.456 260.445 152.18 260.713 153.202C260.824 153.628 260.866 153.896 260.194 154.088" stroke="#E1BE8C" stroke-width="3"/>
<path d="M240.121 152.993C240.575 152.455 240.912 151.885 241.37 151.348C241.642 151.028 242.054 150.757 242.306 150.436C242.662 149.982 243.057 149.57 243.269 149.09C243.461 148.657 243.921 148.311 244.347 147.949C244.699 147.651 244.983 147.333 245.318 147.029C245.735 146.651 246.17 146.316 246.673 145.971C247.513 145.397 248.236 144.822 249.17 144.297C249.811 143.937 250.313 143.501 250.894 143.107C251.372 142.784 251.967 142.544 252.459 142.23C253.107 141.817 253.626 141.309 254.169 140.845C254.385 140.66 254.69 140.389 254.993 140.269" stroke="#E1BE8C" stroke-linecap="square"/>
<path d="M255.651 141.055C254.086 142.267 252.45 143.489 251.069 144.782C250.497 145.318 250.105 145.912 249.564 146.458C249.04 146.988 248.533 147.51 248.04 148.048C247.383 148.765 246.674 149.433 245.903 150.11C245.252 150.682 244.627 151.265 243.722 151.703C243.422 151.849 243.105 152.04 242.724 152.06C242.082 152.093 242.789 151.08 242.864 150.957C243.423 150.04 244.296 149.345 245.215 148.556C245.676 148.16 246.149 147.792 246.679 147.429C246.805 147.343 247.169 147.01 247.395 146.993C247.467 146.988 246.668 148.438 246.589 148.54C246.208 149.033 245.71 149.491 245.259 149.962C244.805 150.437 244.422 150.944 243.932 151.406C243.57 151.748 243.073 152.071 242.521 152.299C242.452 152.328 242.303 152.413 242.325 152.308C242.424 151.84 242.733 151.359 242.97 150.91C243.299 150.288 243.54 149.611 243.974 149.01C244.007 148.965 244.091 148.845 244.112 148.89C244.211 149.106 243.755 149.675 243.655 149.848C243.274 150.515 242.786 151.147 242.344 151.799C242.088 152.178 242.403 151.498 242.432 151.412C242.523 151.142 243.116 150.39 242.864 150.623C242.311 151.135 241.849 151.73 241.392 152.275C241.367 152.305 241.24 152.543 241.164 152.565C240.933 152.631 241.135 152.259 241.166 152.106C241.315 151.384 241.598 150.653 242.247 150.02C242.372 149.897 242.612 149.777 242.472 150.038C242 150.917 241.303 151.749 240.937 152.648C240.917 152.697 240.879 152.839 240.902 152.656C240.943 152.327 241.022 151.998 241.123 151.672C241.259 151.233 241.357 150.602 241.746 150.199C242.069 149.863 240.972 150.824 240.651 151.161C240.174 151.661 239.807 152.309 239.199 152.76C239.039 152.878 239.37 152.472 239.451 152.328C239.618 152.031 239.773 151.733 239.919 151.432C240.009 151.248 240.094 151.061 240.233 150.887C240.385 150.696 240.057 151.295 239.94 151.494C239.873 151.608 239.806 151.723 239.736 151.837C239.678 151.931 239.62 152.192 239.532 152.112C239.455 152.042 239.616 151.749 239.64 151.675C239.777 151.259 239.87 150.818 240.083 150.412C240.102 150.375 239.899 150.957 239.844 151.066C239.82 151.115 239.409 151.958 239.503 151.57C239.565 151.31 239.761 151.105 239.992 150.883C240.358 150.531 239.652 151.3 239.586 151.37C239.222 151.75 239.349 151.488 239.484 151.233C239.855 150.536 240.36 149.888 241.125 149.312C241.962 148.682 242.681 148.035 243.363 147.34C243.732 146.964 244.058 146.666 244.605 146.381C245.393 145.97 245.818 145.44 246.472 144.965C246.811 144.717 247.336 144.581 247.683 144.338C248.049 144.081 248.29 143.813 248.613 143.525C248.933 143.239 249.318 143.005 249.708 142.754C250.353 142.339 250.476 141.828 250.943 141.361C251.446 140.857 252.31 140.516 252.791 140.009C253.235 139.539 253.629 139.105 254.281 138.727C254.984 138.319 255.336 137.788 255.879 137.307C256.128 137.086 256.404 136.778 256.723 136.598" stroke="#E1BE8C" stroke-linecap="square"/>
<path d="M241.944 150.103C243.009 149.343 243.891 148.504 245.057 147.797C245.731 147.389 246.359 146.984 246.965 146.539C248.152 145.667 249.596 145.013 250.952 144.256C252.017 143.661 253.109 143.075 254.223 142.515C255.156 142.046 256.155 141.585 256.951 141.023C257.544 140.605 258.168 140.186 258.853 139.823C259.63 139.41 258.688 139.618 258.216 139.764C256.432 140.317 255.001 141.404 253.693 142.307C252.382 143.211 251.241 144.185 250.011 145.127C249.785 145.3 249.236 145.869 249.37 145.664C250.346 144.178 251.908 142.882 253.136 141.469C253.484 141.069 253.788 140.657 254.134 140.257C254.358 139.999 253.656 140.764 253.412 141.016C252.714 141.739 252.004 142.459 251.207 143.144C250.976 143.342 250.653 143.526 250.433 143.729C249.532 144.563 252.375 142.12 253.379 141.33C253.563 141.186 254.207 140.696 254.516 140.535C254.632 140.473 254.437 140.716 254.36 140.798C253.807 141.381 253.291 141.983 252.695 142.551C252.308 142.919 251.872 143.263 251.423 143.603C251.384 143.633 250.977 144.008 250.825 144.019C250.785 144.023 251.599 142.709 251.62 142.676C252.122 141.876 252.545 141.04 253.207 140.278C253.429 140.023 253.385 140.101 253.1 140.352C251.851 141.449 250.484 142.482 249.198 143.56C248.498 144.146 249.633 143.325 249.758 143.242C250.977 142.43 251.938 141.531 253.078 140.686C253.187 140.605 253.908 140.118 253.567 140.554C252.666 141.706 251.735 142.939 250.376 143.928C249.799 144.348 251.162 142.945 251.548 142.452C252.177 141.647 252.926 140.947 253.744 140.21C253.848 140.117 254.117 139.838 254.097 139.949C254.042 140.245 253.22 140.783 252.993 141.021C252.466 141.572 251.183 143.317 251.604 142.734C252.234 141.863 252.847 141.039 253.655 140.211C254.102 139.754 254.543 139.294 255.019 138.847C255.657 138.245 254.02 140.147 253.352 140.737C253.315 140.77 252.484 141.525 252.771 141.103C253.137 140.564 253.628 140.049 254.041 139.521C254.475 138.967 253.818 139.906 253.769 139.973C253.386 140.501 253.023 141.032 252.707 141.575C252.527 141.883 252.274 142.248 252.224 142.578C252.193 142.789 253.488 142.096 253.581 142.047C253.846 141.908 254.497 141.394 254.879 141.365C255.026 141.354 254.432 142.101 254.365 142.179C254.313 142.241 254.013 142.691 253.874 142.697C253.757 142.702 253.995 142.124 254 142.114C254.273 141.565 254.578 140.993 254.913 140.455C255.129 140.107 254.03 140.992 253.953 141.052C253.899 141.094 252.892 141.88 253.501 141.532C254.275 141.089 254.818 140.525 255.53 140.054C256.426 139.46 254.28 141.474 253.553 142.148C251.763 143.806 249.775 145.413 247.492 146.833C247.424 146.875 246.065 147.935 246.076 147.426C246.085 146.936 246.353 146.437 246.716 145.995C246.915 145.754 247.342 145.493 247.469 145.234C247.548 145.074 247.102 145.486 246.954 145.628C246.058 146.482 245.188 147.337 244.24 148.17C243.624 148.712 242.986 149.249 242.455 149.824C242.283 150.01 242.23 150.225 242.069 150.404C241.964 150.522 242.121 150.139 242.192 150.013C242.524 149.424 243.104 148.904 243.648 148.379C243.954 148.084 244.246 147.784 244.556 147.491C244.751 147.306 244.698 147.428 244.519 147.562C243.891 148.034 243.162 148.454 242.525 148.922C241.768 149.479 241.12 150.075 240.495 150.687C240.445 150.736 240.097 151.167 240.285 150.867C240.899 149.881 241.643 148.979 242.605 148.097C242.767 147.948 242.956 147.698 243.185 147.572C243.185 147.572 243.276 147.537 243.29 147.553C243.332 147.603 243.219 147.662 243.166 147.71C242.877 147.972 242.562 148.224 242.267 148.483C242.115 148.617 241.794 148.835 241.741 149.009C241.72 149.076 241.775 149.063 241.84 149.018C242.268 148.715 242.682 148.398 243.095 148.087C243.401 147.857 243.674 147.618 243.952 147.375C243.996 147.337 244.301 147.105 244.175 147.337C243.996 147.668 242.957 148.528 243.292 148.242C243.857 147.76 244.316 147.237 244.929 146.774C244.978 146.738 245.031 146.657 245.096 146.677C245.143 146.692 245.052 146.739 245.022 146.767C244.87 146.915 244.715 147.062 244.562 147.209C244.407 147.359 243.968 147.669 243.916 147.856C243.878 147.99 244.264 147.678 244.419 147.578C244.701 147.394 245.621 146.771 245.89 146.593C246.164 146.412 246.542 146.068 247.002 146.034" stroke="#E1BE8C" stroke-linecap="square"/>
<path d="M238.7 150.509L256.995 132.732" stroke="#E1BE8C" stroke-width="0.5"/>
<path d="M256.592 136.182C256.129 136.903 255.706 137.498 254.82 138.06C254.735 138.114 252.983 139.244 253.328 139.375C253.43 139.413 254.175 138.649 254.189 138.636C254.981 137.921 255.871 137.294 256.928 136.72C257.146 136.601 258.265 135.885 258.692 135.962C258.778 135.978 258.545 136.033 258.466 136.063C258.161 136.18 257.865 136.295 257.594 136.444C256.873 136.839 256.313 137.337 255.606 137.739C255.234 137.95 254.613 138.182 254.951 137.69C255.353 137.104 255.702 136.511 256.394 136.019C256.477 135.959 256.724 135.757 256.873 135.746C256.95 135.74 256.54 136.099 256.535 136.103C255.965 136.531 255.388 136.99 254.756 137.384C254.368 137.626 255.39 136.828 255.713 136.552C255.879 136.412 256.052 136.279 256.243 136.15C256.31 136.105 256.563 135.952 256.359 136.103C256.014 136.359 255.618 136.599 255.235 136.834C254.758 137.127 256.607 135.426 256.163 135.737C255.904 135.919 255.741 136.177 255.544 136.385C255.525 136.405 256.052 136.035 256.189 135.95" stroke="#E1BE8C" stroke-linecap="square"/>
<path d="M255.331 137.736C254.448 137.568 255.456 136.526 255.701 136.206C255.702 136.204 256.366 135.357 256.499 135.408C256.866 135.549 255.737 136.645 255.581 136.766C255.461 136.86 254.782 137.393 254.503 137.383C254.29 137.375 254.27 136.91 254.256 136.817C254.226 136.616 254.249 136.915 254.205 136.985C254.093 137.161 253.893 137.339 253.731 137.501C253.717 137.515 253.795 137.251 253.836 137.187C253.863 137.145 253.972 136.958 254.095 136.966C254.137 136.968 254.124 137.132 254.118 137.008C254.108 136.787 254.212 136.544 254.359 136.339C254.514 136.124 254.26 136.511 254.225 136.557C253.87 137.014 254.172 136.466 254.416 136.291C254.529 136.21 254.487 136.205 254.508 136.088C254.541 135.899 254.716 135.671 254.941 135.533C255.012 135.49 255.066 135.532 255.105 135.483C255.16 135.413 255.171 135.325 255.239 135.26C255.334 135.169 255.323 135.091 255.4 135.004C255.614 134.766 255.285 135.535 255.215 135.8C255.147 136.054 254.857 136.44 254.554 136.625C254.07 136.922 253.759 137.537 253.621 137.93C253.462 138.388 253.095 138.76 252.689 139.164C252.264 139.588 251.835 140.057 251.315 140.442C251 140.676 250.803 140.878 250.592 141.155C250.419 141.382 250.359 141.713 250.022 141.878C249.427 142.171 249.006 142.452 248.545 142.817C248.294 143.016 248.11 143.278 247.799 143.444C247.324 143.697 246.898 143.935 246.65 144.29C246.457 144.566 246.281 144.81 246.02 145.075C245.863 145.235 245.769 145.586 245.384 145.615C244.886 145.652 244.68 145.98 244.325 146.137C244.279 146.158 244.154 146.42 244.16 146.469C244.173 146.581 244.077 146.813 243.99 146.911C243.878 147.035 243.745 147.282 243.46 147.333C243.048 147.407 242.741 147.806 242.534 147.99C242.361 148.143 242.192 148.384 242.165 148.564C242.146 148.688 242.137 148.692 242.027 148.793C241.977 148.84 241.742 148.932 241.731 148.966C241.676 149.13 241.227 149.308 241.139 149.502C241.071 149.652 240.655 149.843 240.489 149.966C240.383 150.044 240.372 150.097 240.226 150.158C240.081 150.218 240.161 150.294 240.044 150.355C239.725 150.521 239.99 150.761 239.452 150.782C239.39 150.784 239.231 150.651 239.288 150.608C239.402 150.524 239.642 150.613 239.774 150.487C239.887 150.379 239.794 150.289 239.983 150.179C240.09 150.117 240.094 150.052 240.201 149.988C240.388 149.876 240.193 149.566 240.355 149.446C240.451 149.375 240.55 149.379 240.619 149.268C240.7 149.138 240.766 149.014 240.934 148.911C241.14 148.784 241.433 148.673 241.721 148.546C242.387 148.25 242.317 147.718 242.685 147.282C242.826 147.116 243.044 146.83 243.305 146.716C243.486 146.638 243.582 146.486 243.701 146.37C243.854 146.22 244.185 146.14 244.261 145.972C244.355 145.765 244.819 145.513 245.027 145.325C245.21 145.16 245.429 145.001 245.65 144.857C245.759 144.786 246.071 144.683 246.109 144.626" stroke="#E1BE8C" stroke-linecap="round"/>
<path d="M245.38 144.582C246.362 144.158 246.86 143.479 247.679 142.972C248.052 142.742 248.267 142.443 248.548 142.175C248.671 142.058 248.64 141.939 248.72 141.818C248.856 141.61 249.064 141.365 249.315 141.199C249.909 140.807 250.805 140.479 250.847 139.893C250.854 139.798 251.08 139.661 251.128 139.555C251.156 139.494 251.31 139.304 251.378 139.26C251.696 139.057 251.895 138.722 252.088 138.474C252.275 138.234 252.583 137.977 252.752 137.755C252.831 137.651 252.958 137.391 252.986 137.623C253.015 137.866 253.075 138.112 252.976 138.356C252.915 138.505 252.866 138.629 252.884 138.781C252.922 139.097 252.96 139.414 252.998 139.731" stroke="#E1BE8C" stroke-linecap="round"/>
<path d="M253.319 137.051C253.705 136.969 254.25 136.847 253.535 136.838" stroke="#E1BE8C" stroke-linecap="round"/>
<path d="M251.686 138.846C251.472 139.053 251.212 139.216 251.051 139.435C250.971 139.543 251.05 139.705 250.955 139.789C250.835 139.896 250.806 140.07 250.723 140.197C250.603 140.379 250.233 140.383 250.192 140.505C250.185 140.526 250.047 140.618 250.016 140.633C249.871 140.699 249.976 140.72 249.892 140.79C249.865 140.811 249.435 140.982 249.64 140.893C250.122 140.685 250.016 140.519 250.087 140.22C250.096 140.179 250.156 140.07 250.222 140.049C250.408 139.991 250.234 140.496 250.221 140.519C249.982 140.927 249.712 141.315 249.622 141.744C249.585 141.922 249.443 142.134 249.449 142.309C249.454 142.464 249.049 142.454 248.979 142.339C248.91 142.225 248.85 142.01 248.611 142.028C248.448 142.04 247.958 142.074 247.913 142.206C247.864 142.355 247.722 142.545 247.725 142.685C247.727 142.752 247.461 142.793 247.432 142.882C247.39 143.007 247.29 143.079 247.306 143.208" stroke="#E1BE8C" stroke-linecap="round"/>
<path d="M251.119 139.479C250.968 139.565 250.503 139.711 250.516 139.819C250.531 139.943 250.464 140.05 250.478 140.166C250.505 140.39 250.291 140.721 249.905 140.75" stroke="#E1BE8C" stroke-linecap="round"/>
<path d="M261.473 159.338L251.2 169.483L246.444 167.107" stroke="#E1BE8C" stroke-width="0.5"/>
<path d="M253.504 163.984C253.726 163.938 254.213 163.897 254.404 163.812C254.479 163.779 254.397 163.709 254.468 163.676C254.571 163.628 254.748 163.597 254.865 163.562C255.379 163.405 255.623 163.262 255.314 162.99C255.179 162.871 255.965 162.632 256.137 162.586C256.49 162.493 256.439 162.488 256.358 162.274C256.305 162.133 256.544 162.236 256.609 162.171C256.668 162.113 255.978 162.027 256.1 162.018C256.338 162 257.983 161.846 257.096 161.757C256.863 161.734 257.197 161.704 257.305 161.681C257.592 161.622 257.869 161.595 258.163 161.568C258.275 161.557 257.965 161.503 257.855 161.493C257.808 161.488 257.159 161.427 257.163 161.424C257.371 161.27 257.995 161.187 258.311 161.163C258.585 161.142 257.809 161.072 257.709 161.061C257.517 161.041 258.185 161.034 258.264 160.921C258.342 160.809 258.054 160.811 257.945 160.797" stroke="#E1BE8C" stroke-linecap="round"/>
<path d="M257.945 160.797C258.381 160.415 258.895 160.017 259.157 159.578C259.354 159.247 259.494 158.906 259.706 158.578C260.009 158.112 260.374 157.675 260.816 157.257C260.845 157.23 261.293 156.656 261.445 156.838C261.744 157.196 261.207 157.96 260.987 158.306C260.637 158.856 260.203 159.317 259.675 159.804C259.627 159.848 259.264 160.32 259.331 160.138C259.435 159.857 259.752 159.473 260.008 159.227C260.196 159.045 260.512 158.926 260.748 158.77C260.923 158.654 260.932 158.587 260.914 158.809C260.901 158.959 260.783 159.104 260.815 159.254C260.83 159.32 261.037 159.047 261.068 159.019C261.341 158.774 261.405 158.809 261.435 159.059C261.453 159.205 261.016 159.274 260.827 159.351C260.619 159.435 260.262 159.681 260.159 159.817C259.972 160.063 259.535 160.229 259.339 160.496C259.156 160.743 258.752 161.066 258.442 161.252C258.274 161.353 258.1 161.466 257.959 161.583C257.869 161.658 257.842 161.739 257.708 161.796C257.555 161.861 257.656 161.928 257.564 162.006C257.232 162.286 257.2 162.608 256.828 162.87C256.465 163.125 255.902 163.312 255.594 163.605C255.496 163.698 255.271 163.969 255.283 164.068C255.287 164.096 255.215 164.227 255.241 164.235C255.35 164.272 256.051 163.836 256.16 163.784C256.705 163.523 256.961 163.114 257.25 162.74C257.483 162.438 257.591 162.122 257.952 161.854C258.061 161.773 258.426 161.566 258.216 161.635C257.372 161.909 256.573 162.235 255.716 162.503C255.44 162.59 255.082 162.678 254.875 162.831C254.727 162.941 254.286 163.307 254.25 163.46C254.204 163.656 253.684 163.776 253.446 163.873C252.618 164.21 252.274 164.769 251.93 165.31C251.773 165.558 251.607 165.896 251.522 166.149C251.451 166.361 251.227 166.526 251.082 166.723C250.939 166.917 250.841 167.244 250.866 167.452C250.898 167.716 250.761 167.915 250.792 168.171C250.8 168.244 250.847 168.838 251.07 168.781C251.304 168.721 251.608 168.445 251.739 168.321C251.86 168.206 251.809 168.052 251.909 167.95C252.167 167.687 252.238 167.357 252.636 167.125C253.225 166.781 253.661 166.467 253.905 165.98C254.268 165.256 255.087 164.556 255.7 163.892C255.84 163.74 256.311 163.302 256.137 163.441C255.503 163.949 254.94 164.487 254.324 165.004C253.982 165.29 253.673 165.584 253.329 165.871C252.894 166.235 252.401 166.565 251.983 166.936C251.936 166.978 251.711 167.182 251.695 167.141C251.527 166.701 251.951 166.218 252.298 165.836C252.884 165.19 253.377 164.529 253.919 163.87C253.934 163.853 254.519 163.182 254.67 163.278C254.859 163.4 254.325 163.916 254.248 164.042C254.231 164.071 254.042 164.504 254.209 164.351C254.319 164.252 254.709 163.858 254.994 164C255.139 164.072 255.095 164.479 255.218 164.491C255.561 164.525 255.072 164.653 254.895 164.704C253.584 165.079 252.478 165.71 251.664 166.433C251.368 166.695 251.113 166.952 250.758 167.19C250.501 167.362 250.227 167.637 250.129 167.866C250.078 167.986 250.145 168.147 250.16 168.268C250.167 168.326 249.814 168.041 249.766 168.002C249.681 167.933 249.496 167.791 249.454 167.706C249.393 167.584 249.147 167.529 249.03 167.418C248.906 167.301 248.279 167.131 248.015 167.151" stroke="#E1BE8C" stroke-linecap="round"/>
<path d="M246.637 167.058C247.001 167.228 247.415 167.302 247.838 167.385C248.063 167.429 248.428 167.478 248.609 167.559C248.813 167.65 248.923 167.711 249.107 167.831C249.341 167.983 249.644 168.099 249.838 168.27C249.905 168.328 250.534 168.507 250.584 168.449C250.807 168.184 250.666 167.665 250.678 167.376C250.69 167.093 250.703 166.834 250.257 166.698C250.068 166.64 248.762 166.412 249.029 166.85C249.116 166.993 251.263 166.621 249.369 166.857C248.763 166.933 249.408 167.089 249.677 167.075C250 167.058 249.511 167.045 249.448 167.032C249.385 167.019 249.951 167.164 250.1 167.209C250.507 167.335 249.106 167.348 248.942 167.351C248.288 167.365 248.479 167.428 248.915 167.575C249.506 167.773 248.404 167.598 248.233 167.549C247.835 167.435 247.771 167.366 247.304 167.401C247.099 167.416 247.936 167.676 247.548 167.574C247.388 167.531 247.316 167.332 247.111 167.32C247.078 167.318 246.82 167.266 246.944 167.234C247.643 167.055 248.23 167.823 248.814 167.779" stroke="#E1BE8C" stroke-linecap="round"/>
<path d="M267.318 176.079L247.496 170.543" stroke="#FFDCA0" stroke-width="0.5"/>
<path d="M256.993 175.221C256.683 175.315 256.715 175.419 256.805 175.617C256.822 175.653 257.151 176.06 257.064 176.117C257.022 176.144 256.943 176.132 256.885 176.126C256.546 176.089 255.886 175.915 255.659 175.859C254.381 175.544 253.096 175.229 251.848 174.876C250.809 174.582 249.784 174.246 249.007 173.726C248.889 173.646 249.258 173.877 249.39 173.949C250.511 174.561 251.813 175.063 253.081 175.552C256.124 176.725 259.246 177.824 262.416 178.867C264.493 179.551 266.597 180.229 268.797 180.767C269.629 180.97 270.495 181.144 271.363 181.29C271.433 181.302 271.5 181.32 271.573 181.322C271.761 181.327 271.229 181.238 271.057 181.196C267.771 180.41 264.609 179.437 261.457 178.482C260.829 178.291 259.043 177.617 259.623 177.856C260.199 178.093 260.824 178.285 261.425 178.498C262.788 178.98 264.095 179.509 265.429 180.018C265.825 180.169 266.226 180.317 266.628 180.463C266.978 180.591 268.005 180.919 267.589 180.924C267.135 180.93 266.691 180.866 266.25 180.812C264.491 180.598 261.663 180.156 260.008 179.872C257.918 179.515 255.942 179.059 253.921 178.61C253.388 178.491 254.911 178.942 255.4 179.114C257.05 179.697 258.683 180.297 260.324 180.888C262.113 181.531 263.959 182.128 265.725 182.792C267.002 183.273 263.074 181.93 261.739 181.509C260.624 181.157 259.478 180.843 258.351 180.505C257.71 180.313 256.92 180.121 256.339 179.856C256.044 179.722 257.075 179.931 257.426 180.003C259.864 180.499 262.251 181.087 264.619 181.686C265.79 181.981 266.964 182.282 268.1 182.623C268.229 182.661 268.37 182.692 268.478 182.75C268.733 182.888 267.818 182.632 267.494 182.563C264.535 181.937 261.522 181.395 258.585 180.735C258.355 180.683 258.129 180.627 257.9 180.576C257.745 180.542 257.521 180.485 257.782 180.598C258.533 180.924 259.339 181.217 260.123 181.511C262.641 182.459 265.2 183.436 267.958 184.121C268.02 184.136 268.097 184.137 268.143 184.166C268.299 184.263 267.702 184.117 267.483 184.088C265.895 183.879 264.32 183.649 262.767 183.367C260.721 182.997 258.715 182.56 256.715 182.116C256.169 181.994 254.599 181.558 255.071 181.761C256.825 182.517 258.823 183.131 260.724 183.743C261.631 184.035 260.692 183.84 260.259 183.762C258.048 183.365 255.893 182.883 253.753 182.375C251.674 181.882 249.513 181.425 247.518 180.817C247.225 180.728 248.149 180.934 248.46 180.998C250.374 181.394 252.263 181.824 254.131 182.287C256.908 182.977 259.617 183.769 262.438 184.397C264.383 184.829 258.63 183.416 256.749 182.896C255.913 182.665 255.01 182.439 254.226 182.143C254.171 182.122 254.052 182.1 254.082 182.062C254.113 182.023 254.223 182.053 254.291 182.06C254.509 182.084 254.722 182.121 254.935 182.156C256.953 182.491 258.886 182.974 260.851 183.397C261.055 183.441 261.267 183.491 261.48 183.524C261.728 183.562 260.984 183.445 260.736 183.406C259.25 183.171 257.806 182.854 256.332 182.602" stroke="#E1BE8C" stroke-width="4" stroke-linecap="round"/>
<path d="M253.875 176.732C253.01 176.264 252.056 175.858 251.198 175.387C251.156 175.364 251.068 175.281 251.12 175.294C251.495 175.395 251.84 175.532 252.196 175.655C254.186 176.343 256.142 177.07 258.193 177.693C258.604 177.818 259.081 177.963 259.564 177.988C259.644 177.992 259.635 177.988 259.539 177.967C258.809 177.809 258.091 177.656 257.376 177.471C255.495 176.985 250.008 175.339 251.769 175.964C253.251 176.491 254.665 177.078 256.123 177.627C257.777 178.25 259.545 178.719 261.293 179.236C264.248 180.109 255.089 177.867 252.142 176.984C250.233 176.412 248.156 175.854 246.378 175.134C246.249 175.082 246.679 175.186 246.823 175.222C248.037 175.528 249.232 175.857 250.4 176.221C252.181 176.775 253.888 177.407 255.636 177.996C255.806 178.053 256.442 178.26 256.657 178.335C256.733 178.362 256.808 178.39 256.88 178.419C256.971 178.456 257.052 178.488 256.875 178.463C255.443 178.266 254.008 177.946 252.638 177.647C251.243 177.342 250.483 177.152 249.143 176.784C248.697 176.662 248.258 176.531 247.818 176.401C247.459 176.296 247.14 176.127 246.746 176.079C246.416 176.039 247.292 176.312 247.58 176.415C249.187 176.986 250.888 177.534 252.543 178.041C255.527 178.955 258.504 179.808 261.546 180.654C264.134 181.373 266.924 181.978 269.441 182.789C270.105 183.003 268.004 182.506 267.299 182.344C265.472 181.924 262.039 181.113 260.322 180.709C256.757 179.87 253.092 179.11 249.602 178.166C247.895 177.705 253.16 178.883 254.889 179.315C258.169 180.134 261.417 181.018 264.626 181.93C264.885 182.003 265.116 182.061 264.671 181.993C263.922 181.877 262.596 181.63 262.01 181.518C258.19 180.789 254.467 179.895 250.631 179.196C250.443 179.162 249.876 179.078 250.047 179.135C250.822 179.39 251.633 179.605 252.423 179.844C257.053 181.246 261.685 182.647 266.519 183.794C267.34 183.989 267.565 184.038 268.26 184.173C268.504 184.221 268.581 184.236 268.297 184.168C264.7 183.309 261.011 182.581 257.359 181.807C255.961 181.51 254.754 181.255 253.394 180.947C253.057 180.871 252.029 180.697 252.392 180.707C252.864 180.719 253.26 180.913 253.694 181.016C256.08 181.585 258.471 182.147 260.849 182.727C262.766 183.195 268.415 184.737 266.54 184.214C263.463 183.354 260.269 182.634 257.06 181.964C255.11 181.557 253.121 181.105 251.115 180.789C251.056 180.78 250.883 180.756 250.933 180.775C251.119 180.848 251.329 180.897 251.531 180.952C254.322 181.714 257.169 182.413 260.002 183.118C263.271 183.931 266.548 184.786 269.959 185.384C270.498 185.479 270.515 185.468 270.232 185.414C268.243 185.034 266.269 184.631 264.29 184.234C260.431 183.462 256.541 182.75 252.662 182.014C252.296 181.944 251.219 181.706 251.572 181.794C252.677 182.068 253.772 182.344 254.869 182.63C258.552 183.592 262.225 184.566 265.995 185.408C266.794 185.587 267.476 185.723 268.261 185.887C268.324 185.901 268.514 185.936 268.449 185.928C267.983 185.87 267.545 185.755 267.096 185.664C263.893 185.015 260.704 184.342 257.475 183.736C255.791 183.42 255.238 183.328 253.659 183.058C252.468 182.853 251.956 182.756 253.605 183.197C257.162 184.147 260.753 185.055 264.366 185.929C264.8 186.034 265.235 186.136 265.669 186.24C265.831 186.279 266.046 186.275 266.154 186.357C266.256 186.434 265.847 186.291 265.693 186.259C264.207 185.948 264.079 185.925 262.313 185.569C259.023 184.905 255.728 184.247 252.457 183.551C252.047 183.464 251.606 183.373 251.2 183.268C250.683 183.135 252.252 183.508 252.774 183.635C256.418 184.519 260.049 185.424 263.722 186.266C264.003 186.33 264.845 186.526 264.571 186.451C263.78 186.235 262.874 186.085 262.059 185.915C259.952 185.474 257.853 185.021 255.759 184.559C255.499 184.501 255.256 184.368 254.975 184.389C254.904 184.394 255.109 184.418 255.175 184.433C255.831 184.583 255.95 184.612 256.708 184.796C257.976 185.103 259.233 185.434 260.529 185.698C262.2 186.039 257.285 184.869 255.632 184.499C254.66 184.282 253.357 183.907 252.263 183.861C251.969 183.848 252.807 183.987 253.079 184.051C254.722 184.441 256.349 184.853 257.974 185.268C258.615 185.432 259.677 185.706 260.38 185.888C260.557 185.934 261.102 186.028 260.906 186.034C260.633 186.041 260.39 185.941 260.136 185.886C258.691 185.572 257.268 185.226 255.83 184.901C254.473 184.594 253.105 184.31 251.73 184.034C251.515 183.99 250.998 183.9 251.561 183.877C252.007 183.859 252.456 183.878 252.896 183.905C252.999 183.911 253.102 183.935 252.952 183.871C252.322 183.601 251.626 183.373 250.963 183.135C249.535 182.623 248.092 182.128 246.657 181.624C246.385 181.528 245.713 181.291 245.39 181.17C245.332 181.148 244.794 180.968 245.299 181.069C246.996 181.41 248.613 181.873 250.3 182.228C250.442 182.258 250.862 182.345 250.742 182.291C250.267 182.08 249.678 181.927 249.185 181.731C248.738 181.554 248.057 181.266 247.617 181.078C247.342 180.96 246.92 180.892 246.837 180.69C246.76 180.505 249.352 180.846 249.485 180.871C252.381 181.405 248.331 180.673 250.735 181.12C250.804 181.133 251.011 181.141 250.952 181.117C249.097 180.375 246.994 179.876 245.147 179.115C244.832 178.985 244.278 178.748 243.982 178.548C243.748 178.39 243.972 178.431 244.235 178.47C246.678 178.827 249.025 179.454 251.401 179.935C251.906 180.037 253.104 180.388 252.141 179.801C249.993 178.493 247.502 177.418 245.285 176.157C245.239 176.131 243.036 174.867 243.457 174.681C243.575 174.63 243.742 174.65 243.881 174.661C244.239 174.69 244.586 174.75 244.935 174.801C246.75 175.07 248.546 175.393 250.308 175.761C252.018 176.118 251.543 176.045 253.026 176.394C253.29 176.456 253.962 176.668 253.862 176.504C253.792 176.391 253.615 176.316 253.47 176.234C253.159 176.058 252.83 175.894 252.497 175.733C251.091 175.054 249.617 174.426 248.175 173.775C248.103 173.742 247.231 173.351 247.006 173.229C246.776 173.104 246.901 173.128 247.193 173.167C249.404 173.462 251.561 173.987 253.611 174.542C253.84 174.604 254.399 174.872 254.293 174.733C254.172 174.576 252.953 174.216 252.841 174.176C251.439 173.682 249.926 173.309 248.531 172.81C247.628 172.487 252.285 173.93 251.29 173.723C250.265 173.51 249.281 173.193 248.33 172.887C247.854 172.733 247.536 172.621 247.086 172.463C247.023 172.441 246.641 172.335 246.564 172.267C246.357 172.082 247.3 172.367 247.673 172.339C248.074 172.309 247.267 171.865 248.081 171.997C248.522 172.068 249.108 172.131 249.443 172.334C249.574 172.413 249.781 172.585 249.97 172.617C250.316 172.673 249.279 172.486 248.986 172.364C248.781 172.278 248.599 172.185 248.404 172.096C248.299 172.049 248.24 171.927 248.139 171.86C248.008 171.772 247.819 171.725 247.735 171.609C247.556 171.36 247.379 171.122 247.083 170.919C246.817 170.735 246.571 170.733 246.255 170.633C246.141 170.597 245.892 170.556 245.816 170.497C245.234 170.039 246.817 171.493 247.458 171.92C248.312 172.489 249.311 172.983 250.345 173.424C252.875 174.503 255.576 175.444 258.222 176.414C260.509 177.252 262.96 177.924 265.331 178.675C265.625 178.769 265.83 178.835 266.048 178.978C266.81 179.479 267.831 179.808 268.756 180.18C270.19 180.755 271.592 181.356 273.03 181.926C273.541 182.129 274.141 182.322 274.546 182.609C274.844 182.82 273.739 182.339 273.388 182.16C273.142 182.035 272.837 181.89 272.662 181.725C272.481 181.555 272.036 181.442 271.774 181.316C271.468 181.169 271.228 181.046 270.971 180.862C270.666 180.642 270.195 180.529 269.832 180.35C269.414 180.144 269.107 179.875 268.712 179.657C268.547 179.566 268.369 179.496 268.206 179.402C268.02 179.294 267.92 179.082 267.814 178.937C267.728 178.821 267.769 178.653 267.584 178.584C267.43 178.526 267.271 178.434 267.081 178.42C266.779 178.397 266.55 178.28 266.428 178.117C266.239 177.865 265.302 177.493 264.88 177.51C264.48 177.526 264.277 177.398 263.902 177.346C263.513 177.291 263.146 177.241 262.766 177.166C262.289 177.072 261.866 176.776 261.354 176.755C260.755 176.73 260.183 176.561 259.605 176.466C259.184 176.396 258.815 176.369 258.464 176.218C257.901 175.974 257.354 175.73 256.732 175.533C256.233 175.375 255.682 175.293 255.194 175.13C254.849 175.015 254.464 174.973 254.127 174.851C253.729 174.706 252.213 174.354 251.891 174.735C251.459 175.246 251.555 175.956 251.615 176.491C251.69 177.146 251.917 177.749 252.372 178.331C253.165 179.345 254.356 180.27 255.561 181.104C257.024 182.118 258.717 183.029 260.368 183.923C263.472 185.605 266.723 187.186 270.044 188.705C270.76 189.033 271.555 189.333 272.239 189.689C272.482 189.815 272.616 190.067 272.685 190.25C272.883 190.782 272.191 191.289 271.325 191.391C270.542 191.484 269.717 191.311 269.221 190.95C268.931 190.739 268.782 190.531 268.375 190.387C268.007 190.257 267.551 190.217 267.206 190.065C266.915 189.937 266.842 189.713 266.536 189.596C266.345 189.523 266.249 189.392 266.031 189.314C265.791 189.229 265.473 189.184 265.265 189.074C264.782 188.82 264.21 188.43 263.587 188.315C263.094 188.224 262.547 187.956 262.161 187.756C261.782 187.559 261.266 187.448 260.808 187.332C260.338 187.212 259.895 187.039 259.425 186.91C258.947 186.779 258.55 186.592 258.136 186.398C257.595 186.144 256.86 186.14 256.347 185.835C255.781 185.498 255.071 185.298 254.406 185.033C254.191 184.948 254.029 184.816 253.811 184.728C253.421 184.571 253.018 184.448 252.576 184.35C251.803 184.178 251.051 183.72 250.497 183.371" stroke="#FFDCA0" stroke-width="4" stroke-linecap="round"/>
<path d="M265.698 190.465C265.702 190.495 265.751 191.02 265.489 190.966C265.27 190.921 265.016 190.703 264.81 190.616C264.556 190.509 264.202 190.447 263.899 190.351C263.728 190.297 263.616 190.194 263.451 190.14C263.21 190.06 262.973 189.986 262.761 189.88C262.397 189.698 261.93 189.554 261.652 189.309C261.583 189.249 261.321 189.173 261.212 189.137C261.124 189.107 260.665 188.995 260.817 189.022C261.273 189.105 261.408 189.378 261.771 189.52C261.919 189.578 261.487 189.39 261.321 189.353C261.11 189.306 260.881 189.327 260.675 189.273C260.509 189.23 260.335 189.111 260.154 189.052C260.041 189.014 259.907 188.95 259.822 188.907C259.71 188.851 259.659 188.742 259.519 188.685C259.376 188.628 258.926 188.428 258.77 188.433C258.302 188.446 257.813 188.243 257.463 188.078C257.295 187.999 256.94 187.976 256.733 187.925C256.472 187.86 256.233 187.803 255.99 187.717C255.799 187.65 255.699 187.5 255.534 187.418C255.393 187.347 255.298 187.252 255.132 187.182C255.017 187.134 254.561 187.038 254.41 187.033C254.156 187.024 253.948 186.946 253.733 186.876C253.289 186.732 252.917 186.516 252.474 186.362C252.223 186.275 252.047 186.157 251.768 186.095C251.568 186.05 251.253 185.964 251.085 185.89C250.85 185.786 250.525 185.72 250.264 185.634C249.906 185.515 249.566 185.312 249.359 185.105" stroke="#FFDCA0" stroke-linecap="round"/>
<path d="M267.795 176.433C266.96 176.206 266.081 176.028 265.229 175.826C264.931 175.755 264.649 175.736 264.337 175.687C263.98 175.63 263.701 175.687 263.349 175.564C262.997 175.442 262.638 175.302 262.266 175.204C261.97 175.127 261.693 175.049 261.393 174.979C261.303 174.959 261.026 174.914 261.124 174.917C261.671 174.935 262.25 175.093 262.752 175.207C263.498 175.375 264.11 175.671 264.934 175.733C265.474 175.775 264.197 175.717 264.07 175.705C263.286 175.63 262.341 175.575 261.621 175.383C261.299 175.297 260.997 175.197 260.665 175.119C260.369 175.049 260.039 175.033 259.796 174.894C259.69 174.833 260.414 174.82 260.468 174.82C261.035 174.826 261.572 174.991 262.089 175.106C262.572 175.213 262.426 175.165 261.976 175.096C261.35 174.999 260.705 174.918 260.068 174.85C259.802 174.822 260.55 174.817 260.681 174.784C260.929 174.72 260.229 174.621 259.976 174.583C259.687 174.539 259.479 174.42 259.221 174.342C258.389 174.093 257.45 173.975 256.619 173.682C256.135 173.512 255.649 173.304 255.097 173.22C254.525 173.133 253.658 172.995 253.257 172.732C253.04 172.589 252.842 172.516 252.817 172.312C252.804 172.203 254.012 172.605 254.187 172.689C254.473 172.827 254.767 172.979 255.068 173.106C255.195 173.159 255.4 173.155 255.549 173.186C256.02 173.284 256.493 173.374 256.933 173.494C257.364 173.611 257.66 173.79 258.123 173.866" stroke="#FFDCA0" stroke-linecap="round"/>
<path d="M252.126 171.715C251.39 171.337 250.851 170.788 250.087 170.448C249.931 170.378 249.822 170.224 249.712 170.126C249.512 169.949 249.089 169.818 248.774 169.734C247.836 169.484 247.067 169.18 246.601 168.593C246.207 168.097 247.519 168.467 247.775 168.583C248.232 168.79 248.749 168.932 249.157 169.179C249.361 169.303 249.626 169.447 249.83 169.549C250.109 169.689 250.293 169.937 250.642 170.015" stroke="#FFDCA0" stroke-linecap="round"/>
<path d="M246.658 168.255C246.877 168.305 247.381 168.387 247.436 168.567C247.45 168.612 247.584 168.638 247.555 168.682C247.515 168.743 247.253 168.601 247.237 168.591C246.954 168.419 246.734 168.254 246.438 168.107" stroke="#FFDCA0" stroke-linecap="round"/>
<path d="M250.163 168.279C249.628 168.217 249.025 168.25 248.637 168.033C248.575 167.998 248.534 167.956 248.44 167.956C248.338 167.956 248.36 167.859 248.289 167.821C248.091 167.716 247.938 167.604 247.683 167.539C247.401 167.468 247.083 167.387 246.845 167.294C246.619 167.205 247.134 167.382 247.259 167.407C247.443 167.443 247.608 167.511 247.724 167.598" stroke="#E1BE8C" stroke-opacity="0.85" stroke-linecap="round"/>
<path d="M251.136 169.648C251.031 169.58 250.787 169.408 250.631 169.366C250.427 169.31 250.3 169.126 250.151 169.022C249.915 168.856 249.714 168.612 249.397 168.502C249.163 168.421 248.923 168.406 248.711 168.309C248.449 168.189 248.084 168.123 247.867 167.953C247.748 167.859 247.391 167.548 247.18 167.557C246.993 167.565 246.227 167.357 246.134 167.265" stroke="#E1BE8C" stroke-opacity="0.85" stroke-linecap="round"/>
<path d="M251.057 170.107C250.565 169.808 249.772 169.604 249.11 169.48C248.879 169.437 248.656 169.316 248.459 169.229C248.073 169.06 247.693 168.909 247.32 168.722C246.842 168.484 246.353 168.274 245.828 168.079C245.47 167.946 244.975 167.706 244.943 167.437" stroke="#FFDCA0" stroke-opacity="0.85" stroke-linecap="round"/>
<path d="M266.686 176.126L251.246 169.87" stroke="#FFDCA0" stroke-width="0.5"/>
<path d="M251.21 170.26C251.92 170.572 252.575 170.926 253.342 171.189C253.788 171.341 254.28 171.448 254.677 171.647C255.091 171.853 255.434 172.096 255.91 172.254C256.672 172.506 257.49 172.684 258.195 173.02C258.425 173.13 258.647 173.194 258.913 173.264C259.074 173.306 259.119 173.396 259.296 173.402C259.5 173.409 259.627 173.578 259.768 173.652C259.985 173.767 260.164 173.958 260.451 174.013C260.631 174.047 260.713 174.161 260.843 174.189" stroke="#FFDCA0" stroke-opacity="0.85" stroke-linecap="round"/>
<path d="M255.624 172.234C255.316 171.812 254.783 171.61 254.068 171.496C253.646 171.428 253.169 171.153 252.874 170.963C252.762 170.891 252.388 170.796 252.218 170.802C252.16 170.804 251.787 170.706 251.888 170.79C252.302 171.138 253.011 171.37 253.567 171.627C253.891 171.777 254.149 171.929 254.432 172.098C254.979 172.423 255.623 172.541 256.288 172.779C256.681 172.92 257.051 173.063 257.45 173.168C257.728 173.241 257.969 173.462 258.239 173.571C258.684 173.75 259.218 173.849 259.61 174.074C259.746 174.153 260.008 174.182 260.204 174.194C260.376 174.204 261.176 174.286 260.642 174.225C260.391 174.197 259.945 174.111 259.793 173.98C259.647 173.855 259.4 173.675 259.189 173.595C258.996 173.522 258.77 173.4 258.519 173.344C257.969 173.222 257.764 172.915 257.239 172.781C256.484 172.589 255.841 172.323 255.075 172.152" stroke="#FFDCA0" stroke-linecap="round"/>
<path d="M251.167 170.469C251.468 170.668 251.807 170.82 252.157 170.981C252.215 171.007 252.403 171.041 252.384 171.096C252.346 171.209 251.206 171.097 251.1 171.09C250.388 171.043 249.728 171.016 249.18 170.742C248.004 170.155 246.435 169.947 244.955 169.784" stroke="#FFDCA0" stroke-linecap="round"/>
<path d="M251.246 169.87L245.178 167.203" stroke="#FFDCA0" stroke-width="0.5"/>
<path d="M249.311 185.635L270.772 194.171" stroke="#FFDCA0" stroke-width="0.5"/>
<path d="M266.11 191.093C265.732 190.918 264.568 190.466 264.829 190.709C264.967 190.837 265.427 190.95 265.623 191.024C265.888 191.124 266.16 191.222 266.416 191.331C266.693 191.449 265.622 191.295 265.58 191.288C265.49 191.275 264.514 191.078 264.612 191.206C264.786 191.433 264.33 191.233 264.221 191.194C264.047 191.131 263.741 190.996 263.725 190.861" stroke="#FFDCA0" stroke-linecap="round"/>
<path d="M188.96 161.673L180.947 158.762" stroke="#FFDCA0" stroke-width="0.5"/>
<path d="M201.011 155.69L193.612 147.266" stroke="#FFDCA0" stroke-width="0.5"/>
<path d="M188.483 156.597C187.403 156.246 186.359 155.86 185.317 155.47C184.387 155.121 183.431 154.776 182.547 154.383C182.327 154.285 182.691 154.428 182.706 154.435C183.558 154.799 184.366 155.201 185.22 155.56C185.572 155.708 185.955 155.809 186.339 155.921C186.632 156.007 186.788 156.056 187.064 156.156C187.189 156.201 187.57 156.298 187.422 156.309C187.358 156.314 187.302 156.285 187.245 156.269C186.712 156.126 186.191 155.968 185.662 155.819C185.021 155.639 183.119 155.096 183.684 155.352C185.294 156.081 187.13 156.67 188.845 157.303C190.086 157.761 191.394 158.188 192.559 158.717C192.593 158.733 192.693 158.776 192.652 158.77C192.305 158.717 192.028 158.564 191.712 158.466C190.428 158.064 189.11 157.702 187.806 157.323C186.955 157.075 186.12 156.805 185.254 156.576C185.104 156.536 184.664 156.422 184.781 156.492C185.133 156.702 185.59 156.838 186.007 156.999C187.112 157.427 188.24 157.829 189.389 158.211C189.767 158.337 190.939 158.654 190.515 158.597C189.928 158.517 189.27 158.274 188.731 158.138C187.934 157.937 187.123 157.756 186.329 157.551C186.246 157.529 186.16 157.51 186.082 157.482C185.893 157.413 186.498 157.573 186.701 157.625C187.746 157.891 188.777 158.174 189.768 158.505C190.002 158.584 190.233 158.665 190.457 158.753C190.596 158.807 190.985 158.951 190.817 158.959C190.415 158.981 190.047 158.838 189.674 158.756C189.077 158.625 187.47 158.24 186.941 158.112C185.855 157.849 184.736 157.601 183.714 157.255C182.789 156.942 183.756 157.209 183.846 157.238C185.039 157.619 186.215 158.021 187.376 158.434C187.953 158.639 188.502 158.838 189.054 159.061C189.176 159.111 189.529 159.19 189.392 159.23C189.256 159.271 188.461 158.985 188.43 158.976C187.794 158.78 187.167 158.573 186.531 158.377C186.25 158.289 185.96 158.208 185.685 158.113C185.359 158.001 186.361 158.31 186.691 158.417C188.313 158.943 189.926 159.467 191.585 159.95C191.674 159.976 191.764 160.001 191.85 160.03C192.046 160.093 191.741 160.027 191.731 160.025C191.009 159.887 190.301 159.721 189.602 159.547C187.813 159.103 186.098 158.549 184.297 158.124C184.269 158.118 184.241 158.106 184.211 158.11C184.101 158.125 184.399 158.18 184.496 158.211C185.487 158.535 186.47 158.866 187.46 159.19C188.074 159.391 188.694 159.588 189.303 159.795C189.393 159.826 189.664 159.911 189.559 159.903C189.286 159.882 188.965 159.794 188.714 159.743C187.666 159.532 186.653 159.279 185.67 158.979C185.574 158.95 184.699 158.727 184.606 158.612C184.592 158.595 184.665 158.624 184.692 158.632C184.912 158.698 185.479 158.885 185.631 158.935C186.585 159.249 187.533 159.623 188.543 159.874C189.017 159.992 187.575 159.669 187.092 159.564C186.439 159.422 185.701 159.301 185.115 159.072C184.973 159.016 185.421 159.16 185.573 159.205C186.372 159.445 187.173 159.682 187.965 159.929C188.517 160.102 189.083 160.273 189.6 160.482C189.843 160.581 189.883 160.616 189.523 160.517C188.351 160.197 187.158 159.914 185.967 159.62C185.922 159.609 185.878 159.596 185.833 159.584C185.742 159.56 185.81 159.577 185.848 159.585C186.365 159.693 186.863 159.814 187.344 159.972C187.758 160.107 188.151 160.264 188.559 160.406C188.731 160.466 188.959 160.519 189.115 160.596C189.207 160.642 188.88 160.562 188.77 160.533C188.182 160.378 187.634 160.178 187.063 160.001C187.006 159.984 186.073 159.708 186.592 159.897C187.258 160.139 187.882 160.421 188.556 160.654C188.609 160.673 189.222 160.851 188.798 160.759C188.373 160.667 187.988 160.534 187.642 160.361C187.624 160.352 187.581 160.321 187.6 160.329C187.67 160.359 187.737 160.4 187.805 160.43C187.868 160.459 188.559 160.74 188.503 160.769C188.367 160.84 188.988 161.025 189.085 161.083C189.222 161.165 188.922 161.037 188.865 161.024C188.681 160.98 188.499 160.939 188.313 160.9C187.997 160.835 187.67 160.758 187.381 160.655C186.884 160.478 186.425 160.272 185.915 160.104C185.784 160.061 185.633 160.043 185.516 159.985C185.372 159.913 185.239 159.832 185.091 159.762C184.848 159.647 184.529 159.628 184.262 159.543C183.868 159.419 183.527 159.25 183.151 159.103C182.944 159.022 182.694 158.978 182.476 158.91C182.328 158.863 182.233 158.768 182.134 158.69C182.111 158.672 182.052 158.628 182.09 158.626C182.198 158.622 182.298 158.657 182.4 158.676C182.656 158.723 183.434 158.866 183.609 158.899C184.736 159.111 185.838 159.363 186.965 159.577C187.219 159.625 187.083 159.532 186.952 159.452C186.51 159.182 185.809 159.085 185.243 158.942C184.815 158.834 183.557 158.476 183.972 158.601C184.537 158.772 185.134 158.91 185.717 159.057C185.766 159.069 185.814 159.081 185.863 159.093C185.994 159.124 185.883 159.093 185.82 159.076C185.02 158.858 184.224 158.641 183.448 158.394C182.808 158.191 182.181 157.974 181.549 157.762C181.404 157.713 180.949 157.6 181.116 157.612C181.425 157.633 181.775 157.713 182.057 157.773C182.836 157.938 183.587 158.142 184.325 158.362C184.353 158.37 184.715 158.509 184.791 158.499C184.802 158.497 184.791 158.484 184.783 158.479C184.655 158.395 184.377 158.272 184.26 158.22C183.154 157.728 182.023 157.263 181.037 156.678C180.963 156.634 180.625 156.481 181.006 156.583C182.051 156.863 183.068 157.185 184.095 157.485C185.371 157.858 186.646 158.231 187.935 158.588C188.694 158.798 189.495 159.054 190.331 159.151C190.733 159.197 190.132 158.933 190.115 158.925C189.026 158.363 187.843 157.872 186.669 157.379C185.22 156.771 183.749 156.18 182.364 155.518C182.119 155.401 181.622 155.154 181.377 154.982C181.328 154.947 181.225 154.84 181.299 154.851C181.44 154.871 181.568 154.915 181.699 154.952C182.419 155.159 184.157 155.703 184.644 155.855C186.855 156.544 189.054 157.246 191.262 157.939C192.357 158.282 193.451 158.635 194.572 158.948C194.805 159.014 194.938 159.05 194.642 158.933C194.126 158.728 192.894 158.283 192.589 158.172C187.389 156.275 182.219 154.352 177.085 152.392C176.577 152.198 175.004 151.677 175.569 151.803C175.735 151.841 175.89 151.893 176.049 151.94C177.26 152.297 178.385 152.643 179.595 153.026C182.25 153.868 184.872 154.743 187.449 155.667C188.282 155.965 189.297 156.278 190.069 156.653C190.1 156.668 190.183 156.699 190.145 156.711C190.08 156.732 190.002 156.705 189.933 156.695C189.77 156.672 189.609 156.644 189.45 156.615C188.367 156.412 187.314 156.16 186.217 155.982C185.81 155.916 185.35 155.797 185.555 156.154C185.868 156.701 186.652 157.124 187.337 157.494C187.391 157.523 187.559 157.597 187.357 157.599C186.948 157.603 186.525 157.518 186.141 157.458C185.307 157.327 184.446 157.143 183.583 157.077C183.458 157.067 183.647 157.104 183.678 157.116C183.897 157.202 183.493 156.955 183.471 156.936C183.33 156.819 183.117 156.691 183.023 156.554C182.951 156.447 183.4 156.589 183.577 156.627C184.516 156.833 185.44 157.079 186.41 157.233C186.443 157.239 186.378 157.196 186.352 157.184C185.765 156.897 185.161 156.626 184.578 156.336C183.588 155.843 182.646 155.321 181.726 154.781C181.611 154.713 180.401 153.996 180.242 153.885C180.135 153.809 179.992 153.736 179.971 153.635C179.961 153.588 180.097 153.551 180.174 153.557C180.483 153.579 180.775 153.649 181.065 153.713C182.316 153.989 183.621 154.375 184.799 154.72C187.276 155.446 189.723 156.209 192.172 156.968C192.971 157.215 193.762 157.477 194.578 157.705C194.655 157.727 194.876 157.785 194.828 157.742C194.675 157.606 194.023 157.248 193.98 157.224C192.702 156.527 191.321 155.909 189.954 155.28C188.64 154.676 187.334 154.067 186.019 153.464C185.754 153.343 185.013 153.087 184.774 152.883C184.757 152.869 184.83 152.895 184.855 152.903C185.214 153.029 185.554 153.173 185.904 153.306C189.36 154.625 192.879 155.899 196.458 157.095C196.673 157.167 196.889 157.238 197.109 157.306C197.151 157.319 197.271 157.359 197.241 157.337C197.187 157.296 197.103 157.275 197.03 157.247C194.94 156.459 192.753 155.765 190.654 154.985C188.542 154.2 186.482 153.368 184.39 152.566C184.06 152.44 183.728 152.317 183.397 152.192C183.245 152.135 183.091 152.08 182.941 152.021C182.874 151.995 182.664 151.939 182.745 151.938C182.857 151.935 182.949 151.989 183.048 152.019C183.932 152.279 185.195 152.678 185.971 152.927C188.371 153.699 190.726 154.51 193.053 155.356C193.229 155.42 193.402 155.487 193.582 155.547C193.611 155.557 193.698 155.58 193.678 155.565C193.609 155.512 193.516 155.472 193.43 155.43C191.962 154.709 190.425 154.04 188.925 153.345C187.148 152.521 185.365 151.694 183.687 150.795C183.496 150.692 183.306 150.588 183.133 150.474C183.077 150.438 182.92 150.356 183.003 150.347C183.164 150.329 183.312 150.4 183.46 150.438C183.824 150.531 184.182 150.631 184.535 150.737C188.95 152.057 193.128 153.642 197.535 154.969C197.75 155.034 197.969 155.093 198.191 155.149C198.315 155.18 198.434 155.225 198.569 155.23C198.613 155.232 198.537 155.177 198.503 155.16C198.33 155.073 198.139 154.998 197.954 154.92C194.073 153.289 199.99 155.806 194.68 153.557C193.911 153.231 193.145 152.903 192.382 152.573C192.255 152.519 189.876 151.503 189.382 151.222C188.696 150.833 191.141 151.635 191.982 151.891C193.379 152.315 194.774 152.745 196.146 153.197C196.194 153.213 196.585 153.338 196.725 153.402C196.807 153.439 196.536 153.352 196.446 153.323C193.986 152.537 191.511 151.775 189.006 151.04C188.849 150.994 188.696 150.94 188.533 150.9C188.359 150.857 188.329 150.898 188.464 150.999C188.857 151.293 189.69 151.73 190.081 151.929C191.097 152.448 192.319 153.016 193.379 153.5C194.184 153.868 195.107 154.208 195.87 154.614C196.205 154.792 194.985 154.51 194.564 154.419C192.701 154.014 190.888 153.547 189.118 153.018C188.388 152.8 187.616 152.549 186.899 152.304C186.403 152.134 186.77 152.244 187.102 152.344C188.425 152.745 189.724 153.173 191.009 153.614C191.378 153.741 191.744 153.87 192.109 154C192.399 154.103 192.738 154.171 192.969 154.32C193.005 154.343 192.874 154.292 192.828 154.278C192.401 154.142 191.975 154.004 191.551 153.866C190.346 153.473 189.162 153.061 188 152.624C187.305 152.363 186.453 152.086 185.831 151.746C185.327 151.471 186.947 152.216 187.507 152.45C188.799 152.989 190.117 153.503 191.444 154.011C191.619 154.078 192.116 154.261 192.347 154.369C192.387 154.388 192.491 154.447 192.441 154.441C192.345 154.43 192.255 154.405 192.165 154.383C191.418 154.202 190.484 153.946 189.801 153.753C188.082 153.269 186.402 152.744 184.726 152.209C184.193 152.039 183.59 151.806 183.006 151.682C182.83 151.644 183.319 151.801 183.476 151.861C184.162 152.123 184.899 152.414 185.571 152.677C187.055 153.258 188.541 153.836 190.039 154.403C190.316 154.508 190.594 154.611 190.872 154.716C191.075 154.792 191.319 154.841 191.474 154.952C191.689 155.107 190.814 154.867 190.502 154.795C188.895 154.422 187.322 153.99 185.771 153.544C185.231 153.389 184.702 153.209 184.149 153.069C183.753 152.968 184.868 153.353 185.234 153.488C186.716 154.036 188.194 154.588 189.665 155.147C190.242 155.366 190.541 155.481 191.067 155.684C191.161 155.72 191.437 155.827 191.328 155.81C190.513 155.686 189.683 155.43 188.942 155.21C187.909 154.904 186.935 154.542 185.936 154.201C185.68 154.113 185.197 153.91 184.865 153.875C184.723 153.861 185.097 153.975 185.217 154.021C185.321 154.061 186.475 154.501 186.503 154.511C187.175 154.765 189.271 155.418 188.511 155.277C186.869 154.975 185.531 154.261 183.931 153.896C183.89 153.887 183.784 153.853 183.805 153.876C183.839 153.916 183.92 153.93 183.981 153.954C184.147 154.018 184.314 154.082 184.486 154.14C186.047 154.673 187.676 155.128 189.311 155.575C190.592 155.925 191.88 156.271 193.17 156.609C193.411 156.672 193.62 156.718 193.874 156.743" stroke="#FFDCA0" stroke-linecap="round"/>
<path d="M190.711 147.596C191.691 148.096 192.37 148.831 192.917 149.536C193.122 149.801 193.313 150.076 193.49 150.349C193.636 150.575 193.715 150.813 193.896 151.03C194.066 151.232 194.251 151.428 194.411 151.635C194.657 151.953 194.788 152.195 195.299 152.383C196.088 152.673 196.926 152.916 197.727 153.193C197.89 153.25 198.249 153.411 198.3 153.53C198.362 153.675 198.477 153.755 198.626 153.873C198.705 153.936 198.782 153.946 198.793 154.033C198.803 154.118 198.793 154.137 198.897 154.183C199.018 154.236 199.17 154.31 199.182 154.411C199.187 154.446 199.168 154.522 199.239 154.525C199.323 154.528 199.278 154.642 199.31 154.678C199.394 154.771 199.47 154.853 199.548 154.949" stroke="#FFDCA0" stroke-linecap="round"/>
<path d="M197.852 154.078C197.687 154.047 196.105 153.754 196.081 153.802C196.045 153.872 197.68 154.258 197.836 154.301C198.33 154.437 197.823 154.275 197.665 154.232C197.439 154.169 197.213 154.105 196.996 154.031C196.977 154.024 196.53 153.835 196.576 153.835C196.953 153.833 197.424 153.969 197.772 154.046C197.782 154.048 197.899 154.083 197.786 154.061C197.582 154.019 197.393 153.951 197.217 153.879C197.11 153.835 197.01 153.783 196.895 153.746C196.881 153.742 196.834 153.734 196.851 153.732C196.912 153.728 197.055 153.742 197.103 153.728C197.138 153.718 196.071 153.218 196.047 153.209C194.927 152.752 193.843 152.276 192.808 151.75C192.642 151.666 192.368 151.552 192.251 151.432C192.16 151.339 192.613 151.456 192.781 151.492C194.484 151.853 196.064 152.359 197.603 152.916C199.721 153.683 193.447 151.3 191.493 150.388C191.414 150.352 190.937 150.186 190.888 150.104C190.849 150.039 191.109 150.136 191.215 150.161C191.602 150.251 192.059 150.371 192.423 150.479C193.181 150.703 193.901 150.966 194.629 151.223C195.073 151.379 195.677 151.514 196.078 151.714C196.338 151.844 195.478 151.526 195.192 151.418C194.115 151.01 193.06 150.579 192.024 150.135C191.141 149.757 190.276 149.364 189.449 148.941C189.351 148.892 189.072 148.74 189.189 148.771C189.415 148.831 190.257 149.152 190.308 149.172C191.582 149.67 192.89 150.19 193.976 150.838C194.063 150.89 194.01 150.882 193.914 150.857C193.476 150.746 193.065 150.596 192.65 150.459C192.426 150.385 191.954 150.299 191.797 150.161C191.768 150.135 191.888 150.19 191.932 150.206C192.421 150.38 192.893 150.566 193.356 150.765C193.593 150.867 193.827 150.971 194.055 151.08C194.055 151.08 194.334 151.193 194.125 151.163C192.876 150.982 191.792 150.527 190.666 150.185C190.557 150.152 190.223 150.061 190.332 150.093C190.672 150.193 190.989 150.34 191.297 150.467C191.943 150.733 192.591 150.996 193.247 151.252C193.454 151.333 194.071 151.537 193.821 151.533C193.429 151.527 192.899 151.362 192.579 151.275C191.749 151.049 190.968 150.774 190.194 150.489C189.93 150.392 189.656 150.27 189.372 150.189C189.032 150.091 190.026 150.415 190.349 150.531C190.968 150.754 191.58 150.983 192.209 151.196C192.351 151.244 192.874 151.358 193.002 151.455C193.148 151.566 192.536 151.398 192.317 151.346C191.378 151.121 190.496 150.821 189.641 150.501C189.518 150.455 189.397 150.407 189.275 150.359C189.194 150.328 189.126 150.26 189.028 150.267C188.949 150.273 189.147 150.327 189.21 150.354C189.414 150.442 189.69 150.555 189.889 150.636C190.358 150.827 191.817 151.33 191.272 151.231C190.832 151.152 190.349 150.962 189.961 150.837C189.264 150.611 188.588 150.367 187.897 150.136C187.651 150.054 186.967 149.79 187.125 149.931C187.268 150.06 187.508 150.134 187.707 150.229C188.107 150.419 188.355 150.534 188.769 150.713C189.084 150.85 189.405 150.979 189.733 151.105C189.866 151.156 189.809 151.151 189.645 151.11C189.141 150.985 188.658 150.829 188.177 150.676C187.837 150.568 187.478 150.411 187.113 150.33C186.976 150.299 187.319 150.454 187.431 150.51C187.854 150.722 188.288 150.925 188.719 151.132C188.815 151.178 188.912 151.222 189.005 151.271C189.159 151.35 189.167 151.361 188.941 151.313C188.07 151.131 187.238 150.881 186.4 150.653C186.003 150.546 186.199 150.629 186.39 150.714C186.772 150.883 187.172 151.037 187.564 151.198C187.593 151.21 188.361 151.517 187.928 151.387C187.644 151.302 187.35 151.228 187.053 151.161C187.015 151.152 186.53 151.032 186.894 151.167C187.181 151.274 187.477 151.378 187.776 151.473C188.261 151.626 187.639 151.238 187.632 151.234C187.091 150.878 186.495 150.555 185.951 150.201C185.688 150.029 185.399 149.825 186.001 149.939C186.687 150.068 187.33 150.284 187.988 150.454C188.784 150.659 189.595 150.844 190.403 151.034C190.934 151.159 189.509 150.61 189.052 150.406C188.777 150.283 188.497 150.161 188.233 150.029C188.154 149.99 188.428 150.065 188.522 150.089C188.66 150.125 188.798 150.163 188.94 150.195C189.058 150.221 188.74 150.105 188.638 150.063C188.308 149.926 187.984 149.784 187.648 149.652C187.542 149.611 187.429 149.578 187.328 149.533C187.248 149.499 187.369 149.515 187.407 149.519C188.534 149.613 189.597 149.912 190.633 150.168C190.769 150.202 190.904 150.236 191.041 150.267C191.144 150.291 191.33 150.38 191.362 150.313C191.42 150.191 190.185 149.707 190.15 149.692C189.48 149.394 188.785 149.115 188.131 148.804C187.985 148.735 187.548 148.561 187.737 148.565C187.967 148.57 188.501 148.779 188.654 148.823C189.372 149.033 190.084 149.253 190.828 149.431C190.97 149.464 191.401 149.553 191.253 149.53C191.027 149.494 190.805 149.424 190.604 149.355C190.051 149.167 189.533 148.944 189.012 148.726C188.741 148.613 188.467 148.502 188.202 148.384C188.122 148.348 187.894 148.263 187.995 148.254C188.314 148.224 189.075 148.537 189.269 148.6C189.96 148.824 190.637 149.063 191.329 149.285C191.449 149.323 191.57 149.36 191.691 149.398C191.78 149.425 191.993 149.423 191.955 149.482C191.911 149.548 191.742 149.432 191.644 149.398C191.278 149.271 191.028 149.16 190.675 149.008C190.171 148.792 189.677 148.57 189.142 148.38C189.104 148.367 188.544 148.221 188.522 148.163C188.517 148.151 188.562 148.157 188.581 148.16C188.756 148.183 189.14 148.269 189.262 148.298C190.238 148.535 191.165 148.832 192.089 149.131C192.322 149.207 192.993 149.458 192.79 149.356C192.528 149.225 192.144 149.105 191.872 148.996C191.182 148.717 190.492 148.439 189.793 148.169C189.754 148.154 189.255 147.97 189.136 147.906C189.119 147.897 189.082 147.872 189.105 147.869C189.165 147.862 189.224 147.88 189.282 147.889C190.15 148.027 191.009 148.238 191.789 148.5C191.877 148.529 192.14 148.616 192.04 148.603C191.704 148.559 191.332 148.367 191.04 148.27C190.804 148.191 190.558 148.119 190.328 148.034C190.198 147.986 190.635 148.059 190.783 148.083C191.08 148.13 191.389 148.235 191.693 148.258" stroke="#FFDCA0" stroke-linecap="round"/>
<path d="M192.871 147.329C193.28 147.623 193.152 147.993 193.427 148.3C193.516 148.4 193.663 148.452 193.771 148.537C193.921 148.657 194.019 148.73 194.109 148.867C194.257 149.092 194.323 149.344 194.514 149.558C194.604 149.658 194.707 149.788 194.852 149.861C194.978 149.924 195.11 150.01 195.139 150.102C195.145 150.122 195.269 150.202 195.304 150.223C195.371 150.263 195.442 150.339 195.493 150.391C195.59 150.487 195.687 150.63 195.832 150.707C195.961 150.776 196.013 150.912 196.129 150.987C196.265 151.076 196.323 151.165 196.457 151.252C196.742 151.437 196.914 151.636 196.945 151.898C196.954 151.966 197.096 152.096 197.158 152.158C197.25 152.25 197.258 152.354 197.271 152.465" stroke="#FFDCA0" stroke-linecap="round"/>
<path d="M195.206 151.017C194.605 150.535 193.945 149.987 193.576 149.415C193.457 149.231 193.325 149.054 193.195 148.873C193.035 148.649 192.779 148.48 192.533 148.292C192.368 148.165 192.212 148.032 192.056 147.901C191.938 147.802 191.77 147.759 191.684 147.643C191.598 147.527 191.499 147.429 191.449 147.304" stroke="#FFDCA0" stroke-linecap="round"/>
<path d="M193.154 147.544C193.2 147.485 193.349 147.373 193.342 147.319" stroke="#FFDCA0" stroke-linecap="round"/>
<path d="M202.37 156.368L193.612 147.266" stroke="#FFDCA0" stroke-width="0.5"/>
<path d="M203.096 157.095L201.644 155.642" stroke="#FFDCA0" stroke-width="0.5"/>
<path d="M193.853 147.37C193.854 147.336 193.879 147.265 193.827 147.239C193.815 147.233 193.8 147.23 193.785 147.231C193.756 147.234 193.758 147.244 193.76 147.26" stroke="#FFDCA0" stroke-width="0.5" stroke-linecap="round"/>
<path d="M193.588 147.22C193.601 147.22 193.681 147.225 193.692 147.214C193.701 147.206 193.721 147.206 193.735 147.205C193.761 147.203 193.78 147.19 193.807 147.188" stroke="#FFDCA0" stroke-width="0.5" stroke-linecap="round"/>
<path d="M194.659 149.446C194.714 149.456 194.759 149.473 194.754 149.42C194.748 149.35 194.701 149.284 194.658 149.221C194.641 149.197 194.588 149.146 194.589 149.115C194.59 149.102 194.624 149.129 194.638 149.138C194.736 149.203 194.82 149.275 194.892 149.352C194.921 149.383 194.957 149.419 194.972 149.455C194.977 149.467 194.932 149.445 194.92 149.435C194.882 149.406 194.851 149.373 194.824 149.339C194.818 149.332 194.808 149.321 194.805 149.312C194.802 149.302 194.815 149.316 194.815 149.316C194.862 149.363 194.903 149.413 194.95 149.46C194.966 149.476 194.983 149.491 194.999 149.507C195.002 149.511 195.012 149.52 195.005 149.519C194.977 149.513 194.942 149.485 194.924 149.474C194.891 149.453 194.869 149.437 194.839 149.415C194.829 149.408 194.823 149.396 194.808 149.394C194.808 149.394 194.826 149.442 194.832 149.448" stroke="#FFDCA0" stroke-width="0.5" stroke-linecap="round"/>
<rect width="64.4456" height="15.6147" transform="matrix(0.6688 -0.713079 0.963824 0.321362 314.703 188.585)" fill="#E1BE8C"/>
<path d="M125.778 128.418C125.103 127.548 124.313 126.792 123.235 126.224C123.119 126.162 123.416 126.426 123.555 126.44C123.692 126.453 123.634 126.674 123.781 126.741C124.12 126.894 123.884 127.474 124.131 127.669C124.404 127.885 124.944 128.151 124.944 128.491" stroke="#FFDCA0" stroke-width="3" stroke-linecap="round"/>
<path d="M126.426 129.371C125.875 128.922 125.561 128.37 125.016 127.921C124.716 127.675 124.363 127.601 123.971 127.429C123.739 127.327 123.295 126.714 123.786 126.594C124.058 126.528 124.68 126.513 124.944 126.513" stroke="#FFDCA0" stroke-width="3" stroke-linecap="round"/>
<path d="M124.11 126.88C124.344 126.88 124.925 126.964 125.15 126.847C125.303 126.768 125.616 126.567 125.315 126.806" stroke="#FFDCA0" stroke-width="3" stroke-linecap="round"/>
<path d="M165.482 144.838C165.301 144.838 165.08 144.815 164.961 144.691C164.888 144.615 164.866 144.599 164.747 144.599C164.592 144.599 164.409 144.561 164.275 144.508C164.135 144.452 163.995 144.361 163.836 144.361C163.675 144.361 163.494 144.379 163.342 144.339" stroke="#FFDCA0" stroke-width="3" stroke-linecap="round"/>
<path d="M164.852 144.665C164.616 144.625 164.342 144.59 164.117 144.523C164.052 144.503 163.985 144.486 163.919 144.468C163.854 144.451 163.835 144.398 163.776 144.378C163.716 144.357 163.719 144.255 163.645 144.252C163.572 144.249 163.498 144.252 163.425 144.252" stroke="#FFDCA0" stroke-width="3" stroke-linecap="round"/>
</g>
<defs>
<clipPath id="clip0_88_1675">
<rect width="611" height="800" fill="white"/>
</clipPath>
</defs>
</svg>
