<svg width="490" height="800" viewBox="0 0 490 800" fill="none" xmlns="http://www.w3.org/2000/svg">
<g clip-path="url(#clip0_85_1425)">
<rect width="490" height="800" fill="#CFF09E"/>
<path d="M205.583 624.805C204.913 625.218 202.464 626.352 201.495 626.71C199.864 627.297 197.379 627.973 193.603 628.87C187.562 630.301 185.402 630.998 182.644 632.378C180.262 633.58 177.75 635.331 176.439 636.701C173.03 640.251 172.574 643.538 175.138 646.103C175.502 646.483 176.597 647.26 177.663 647.911C180.566 649.701 181.656 650.832 181.806 652.189C181.945 653.311 181.328 654.212 179.754 655.191C177.471 656.629 173.356 657.893 167.707 658.908C166.503 659.13 162.873 659.625 159.611 660.017C154.027 660.693 151.883 661.002 148.528 661.608C137.803 663.536 129.643 666.303 124.638 669.708C123.347 670.593 121.575 672.289 120.963 673.243C119.767 675.115 119.548 677.112 120.356 678.862C121.12 680.488 122.678 682.01 125.043 683.438C128.896 685.751 134.09 687.496 141.021 688.825C145.785 689.725 151.879 690.486 156.945 690.808C168.134 691.501 170.111 691.661 174.132 692.187C180.17 692.976 184.382 694.04 186.662 695.348C187.865 696.049 188.453 696.739 188.547 697.587C188.641 698.446 188.289 699.094 187.092 700.173C184.355 702.666 179.056 704.997 168.296 708.452C160.487 710.958 155.738 712.845 149.596 715.885C134.705 723.245 126.164 731.704 128.323 736.949C128.824 738.174 129.669 739.073 131.139 739.939C132.578 740.787 133.966 741.308 136.158 741.82C141.489 743.09 149.761 743.315 160.168 742.491C163.097 742.262 164.628 742.221 165.956 742.33C169.94 742.657 171.927 744.499 171.234 747.22C170.418 750.426 166.925 753.888 162.284 756.086C160.811 756.775 160.783 756.789 158.998 757.049C156.954 757.337 156.447 757.518 155.13 758.427C154.246 759.034 153.233 760.051 152.205 761.337C151.859 761.781 151.007 762.673 150.316 763.303C148.818 764.692 148.318 765.462 148.408 766.279C148.464 766.788 148.517 766.868 149.029 767.137C149.341 767.308 149.884 767.466 150.24 767.504C151.51 767.619 153.919 767.058 157.337 765.834C161.642 764.304 163.935 762.554 164.486 760.394L164.662 759.743L165.628 759.353C172.91 756.441 177.976 750.81 178.442 745.099C178.797 740.772 175.714 737.22 170.481 735.908C167.548 735.172 164.908 735.092 159.034 735.53C149.607 736.23 143.421 735.693 141.978 734.019C139.584 731.276 148.936 725.789 164.638 720.737C167.435 719.846 168.623 719.487 175.257 717.597C192.581 712.666 204.16 706.82 208.596 700.782C212.116 695.987 210.595 691.351 204.266 687.664C198.92 684.54 190.834 682.291 179.752 680.846C174.395 680.137 170.103 679.81 161.417 679.404C147.073 678.748 137.551 677.269 133.834 675.124C131.662 673.859 131.914 672.696 134.647 671.361C138.576 669.473 145.941 667.968 158.501 666.514C164.218 665.845 166.49 665.502 169.862 664.787C180.807 662.471 187.729 659.082 189.116 655.355C189.478 654.396 189.434 653.07 189.031 652.072C188.151 649.932 185.97 647.928 181.626 645.268C179.995 644.269 179.517 643.911 179.235 643.479C177.564 640.928 179.335 636.84 183.231 634.248C185.301 632.864 186.435 632.413 191.59 630.891C199.167 628.667 204.201 626.589 205.867 624.99C206.316 624.557 206.159 624.456 205.583 624.805Z" fill="#3F6348"/>
<path d="M21.9769 552.474L-20.2181 602.728L-5.62602 612.905L36.569 562.652L21.9769 552.474Z" fill="#E1BE8C"/>
<path d="M73.0495 588.095L30.8545 638.348L45.4466 648.525L87.6416 598.272L73.0495 588.095Z" fill="#E1BE8C"/>
<path d="M124.122 623.715L81.9271 673.969L96.5192 684.146L138.714 633.892L124.122 623.715Z" fill="#E1BE8C"/>
<path d="M328.412 766.197L286.218 816.45L300.81 826.628L343.005 776.374L328.412 766.197Z" fill="#E1BE8C"/>
<path d="M175.195 659.336L133 709.589L147.592 719.766L189.787 669.513L175.195 659.336Z" fill="#E1BE8C"/>
<path d="M226.267 694.956L184.072 745.21L198.664 755.387L240.859 705.133L226.267 694.956Z" fill="#E1BE8C"/>
<path d="M277.34 730.577L235.145 780.83L249.737 791.007L291.932 740.754L277.34 730.577Z" fill="#E1BE8C"/>
<path d="M379.485 801.818L337.29 852.071L351.882 862.248L394.077 811.995L379.485 801.818Z" fill="#E1BE8C"/>
<path d="M425.373 829.836L427.718 827.043C429.043 825.464 426.688 821.817 422.521 818.994L9.56411 539.241C5.58908 536.549 1.4323 535.608 0.168282 537.113L-2.17651 539.906C-3.50187 541.484 -1.14675 545.132 3.01997 547.954L415.977 827.707C419.952 830.4 424.109 831.342 425.373 829.836Z" fill="#FFDCA0"/>
<path d="M378.956 885.118L376.611 887.91C375.286 889.489 370.807 888.37 366.729 885.442L-37.4774 595.267C-41.3675 592.473 -43.4508 589.063 -42.1868 587.557L-39.842 584.764C-38.5167 583.186 -34.0382 584.305 -29.9597 587.232L374.246 877.408C378.137 880.201 380.22 883.612 378.956 885.118Z" fill="#FFDCA0"/>
<path d="M171.345 691.864L148.948 690.069L150.92 678.712L180.456 680.904L171.345 691.864Z" fill="#3F6349"/>
<path d="M151.574 714.99L138.831 722.206L146.038 728.45L160.395 722.106L151.574 714.99Z" fill="#3F6349" stroke="#3F6349" stroke-width="0.1"/>
<path d="M39.9387 8.82462L-16.7578 85.1726L2.22662 94.2089L58.9231 17.8609L39.9387 8.82462Z" fill="#E1BE8C"/>
<path d="M106.385 40.4519L49.6881 116.8L68.6725 125.836L125.369 49.4882L106.385 40.4519Z" fill="#E1BE8C"/>
<path d="M172.83 72.0791L116.134 148.427L135.118 157.463L191.815 81.1154L172.83 72.0791Z" fill="#E1BE8C"/>
<path d="M438.614 198.588L381.917 274.936L400.902 283.972L457.598 207.624L438.614 198.588Z" fill="#E1BE8C"/>
<path d="M239.276 103.706L182.58 180.054L201.564 189.091L258.261 112.743L239.276 103.706Z" fill="#E1BE8C"/>
<path d="M305.722 135.334L249.026 211.682L268.01 220.718L324.707 144.37L305.722 135.334Z" fill="#E1BE8C"/>
<path d="M372.168 166.961L315.472 243.309L334.456 252.345L391.152 175.997L372.168 166.961Z" fill="#E1BE8C"/>
<path d="M505.06 230.215L448.363 306.563L467.348 315.6L524.044 239.252L505.06 230.215Z" fill="#E1BE8C"/>
<path d="M564.851 253.505L568.001 249.262C569.782 246.864 566.763 242.827 561.34 240.354L23.893 -4.74706C18.7196 -7.10545 13.2674 -7.16176 11.569 -4.87464L8.4183 -0.631954C6.63745 1.76616 9.65618 5.80305 15.079 8.27628L552.527 253.377C557.7 255.736 563.151 255.793 564.851 253.505Z" fill="#FFDCA0"/>
<path d="M502.48 337.493L499.33 341.736C497.549 344.134 491.677 343.939 486.373 341.306L-39.3157 80.3703C-44.3749 77.8581 -47.0411 74.0502 -45.3427 71.7631L-42.192 67.5204C-40.4112 65.1222 -34.5394 65.3171 -29.235 67.9499L496.453 328.886C501.513 331.398 504.179 335.205 502.48 337.493Z" fill="#FFDCA0"/>
<path d="M267.993 163.499L277.427 146.529" stroke="#FFDCA0" stroke-width="0.5"/>
<path d="M272.629 161.378C273.234 160.351 273.745 159.308 274.252 158.23C274.889 156.876 273.399 161.103 272.869 162.502C272.723 162.886 272.576 163.27 272.421 163.651C272.356 163.809 272.311 163.981 272.207 164.116C272.028 164.349 272.27 163.53 272.327 163.242C272.497 162.385 272.662 161.505 272.987 160.689C273.016 160.618 272.935 160.842 272.876 160.89C272.638 161.079 273.021 160.298 273.131 160.014C273.326 159.513 273.56 159.018 273.711 158.501C273.74 158.403 273.727 158.402 273.733 158.469" stroke="#FFDCA0" stroke-width="0.5" stroke-linecap="round"/>
<path d="M275.068 157.123C275.292 156.561 275.337 156.424 275.639 155.814C275.823 155.442 276.013 155.073 276.213 154.71C276.304 154.544 277.071 153.121 277.392 152.861C277.446 152.817 277.517 152.973 277.501 153.041C277.324 153.778 276.522 155.42 276.252 155.954C275.963 156.526 275.651 157.086 275.336 157.644C275.323 157.669 274.519 159.085 274.251 159.379C274.093 159.553 274.346 158.918 274.428 158.699C274.722 157.914 275.027 157.128 275.394 156.374C275.445 156.269 275.501 156.166 275.563 156.067C275.574 156.05 275.612 156.009 275.609 156.029C275.601 156.085 275.569 156.135 275.545 156.186C275.452 156.388 275.342 156.585 275.239 156.782" stroke="#E1BE8C" stroke-width="0.5" stroke-linecap="round"/>
<path d="M274.884 156.897C275.289 156.184 275.685 155.465 276.158 154.794C276.241 154.676 276.317 154.552 276.421 154.453C276.449 154.426 276.416 154.532 276.398 154.566C276.163 155.002 275.574 155.876 275.359 156.195C274.913 156.857 274.426 157.739 273.825 158.298C273.714 158.402 273.837 157.957 273.845 157.931" stroke="#E1BE8C" stroke-width="0.5" stroke-linecap="round"/>
<path d="M276.109 156.537C275.896 157.051 275.589 157.512 275.313 157.994" stroke="#E1BE8C" stroke-width="0.5" stroke-linecap="round"/>
<path d="M275.313 157.994C275.147 158.278 274.531 159.367 274.282 159.677C274.234 159.736 274.08 159.863 274.08 159.786C274.08 159.536 274.194 159.297 274.282 159.063C274.539 158.378 275.267 156.748 275.623 156.122C276.211 155.087 276.051 155.884 275.889 156.549C275.562 157.894 275.011 159.457 274.598 160.771C274.389 161.435 273.952 162.443 274.573 161.505C274.954 160.929 275.796 159.384 276.395 158.92C276.517 158.826 276.823 158.858 276.85 159.01C276.929 159.455 276.768 159.914 276.648 160.35C276.41 161.219 275.792 162.732 275.31 163.561C274.803 164.435 275.024 163.513 275.085 163.28C275.248 162.66 275.525 161.951 275.75 161.343C275.884 160.978 275.71 161.42 275.513 161.794C275.257 162.279 274.867 163.006 274.524 163.455C274.359 163.67 274.164 163.872 274.227 163.47C274.296 163.033 274.495 162.608 274.657 162.201" stroke="#E1BE8C" stroke-width="0.5" stroke-linecap="round"/>
<path d="M271.383 162.097C271.813 161.385 272.317 160.72 272.818 160.058C273.113 159.67 273.902 158.614 274.329 158.208C274.855 157.708 274.527 158.419 274.436 158.631C274.072 159.475 273.425 160.6 272.992 161.362C272.723 161.835 272.453 162.309 272.17 162.775C272.041 162.987 271.954 163.245 271.757 163.396C271.657 163.472 271.796 163.147 271.838 163.029C271.993 162.598 272.174 162.177 272.346 161.753C272.532 161.291 273.197 159.641 273.472 159.07C273.875 158.234 272.847 160.82 272.44 161.654C272.204 162.139 271.478 163.563 271.047 164.135C270.827 164.427 271.303 163.447 271.481 163.128C271.739 162.663 272.53 161.303 272.916 160.881C273.572 160.164 273.485 160.944 273.385 161.48C273.19 162.524 272.481 164.611 272.154 165.57C271.942 166.193 271.721 166.813 271.484 167.427C271.309 167.88 271.833 166.52 272.013 166.069C272.062 165.946 272.217 165.649 272.004 165.916C271.86 166.097 271.128 167.113 271.088 167.167C270.877 167.453 270.404 168.307 270.37 167.954C270.35 167.741 270.461 167.535 270.524 167.33C270.644 166.937 270.787 166.552 270.92 166.163C271.117 165.586 271.364 165.024 271.503 164.431C271.561 164.184 271.272 164.883 271.167 165.114C270.755 166.022 271.075 165.36 271.236 165.083C271.263 165.037 272.205 163.405 271.963 164.345C271.906 164.566 271.653 165.316 271.587 165.545C271.563 165.629 271.519 165.715 271.53 165.803C271.534 165.838 271.591 165.762 271.61 165.731C271.838 165.349 271.72 165.253 271.383 165.118C271.192 165.042 271.647 164.793 271.822 164.685C272.083 164.524 272.223 164.446 272.474 164.301C272.515 164.278 272.627 164.222 272.582 164.209C272.54 164.197 272.043 164.152 272.131 164.056C272.28 163.896 272.646 163.879 272.848 163.835C272.954 163.811 272.632 163.832 272.524 163.831C272.468 163.83 272.413 163.825 272.357 163.827C272.333 163.828 272.406 163.833 272.43 163.835C272.709 163.855 273.098 163.879 273.366 163.889C273.551 163.896 274.073 163.99 273.921 163.886C273.716 163.746 273.432 163.798 273.189 163.748C272.843 163.677 272.229 163.54 271.882 163.436C271.616 163.357 271.513 163.309 271.851 163.32C272.437 163.341 273.023 163.422 273.607 163.475C273.885 163.5 273.489 163.443 273.394 163.424C273.048 163.354 272.61 163.266 272.276 163.154C272.065 163.082 271.831 162.985 272.218 162.988C272.53 162.991 272.98 163.07 273.281 163.125C274.308 163.311 272.93 162.887 272.839 162.85C272.661 162.778 272.479 162.714 272.306 162.633C272.079 162.527 271.943 162.464 272.277 162.438C272.451 162.424 273.318 162.44 273.471 162.438C273.611 162.436 273.99 162.447 273.884 162.354C273.659 162.156 272.779 161.945 273.078 161.955C273.351 161.965 273.62 162.063 273.882 162.126" stroke="#E1BE8C" stroke-width="0.5" stroke-linecap="round"/>
<path d="M272.767 163.689C272.563 163.708 272.36 163.726 272.157 163.751C272.142 163.753 271.754 163.786 272.007 163.808C272.561 163.856 271.744 163.783 272.204 163.825C272.231 163.827 272.304 163.848 272.284 163.83C272.244 163.791 272.175 163.812 272.12 163.803C272.068 163.795 271.727 163.744 271.677 163.723C271.655 163.714 271.618 163.679 271.637 163.663C271.697 163.613 271.78 163.599 271.854 163.576C272.182 163.476 272.42 163.443 272.752 163.354C272.84 163.331 272.935 163.32 273.012 163.271C273.033 163.257 273.012 163.213 272.991 163.199C272.839 163.099 272.686 163.127 272.549 162.993C272.403 162.85 272.717 162.801 272.743 162.796C272.932 162.758 273.231 162.761 273.425 162.765C273.501 162.766 273.723 162.805 273.653 162.774C273.603 162.753 273.545 162.758 273.491 162.75" stroke="#E1BE8C" stroke-width="0.5" stroke-linecap="round"/>
<path d="M274.395 161.51C274.322 161.44 273.992 161.132 274.334 161.182C274.731 161.239 275.834 161.744 275.466 161.587C275.365 161.544 274.405 161.169 274.471 161.03C274.49 160.989 274.558 161.006 274.603 161.006C274.681 161.005 274.759 161.031 274.836 161.024C275.032 161.009 275.126 160.971 275.111 160.733C275.091 160.422 274.836 159.767 274.748 159.524C274.663 159.29 274.317 158.417 274.271 158.134C274.214 157.782 274.256 157.505 274.564 157.286C274.875 157.065 275.482 156.963 275.825 156.878C276.013 156.831 276.212 156.812 276.39 156.733C276.481 156.692 276.608 156.626 276.609 156.526C276.61 156.329 276.01 155.896 275.961 155.856C275.846 155.763 275.718 155.684 275.612 155.58C275.584 155.553 275.53 155.478 275.569 155.471C275.655 155.455 276.21 155.671 276.223 155.676C276.321 155.71 276.583 155.824 276.527 155.737C276.44 155.6 276.284 155.521 276.168 155.408C276.121 155.362 276.065 155.321 276.037 155.261C276.027 155.243 276.053 155.215 276.074 155.211C276.148 155.196 276.312 155.285 276.301 155.21C276.285 155.106 275.679 154.732 276.128 154.789C276.355 154.818 276.56 154.909 276.778 154.967C276.989 155.024 276.795 154.919 276.702 154.854C276.487 154.706 276.212 154.535 276.007 154.372C275.84 154.241 275.814 154.208 276.013 154.268C276.106 154.296 276.193 154.341 276.286 154.368C276.327 154.379 276.43 154.423 276.413 154.384C276.382 154.309 276.292 154.274 276.226 154.226C276.099 154.133 275.963 154.055 275.837 153.962C275.725 153.879 275.392 153.668 275.797 153.766C276.091 153.836 276.943 154.144 277.191 154.232C277.396 154.305 277.985 154.571 277.808 154.444C277.617 154.307 277.384 154.238 277.173 154.133" stroke="#E1BE8C" stroke-width="0.5" stroke-linecap="round"/>
<path d="M274.582 158.314C275.23 158.419 277.155 158.83 276.504 158.746C276.358 158.727 275.737 158.572 275.7 158.563C275.55 158.525 275.398 158.488 275.25 158.442C275.224 158.434 275.153 158.399 275.18 158.4C275.289 158.406 275.397 158.433 275.504 158.456C275.86 158.529 276.174 158.61 276.526 158.701C276.581 158.715 276.748 158.763 276.693 158.746C276.403 158.656 276.109 158.581 275.817 158.498C275.283 158.347 274.745 158.206 274.214 158.044C273.884 157.944 274.887 158.2 275.223 158.278C275.415 158.323 275.606 158.369 275.798 158.413C275.884 158.432 275.969 158.467 276.057 158.468C276.281 158.471 275.195 158.231 275.418 158.258C275.732 158.296 276.036 158.398 276.345 158.464C276.45 158.486 276.553 158.527 276.66 158.523C276.723 158.521 276.542 158.477 276.481 158.459C276.298 158.406 276.114 158.359 275.929 158.311C275.677 158.245 274.916 158.07 275.172 158.117C275.761 158.227 276.346 158.397 276.928 158.539C277.036 158.565 277.144 158.591 277.252 158.618C277.529 158.688 276.698 158.483 276.422 158.411C276.265 158.37 276.107 158.332 275.952 158.283C275.843 158.248 276.18 158.298 276.293 158.315C276.595 158.361 276.673 158.373 276.261 158.241C275.535 158.007 274.782 157.838 274.066 157.574C273.867 157.501 274.477 157.677 274.682 157.731C274.738 157.745 274.903 157.793 274.85 157.772C274.59 157.666 274.314 157.607 274.048 157.518C274.009 157.505 273.893 157.462 273.933 157.47C274.084 157.499 274.232 157.543 274.38 157.581C274.616 157.642 274.852 157.705 275.087 157.768C275.239 157.808 275.39 157.849 275.54 157.891C275.598 157.907 275.425 157.861 275.368 157.845C275.134 157.78 274.901 157.712 274.666 157.648C274.406 157.578 273.641 157.352 273.871 157.493C274.291 157.748 275.676 158.248 275.2 158.127C274.956 158.065 273.864 157.667 273.708 157.613C273.589 157.572 273.287 157.386 273.348 157.496C273.418 157.621 273.608 157.615 273.74 157.67C273.997 157.778 274.255 157.882 274.513 157.987C275.271 158.293 275.095 158.213 274.817 158.109C274.556 158.011 274.296 157.912 274.034 157.817C273.603 157.66 273.182 157.463 272.733 157.374C272.544 157.337 273.079 157.54 273.257 157.613C273.31 157.635 273.473 157.687 273.416 157.679C273.246 157.654 273.095 157.551 272.926 157.52C272.669 157.471 273.394 157.761 273.645 157.838C273.988 157.944 273.519 157.611 273.512 157.603" stroke="#E1BE8C" stroke-width="0.5" stroke-linecap="round"/>
<path d="M275.586 158.264C275.309 158.678 275.008 159.073 274.744 159.495C274.387 160.066 274.062 160.652 273.668 161.198C273.36 161.624 273.117 161.991 272.671 162.269" stroke="white" stroke-linecap="round"/>
<path d="M271.193 161.586C271.858 160.8 272.583 160.089 273.329 159.379C273.644 159.08 273.964 158.785 274.282 158.489C274.462 158.32 274.647 158.157 274.822 157.984C274.868 157.938 274.991 157.876 274.943 157.833C274.889 157.783 274.805 157.879 274.736 157.905C274.382 158.039 274.152 158.108 273.867 158.41C273.82 158.46 273.044 159.33 273.455 159.609C274.089 160.038 275.612 158.555 275.615 158.551C276.139 158.082 276.633 157.572 277.058 157.012C277.188 156.841 278.268 155.471 277.694 154.898C277.512 154.716 277.187 154.753 276.93 154.777C276.406 154.825 275.877 155.081 275.598 155.547C275.343 155.971 275.606 156.288 275.906 156.542C275.987 156.611 275.969 156.668 275.873 156.746" stroke="#E1BE8C" stroke-linecap="round"/>
<path d="M274.632 160.192L276.54 157.883" stroke="#E1BE8C" stroke-width="5" stroke-linecap="square"/>
<path d="M273.972 154.789L279.327 154.28" stroke="#E1BE8C" stroke-width="5" stroke-linecap="square"/>
<path d="M271.098 159.186L275.764 151.71M275.764 151.71L276.764 150.108L275.755 151.622L271.051 158.688L275.412 151.743L275.764 151.71Z" stroke="#E1BE8C" stroke-width="3"/>
<path d="M275.521 159.949C275.299 159.937 275.075 159.929 274.853 159.903C274.806 159.898 274.758 159.896 274.712 159.881C274.634 159.857 274.876 159.87 274.957 159.874C275.131 159.883 275.647 159.942 275.479 159.896C275.263 159.838 275.021 159.826 274.815 159.734C274.632 159.652 275.218 159.75 275.418 159.774C275.526 159.786 275.635 159.8 275.743 159.813C275.916 159.834 275.916 159.835 275.791 159.817C275.686 159.802 275.371 159.755 275.477 159.764C275.604 159.774 275.728 159.798 275.854 159.816" stroke="#E1BE8C" stroke-width="0.5" stroke-linecap="round"/>
<path d="M116.763 153.256C117.537 153.714 119.933 155.502 120.778 156.239C122.182 157.485 124.069 159.451 126.786 162.482C131.13 167.332 132.895 169.008 135.713 170.989C138.159 172.698 141.293 174.344 143.453 175.058C149.055 176.918 153.035 176.266 154.836 173.192C155.111 172.751 155.514 171.541 155.785 170.396C156.545 167.272 157.357 165.953 158.85 165.386C160.078 164.906 161.388 165.159 163.215 166.229C165.888 167.775 169.179 170.986 172.87 175.625C173.662 176.612 175.853 179.643 177.761 182.383C181.033 187.073 182.346 188.859 184.54 191.613C191.548 200.419 198.374 206.704 204.522 210.012C206.116 210.863 208.856 211.878 210.225 212.11C212.911 212.562 215.302 212.115 216.952 210.845C218.479 209.653 219.532 207.798 220.115 205.263C221.052 201.137 220.737 196.015 219.166 189.5C218.071 185.026 216.224 179.428 214.329 174.874C210.127 164.82 209.427 163.032 208.235 159.331C206.443 153.773 205.784 149.732 206.268 147.31C206.536 146.029 207.065 145.291 207.998 144.938C208.943 144.579 209.845 144.682 211.619 145.388C215.707 146.995 220.752 150.905 229.53 159.254C235.898 165.314 240.188 168.883 246.426 173.307C261.535 184.036 275.07 188.834 280.133 185.259C281.316 184.427 281.971 183.397 282.309 181.828C282.641 180.292 282.619 178.906 282.229 176.816C281.305 171.725 277.867 164.386 272.271 155.504C270.7 153.004 269.968 151.672 269.5 150.471C268.095 146.866 269.324 144.53 272.76 144.269C276.808 143.96 282.346 145.92 286.945 149.295C288.396 150.369 288.424 150.389 289.52 151.874C290.764 153.579 291.199 153.965 292.832 154.833C293.924 155.415 295.545 155.98 297.482 156.471C298.146 156.633 299.553 157.096 300.584 157.502C302.85 158.374 303.959 158.567 304.857 158.226C305.416 158.014 305.485 157.942 305.565 157.406C305.622 157.077 305.561 156.549 305.446 156.225C305.011 155.072 303.289 153.135 300.356 150.523C296.674 147.23 293.639 145.775 290.912 145.982L290.085 146.035L289.205 145.311C282.606 139.845 273.872 137.195 267.102 138.614C261.972 139.686 259.268 143.531 260.099 148.549C260.564 151.362 261.652 153.708 264.78 158.728C269.797 166.788 271.943 172.395 270.665 174.198C268.582 177.179 258.1 170.718 245.28 158.538C243.006 156.366 242.062 155.436 236.926 150.212C223.521 136.568 211.63 128.265 202.711 126.299C195.629 124.74 190.981 127.56 189.574 134.301C188.373 139.997 189.402 147.822 192.693 158.022C194.272 162.956 195.814 166.831 199.228 174.594C204.884 187.407 207.44 196.246 206.636 200.199C206.153 202.512 204.704 202.663 201.949 200.689C198.024 197.84 193.005 191.851 185.721 181.28C182.399 176.471 180.989 174.584 178.661 171.85C171.11 162.974 164.123 157.977 159.222 157.95C157.957 157.939 156.454 158.402 155.487 159.076C153.421 160.533 152.093 163.091 150.978 167.759C150.559 169.512 150.361 170.047 149.991 170.432C147.807 172.717 142.318 172.469 137.599 169.875C135.084 168.5 134.06 167.647 130.008 163.605C124.067 157.658 119.43 153.9 116.848 152.948C116.15 152.692 116.104 152.862 116.763 153.256Z" fill="#3F6348"/>
<path d="M200.093 182.308L206.677 186.834" stroke="#FFDCA0" stroke-width="0.5"/>
<path d="M200.056 181.915L204.42 184.671" stroke="#FFDCA0" stroke-width="0.5"/>
<path d="M215.698 206.191L215.173 205.936M215.173 205.936L203.101 200.077L212.924 196.242L215.173 205.936Z" stroke="#FFDCA0" stroke-width="0.5"/>
<path d="M271.854 182.096L280.423 169.63" stroke="#E1BE8C" stroke-width="0.5"/>
<path d="M272.231 182.122L271.832 182.518M272.231 182.122L280.491 173.069L279.687 171.224M272.231 182.122L272.631 181.727L272.564 181.353L280.289 171.949L280.221 171.575L280.086 170.828L279.687 171.224M272.231 182.122L272.698 182.1L276.633 180.408M279.687 171.224L279.754 171.597L279.287 171.619M279.956 172.718L274.962 178.98L280.963 175.684L279.759 174.234L276.229 178.167L278.762 176.541L279.027 175.398L280.029 175.728L279.427 175.003L279.894 174.981C280.375 175.561 279.69 172.981 279.287 171.619M279.287 171.619C279.341 171.918 279.264 171.495 279.219 171.246" stroke="#E1BE8C" stroke-width="0.5"/>
<path d="M204.252 168.627C207.067 165.04 208.395 163.963 213.077 158.88C215.826 155.896 212.79 158.653 211.553 159.725C209.919 161.139 207.235 166.343 207.562 164.494C207.876 162.728 210.889 157.953 210.894 159.724C210.905 163.736 205.34 167.236 204.586 171.267C204.502 171.715 207.059 168.02 207.742 167.245C210.838 163.73 209.5 166.148 208.297 168.751C206.662 172.288 208.493 166.307 208.812 165.521C210.127 162.277 210.397 164.312 209.228 166.435C207.395 169.768 208.774 167.995 210.592 166.496C211.774 165.522 209.719 170.312 209.661 170.975C209.617 171.464 213.735 166.567 211.048 169.984C209.59 171.837 210.047 170.638 210.408 169.313C210.609 168.574 208.465 171.002 207.922 171.299C206.885 171.867 208.764 169.144 207.902 170.22C206.79 171.607 205.859 173.993 204.293 175.112C203.167 175.917 204.873 172.815 205.117 171.662C205.228 171.14 204.329 171.266 204.841 169.62C205.3 168.142 207.945 163.989 207.154 165.392C206.646 166.293 206.219 167.216 205.684 168.109C205.285 168.776 204.962 170.625 204.39 170.077C201.839 167.631 207.688 162.466 202.897 169.519C200.246 173.422 203.535 160.917 198.766 169.785C196.457 174.08 199.939 163.081 200.116 164.949C200.298 166.86 199.168 168.824 199.345 170.684C199.411 171.374 199.848 169.045 199.968 170.307C200.323 174.035 199.175 167.021 200.474 167.841" stroke="#E1BE8C" stroke-width="3" stroke-linecap="round"/>
<path d="M199.244 166.332C201.387 164.578 203.425 162.943 206.217 161.848C207.549 161.325 207.139 161.508 206.256 162.108C204.97 162.98 203.89 164.017 202.622 164.891C202.16 165.209 200.252 165.852 201.486 164.966C202.148 164.491 208.103 161.092 208.123 161.128C208.489 161.795 204.707 164.128 204.249 164.445C202.922 165.363 200.541 167.158 198.629 167.253C197.892 167.289 200.019 165.288 200.116 165.195C201.686 163.696 203.091 162.077 205.012 160.826C205.153 160.734 207.55 159.419 206.777 160.268C205.447 161.729 204.018 163.215 202.521 164.577C201.126 165.846 199.711 167.118 198.257 168.348C197.587 168.914 198.403 167.525 198.488 167.343C200.219 163.634 203.643 160.966 207.425 158.428C210.142 156.606 203.745 163.263 201.244 165.264C200.977 165.477 197.989 167.761 198.757 166.439C200.025 164.256 201.763 162.099 203.585 160.155C204.66 159.008 205.857 157.97 207.198 157.006C207.883 156.513 207.797 156.813 207.534 157.331C205.855 160.633 203.063 164.09 200.072 166.819C199.914 166.962 198.449 168.355 198.744 167.5C199.332 165.798 200.632 164.27 201.846 162.785C203.539 160.717 209.371 154.93 207.791 157.048C205.239 160.469 202.674 163.674 199.313 166.688C198.027 167.842 196.726 169.036 195.128 169.941C194.687 170.19 196.214 168.614 196.39 168.427C199.869 164.724 203.5 161.043 207.448 157.624C207.504 157.576 209.015 156.241 208.752 157.149C208.463 158.149 207.802 159.281 207.285 160.231C205.98 162.628 204.322 164.945 202.666 167.214C202.031 168.084 201.355 168.939 200.755 169.823C200.478 170.231 199.669 171.195 199.842 171.721C199.998 172.194 203.094 170.435 203.294 170.311C204.732 169.425 206.102 168.477 207.561 167.61C208.272 167.188 209.494 166.279 210.465 166.187C210.81 166.154 210.36 166.512 210.341 166.528C209.512 167.231 208.526 167.852 207.616 168.489C205.267 170.133 202.8 171.662 200.164 173.014C199.25 173.482 198.283 173.77 199.553 172.858C202.01 171.091 204.969 169.614 207.76 168.206C208.773 167.695 209.821 167.227 210.926 166.856C211.894 166.532 211.467 166.86 211.076 167.237C209.503 168.756 207.989 170.296 206.352 171.777C206.116 171.99 203.135 175.04 202.732 174.927C202.615 174.894 202.879 174.761 202.965 174.685C203.295 174.393 203.697 174.076 204.047 173.813C205.582 172.657 207.199 171.57 208.814 170.483C209.836 169.796 210.864 169.115 211.823 168.374C212.382 167.943 213.59 166.456 213.459 167.049C213.389 167.365 212.727 167.925 212.512 168.144C211.406 169.267 210.185 170.326 208.986 171.389C207.676 172.549 205.799 174.787 203.743 175.253C203.435 175.323 205.601 172.696 205.886 172.398C207.296 170.919 208.867 169.529 210.348 168.092C211.717 166.763 209.536 169.429 209.36 169.651C208.119 171.22 206.926 172.861 205.148 174.12C203.539 175.26 204.413 173.803 204.854 173.122C205.744 171.747 207.082 170.465 207.664 168.989C207.763 168.738 207.75 168.634 207.456 168.817C206.538 169.387 205.687 170.004 204.729 170.537C203.29 171.337 200.481 172.705 198.687 171.974C198.408 171.86 197.5 171.071 198.277 170.948C199.614 170.736 201.204 171.187 202.584 171.131C204.212 171.064 203.399 171.169 202.437 171.6C201.064 172.216 199.911 172.985 199.023 174.006C198.915 174.13 198.689 174.494 199.026 174.192C199.846 173.461 200.397 172.515 201.033 171.696" stroke="#E1BE8C" stroke-width="3" stroke-linecap="round"/>
<path d="M201.574 178.593C202.526 177.363 203.115 176.013 203.896 174.723C204.715 173.37 205.719 172.105 206.487 170.732C206.818 170.141 207.292 169.598 207.733 169.05C208.47 168.133 209.185 167.208 209.961 166.309C209.961 166.309 210.721 165.421 210.791 165.531C210.962 165.8 211.021 166.188 211.117 166.47C211.278 166.939 211.453 167.394 211.713 167.831C212.138 168.543 211.848 169.386 211.472 170.119C210.756 171.518 209.565 172.726 208.51 173.978C208.223 174.32 207.964 174.684 207.609 174.985C206.932 175.558 206.274 176.071 205.805 176.765C205.191 177.675 204.784 178.657 203.725 179.337C203.551 179.449 203.346 179.537 203.186 179.665C202.895 179.898 202.455 179.956 202.164 180.195C201.662 180.608 200.817 180.428 200.322 180.21C199.181 179.706 199.077 178.401 197.895 177.934C197.798 177.895 197.097 177.685 197 177.794C196.989 177.806 197.023 177.815 197.038 177.821C198.43 178.369 195.354 177.115 197.647 178.04C198.266 178.29 198.835 178.599 199.428 178.88C199.676 178.999 200.286 179.407 200.618 179.399C200.723 179.397 200.619 179.226 200.559 179.161C200.123 178.686 199.526 178.287 198.995 177.879C198.947 177.842 198.135 177.184 198.143 177.184C198.781 177.123 199.57 177.516 200.17 177.634C200.719 177.742 200.559 177.619 200.168 177.468C199.514 177.214 198.844 176.982 198.186 176.733C197.515 176.479 197.171 176.344 196.529 176.095C196.326 176.016 196.066 175.986 195.928 175.847C195.916 175.834 195.966 175.823 195.987 175.825C196.255 175.842 196.877 175.969 197.052 176.006C198.009 176.209 198.953 176.446 199.905 176.661C200.056 176.695 201.774 177.146 200.685 176.786C199.951 176.544 199.156 176.319 198.491 175.975C198.403 175.929 198.706 175.917 198.813 175.927C199.874 176.03 200.917 176.242 201.953 176.427C202.239 176.478 202.548 176.562 202.841 176.603C203.148 176.646 202.284 176.398 201.999 176.306C199.895 175.627 197.621 175.108 195.623 174.262C194.773 173.902 197.595 174.353 198.558 174.493C199.299 174.601 200.04 174.708 200.783 174.808C201.063 174.846 201.179 174.86 201.431 174.902C201.488 174.911 201.641 174.963 201.602 174.93C201.588 174.918 201.566 174.914 201.546 174.907C201.194 174.793 200.834 174.69 200.482 174.576C199.079 174.122 197.71 173.624 196.374 173.068C196.02 172.92 195.668 172.769 195.323 172.61C195.11 172.513 194.506 172.273 194.757 172.243C195.326 172.173 195.886 172.358 196.441 172.448C197.63 172.643 199.156 172.935 200.311 173.162C201.923 173.477 203.524 173.817 205.132 174.142C205.475 174.211 205.903 174.324 206.278 174.341C206.379 174.345 206.132 174.233 206.042 174.199C205.218 173.892 204.363 173.632 203.522 173.352C203.427 173.321 202.163 172.91 202.941 173.014C203.307 173.062 203.671 173.12 204.036 173.173C204.458 173.235 204.3 173.216 203.989 173.133C202.979 172.865 202.026 172.492 201.112 172.076C200.887 171.974 200.68 171.862 201.021 171.804C201.155 171.782 201.291 171.699 201.365 171.608C201.476 171.473 201.528 171.314 201.607 171.169C201.85 170.716 202.21 170.323 202.586 169.928C203.432 169.037 204.317 168.2 205.378 167.455C206.426 166.719 207.434 165.927 208.864 165.748C210.155 165.586 211.769 166.32 211.984 167.359C212.073 167.791 212.107 168.063 211.567 168.258" stroke="#E1BE8C" stroke-width="3"/>
<path d="M195.448 167.146C195.813 166.6 196.084 166.022 196.452 165.476C196.67 165.151 197.001 164.876 197.203 164.55C197.489 164.089 197.807 163.671 197.977 163.184C198.131 162.745 198.5 162.393 198.842 162.026C199.124 161.723 199.353 161.401 199.622 161.092C199.956 160.708 200.306 160.368 200.71 160.018C201.384 159.435 201.965 158.852 202.715 158.319C203.23 157.953 203.633 157.51 204.1 157.111C204.483 156.783 204.961 156.539 205.357 156.22C205.877 155.801 206.293 155.285 206.729 154.814C206.903 154.627 207.148 154.352 207.391 154.23" stroke="#E1BE8C" stroke-linecap="square"/>
<path d="M207.92 155.028C206.663 156.258 205.349 157.499 204.24 158.811C203.781 159.355 203.466 159.958 203.032 160.513C202.611 161.051 202.204 161.58 201.808 162.127C201.281 162.854 200.711 163.533 200.092 164.22C199.569 164.8 199.068 165.392 198.341 165.837C198.1 165.985 197.845 166.179 197.539 166.199C197.023 166.232 197.591 165.204 197.652 165.079C198.101 164.148 198.801 163.443 199.54 162.642C199.91 162.24 200.289 161.867 200.715 161.498C200.816 161.411 201.108 161.073 201.29 161.056C201.348 161.05 200.706 162.522 200.643 162.626C200.337 163.126 199.937 163.592 199.575 164.069C199.21 164.551 198.903 165.066 198.509 165.535C198.218 165.882 197.819 166.21 197.376 166.442C197.32 166.471 197.201 166.558 197.219 166.451C197.298 165.976 197.546 165.488 197.737 165.032C198.001 164.4 198.194 163.713 198.543 163.103C198.569 163.058 198.637 162.935 198.654 162.981C198.733 163.201 198.367 163.778 198.287 163.954C197.98 164.631 197.589 165.272 197.234 165.934C197.028 166.319 197.282 165.629 197.305 165.542C197.377 165.267 197.854 164.504 197.652 164.741C197.208 165.26 196.837 165.864 196.47 166.417C196.449 166.448 196.347 166.69 196.286 166.712C196.101 166.779 196.263 166.401 196.288 166.246C196.407 165.513 196.635 164.771 197.156 164.128C197.256 164.004 197.449 163.882 197.337 164.147C196.958 165.038 196.398 165.884 196.104 166.796C196.088 166.846 196.058 166.99 196.076 166.804C196.109 166.47 196.172 166.136 196.254 165.805C196.363 165.36 196.442 164.719 196.753 164.31C197.013 163.969 196.132 164.945 195.874 165.287C195.491 165.794 195.197 166.452 194.709 166.909C194.58 167.03 194.846 166.618 194.911 166.471C195.045 166.17 195.169 165.867 195.287 165.562C195.359 165.375 195.427 165.185 195.539 165.008C195.661 164.815 195.397 165.422 195.304 165.624C195.25 165.74 195.196 165.857 195.14 165.972C195.093 166.068 195.047 166.333 194.976 166.251C194.914 166.181 195.043 165.884 195.063 165.808C195.172 165.386 195.248 164.938 195.418 164.526C195.433 164.489 195.27 165.079 195.227 165.19C195.207 165.24 194.877 166.095 194.952 165.702C195.003 165.438 195.16 165.23 195.345 165.004C195.639 164.647 195.073 165.428 195.019 165.499C194.727 165.884 194.829 165.618 194.938 165.359C195.235 164.652 195.641 163.994 196.255 163.409C196.927 162.77 197.505 162.113 198.052 161.408C198.348 161.026 198.61 160.724 199.05 160.434C199.682 160.017 200.024 159.479 200.549 158.996C200.821 158.746 201.243 158.607 201.521 158.36C201.815 158.1 202.009 157.828 202.268 157.535C202.525 157.244 202.834 157.007 203.148 156.752C203.666 156.331 203.765 155.813 204.139 155.338C204.543 154.827 205.237 154.481 205.623 153.966C205.98 153.489 206.296 153.048 206.819 152.665C207.384 152.251 207.667 151.711 208.103 151.223C208.303 150.998 208.525 150.686 208.78 150.504" stroke="#E1BE8C" stroke-linecap="square"/>
<path d="M196.912 164.212C197.768 163.441 198.476 162.589 199.412 161.872C199.953 161.458 200.458 161.047 200.945 160.595C201.898 159.71 203.057 159.045 204.146 158.277C205.002 157.673 205.878 157.078 206.772 156.51C207.522 156.034 208.325 155.566 208.964 154.995C209.44 154.571 209.941 154.146 210.491 153.777C211.115 153.358 210.358 153.569 209.979 153.717C208.547 154.278 207.398 155.382 206.347 156.298C205.295 157.216 204.378 158.205 203.391 159.161C203.209 159.337 202.768 159.914 202.876 159.707C203.66 158.198 204.914 156.882 205.9 155.448C206.179 155.042 206.423 154.624 206.701 154.218C206.881 153.956 206.318 154.733 206.122 154.989C205.561 155.722 204.991 156.453 204.351 157.148C204.165 157.35 203.906 157.536 203.729 157.742C203.006 158.589 205.289 156.109 206.095 155.307C206.243 155.16 206.76 154.664 207.008 154.499C207.102 154.437 206.944 154.684 206.883 154.766C206.439 155.359 206.025 155.97 205.546 156.546C205.235 156.92 204.885 157.269 204.524 157.614C204.493 157.644 204.167 158.025 204.044 158.037C204.012 158.04 204.666 156.706 204.682 156.673C205.086 155.861 205.425 155.013 205.957 154.239C206.135 153.98 206.1 154.06 205.871 154.314C204.868 155.427 203.77 156.476 202.737 157.571C202.176 158.166 203.087 157.332 203.187 157.248C204.166 156.423 204.938 155.511 205.853 154.654C205.941 154.571 206.52 154.076 206.246 154.519C205.522 155.688 204.775 156.94 203.684 157.944C203.22 158.37 204.315 156.946 204.625 156.445C205.13 155.629 205.732 154.918 206.388 154.17C206.472 154.075 206.688 153.793 206.672 153.905C206.627 154.205 205.967 154.752 205.785 154.993C205.362 155.552 204.332 157.323 204.67 156.732C205.176 155.848 205.668 155.011 206.317 154.171C206.676 153.707 207.03 153.24 207.412 152.786C207.924 152.176 206.61 154.106 206.073 154.705C206.043 154.738 205.376 155.505 205.606 155.076C205.901 154.529 206.295 154.006 206.627 153.471C206.975 152.908 206.448 153.861 206.409 153.93C206.1 154.466 205.809 155.004 205.555 155.555C205.411 155.868 205.208 156.238 205.168 156.574C205.143 156.788 206.183 156.084 206.257 156.035C206.47 155.894 206.993 155.372 207.3 155.342C207.417 155.331 206.941 156.09 206.887 156.169C206.845 156.231 206.604 156.688 206.492 156.695C206.399 156.7 206.59 156.113 206.594 156.103C206.813 155.545 207.058 154.965 207.327 154.419C207.501 154.065 206.618 154.964 206.556 155.025C206.513 155.067 205.704 155.865 206.193 155.511C206.814 155.062 207.251 154.49 207.822 154.011C208.542 153.409 206.818 155.453 206.235 156.137C204.797 157.821 203.201 159.452 201.368 160.893C201.313 160.936 200.222 162.012 200.23 161.495C200.238 160.997 200.453 160.491 200.745 160.043C200.904 159.798 201.247 159.533 201.349 159.27C201.412 159.108 201.054 159.526 200.935 159.669C200.217 160.536 199.518 161.404 198.756 162.251C198.261 162.8 197.749 163.346 197.323 163.929C197.184 164.118 197.142 164.337 197.013 164.518C196.928 164.638 197.055 164.249 197.112 164.121C197.378 163.523 197.844 162.995 198.281 162.462C198.527 162.163 198.761 161.858 199.01 161.561C199.167 161.373 199.124 161.497 198.981 161.633C198.476 162.112 197.891 162.538 197.379 163.014C196.772 163.579 196.251 164.184 195.749 164.805C195.709 164.855 195.43 165.293 195.58 164.988C196.073 163.987 196.671 163.072 197.443 162.176C197.574 162.025 197.725 161.771 197.909 161.643C197.909 161.643 197.982 161.608 197.993 161.624C198.027 161.675 197.936 161.735 197.894 161.784C197.662 162.049 197.409 162.305 197.172 162.568C197.05 162.704 196.792 162.925 196.749 163.102C196.733 163.17 196.777 163.157 196.829 163.111C197.173 162.804 197.506 162.481 197.837 162.166C198.083 161.932 198.302 161.689 198.525 161.443C198.56 161.404 198.805 161.169 198.704 161.404C198.56 161.741 197.726 162.613 197.995 162.323C198.449 161.834 198.817 161.303 199.31 160.834C199.349 160.796 199.392 160.714 199.444 160.735C199.482 160.75 199.408 160.797 199.385 160.826C199.263 160.976 199.137 161.125 199.015 161.275C198.89 161.427 198.538 161.742 198.496 161.931C198.466 162.068 198.775 161.751 198.9 161.649C199.127 161.463 199.865 160.83 200.082 160.649C200.301 160.466 200.605 160.117 200.975 160.082" stroke="#E1BE8C" stroke-linecap="square"/>
<path d="M194.308 164.625L208.999 146.578" stroke="#E1BE8C" stroke-width="0.5"/>
<path d="M208.675 150.081C208.304 150.813 207.964 151.417 207.252 151.988C207.185 152.042 205.778 153.189 206.054 153.322C206.136 153.361 206.734 152.585 206.746 152.572C207.382 151.846 208.096 151.21 208.945 150.627C209.12 150.507 210.019 149.779 210.362 149.858C210.431 149.874 210.243 149.929 210.18 149.96C209.935 150.079 209.698 150.196 209.48 150.347C208.901 150.748 208.451 151.254 207.884 151.661C207.585 151.876 207.086 152.111 207.358 151.612C207.68 151.017 207.961 150.415 208.516 149.915C208.583 149.855 208.782 149.65 208.901 149.638C208.963 149.632 208.633 149.997 208.63 150.001C208.172 150.436 207.708 150.902 207.201 151.301C206.889 151.547 207.71 150.736 207.97 150.457C208.103 150.314 208.242 150.179 208.395 150.049C208.449 150.003 208.652 149.848 208.488 150.001C208.211 150.261 207.894 150.505 207.586 150.743C207.203 151.04 208.688 149.313 208.331 149.63C208.123 149.814 207.992 150.076 207.834 150.287C207.819 150.307 208.242 149.931 208.352 149.846" stroke="#E1BE8C" stroke-linecap="square"/>
<path d="M207.663 151.658C206.954 151.488 207.763 150.43 207.96 150.105C207.961 150.103 208.495 149.244 208.601 149.295C208.896 149.438 207.989 150.551 207.864 150.674C207.767 150.769 207.222 151.311 206.998 151.3C206.827 151.292 206.811 150.82 206.8 150.726C206.776 150.522 206.794 150.825 206.759 150.896C206.669 151.075 206.508 151.255 206.378 151.42C206.367 151.434 206.43 151.166 206.462 151.102C206.484 151.059 206.571 150.869 206.671 150.877C206.704 150.879 206.693 151.045 206.689 150.919C206.681 150.695 206.764 150.449 206.883 150.241C207.007 150.022 206.803 150.415 206.775 150.462C206.49 150.925 206.733 150.369 206.928 150.192C207.019 150.11 206.985 150.104 207.002 149.985C207.029 149.793 207.169 149.563 207.35 149.423C207.407 149.379 207.451 149.422 207.482 149.371C207.525 149.3 207.534 149.211 207.589 149.145C207.666 149.053 207.656 148.973 207.719 148.886C207.89 148.644 207.626 149.424 207.57 149.693C207.515 149.951 207.282 150.343 207.04 150.531C206.651 150.832 206.401 151.457 206.29 151.856C206.162 152.32 205.867 152.698 205.541 153.108C205.2 153.538 204.855 154.014 204.438 154.406C204.185 154.643 204.027 154.848 203.858 155.129C203.719 155.36 203.67 155.695 203.4 155.863C202.922 156.16 202.584 156.446 202.214 156.816C202.012 157.018 201.864 157.284 201.614 157.453C201.233 157.71 200.891 157.952 200.692 158.312C200.537 158.592 200.396 158.84 200.186 159.108C200.06 159.271 199.985 159.627 199.675 159.656C199.275 159.694 199.11 160.027 198.825 160.186C198.788 160.207 198.688 160.474 198.692 160.524C198.703 160.638 198.626 160.873 198.556 160.972C198.466 161.098 198.359 161.349 198.13 161.401C197.8 161.476 197.553 161.881 197.387 162.068C197.248 162.223 197.112 162.467 197.09 162.65C197.076 162.776 197.068 162.78 196.98 162.883C196.94 162.93 196.751 163.023 196.742 163.058C196.698 163.225 196.337 163.406 196.266 163.602C196.212 163.755 195.878 163.949 195.744 164.074C195.66 164.153 195.651 164.207 195.533 164.268C195.417 164.329 195.481 164.406 195.387 164.468C195.131 164.637 195.344 164.88 194.912 164.901C194.862 164.904 194.735 164.768 194.78 164.725C194.871 164.64 195.065 164.73 195.171 164.602C195.262 164.493 195.187 164.402 195.338 164.29C195.424 164.226 195.427 164.161 195.513 164.096C195.663 163.982 195.507 163.668 195.637 163.546C195.714 163.473 195.794 163.477 195.849 163.365C195.914 163.232 195.967 163.106 196.102 163.002C196.268 162.874 196.503 162.761 196.734 162.632C197.268 162.332 197.213 161.791 197.508 161.349C197.621 161.18 197.796 160.889 198.006 160.775C198.151 160.695 198.228 160.541 198.324 160.423C198.447 160.271 198.713 160.189 198.774 160.019C198.849 159.809 199.222 159.553 199.389 159.362C199.536 159.194 199.712 159.034 199.889 158.887C199.977 158.815 200.227 158.711 200.258 158.652" stroke="#E1BE8C" stroke-linecap="round"/>
<path d="M199.672 158.608C200.46 158.177 200.861 157.488 201.519 156.974C201.818 156.74 201.99 156.437 202.216 156.164C202.315 156.046 202.29 155.925 202.354 155.802C202.464 155.591 202.631 155.342 202.832 155.174C203.309 154.776 204.029 154.443 204.062 153.848C204.067 153.752 204.249 153.613 204.288 153.505C204.31 153.443 204.434 153.25 204.489 153.206C204.744 152.999 204.904 152.66 205.059 152.408C205.209 152.164 205.456 151.903 205.592 151.678C205.656 151.572 205.758 151.309 205.78 151.544C205.803 151.79 205.852 152.041 205.772 152.288C205.723 152.439 205.683 152.565 205.698 152.719C205.729 153.04 205.759 153.362 205.79 153.684" stroke="#E1BE8C" stroke-linecap="round"/>
<path d="M206.047 150.964C206.357 150.88 206.795 150.756 206.221 150.747" stroke="#E1BE8C" stroke-linecap="round"/>
<path d="M204.736 152.786C204.564 152.995 204.356 153.161 204.226 153.383C204.162 153.493 204.225 153.657 204.149 153.743C204.052 153.851 204.029 154.028 203.962 154.157C203.866 154.341 203.569 154.346 203.536 154.469C203.531 154.491 203.42 154.585 203.394 154.599C203.278 154.666 203.362 154.688 203.295 154.758C203.274 154.781 202.928 154.954 203.093 154.864C203.48 154.652 203.395 154.484 203.451 154.181C203.459 154.139 203.507 154.028 203.56 154.007C203.71 153.947 203.57 154.461 203.559 154.484C203.368 154.898 203.15 155.291 203.079 155.727C203.049 155.908 202.935 156.123 202.939 156.301C202.944 156.458 202.618 156.448 202.562 156.331C202.506 156.216 202.458 155.997 202.267 156.015C202.136 156.028 201.742 156.062 201.706 156.196C201.666 156.347 201.552 156.54 201.555 156.682C201.556 156.75 201.343 156.792 201.319 156.882C201.286 157.01 201.206 157.082 201.218 157.213" stroke="#E1BE8C" stroke-linecap="round"/>
<path d="M204.281 153.428C204.16 153.515 203.786 153.663 203.797 153.773C203.809 153.898 203.755 154.007 203.766 154.126C203.787 154.352 203.616 154.689 203.306 154.719" stroke="#E1BE8C" stroke-linecap="round"/>
<path d="M212.595 173.587L204.345 183.885L200.526 181.474" stroke="#E1BE8C" stroke-width="0.5"/>
<path d="M206.196 178.303C206.374 178.256 206.765 178.215 206.918 178.129C206.978 178.095 206.913 178.025 206.97 177.991C207.052 177.942 207.195 177.91 207.289 177.874C207.702 177.716 207.898 177.57 207.649 177.294C207.541 177.173 208.172 176.93 208.31 176.884C208.593 176.789 208.553 176.785 208.488 176.568C208.445 176.424 208.637 176.529 208.69 176.463C208.737 176.404 208.183 176.317 208.28 176.308C208.472 176.289 209.793 176.133 209.08 176.043C208.894 176.019 209.162 175.989 209.249 175.966C209.479 175.905 209.701 175.878 209.937 175.85C210.027 175.84 209.778 175.785 209.689 175.774C209.652 175.77 209.131 175.708 209.134 175.705C209.301 175.549 209.803 175.464 210.056 175.44C210.276 175.419 209.653 175.347 209.572 175.336C209.418 175.315 209.955 175.308 210.018 175.194C210.081 175.08 209.85 175.082 209.762 175.068" stroke="#E1BE8C" stroke-linecap="round"/>
<path d="M209.762 175.068C210.112 174.68 210.525 174.276 210.735 173.831C210.893 173.495 211.005 173.148 211.176 172.815C211.419 172.342 211.712 171.899 212.067 171.474C212.09 171.447 212.45 170.865 212.572 171.049C212.813 171.413 212.382 172.189 212.205 172.54C211.924 173.098 211.575 173.566 211.151 174.06C211.113 174.105 210.821 174.584 210.875 174.4C210.958 174.114 211.213 173.724 211.418 173.474C211.57 173.29 211.823 173.169 212.013 173.01C212.153 172.893 212.16 172.825 212.146 173.05C212.136 173.202 212.04 173.349 212.067 173.501C212.078 173.569 212.245 173.291 212.27 173.263C212.489 173.015 212.54 173.05 212.564 173.304C212.578 173.452 212.228 173.522 212.076 173.6C211.909 173.686 211.623 173.935 211.54 174.073C211.389 174.323 211.039 174.492 210.881 174.762C210.734 175.014 210.41 175.341 210.161 175.53C210.026 175.632 209.886 175.747 209.773 175.866C209.701 175.942 209.679 176.024 209.572 176.082C209.449 176.148 209.53 176.216 209.456 176.295C209.19 176.58 209.163 176.907 208.865 177.173C208.573 177.432 208.121 177.621 207.874 177.919C207.795 178.013 207.615 178.288 207.624 178.389C207.627 178.417 207.569 178.549 207.59 178.558C207.678 178.595 208.241 178.153 208.329 178.1C208.766 177.836 208.972 177.42 209.204 177.04C209.391 176.734 209.478 176.413 209.767 176.141C209.855 176.059 210.148 175.849 209.979 175.918C209.301 176.197 208.66 176.527 207.972 176.8C207.75 176.888 207.463 176.977 207.297 177.133C207.178 177.245 206.823 177.616 206.794 177.772C206.757 177.97 206.34 178.093 206.149 178.191C205.484 178.533 205.208 179.1 204.932 179.649C204.805 179.901 204.672 180.244 204.604 180.501C204.547 180.716 204.367 180.884 204.251 181.084C204.135 181.281 204.057 181.612 204.077 181.824C204.103 182.092 203.993 182.294 204.017 182.553C204.024 182.627 204.062 183.231 204.241 183.173C204.429 183.112 204.673 182.832 204.778 182.706C204.875 182.589 204.834 182.432 204.914 182.329C205.122 182.062 205.179 181.727 205.498 181.492C205.971 181.142 206.322 180.824 206.518 180.33C206.809 179.595 207.467 178.884 207.959 178.21C208.072 178.056 208.449 177.611 208.31 177.752C207.801 178.268 207.348 178.814 206.854 179.338C206.58 179.629 206.331 179.927 206.055 180.219C205.706 180.588 205.31 180.924 204.974 181.3C204.936 181.343 204.755 181.549 204.743 181.508C204.608 181.061 204.949 180.571 205.227 180.184C205.698 179.527 206.093 178.857 206.529 178.188C206.541 178.17 207.011 177.489 207.132 177.587C207.284 177.71 206.855 178.235 206.793 178.362C206.78 178.391 206.628 178.831 206.762 178.676C206.85 178.575 207.163 178.175 207.392 178.319C207.508 178.393 207.473 178.806 207.572 178.818C207.848 178.852 207.455 178.983 207.313 179.034C206.26 179.415 205.372 180.055 204.718 180.79C204.481 181.055 204.276 181.316 203.991 181.558C203.784 181.732 203.564 182.011 203.486 182.243C203.444 182.366 203.499 182.529 203.51 182.651C203.516 182.711 203.232 182.421 203.194 182.382C203.125 182.312 202.977 182.168 202.943 182.082C202.894 181.957 202.697 181.902 202.603 181.789C202.503 181.67 202 181.497 201.788 181.518" stroke="#E1BE8C" stroke-linecap="round"/>
<path d="M200.681 181.423C200.974 181.596 201.306 181.672 201.646 181.756C201.826 181.801 202.119 181.85 202.265 181.932C202.428 182.025 202.517 182.087 202.664 182.208C202.852 182.362 203.096 182.48 203.252 182.654C203.305 182.713 203.811 182.895 203.851 182.835C204.03 182.566 203.916 182.04 203.926 181.747C203.936 181.46 203.946 181.196 203.588 181.058C203.437 180.999 202.387 180.767 202.602 181.213C202.672 181.358 204.396 180.98 202.875 181.22C202.389 181.297 202.907 181.455 203.122 181.441C203.382 181.423 202.989 181.41 202.939 181.397C202.888 181.384 203.342 181.531 203.462 181.577C203.789 181.704 202.664 181.718 202.532 181.721C202.007 181.735 202.161 181.8 202.511 181.948C202.985 182.149 202.1 181.972 201.963 181.922C201.643 181.807 201.592 181.736 201.217 181.772C201.052 181.787 201.724 182.051 201.413 181.947C201.284 181.904 201.226 181.702 201.062 181.689C201.035 181.687 200.828 181.634 200.928 181.602C201.489 181.421 201.961 182.2 202.43 182.155" stroke="#E1BE8C" stroke-linecap="round"/>
<path d="M217.289 190.581L201.371 184.961" stroke="#FFDCA0" stroke-width="0.5"/>
<path d="M208.998 189.71C208.748 189.805 208.774 189.912 208.847 190.112C208.86 190.148 209.125 190.562 209.054 190.62C209.021 190.647 208.958 190.635 208.911 190.629C208.639 190.591 208.109 190.414 207.927 190.358C206.9 190.038 205.868 189.719 204.866 189.36C204.032 189.061 203.209 188.72 202.585 188.192C202.49 188.111 202.787 188.346 202.892 188.419C203.792 189.041 204.838 189.549 205.857 190.046C208.3 191.237 210.807 192.352 213.353 193.411C215.021 194.106 216.71 194.793 218.476 195.34C219.145 195.546 219.84 195.722 220.537 195.871C220.593 195.883 220.647 195.901 220.706 195.903C220.857 195.908 220.43 195.818 220.291 195.776C217.652 194.977 215.113 193.99 212.582 193.02C212.078 192.827 210.644 192.142 211.109 192.385C211.572 192.626 212.074 192.821 212.557 193.037C213.651 193.526 214.701 194.063 215.772 194.58C216.09 194.733 216.412 194.883 216.734 195.032C217.016 195.161 217.84 195.494 217.506 195.499C217.142 195.505 216.785 195.44 216.431 195.386C215.019 195.169 212.748 194.719 211.419 194.432C209.74 194.069 208.154 193.606 206.531 193.15C206.103 193.03 207.326 193.487 207.718 193.662C209.043 194.254 210.354 194.863 211.673 195.462C213.109 196.115 214.592 196.721 216.01 197.396C217.035 197.884 213.88 196.521 212.809 196.093C211.913 195.736 210.993 195.417 210.088 195.074C209.573 194.879 208.939 194.684 208.472 194.415C208.236 194.279 209.064 194.492 209.346 194.564C211.303 195.068 213.22 195.664 215.122 196.272C216.061 196.573 217.004 196.878 217.917 197.223C218.02 197.263 218.134 197.294 218.22 197.353C218.425 197.493 217.69 197.233 217.43 197.163C215.054 196.527 212.635 195.977 210.276 195.307C210.092 195.255 209.91 195.197 209.726 195.146C209.602 195.111 209.422 195.053 209.632 195.169C210.234 195.5 210.882 195.796 211.511 196.096C213.533 197.058 215.588 198.049 217.803 198.744C217.852 198.76 217.914 198.761 217.952 198.79C218.076 198.888 217.597 198.74 217.421 198.711C216.146 198.499 214.882 198.265 213.634 197.979C211.992 197.603 210.381 197.16 208.775 196.709C208.336 196.586 207.075 196.143 207.454 196.349C208.862 197.116 210.467 197.739 211.994 198.361C212.722 198.657 211.968 198.459 211.62 198.38C209.845 197.977 208.115 197.488 206.396 196.973C204.726 196.472 202.991 196.008 201.389 195.391C201.154 195.3 201.896 195.509 202.146 195.575C203.682 195.977 205.199 196.412 206.7 196.883C208.93 197.583 211.104 198.388 213.37 199.024C214.932 199.463 210.312 198.029 208.802 197.501C208.13 197.266 207.405 197.037 206.776 196.737C206.731 196.715 206.636 196.693 206.66 196.655C206.685 196.615 206.773 196.645 206.828 196.653C207.003 196.677 207.174 196.714 207.345 196.75C208.966 197.09 210.518 197.58 212.096 198.01C212.26 198.055 212.43 198.105 212.601 198.138C212.8 198.177 212.202 198.058 212.003 198.019C210.81 197.78 209.651 197.458 208.467 197.203" stroke="#E1BE8C" stroke-width="4" stroke-linecap="round"/>
<path d="M206.493 191.244C205.799 190.769 205.033 190.356 204.344 189.879C204.31 189.855 204.239 189.77 204.281 189.785C204.582 189.887 204.859 190.026 205.145 190.151C206.743 190.849 208.314 191.587 209.961 192.22C210.291 192.347 210.674 192.493 211.062 192.519C211.126 192.523 211.119 192.519 211.042 192.498C210.456 192.337 209.879 192.181 209.305 191.994C207.794 191.501 203.389 189.829 204.803 190.464C205.992 190.999 207.128 191.595 208.299 192.153C209.627 192.785 211.047 193.261 212.451 193.785C214.823 194.672 207.468 192.396 205.102 191.5C203.569 190.919 201.901 190.352 200.473 189.622C200.37 189.569 200.715 189.674 200.83 189.711C201.805 190.022 202.765 190.355 203.703 190.725C205.134 191.288 206.504 191.929 207.908 192.527C208.045 192.585 208.555 192.795 208.728 192.871C208.789 192.898 208.849 192.927 208.907 192.957C208.98 192.994 209.045 193.026 208.902 193.001C207.753 192.801 206.601 192.477 205.5 192.173C204.38 191.863 203.77 191.671 202.694 191.297C202.336 191.172 201.983 191.04 201.629 190.908C201.341 190.801 201.085 190.63 200.769 190.581C200.504 190.541 201.207 190.818 201.438 190.922C202.729 191.502 204.095 192.058 205.424 192.573C207.82 193.5 210.211 194.367 212.654 195.225C214.732 195.955 216.972 196.569 218.993 197.393C219.527 197.61 217.84 197.106 217.274 196.941C215.806 196.514 213.049 195.692 211.671 195.281C208.808 194.43 205.865 193.658 203.062 192.7C201.692 192.231 205.919 193.428 207.308 193.866C209.942 194.697 212.55 195.594 215.127 196.52C215.335 196.595 215.52 196.654 215.163 196.584C214.562 196.467 213.497 196.216 213.026 196.102C209.959 195.362 206.969 194.454 203.889 193.745C203.738 193.711 203.282 193.626 203.42 193.683C204.042 193.942 204.694 194.16 205.328 194.403C209.046 195.827 212.766 197.249 216.647 198.413C217.307 198.611 217.487 198.66 218.045 198.798C218.241 198.846 218.303 198.861 218.075 198.793C215.187 197.921 212.224 197.181 209.291 196.395C208.169 196.094 207.2 195.835 206.107 195.523C205.837 195.445 205.011 195.269 205.303 195.279C205.681 195.291 206 195.488 206.348 195.593C208.264 196.17 210.184 196.741 212.094 197.329C213.634 197.804 218.17 199.37 216.664 198.839C214.193 197.966 211.628 197.235 209.051 196.555C207.485 196.142 205.888 195.683 204.277 195.362C204.23 195.353 204.091 195.328 204.131 195.348C204.281 195.422 204.449 195.472 204.611 195.528C206.852 196.302 209.139 197.011 211.413 197.726C214.039 198.552 216.67 199.419 219.409 200.027C219.842 200.123 219.856 200.112 219.629 200.057C218.031 199.671 216.447 199.262 214.857 198.86C211.758 198.075 208.635 197.353 205.519 196.605C205.226 196.535 204.361 196.293 204.645 196.382C205.531 196.66 206.411 196.94 207.292 197.231C210.25 198.208 213.199 199.196 216.226 200.051C216.868 200.232 217.415 200.371 218.046 200.538C218.096 200.551 218.249 200.587 218.197 200.579C217.823 200.52 217.471 200.403 217.111 200.311C214.538 199.652 211.978 198.969 209.385 198.354C208.032 198.033 207.588 197.94 206.32 197.665C205.364 197.458 204.953 197.359 206.277 197.806C209.133 198.771 212.016 199.692 214.918 200.58C215.266 200.686 215.616 200.79 215.964 200.896C216.094 200.935 216.267 200.931 216.354 201.015C216.436 201.093 216.108 200.948 215.984 200.915C214.79 200.599 214.687 200.575 213.27 200.214C210.627 199.54 207.982 198.872 205.355 198.166C205.026 198.077 204.672 197.985 204.345 197.879C203.93 197.743 205.191 198.122 205.61 198.251C208.536 199.148 211.451 200.067 214.401 200.922C214.627 200.987 215.303 201.186 215.083 201.11C214.447 200.891 213.72 200.739 213.066 200.566C211.374 200.118 209.688 199.658 208.007 199.189C207.798 199.13 207.603 198.995 207.377 199.016C207.32 199.022 207.485 199.046 207.538 199.061C208.064 199.213 208.16 199.243 208.769 199.43C209.787 199.742 210.796 200.077 211.837 200.346C213.179 200.692 209.232 199.504 207.905 199.129C207.124 198.908 206.078 198.528 205.199 198.48C204.963 198.468 205.636 198.608 205.854 198.673C207.174 199.069 208.48 199.488 209.785 199.909C210.3 200.075 211.153 200.353 211.717 200.538C211.86 200.585 212.298 200.681 212.14 200.686C211.921 200.694 211.725 200.592 211.522 200.536C210.361 200.218 209.218 199.867 208.064 199.536C206.974 199.225 205.876 198.937 204.771 198.656C204.598 198.612 204.183 198.52 204.635 198.497C204.994 198.478 205.354 198.498 205.708 198.525C205.79 198.531 205.873 198.556 205.753 198.49C205.246 198.216 204.688 197.985 204.155 197.743C203.009 197.224 201.85 196.721 200.698 196.209C200.479 196.112 199.939 195.872 199.68 195.749C199.634 195.727 199.201 195.543 199.607 195.647C200.969 195.993 202.268 196.463 203.623 196.823C203.737 196.853 204.074 196.942 203.977 196.887C203.597 196.672 203.123 196.517 202.727 196.318C202.369 196.138 201.822 195.847 201.468 195.655C201.248 195.536 200.909 195.466 200.842 195.262C200.78 195.074 202.861 195.42 202.969 195.445C205.294 195.988 202.041 195.245 203.972 195.698C204.027 195.711 204.194 195.719 204.146 195.695C202.657 194.942 200.968 194.435 199.485 193.663C199.232 193.531 198.787 193.291 198.549 193.087C198.361 192.926 198.541 192.969 198.752 193.008C200.714 193.37 202.599 194.007 204.507 194.495C204.913 194.599 205.875 194.955 205.101 194.359C203.376 193.031 201.376 191.94 199.596 190.66C199.559 190.634 197.79 189.351 198.128 189.162C198.222 189.11 198.357 189.13 198.468 189.142C198.755 189.171 199.034 189.232 199.314 189.284C200.772 189.557 202.214 189.884 203.629 190.258C205.003 190.621 204.621 190.546 205.812 190.9C206.024 190.964 206.564 191.178 206.483 191.013C206.427 190.897 206.285 190.821 206.169 190.739C205.919 190.56 205.655 190.393 205.387 190.23C204.258 189.54 203.074 188.903 201.917 188.242C201.859 188.209 201.158 187.812 200.977 187.688C200.793 187.561 200.893 187.585 201.128 187.625C202.903 187.924 204.636 188.457 206.282 189.02C206.465 189.083 206.915 189.355 206.829 189.215C206.732 189.056 205.753 188.69 205.664 188.65C204.538 188.147 203.322 187.769 202.202 187.262C201.478 186.935 205.217 188.399 204.418 188.19C203.594 187.974 202.805 187.651 202.041 187.34C201.659 187.185 201.403 187.071 201.042 186.911C200.992 186.888 200.684 186.78 200.623 186.711C200.457 186.523 201.214 186.813 201.513 186.784C201.835 186.754 201.187 186.303 201.841 186.437C202.195 186.51 202.665 186.574 202.934 186.779C203.04 186.86 203.206 187.035 203.358 187.066C203.636 187.124 202.803 186.933 202.568 186.809C202.403 186.723 202.257 186.628 202.1 186.538C202.016 186.49 201.969 186.366 201.888 186.298C201.782 186.209 201.631 186.162 201.563 186.043C201.419 185.79 201.277 185.549 201.04 185.343C200.826 185.157 200.628 185.154 200.375 185.053C200.283 185.016 200.083 184.975 200.022 184.915C199.554 184.45 200.826 185.926 201.341 186.359C202.026 186.937 202.828 187.438 203.659 187.886C205.69 188.981 207.859 189.937 209.985 190.921C211.821 191.772 213.79 192.454 215.693 193.217C215.93 193.311 216.094 193.379 216.269 193.524C216.881 194.032 217.7 194.366 218.444 194.744C219.595 195.328 220.721 195.937 221.876 196.517C222.286 196.723 222.768 196.919 223.093 197.209C223.332 197.424 222.445 196.935 222.163 196.754C221.965 196.627 221.721 196.48 221.58 196.313C221.435 196.14 221.078 196.025 220.867 195.897C220.622 195.748 220.428 195.623 220.223 195.436C219.977 195.213 219.599 195.098 219.308 194.917C218.972 194.708 218.725 194.434 218.408 194.213C218.276 194.12 218.132 194.05 218.002 193.954C217.852 193.844 217.772 193.629 217.687 193.482C217.618 193.365 217.651 193.194 217.502 193.123C217.378 193.065 217.251 192.972 217.099 192.957C216.856 192.934 216.672 192.816 216.574 192.65C216.422 192.394 215.67 192.017 215.331 192.034C215.01 192.05 214.847 191.92 214.546 191.867C214.233 191.812 213.939 191.761 213.633 191.684C213.25 191.589 212.911 191.289 212.5 191.267C212.018 191.242 211.559 191.07 211.095 190.974C210.757 190.903 210.46 190.875 210.179 190.722C209.726 190.475 209.287 190.227 208.788 190.027C208.387 189.867 207.945 189.783 207.553 189.617C207.276 189.5 206.967 189.458 206.696 189.334C206.376 189.187 205.159 188.83 204.9 189.217C204.553 189.736 204.63 190.456 204.679 190.999C204.739 191.664 204.922 192.277 205.287 192.867C205.923 193.896 206.88 194.835 207.847 195.682C209.022 196.712 210.382 197.636 211.708 198.544C214.201 200.251 216.811 201.855 219.478 203.398C220.053 203.731 220.692 204.035 221.241 204.396C221.435 204.524 221.543 204.78 221.598 204.966C221.758 205.507 221.202 206.021 220.507 206.125C219.878 206.219 219.215 206.043 218.817 205.677C218.584 205.463 218.465 205.251 218.138 205.105C217.842 204.973 217.476 204.932 217.199 204.779C216.965 204.649 216.907 204.422 216.661 204.303C216.507 204.228 216.43 204.095 216.255 204.016C216.063 203.929 215.807 203.884 215.64 203.773C215.252 203.514 214.793 203.119 214.293 203.002C213.896 202.909 213.457 202.638 213.148 202.435C212.843 202.235 212.429 202.122 212.061 202.004C211.684 201.883 211.328 201.706 210.95 201.575C210.567 201.442 210.247 201.253 209.915 201.056C209.481 200.798 208.891 200.794 208.479 200.484C208.025 200.142 207.454 199.94 206.92 199.671C206.747 199.584 206.617 199.45 206.443 199.361C206.129 199.201 205.806 199.077 205.45 198.977C204.83 198.802 204.226 198.338 203.781 197.983" stroke="#FFDCA0" stroke-width="4" stroke-linecap="round"/>
<path d="M215.988 205.184C215.991 205.215 216.03 205.748 215.82 205.693C215.644 205.647 215.44 205.426 215.275 205.338C215.071 205.229 214.787 205.166 214.543 205.069C214.406 205.014 214.316 204.91 214.183 204.854C213.99 204.773 213.799 204.698 213.629 204.591C213.337 204.406 212.962 204.26 212.739 204.011C212.683 203.95 212.473 203.873 212.385 203.836C212.315 203.806 211.946 203.692 212.068 203.72C212.434 203.804 212.543 204.081 212.834 204.225C212.953 204.284 212.606 204.093 212.472 204.055C212.304 204.008 212.119 204.03 211.954 203.975C211.821 203.93 211.681 203.81 211.536 203.75C211.445 203.712 211.338 203.646 211.27 203.603C211.179 203.546 211.139 203.435 211.026 203.378C210.911 203.32 210.55 203.117 210.424 203.121C210.048 203.135 209.656 202.929 209.374 202.761C209.24 202.681 208.955 202.658 208.789 202.606C208.579 202.54 208.387 202.483 208.192 202.395C208.038 202.327 207.958 202.174 207.826 202.091C207.713 202.019 207.636 201.923 207.503 201.852C207.41 201.803 207.045 201.706 206.924 201.701C206.72 201.692 206.552 201.612 206.379 201.541C206.023 201.395 205.724 201.176 205.368 201.019C205.167 200.931 205.025 200.811 204.802 200.748C204.641 200.703 204.388 200.616 204.253 200.54C204.065 200.435 203.803 200.368 203.594 200.28C203.306 200.16 203.033 199.953 202.867 199.743" stroke="#FFDCA0" stroke-linecap="round"/>
<path d="M217.671 190.941C217.001 190.71 216.295 190.529 215.611 190.324C215.371 190.252 215.145 190.233 214.895 190.183C214.608 190.126 214.384 190.183 214.102 190.059C213.819 189.934 213.53 189.793 213.231 189.693C212.994 189.614 212.771 189.535 212.531 189.465C212.458 189.444 212.236 189.399 212.314 189.402C212.754 189.42 213.219 189.58 213.622 189.695C214.221 189.867 214.712 190.167 215.374 190.23C215.808 190.272 214.782 190.213 214.68 190.201C214.051 190.125 213.292 190.07 212.714 189.875C212.455 189.788 212.213 189.686 211.946 189.606C211.708 189.536 211.444 189.519 211.248 189.378C211.163 189.316 211.744 189.303 211.788 189.303C212.243 189.309 212.675 189.476 213.09 189.593C213.477 189.702 213.36 189.653 212.999 189.583C212.496 189.485 211.978 189.403 211.466 189.334C211.253 189.305 211.854 189.3 211.959 189.266C212.158 189.202 211.596 189.101 211.392 189.062C211.16 189.017 210.994 188.897 210.786 188.818C210.119 188.565 209.365 188.445 208.697 188.148C208.309 187.975 207.918 187.764 207.475 187.679C207.016 187.591 206.319 187.45 205.997 187.183C205.823 187.039 205.664 186.965 205.644 186.757C205.633 186.647 206.603 187.054 206.744 187.14C206.974 187.28 207.21 187.434 207.451 187.563C207.553 187.617 207.718 187.613 207.838 187.644C208.216 187.743 208.596 187.835 208.949 187.957C209.295 188.076 209.533 188.258 209.905 188.335" stroke="#FFDCA0" stroke-linecap="round"/>
<path d="M205.089 186.151C204.498 185.767 204.065 185.21 203.452 184.865C203.326 184.794 203.239 184.637 203.15 184.538C202.99 184.358 202.651 184.225 202.397 184.14C201.644 183.887 201.027 183.578 200.652 182.982C200.336 182.478 201.39 182.854 201.595 182.972C201.962 183.182 202.377 183.326 202.704 183.577C202.868 183.702 203.081 183.849 203.245 183.953C203.469 184.094 203.617 184.346 203.897 184.425" stroke="#FFDCA0" stroke-linecap="round"/>
<path d="M200.698 182.639C200.874 182.69 201.279 182.773 201.323 182.956C201.334 183.001 201.442 183.028 201.419 183.072C201.386 183.134 201.176 182.99 201.163 182.98C200.936 182.805 200.759 182.638 200.522 182.488" stroke="#FFDCA0" stroke-linecap="round"/>
<path d="M203.513 182.664C203.083 182.6 202.599 182.634 202.287 182.413C202.237 182.378 202.205 182.335 202.129 182.335C202.047 182.336 202.065 182.236 202.008 182.198C201.849 182.091 201.726 181.978 201.521 181.912C201.295 181.84 201.04 181.757 200.848 181.663C200.667 181.573 201.08 181.753 201.181 181.777C201.329 181.814 201.461 181.883 201.554 181.972" stroke="#E1BE8C" stroke-opacity="0.85" stroke-linecap="round"/>
<path d="M204.294 184.053C204.21 183.984 204.014 183.809 203.888 183.766C203.725 183.71 203.623 183.523 203.504 183.417C203.314 183.249 203.152 183.001 202.897 182.889C202.71 182.807 202.517 182.792 202.347 182.693C202.137 182.571 201.843 182.505 201.669 182.333C201.573 182.237 201.287 181.921 201.117 181.93C200.967 181.938 200.352 181.727 200.278 181.633" stroke="#E1BE8C" stroke-opacity="0.85" stroke-linecap="round"/>
<path d="M204.231 184.519C203.836 184.215 203.199 184.008 202.667 183.882C202.482 183.838 202.303 183.716 202.144 183.628C201.835 183.456 201.53 183.302 201.23 183.113C200.846 182.871 200.453 182.658 200.032 182.461C199.744 182.325 199.347 182.081 199.321 181.808" stroke="#FFDCA0" stroke-opacity="0.85" stroke-linecap="round"/>
<path d="M216.781 190.629L204.382 184.278" stroke="#FFDCA0" stroke-width="0.5"/>
<path d="M204.354 184.674C204.924 184.991 205.45 185.351 206.066 185.617C206.424 185.772 206.819 185.881 207.138 186.082C207.47 186.292 207.746 186.538 208.128 186.698C208.74 186.954 209.397 187.135 209.963 187.476C210.148 187.587 210.326 187.652 210.54 187.723C210.669 187.766 210.705 187.857 210.847 187.863C211.011 187.871 211.113 188.042 211.226 188.118C211.4 188.234 211.544 188.428 211.775 188.484C211.92 188.518 211.985 188.634 212.089 188.663" stroke="#FFDCA0" stroke-opacity="0.85" stroke-linecap="round"/>
<path d="M207.898 186.678C207.65 186.25 207.222 186.045 206.648 185.929C206.309 185.86 205.926 185.581 205.689 185.388C205.599 185.315 205.299 185.218 205.163 185.224C205.116 185.227 204.817 185.127 204.897 185.212C205.23 185.566 205.799 185.801 206.246 186.062C206.506 186.214 206.714 186.368 206.941 186.539C207.38 186.87 207.897 186.99 208.431 187.232C208.747 187.374 209.044 187.52 209.364 187.626C209.587 187.7 209.781 187.924 209.998 188.035C210.355 188.217 210.784 188.317 211.098 188.546C211.208 188.626 211.419 188.656 211.576 188.668C211.714 188.678 212.356 188.76 211.927 188.699C211.726 188.67 211.368 188.583 211.245 188.45C211.128 188.323 210.93 188.141 210.761 188.06C210.606 187.986 210.424 187.861 210.222 187.804C209.781 187.68 209.617 187.369 209.194 187.233C208.589 187.039 208.072 186.768 207.457 186.595" stroke="#FFDCA0" stroke-linecap="round"/>
<path d="M204.32 184.887C204.561 185.088 204.833 185.242 205.114 185.406C205.161 185.433 205.312 185.467 205.297 185.523C205.266 185.638 204.351 185.524 204.265 185.517C203.694 185.469 203.164 185.442 202.723 185.164C201.779 184.568 200.519 184.356 199.331 184.191" stroke="#FFDCA0" stroke-linecap="round"/>
<path d="M204.383 184.278L199.51 181.571" stroke="#FFDCA0" stroke-width="0.5"/>
<path d="M202.829 200.281L220.062 208.947" stroke="#FFDCA0" stroke-width="0.5"/>
<path d="M216.319 205.822C216.015 205.644 215.08 205.185 215.29 205.432C215.401 205.562 215.77 205.677 215.927 205.752C216.14 205.854 216.359 205.953 216.564 206.063C216.787 206.183 215.927 206.027 215.893 206.02C215.821 206.006 215.037 205.807 215.116 205.936C215.256 206.167 214.889 205.964 214.802 205.924C214.662 205.861 214.416 205.723 214.403 205.586" stroke="#FFDCA0" stroke-linecap="round"/>
<path d="M154.365 175.958L147.931 173.003" stroke="#FFDCA0" stroke-width="0.5"/>
<path d="M164.043 169.884L158.101 161.332" stroke="#FFDCA0" stroke-width="0.5"/>
<path d="M153.982 170.804C153.115 170.448 152.277 170.057 151.44 169.66C150.693 169.306 149.925 168.956 149.216 168.557C149.039 168.457 149.331 168.603 149.344 168.61C150.027 168.979 150.676 169.387 151.362 169.752C151.645 169.902 151.952 170.005 152.26 170.119C152.496 170.206 152.621 170.255 152.843 170.357C152.943 170.403 153.249 170.501 153.13 170.512C153.079 170.517 153.034 170.488 152.988 170.472C152.56 170.326 152.142 170.166 151.717 170.015C151.202 169.832 149.675 169.281 150.128 169.54C151.422 170.281 152.896 170.878 154.273 171.521C155.27 171.986 156.32 172.42 157.256 172.957C157.283 172.972 157.363 173.017 157.33 173.011C157.052 172.957 156.829 172.802 156.576 172.701C155.544 172.293 154.486 171.926 153.439 171.541C152.756 171.29 152.085 171.015 151.389 170.783C151.269 170.743 150.916 170.627 151.009 170.697C151.293 170.912 151.659 171.049 151.994 171.213C152.882 171.647 153.787 172.055 154.71 172.443C155.013 172.571 155.954 172.893 155.614 172.834C155.142 172.754 154.614 172.507 154.181 172.369C153.541 172.165 152.89 171.981 152.253 171.773C152.186 171.751 152.117 171.731 152.054 171.703C151.903 171.633 152.388 171.795 152.551 171.848C153.391 172.118 154.219 172.405 155.015 172.742C155.202 172.821 155.387 172.904 155.568 172.993C155.679 173.048 155.991 173.194 155.856 173.203C155.534 173.224 155.238 173.08 154.939 172.996C154.46 172.863 153.169 172.472 152.744 172.343C151.872 172.076 150.973 171.824 150.153 171.473C149.41 171.154 150.187 171.426 150.259 171.455C151.217 171.842 152.161 172.25 153.094 172.67C153.557 172.878 153.998 173.079 154.441 173.306C154.539 173.356 154.822 173.436 154.713 173.478C154.603 173.519 153.965 173.229 153.94 173.219C153.429 173.021 152.925 172.811 152.415 172.611C152.189 172.523 151.957 172.44 151.736 172.344C151.474 172.23 152.278 172.543 152.544 172.652C153.846 173.186 155.141 173.718 156.474 174.208C156.545 174.235 156.617 174.26 156.686 174.289C156.843 174.353 156.599 174.287 156.59 174.285C156.011 174.145 155.442 173.976 154.881 173.8C153.444 173.348 152.068 172.786 150.62 172.355C150.599 172.348 150.576 172.337 150.552 172.341C150.463 172.356 150.703 172.411 150.78 172.443C151.576 172.772 152.366 173.108 153.161 173.437C153.654 173.641 154.152 173.84 154.641 174.051C154.713 174.082 154.93 174.168 154.847 174.16C154.627 174.139 154.37 174.049 154.168 173.998C153.326 173.784 152.513 173.527 151.723 173.222C151.646 173.193 150.944 172.966 150.869 172.85C150.858 172.833 150.916 172.862 150.938 172.87C151.115 172.937 151.57 173.127 151.692 173.178C152.459 173.497 153.22 173.877 154.031 174.131C154.411 174.251 153.253 173.923 152.865 173.816C152.341 173.672 151.748 173.549 151.278 173.317C151.164 173.26 151.524 173.406 151.645 173.452C152.287 173.695 152.93 173.936 153.566 174.187C154.01 174.362 154.464 174.536 154.88 174.749C155.074 174.848 155.106 174.884 154.818 174.784C153.876 174.459 152.918 174.172 151.962 173.873C151.926 173.862 151.89 173.849 151.855 173.837C151.781 173.812 151.836 173.829 151.866 173.837C152.281 173.948 152.682 174.07 153.068 174.23C153.4 174.368 153.716 174.527 154.044 174.671C154.182 174.732 154.365 174.785 154.49 174.864C154.564 174.911 154.301 174.829 154.213 174.8C153.741 174.643 153.3 174.439 152.842 174.26C152.796 174.242 152.047 173.962 152.464 174.154C152.998 174.4 153.499 174.686 154.041 174.923C154.084 174.942 154.576 175.122 154.235 175.029C153.894 174.936 153.585 174.801 153.307 174.625C153.293 174.617 153.258 174.585 153.273 174.593C153.329 174.623 153.384 174.665 153.438 174.696C153.488 174.725 154.043 175.01 153.998 175.04C153.889 175.112 154.388 175.3 154.466 175.359C154.576 175.442 154.335 175.312 154.289 175.298C154.142 175.254 153.995 175.212 153.846 175.173C153.592 175.106 153.33 175.029 153.097 174.924C152.698 174.745 152.33 174.535 151.92 174.365C151.815 174.321 151.694 174.303 151.6 174.244C151.484 174.17 151.377 174.088 151.258 174.017C151.063 173.9 150.807 173.881 150.593 173.796C150.276 173.669 150.002 173.497 149.701 173.348C149.535 173.266 149.334 173.222 149.158 173.152C149.039 173.105 148.964 173.009 148.884 172.929C148.865 172.911 148.818 172.866 148.849 172.864C148.936 172.86 149.015 172.896 149.097 172.915C149.303 172.963 149.928 173.108 150.068 173.141C150.973 173.357 151.859 173.613 152.763 173.829C152.967 173.878 152.858 173.784 152.753 173.703C152.398 173.428 151.835 173.33 151.38 173.185C151.037 173.076 150.027 172.712 150.36 172.839C150.813 173.012 151.293 173.152 151.762 173.302C151.8 173.314 151.839 173.327 151.878 173.338C151.984 173.37 151.894 173.338 151.844 173.321C151.202 173.099 150.562 172.879 149.939 172.629C149.425 172.422 148.921 172.202 148.414 171.987C148.298 171.937 147.932 171.823 148.066 171.834C148.315 171.857 148.596 171.938 148.822 171.998C149.447 172.166 150.051 172.373 150.643 172.596C150.666 172.604 150.957 172.745 151.017 172.735C151.026 172.734 151.017 172.72 151.011 172.715C150.909 172.63 150.685 172.505 150.591 172.453C149.703 171.952 148.795 171.48 148.003 170.887C147.943 170.843 147.672 170.686 147.978 170.79C148.817 171.075 149.634 171.401 150.459 171.706C151.483 172.084 152.507 172.464 153.542 172.826C154.151 173.039 154.795 173.299 155.466 173.397C155.789 173.444 155.307 173.176 155.293 173.167C154.418 172.597 153.469 172.099 152.526 171.598C151.362 170.981 150.181 170.381 149.068 169.71C148.872 169.591 148.473 169.34 148.276 169.165C148.237 169.13 148.154 169.021 148.214 169.032C148.327 169.053 148.43 169.097 148.534 169.135C149.112 169.345 150.509 169.897 150.9 170.051C152.675 170.751 154.441 171.463 156.214 172.166C157.093 172.515 157.972 172.873 158.872 173.191C159.059 173.258 159.166 173.295 158.928 173.176C158.514 172.968 157.525 172.516 157.28 172.403C153.103 170.477 148.952 168.526 144.829 166.536C144.421 166.339 143.158 165.81 143.612 165.938C143.745 165.976 143.87 166.029 143.997 166.077C144.97 166.44 145.873 166.791 146.845 167.18C148.977 168.034 151.082 168.923 153.152 169.86C153.821 170.163 154.636 170.481 155.256 170.861C155.281 170.877 155.347 170.909 155.317 170.921C155.264 170.941 155.202 170.914 155.147 170.904C155.016 170.881 154.887 170.853 154.759 170.822C153.889 170.617 153.043 170.361 152.163 170.18C151.836 170.113 151.466 169.993 151.631 170.355C151.883 170.91 152.512 171.339 153.062 171.715C153.106 171.744 153.24 171.819 153.078 171.822C152.75 171.826 152.41 171.74 152.102 171.679C151.432 171.546 150.74 171.358 150.048 171.292C149.947 171.282 150.099 171.319 150.124 171.332C150.3 171.418 149.975 171.168 149.957 171.149C149.844 171.03 149.673 170.9 149.598 170.761C149.54 170.653 149.9 170.796 150.042 170.835C150.797 171.045 151.539 171.294 152.318 171.451C152.344 171.456 152.292 171.413 152.271 171.4C151.8 171.11 151.314 170.834 150.847 170.54C150.051 170.039 149.295 169.51 148.556 168.961C148.464 168.892 147.492 168.164 147.365 168.051C147.279 167.975 147.164 167.9 147.147 167.798C147.139 167.75 147.248 167.713 147.31 167.718C147.558 167.741 147.793 167.812 148.025 167.877C149.03 168.157 150.078 168.549 151.024 168.899C153.013 169.637 154.978 170.411 156.945 171.181C157.586 171.432 158.222 171.697 158.876 171.929C158.939 171.951 159.116 172.01 159.077 171.967C158.954 171.828 158.431 171.465 158.397 171.441C157.371 170.734 156.262 170.106 155.163 169.467C154.109 168.855 153.06 168.236 152.004 167.624C151.791 167.501 151.196 167.242 151.004 167.035C150.99 167.02 151.049 167.046 151.069 167.055C151.357 167.183 151.63 167.328 151.912 167.464C154.687 168.803 157.512 170.096 160.386 171.31C160.559 171.383 160.733 171.455 160.909 171.524C160.943 171.537 161.04 171.578 161.016 171.555C160.972 171.514 160.904 171.493 160.846 171.465C159.167 170.665 157.412 169.96 155.725 169.168C154.03 168.372 152.375 167.527 150.695 166.713C150.431 166.585 150.164 166.46 149.898 166.333C149.776 166.275 149.653 166.219 149.532 166.159C149.478 166.133 149.309 166.077 149.375 166.075C149.465 166.073 149.539 166.127 149.618 166.157C150.328 166.421 151.342 166.826 151.965 167.08C153.892 167.863 155.784 168.686 157.652 169.545C157.794 169.61 157.933 169.678 158.077 169.739C158.1 169.748 158.17 169.773 158.154 169.757C158.098 169.703 158.024 169.663 157.955 169.62C156.776 168.889 155.542 168.209 154.338 167.503C152.91 166.667 151.479 165.827 150.131 164.915C149.977 164.811 149.825 164.705 149.686 164.589C149.641 164.552 149.515 164.469 149.581 164.46C149.711 164.442 149.83 164.514 149.949 164.553C150.241 164.647 150.528 164.749 150.812 164.856C154.357 166.196 157.712 167.805 161.251 169.152C161.424 169.218 161.6 169.278 161.778 169.335C161.877 169.366 161.973 169.412 162.082 169.417C162.117 169.419 162.056 169.363 162.029 169.346C161.889 169.257 161.737 169.181 161.588 169.102C158.471 167.447 163.223 170.002 158.959 167.719C158.342 167.388 157.726 167.055 157.113 166.72C157.012 166.665 155.101 165.633 154.704 165.348C154.154 164.953 156.117 165.768 156.792 166.027C157.914 166.458 159.034 166.895 160.136 167.353C160.175 167.369 160.489 167.496 160.601 167.561C160.666 167.599 160.449 167.511 160.377 167.481C158.401 166.683 156.414 165.91 154.403 165.163C154.276 165.116 154.154 165.062 154.023 165.022C153.883 164.978 153.859 165.02 153.967 165.122C154.283 165.42 154.952 165.864 155.265 166.066C156.082 166.593 157.063 167.169 157.914 167.661C158.56 168.034 159.302 168.38 159.914 168.791C160.183 168.972 159.204 168.686 158.866 168.593C157.369 168.182 155.914 167.709 154.492 167.171C153.906 166.95 153.286 166.696 152.711 166.447C152.312 166.274 152.606 166.385 152.874 166.488C153.936 166.894 154.979 167.329 156.011 167.777C156.307 167.905 156.601 168.037 156.894 168.169C157.127 168.273 157.399 168.342 157.585 168.493C157.614 168.516 157.509 168.465 157.471 168.45C157.129 168.312 156.787 168.172 156.446 168.032C155.478 167.633 154.528 167.215 153.595 166.772C153.037 166.506 152.352 166.225 151.853 165.881C151.448 165.601 152.749 166.357 153.198 166.595C154.236 167.142 155.295 167.664 156.36 168.179C156.501 168.247 156.9 168.434 157.085 168.543C157.117 168.562 157.201 168.622 157.161 168.616C157.084 168.605 157.011 168.58 156.939 168.557C156.339 168.373 155.589 168.113 155.041 167.918C153.66 167.426 152.311 166.893 150.966 166.35C150.537 166.178 150.053 165.941 149.584 165.815C149.443 165.777 149.836 165.936 149.962 165.997C150.513 166.263 151.104 166.559 151.644 166.826C152.835 167.415 154.029 168.002 155.232 168.577C155.454 168.684 155.678 168.789 155.901 168.895C156.064 168.972 156.26 169.022 156.384 169.135C156.557 169.292 155.854 169.048 155.603 168.975C154.313 168.596 153.05 168.158 151.804 167.706C151.371 167.548 150.946 167.366 150.502 167.223C150.184 167.121 151.079 167.512 151.373 167.649C152.564 168.205 153.75 168.765 154.932 169.332C155.395 169.555 155.635 169.671 156.058 169.878C156.133 169.914 156.355 170.023 156.267 170.006C155.613 169.88 154.946 169.62 154.351 169.397C153.522 169.086 152.739 168.719 151.937 168.372C151.732 168.283 151.344 168.077 151.077 168.042C150.963 168.027 151.263 168.143 151.359 168.19C151.443 168.23 152.37 168.677 152.393 168.687C152.932 168.944 154.615 169.607 154.005 169.465C152.687 169.158 151.612 168.433 150.327 168.063C150.294 168.053 150.209 168.019 150.225 168.043C150.253 168.083 150.318 168.097 150.367 168.121C150.501 168.187 150.635 168.251 150.773 168.311C152.026 168.852 153.335 169.313 154.647 169.767C155.676 170.123 156.71 170.473 157.746 170.817C157.94 170.881 158.107 170.928 158.312 170.953" stroke="#FFDCA0" stroke-linecap="round"/>
<path d="M155.771 161.668C156.558 162.175 157.104 162.922 157.542 163.637C157.707 163.906 157.861 164.185 158.003 164.462C158.12 164.691 158.183 164.933 158.329 165.153C158.465 165.359 158.614 165.558 158.742 165.767C158.94 166.091 159.045 166.336 159.455 166.527C160.089 166.821 160.762 167.068 161.405 167.349C161.536 167.407 161.825 167.571 161.865 167.691C161.915 167.838 162.008 167.92 162.127 168.04C162.191 168.104 162.253 168.114 162.261 168.202C162.269 168.288 162.262 168.308 162.345 168.354C162.442 168.408 162.564 168.483 162.574 168.586C162.577 168.621 162.562 168.699 162.619 168.701C162.687 168.705 162.651 168.82 162.676 168.856C162.744 168.951 162.805 169.034 162.868 169.132" stroke="#FFDCA0" stroke-linecap="round"/>
<path d="M161.506 168.247C161.374 168.216 160.103 167.919 160.083 167.967C160.055 168.038 161.368 168.43 161.493 168.474C161.89 168.612 161.483 168.448 161.356 168.404C161.174 168.34 160.993 168.275 160.819 168.2C160.803 168.193 160.444 168.001 160.481 168.001C160.784 167.999 161.162 168.137 161.442 168.215C161.45 168.217 161.543 168.253 161.453 168.23C161.289 168.188 161.137 168.119 160.996 168.045C160.91 168 160.83 167.948 160.738 167.911C160.726 167.906 160.688 167.898 160.702 167.897C160.751 167.892 160.866 167.907 160.905 167.892C160.932 167.882 160.076 167.375 160.057 167.365C159.157 166.901 158.286 166.418 157.455 165.884C157.322 165.799 157.102 165.683 157.008 165.562C156.935 165.467 157.299 165.586 157.434 165.622C158.801 165.989 160.07 166.503 161.306 167.068C163.007 167.846 157.968 165.427 156.399 164.502C156.336 164.465 155.953 164.296 155.913 164.213C155.882 164.147 156.091 164.246 156.176 164.271C156.487 164.363 156.854 164.485 157.146 164.594C157.755 164.822 158.333 165.089 158.917 165.349C159.274 165.508 159.76 165.645 160.081 165.848C160.29 165.979 159.599 165.657 159.37 165.548C158.505 165.134 157.657 164.696 156.825 164.245C156.117 163.861 155.422 163.462 154.758 163.033C154.68 162.983 154.456 162.829 154.55 162.86C154.731 162.921 155.407 163.247 155.447 163.267C156.47 163.773 157.521 164.301 158.393 164.959C158.463 165.011 158.42 165.003 158.343 164.978C157.992 164.865 157.662 164.713 157.328 164.574C157.149 164.499 156.769 164.411 156.644 164.271C156.62 164.245 156.716 164.301 156.752 164.317C157.144 164.494 157.524 164.683 157.895 164.884C158.085 164.988 158.274 165.094 158.457 165.205C158.457 165.205 158.681 165.319 158.513 165.288C157.51 165.105 156.64 164.643 155.735 164.295C155.648 164.262 155.379 164.17 155.467 164.202C155.74 164.303 155.995 164.453 156.242 164.582C156.76 164.852 157.281 165.119 157.808 165.379C157.974 165.461 158.469 165.668 158.268 165.664C157.954 165.658 157.528 165.49 157.271 165.402C156.605 165.173 155.978 164.894 155.356 164.604C155.144 164.505 154.924 164.382 154.696 164.299C154.423 164.2 155.221 164.529 155.481 164.647C155.978 164.873 156.47 165.106 156.974 165.322C157.088 165.371 157.509 165.487 157.611 165.585C157.728 165.697 157.237 165.527 157.061 165.474C156.307 165.246 155.599 164.941 154.912 164.617C154.813 164.57 154.716 164.521 154.619 164.473C154.553 164.441 154.499 164.372 154.42 164.379C154.357 164.385 154.516 164.44 154.566 164.467C154.73 164.556 154.952 164.671 155.111 164.754C155.488 164.948 156.659 165.458 156.222 165.358C155.868 165.277 155.481 165.084 155.169 164.957C154.61 164.729 154.067 164.48 153.512 164.246C153.314 164.163 152.765 163.895 152.891 164.038C153.006 164.168 153.199 164.244 153.359 164.341C153.68 164.534 153.88 164.65 154.212 164.832C154.465 164.971 154.723 165.102 154.986 165.229C155.093 165.281 155.047 165.276 154.915 165.235C154.51 165.108 154.123 164.949 153.736 164.794C153.463 164.684 153.175 164.525 152.882 164.442C152.772 164.411 153.047 164.569 153.137 164.626C153.477 164.84 153.826 165.047 154.172 165.257C154.249 165.303 154.327 165.349 154.402 165.398C154.525 165.479 154.531 165.489 154.35 165.441C153.65 165.256 152.983 165.002 152.309 164.771C151.991 164.662 152.148 164.747 152.302 164.833C152.608 165.004 152.93 165.161 153.244 165.324C153.268 165.336 153.884 165.648 153.536 165.516C153.309 165.429 153.072 165.355 152.834 165.286C152.804 165.277 152.414 165.155 152.706 165.292C152.937 165.401 153.174 165.507 153.414 165.603C153.804 165.759 153.305 165.365 153.299 165.36C152.864 164.999 152.386 164.671 151.949 164.312C151.737 164.137 151.506 163.93 151.989 164.046C152.54 164.177 153.056 164.396 153.584 164.568C154.224 164.777 154.875 164.965 155.524 165.158C155.95 165.284 154.806 164.727 154.439 164.52C154.218 164.395 153.993 164.271 153.781 164.137C153.718 164.098 153.938 164.174 154.013 164.198C154.125 164.235 154.236 164.274 154.35 164.306C154.444 164.332 154.189 164.215 154.107 164.172C153.842 164.033 153.582 163.888 153.311 163.755C153.227 163.713 153.136 163.679 153.054 163.634C152.99 163.599 153.087 163.616 153.118 163.619C154.024 163.715 154.877 164.018 155.709 164.279C155.818 164.313 155.926 164.348 156.037 164.379C156.119 164.403 156.269 164.493 156.294 164.426C156.341 164.301 155.349 163.811 155.321 163.795C154.783 163.492 154.225 163.21 153.699 162.894C153.582 162.823 153.231 162.648 153.383 162.651C153.568 162.656 153.997 162.868 154.119 162.913C154.696 163.126 155.268 163.35 155.866 163.53C155.979 163.564 156.325 163.655 156.207 163.631C156.025 163.594 155.847 163.523 155.686 163.454C155.242 163.262 154.825 163.036 154.407 162.815C154.19 162.7 153.969 162.588 153.757 162.467C153.692 162.431 153.51 162.345 153.59 162.335C153.846 162.305 154.458 162.623 154.614 162.687C155.168 162.914 155.712 163.156 156.268 163.382C156.364 163.421 156.461 163.459 156.559 163.496C156.629 163.524 156.801 163.522 156.77 163.582C156.735 163.649 156.599 163.532 156.52 163.497C156.227 163.368 156.026 163.255 155.742 163.101C155.337 162.881 154.941 162.657 154.512 162.464C154.481 162.45 154.031 162.302 154.013 162.243C154.01 162.231 154.046 162.237 154.061 162.24C154.202 162.264 154.51 162.351 154.607 162.381C155.392 162.62 156.136 162.922 156.878 163.226C157.065 163.302 157.604 163.557 157.441 163.454C157.231 163.322 156.922 163.2 156.704 163.088C156.149 162.806 155.596 162.524 155.034 162.249C155.003 162.234 154.602 162.047 154.506 161.982C154.493 161.973 154.463 161.947 154.482 161.945C154.53 161.938 154.577 161.956 154.624 161.965C155.321 162.105 156.01 162.32 156.637 162.585C156.708 162.615 156.919 162.703 156.839 162.69C156.569 162.645 156.27 162.45 156.035 162.351C155.846 162.272 155.648 162.199 155.464 162.112C155.36 162.063 155.71 162.138 155.829 162.162C156.068 162.21 156.316 162.317 156.56 162.34" stroke="#FFDCA0" stroke-linecap="round"/>
<path d="M157.506 161.396C157.835 161.695 157.731 162.071 157.953 162.382C158.024 162.484 158.142 162.536 158.229 162.623C158.35 162.745 158.428 162.819 158.5 162.957C158.619 163.186 158.672 163.442 158.826 163.659C158.898 163.761 158.98 163.893 159.097 163.967C159.198 164.03 159.304 164.118 159.327 164.212C159.332 164.232 159.432 164.313 159.46 164.334C159.514 164.375 159.571 164.452 159.612 164.505C159.69 164.603 159.767 164.747 159.884 164.826C159.988 164.895 160.03 165.034 160.122 165.11C160.232 165.2 160.278 165.29 160.386 165.378C160.614 165.566 160.753 165.769 160.778 166.035C160.784 166.104 160.899 166.236 160.949 166.299C161.023 166.392 161.029 166.497 161.04 166.61" stroke="#FFDCA0" stroke-linecap="round"/>
<path d="M159.381 165.14C158.898 164.651 158.368 164.095 158.072 163.514C157.976 163.327 157.87 163.147 157.766 162.964C157.637 162.737 157.431 162.565 157.234 162.374C157.101 162.245 156.977 162.11 156.851 161.977C156.756 161.876 156.621 161.833 156.552 161.715C156.483 161.598 156.404 161.498 156.364 161.371" stroke="#FFDCA0" stroke-linecap="round"/>
<path d="M157.733 161.615C157.77 161.555 157.889 161.441 157.884 161.387" stroke="#FFDCA0" stroke-linecap="round"/>
<path d="M165.134 170.573L158.101 161.332" stroke="#FFDCA0" stroke-width="0.5"/>
<path d="M165.717 171.31L164.551 169.835" stroke="#FFDCA0" stroke-width="0.5"/>
<path d="M158.295 161.438C158.296 161.404 158.316 161.332 158.273 161.305C158.264 161.299 158.252 161.296 158.24 161.298C158.216 161.3 158.218 161.311 158.22 161.326" stroke="#FFDCA0" stroke-width="0.5" stroke-linecap="round"/>
<path d="M158.082 161.286C158.092 161.286 158.156 161.291 158.166 161.28C158.173 161.271 158.188 161.272 158.2 161.271C158.221 161.269 158.236 161.256 158.257 161.254" stroke="#FFDCA0" stroke-width="0.5" stroke-linecap="round"/>
<path d="M158.942 163.546C158.986 163.556 159.022 163.573 159.019 163.519C159.014 163.448 158.976 163.381 158.941 163.317C158.928 163.292 158.885 163.241 158.886 163.21C158.886 163.197 158.914 163.224 158.925 163.233C159.004 163.299 159.071 163.372 159.129 163.45C159.152 163.481 159.181 163.518 159.193 163.554C159.198 163.567 159.161 163.545 159.151 163.535C159.121 163.505 159.096 163.471 159.074 163.437C159.07 163.43 159.062 163.418 159.059 163.409C159.057 163.399 159.067 163.413 159.067 163.413C159.105 163.461 159.138 163.512 159.176 163.56C159.188 163.576 159.202 163.592 159.215 163.608C159.217 163.611 159.225 163.621 159.22 163.619C159.198 163.613 159.169 163.586 159.155 163.574C159.129 163.553 159.111 163.536 159.087 163.514C159.078 163.507 159.074 163.495 159.062 163.493C159.062 163.493 159.076 163.541 159.081 163.548" stroke="#FFDCA0" stroke-width="0.5" stroke-linecap="round"/>
<rect width="58.087" height="13.115" transform="matrix(0.595853 -0.803094 0.921493 0.388396 255.339 203.276)" fill="#E1BE8C"/>
<path d="M103.629 142.2C103.087 141.317 102.453 140.549 101.587 139.972C101.494 139.91 101.732 140.178 101.843 140.191C101.954 140.205 101.907 140.43 102.025 140.497C102.297 140.653 102.108 141.241 102.306 141.44C102.525 141.659 102.959 141.928 102.959 142.274" stroke="#FFDCA0" stroke-width="3" stroke-linecap="round"/>
<path d="M104.149 143.167C103.707 142.711 103.455 142.151 103.017 141.696C102.776 141.446 102.492 141.37 102.178 141.196C101.992 141.092 101.635 140.47 102.029 140.348C102.248 140.281 102.747 140.266 102.959 140.266" stroke="#FFDCA0" stroke-width="3" stroke-linecap="round"/>
<path d="M102.29 140.638C102.477 140.638 102.944 140.723 103.124 140.605C103.247 140.525 103.499 140.321 103.257 140.563" stroke="#FFDCA0" stroke-width="3" stroke-linecap="round"/>
<path d="M135.512 158.868C135.367 158.868 135.189 158.844 135.094 158.719C135.035 158.641 135.017 158.626 134.922 158.626C134.797 158.626 134.651 158.586 134.543 158.533C134.431 158.476 134.318 158.383 134.19 158.383C134.061 158.383 133.916 158.402 133.794 158.361" stroke="#FFDCA0" stroke-width="3" stroke-linecap="round"/>
<path d="M135.006 158.692C134.816 158.65 134.596 158.615 134.416 158.547C134.364 158.527 134.31 158.51 134.257 158.492C134.205 158.475 134.19 158.421 134.142 158.4C134.094 158.379 134.096 158.276 134.037 158.273C133.978 158.27 133.919 158.273 133.86 158.273" stroke="#FFDCA0" stroke-width="3" stroke-linecap="round"/>
</g>
<defs>
<clipPath id="clip0_85_1425">
<rect width="490" height="800" fill="white"/>
</clipPath>
</defs>
</svg>
