<svg width="84" height="75" viewBox="0 0 84 75" fill="none" xmlns="http://www.w3.org/2000/svg">
<path d="M50.1695 34.5407H33.8303C30.5817 34.5407 27.9388 32.181 27.9388 29.2805C27.9388 26.3799 30.5817 24.0202 33.8303 24.0202H50.1695C53.4181 24.0202 56.061 26.3799 56.061 29.2805C56.061 32.181 53.4181 34.5407 50.1695 34.5407ZM33.8303 28.2283C33.1916 28.2283 32.652 28.71 32.652 29.2803C32.652 29.8506 33.1916 30.3324 33.8303 30.3324H50.1695C50.8082 30.3324 51.3478 29.8506 51.3478 29.2803C51.3478 28.71 50.8082 28.2283 50.1695 28.2283H33.8303Z" fill="#FFC61B"/>
<path d="M22.4259 71.844C21.8763 71.844 21.328 71.6729 20.8868 71.3333C20.0325 70.6758 19.8202 69.5701 20.3797 68.6959C26.6597 58.8845 30.6677 46.6141 32.2926 32.2255C32.414 31.1508 33.4272 30.3325 34.6374 30.3325H49.3646C50.5746 30.3325 51.5882 31.1508 51.7094 32.2255C52.3422 37.8294 53.3541 43.1889 54.7172 48.1548C55.0271 49.2835 54.2534 50.4227 52.9893 50.6994C51.7247 50.9757 50.4492 50.2853 50.1393 49.1565C48.8788 44.5642 47.9086 39.6564 47.2487 34.5409H36.7535C35.4152 44.9373 32.8365 54.2645 29.0579 62.4016L42.1718 53.1855C43.1945 52.467 44.6762 52.6247 45.4813 53.5378C46.2863 54.451 46.1098 55.7739 45.087 56.4927L23.8836 71.3933C23.4549 71.6944 22.9399 71.844 22.4259 71.844Z" fill="#FFC61B"/>
<path d="M36.8668 26.1242H47.1358C52.2951 24.2991 55.9419 19.8085 55.9419 14.5521C55.9419 7.67404 49.7055 2.10382 42.0002 2.10382C34.3015 2.10382 28.0585 7.67389 28.0585 14.5521C28.058 19.8085 31.7087 24.2988 36.8668 26.1242Z" fill="#FEE187"/>
<path d="M47.1358 28.2283H36.8668C36.5694 28.2283 36.2749 28.1782 35.9984 28.0803C29.7432 25.8665 25.7014 20.5566 25.7014 14.552C25.7014 6.52808 33.0128 0 42 0C50.9872 0 58.2986 6.52808 58.2986 14.552C58.2986 20.5576 54.2578 25.8678 48.004 28.0803C47.7276 28.1782 47.4329 28.2283 47.1358 28.2283ZM37.3378 24.0201H46.6648C50.8833 22.3677 53.5853 18.6926 53.5853 14.5522C53.5853 8.84853 48.3883 4.20835 41.9998 4.20835C35.6114 4.20835 30.4144 8.84853 30.4144 14.5522C30.4146 18.6916 33.1177 22.3668 37.3378 24.0201Z" fill="#FFC61B"/>
<path d="M60.6421 72.896H23.3577C20.936 72.896 18.9548 71.1269 18.9548 68.9648C18.9548 66.8026 20.9362 65.0336 23.3577 65.0336H60.6421C63.0638 65.0336 65.045 66.8027 65.045 68.9648C65.0452 71.1269 63.0637 72.896 60.6421 72.896Z" fill="#FEE187"/>
<path d="M60.6423 75H23.3577C19.6306 75 16.5982 72.2927 16.5982 68.9647C16.5982 65.6367 19.6304 62.9293 23.3577 62.9293H60.6423C64.3694 62.9293 67.4018 65.6366 67.4018 68.9647C67.4018 72.2927 64.3694 75 60.6423 75ZM23.3577 67.1378C22.2293 67.1378 21.3116 67.9575 21.3116 68.965C21.3116 69.9725 22.2295 70.792 23.3577 70.792H60.6423C61.7707 70.792 62.6885 69.9724 62.6885 68.965C62.6885 67.9576 61.7705 67.1378 60.6423 67.1378H23.3577Z" fill="#FFC61B"/>
</svg>
