<svg width="84" height="74" viewBox="0 0 84 74" fill="none" xmlns="http://www.w3.org/2000/svg">
<path d="M50.1695 34.0802H33.8304C30.5818 34.0802 27.9389 31.7519 27.9389 28.8901C27.9389 26.0282 30.5818 23.7 33.8304 23.7H50.1695C53.4181 23.7 56.061 26.0282 56.061 28.8901C56.061 31.7519 53.4181 34.0802 50.1695 34.0802ZM33.8304 27.8519C33.1917 27.8519 32.6521 28.3273 32.6521 28.8899C32.6521 29.4526 33.1917 29.9279 33.8304 29.9279H50.1695C50.8082 29.9279 51.3478 29.4526 51.3478 28.8899C51.3478 28.3273 50.8082 27.8519 50.1695 27.8519H33.8304Z" fill="#B3404A"/>
<path d="M22.4259 70.8861C21.8763 70.8861 21.328 70.7173 20.8868 70.3822C20.0325 69.7334 19.8202 68.6425 20.3797 67.78C26.6597 58.0994 30.6677 45.9926 32.2926 31.7959C32.414 30.7355 33.4272 29.9281 34.6374 29.9281H49.3646C50.5746 29.9281 51.5881 30.7355 51.7094 31.7959C52.3422 37.3251 53.3541 42.613 54.7171 47.5128C55.0271 48.6264 54.2533 49.7504 52.9892 50.0234C51.7246 50.296 50.4492 49.6148 50.1393 48.5011C48.8788 43.97 47.9086 39.1277 47.2487 34.0803H36.7534C35.4152 44.3382 32.8365 53.541 29.0579 61.5696L42.1718 52.4764C43.1945 51.7675 44.6762 51.923 45.4812 52.824C46.2863 53.725 46.1098 55.0303 45.087 55.7395L23.8836 70.4414C23.4549 70.7385 22.9399 70.8861 22.4259 70.8861Z" fill="#B3404A"/>
<path d="M36.8668 25.7758H47.1358C52.2951 23.9751 55.9419 19.5444 55.9419 14.358C55.9419 7.57169 49.7055 2.07574 42.0002 2.07574C34.3015 2.07574 28.0585 7.57155 28.0585 14.358C28.058 19.5444 31.7087 23.9748 36.8668 25.7758Z" fill="#F4B2B0"/>
<path d="M47.1358 27.8519H36.8668C36.5694 27.8519 36.2749 27.8025 35.9984 27.7059C29.7432 25.5216 25.7014 20.2825 25.7014 14.358C25.7014 6.44104 33.0128 0 42 0C50.9872 0 58.2986 6.44104 58.2986 14.358C58.2986 20.2835 54.2578 25.5229 48.004 27.7059C47.7276 27.8025 47.4329 27.8519 47.1358 27.8519ZM37.3378 23.6998H46.6648C50.8833 22.0695 53.5853 18.4433 53.5853 14.3582C53.5853 8.73056 48.3883 4.15224 41.9998 4.15224C35.6114 4.15224 30.4144 8.73056 30.4144 14.3582C30.4146 18.4423 33.1177 22.0686 37.3378 23.6998Z" fill="#B3404A"/>
<path d="M60.6421 71.9241H23.3577C20.936 71.9241 18.9548 70.1786 18.9548 68.0453C18.9548 65.9119 20.9362 64.1665 23.3577 64.1665H60.6421C63.0638 64.1665 65.045 65.912 65.045 68.0453C65.0452 70.1786 63.0637 71.9241 60.6421 71.9241Z" fill="#F4B2B0"/>
<path d="M60.6423 74H23.3577C19.6306 74 16.5982 71.3288 16.5982 68.0452C16.5982 64.7616 19.6304 62.0902 23.3577 62.0902H60.6423C64.3694 62.0902 67.4018 64.7614 67.4018 68.0452C67.4018 71.3288 64.3694 74 60.6423 74ZM23.3577 66.2426C22.2293 66.2426 21.3116 67.0514 21.3116 68.0455C21.3116 69.0396 22.2295 69.8481 23.3577 69.8481H60.6423C61.7707 69.8481 62.6885 69.0394 62.6885 68.0455C62.6885 67.0515 61.7705 66.2426 60.6423 66.2426H23.3577Z" fill="#B3404A"/>
</svg>
