<svg width="58" height="87" viewBox="0 0 58 87" fill="none" xmlns="http://www.w3.org/2000/svg">
<path d="M38.142 40.0672H19.8577C16.2224 40.0672 13.2649 37.33 13.2649 33.9653C13.2649 30.6007 16.2224 27.8634 19.8577 27.8634H38.142C41.7774 27.8634 44.7349 30.6007 44.7349 33.9653C44.7349 37.33 41.7774 40.0672 38.142 40.0672ZM19.8577 32.7448C19.143 32.7448 18.5392 33.3037 18.5392 33.9652C18.5392 34.6267 19.143 35.1856 19.8577 35.1856H38.142C38.8568 35.1856 39.4606 34.6267 39.4606 33.9652C39.4606 33.3037 38.8568 32.7448 38.142 32.7448H19.8577Z" fill="#507C5C"/>
<path d="M7.0956 83.339C6.48056 83.339 5.86699 83.1406 5.37331 82.7467C4.41734 81.9839 4.17977 80.7013 4.80582 79.6872C11.8334 68.306 16.3186 54.0724 18.1369 37.3816C18.2728 36.1349 19.4067 35.1857 20.7609 35.1857H37.2413C38.5953 35.1857 39.7296 36.1349 39.8653 37.3816C40.5734 43.8822 41.7058 50.0991 43.2311 55.8596C43.5779 57.1689 42.7121 58.4903 41.2975 58.8113C39.8823 59.1318 38.4551 58.331 38.1083 57.0215C36.6977 51.6945 35.6119 46.0014 34.8735 40.0674H23.1288C21.6313 52.1273 18.7455 62.9469 14.5172 72.3859L29.1922 61.6952C30.3367 60.8618 31.9948 61.0446 32.8957 62.1039C33.7966 63.1632 33.599 64.6978 32.4545 65.5316L8.72683 82.8162C8.2471 83.1655 7.6708 83.339 7.0956 83.339Z" fill="#507C5C"/>
<path d="M23.2557 30.304H34.7472C40.5207 28.187 44.6016 22.9779 44.6016 16.8804C44.6016 8.90186 37.6228 2.44041 29.0002 2.44041C20.385 2.44041 13.3987 8.90169 13.3987 16.8804C13.3982 22.9779 17.4835 28.1866 23.2557 30.304Z" fill="#CFF09E"/>
<path d="M34.7472 32.7448H23.2557C22.9228 32.7448 22.5933 32.6867 22.2839 32.5732C15.2841 30.0051 10.761 23.8456 10.761 16.8804C10.761 7.57257 18.9429 0 29 0C39.0571 0 47.2389 7.57257 47.2389 16.8804C47.2389 23.8468 42.717 30.0067 35.7188 32.5732C35.4094 32.6867 35.0797 32.7448 34.7472 32.7448ZM23.7828 27.8633H34.2201C38.9408 25.9466 41.9644 21.6834 41.9644 16.8806C41.9644 10.2643 36.1487 4.88169 28.9998 4.88169C21.8508 4.88169 16.0351 10.2643 16.0351 16.8806C16.0353 21.6822 19.0602 25.9455 23.7828 27.8633Z" fill="#507C5C"/>
<path d="M49.8614 84.5594H8.13841C5.42838 84.5594 3.2113 82.5073 3.2113 79.9992C3.2113 77.491 5.42857 75.439 8.13841 75.439H49.8614C52.5714 75.439 54.7885 77.4912 54.7885 79.9992C54.7887 82.5073 52.5712 84.5594 49.8614 84.5594Z" fill="#CFF09E"/>
<path d="M49.8616 87H8.13844C3.96755 87 0.574188 83.8595 0.574188 79.9991C0.574188 76.1386 3.96737 72.9979 8.13844 72.9979H49.8616C54.0325 72.9979 57.4258 76.1384 57.4258 79.9991C57.4258 83.8595 54.0325 87 49.8616 87ZM8.13844 77.8798C6.87568 77.8798 5.84865 78.8307 5.84865 79.9994C5.84865 81.1681 6.87586 82.1187 8.13844 82.1187H49.8616C51.1243 82.1187 52.1514 81.1679 52.1514 79.9994C52.1514 78.8308 51.1242 77.8798 49.8616 77.8798H8.13844Z" fill="#507C5C"/>
</svg>
